<mxfile host="65bd71144e">
    <diagram id="B-kudMNk22MW6KcM1U_J" name="Page-1">
        <mxGraphModel dx="1216" dy="765" grid="1" gridSize="8" guides="1" tooltips="1" connect="1" arrows="1" fold="1" page="1" pageScale="1" pageWidth="850" pageHeight="1100" math="0" shadow="0">
            <root>
                <mxCell id="0"/>
                <mxCell id="1" parent="0"/>
                <mxCell id="2" value="" style="shape=image;imageAspect=0;aspect=fixed;verticalLabelPosition=bottom;verticalAlign=top;image=data:image/png,iVBORw0KGgoAAAANSUhEUgAABo4AAAOHCAYAAAAZr7EeAAAAAXNSR0IArs4c6QAAAARnQU1BAACxjwv8YQUAAAAJcEhZcwAADsMAAA7DAcdvqGQAAP+lSURBVHhe7N0HYBTV2gbgd2t6hxRaQgktFAEVBARFLIB6BVSs6K/YEDuCXsTrVVFBsSI2rIgaFbBFrgooKEiNAiK9hJYC6W13s+WfMzOb7G52k00Bk/A+umT2TN05078552iGDh3qABEREREREREREREREZ32NCMvvoiBIyIiIiIiIiIiIiIiIoIGj/zFwBERERERERERERERERFBq/4lIiIiIiIiIiIiIiKi0xwDR0RERERERERERERERCRj4IiIiIiIiIiIiIiIiIhkDBwRERERERERERERERGRjIEjIiIiIiIiIiIiIiIikmnwyF8OtZuIiIiIoF4aOXiJRERE5DeNxtmh/iUiIiKi5oqBIyIiIqJK0mWR3Sb9sSt/iYiIyD9aHaDRKn8ZPCIiIiJq1hg4IiIiIpJJl0S2CvSP02PGBXEY2TUCQQbW6ktERFSb8go7lu8uxKwV2UjPtgI6g5TK4BERERFRYwk1atEnIRCXdA3FKOkjuoWtmSYs212C/0kf0V1iscvpDcXAEREREZEcNLKif5wGP9/VnQEjIiKiehABpPPf2In0bOm8qtNLKQweEREREdWXqAn4nA7B+Pm2JKTtLMbyvaXYfLQc+/IsyCtTakmJDtahc7QRA9oGYWSXEIzpHobz3zmI3w+VNagGfgaOiIiIiGAHKixYfH1bXNYrRk0jIiKiuvr2r1yMX3QUMBilb3wRg4iIiKg+esYG4PfJnTBn1Qm8tSEPJ0r9q06/VYgOd5wdjYeHxWDwGwfwd45Z7VM3DBwREREROaQLMEsZCp8+A0EG0TYDERER1Ud5hQ0Rj/0JGIMBDc+pRERERHUhShn9d2Qs2obrMf1/2X4HjDyJANLsS+JwtMiK/yzPqXPpI77+Q0RERCSuoOx2Bo2IiIgaSD6XSufUBtWNQkRERHQa0mk12Hh3J2QVW3Hr4mP1DhoJYlwxDTEtMU0x7bpg4IiIiIiIiIiIiIiIiOgfIkoarZ/cEXN/zcX8dXlqasOJaYlpimmLefiLgSMiIiIiGd+MJiIiahw8pxIRERHVhaie7r1NBfh0S6Ga0njENMW0xTz8xcARERERERERERERERHRP6BnbIDcplFjljTyJKYt5iHm5Y8GBI5C8MJd3eF4NgX5d8VjhJpa93QiIiIiIiIiIiIiImrK+g2IxeK7uyF/anuMllNCsXhqd2Te3R5PDwiUU5q0mAi8cFsy8melyHEKx6zu2H9bPK6LUfv/A0T1cWvv6ojp/8tWU04eMY/fJ3fyq8q6BgSOIjC6g9KAdGSHUFwndwl1TSciIiI6fZgr7Ph4fTaGPp+OhGlrkPjv33H129uxKaOI7YgTERERERGdtgIxenAsFt3WGfunJWPFZaFqetNw68RuSL8iAgmZ+fjeHoJ5V4di9NUJGGEvwbuZelx3RWdkToxSh26CYmKw4q52uDWkHC98vA+aR7ej/8e5+D0kEovuSsJD/1Dw6JwOwXh+dS5OlNrUlJNHzGPOqhPyPGvTgMBRIb4/pPyYgkMl+ETuEuqa/k9rg79FdPE/0sahpjRP0ob/mIiSJmNRsppERERETUp2kQUTFmzHmn0F+HRSCo7NHoK9Tw3CgyPbYebXBzDnx0OosDF6REREREREdDro16M15l2XhL8f6Y7yWZ2RNioa52it+P2IHf0Hx2OBOlxT8G6uFabcUgxekoPrl5UAfROR1hf4ftkRPLbkAFbmOpCZm68O3fTMuDIOg8vycf3LRzBrh0lO+2PHcfn7u2XBePrK1nLaqfbzbUl4a8PJq6LOk5iXmGdtNHjkr5b9dEIUP7usNW7tHIBIvZpmd+DA9qPo9IloaEoEjqLQw1SKqf89iLnKEKdQDFb8Jx4jXEvySctXIO2E767IxNQtFjWxNjFI+3c8RgeZ8e5HezFpj5pMREREtbNbAXMJLM+frSY0PlHS6J7U3Tg7KRy3DmlTrWh4scmKyZ/sxpjerXDNWf43WElERNTUGB/eAASEAlrnTTgREREJHTuF47qUKIxJDkSPGD0iYUNWrhnpe0rw7vZCLNnvfBYsnlkHY+2jezFJTflnhODpK6MReUJatuIILLpcj3f/cwCPqX2rxGLtf6OQ+c0RLAoLx/WtbHj9yxysVPv+88TyRaP8p5244Dc1ydXQJORfqMHrXn/byRNq1OKjq9ti3MeH1ZRTY8kN7THx86MosdjVlOoaUOKoOQjFgpva4qFuAYi0W7Ej26x8Cu0IMja1C1gHspzLVwpEtg7FQ1e2xwt+F5HLxZhntkMzs65BowgsuKsb8p/q0qQi2ERERC3NxowicbrHjQPjvdYnHBaox38u7YivthzHiZIKNbV+vvvuO9xxxx2VH/H9VBLze+edd9RvdVdQUID//ve/OHDggJriTqQ/8sgjPvvXhZjXo48+ij/++ENNISIiIiIiaiQxIbj14jZIuyMZ+U+lYP+t7TA1xYDyrCKlurQZO5Hw4gGM+fa4S9CoCRnQCrf2DsaI/glYfEUY8rfn4V21l7sCzNtuw+gr2uP1/iEY3DsKDw1QezUJDmTml2Klt6CR8JsFmUYd4tWvp0qfhEAs31uqfjt1xDzFvGvSsgNH/WIwprUGKC7BpP/sQs+X9yqfOdIO+UGuOlBTYUGac/me2YtZhxyAPhDjLg5R+58senSM1VeVxiIiIqKTYsOBIlzQIxoBBt+XX+2jA9A61ICMPKXYfH2IgE1mZibeeust+fPyyy8jKChI7ds0iQCQCBSJII4/OnbsiOeee07+21CRkZF49tln0a9fP/l7XZeFiIiIiIjIuyik3ZGEBWeFIMFejteXZaD/jL8R9dxeXPBJZmV1aU3ZjDODUL7jCHq+uAtRM/9Gz88LcQCheOG2ZOTPEs2mdMf+2+IxGhZ88vleBM0UgbC9uH6HHYPP/GeqfvPuOMa/fBiz1G/VDDUiwWJDlvr1VLmkayg2Hy1Xv/m2fFISHKK5HfVjfronnrxQqalkwfg2bv3EsLUR8xTzrkkDAkcheOGu7vLC5N8VjxFqat3TT6ISO+TVHqBFRz9K7iSMSsL+/6or+b/JSBtmVPsAI4a1R/ojyvLLn6e64++ro1H5uOLKLspvuzsR6aKtIan77yuVXv0Gt8Pfj/WsHDd/WhJe6KH0886Cx44rEeaoECXy17FvPNIeFHVdqvOXdsrMu9vh7srfJaq8E/2qSg49dJuyvGI5F91ftez5dydIO7NEFMF71llNXgBulfuz5BEREdHJkFlUgdZhBvWbdwF6LQINOhSWW9WUuikvL5cDHmeeeaaaAjlodMEFF6jfiIiIiIiI6NQIQscwM959eg/6v3MEj60tQfOq5yAa/SO0SOjQCjPaqUmSh25ph1uNxbj7xe3QvJiJJfpILLqt6uG7eI49o4MBgRGBuFtNa9pCsWhQMEz7Ck5pNXXCqK6h2JfnX0mzFftKoXlUWufSJ+Cxv/H4Tzly0Ojq3hFytXMi/YIFB1FWQ/VzTmKeYt41aUDgKAKjO+jkrsgOobhO7hLqmn4S7cnGkiMOwBiMGfd3Q/rVMRjhK4AkDXP3oAAUHCjCylyb9N2I0Re0xQy1d79uwehoN+P7PwrxybYyZEGHHv3iscgjAhbZLgSBu4+gk5RRPb+UdpRhSVh5WQR66CzKuLvMIhqEh8Yn4SF1HG9GGJU6bExmK9CjDdKujMHo1loUHCvBJ39IB5lSLeLbReCFm9ooQaAadOwtor7l0rxNyJImF9kuGvOuCQGyi7FImtYOedu04nexfH8U4Xd5LCIiImpMCeEGHC+uuQo6s9UOU4UNEUH1KwosgkSiBM2mTZvUlOpElWzOKuzuv/9+t+reXPu5VnEnAlLPP/88vvzyS3kc0S3SBFHCyTm8qPLNtaSOaz9f1eWJeYrSQ8eOHcP06dPdqrjbv3+/PD/PaYu/rlXZib/O4cTHV7VzrlX4Oafn/G1iHF/L4hzGOa7rMhIREREREbVMeRg/Zy+mHjTgsbu6YJ6cFovxiTZ8/1kWPhEVeuUWYurnJchvF46n5f4JSLs6GgkHszB4zmG8Lqc1YTERWPRgB4yzF+DWj/LVxFNHVBeXV2ZTv9XP4cIKLPxDuVdeua8Ul390SO6uiZjnSayqrhDfH1J+VMGhEnwidwl1TT+ZLJj6+n5M+cOMAq0e/frFY8WD3ZH+r4iqkkJOWhtWfrML/T84jAteOI6VoqSgMQAjBiu9lyw5gKg5BzDm8yO4/pMDuF6OtmjQsV2EMoBTfjGmyEX2hBA8fXYIIu0mvD5vrzLuB3vxuqiGLiQY4y+UB/JglEs3LeghSjtZkb69EDOGRaKHHjiw7RASXs/A9Z9noP8zmfi+GAhsHY6Hhipj+nTsBPq/LI33wT4M3mKWkzrGhgF7cqVlLUGmHIS04W+xfJ/n+KinkoiIiBri7I7hSNt2AmUW3xeFh/PMOF5SgcTomi/ganLDDTfIARFvARTx/fPPP8fs2bPlauxuuukmORjkDAKJQI2z35133ok1a9a4BYJEgEZU6/bwww/LQSpnAMVZLd5ll10mfxdE8EqUfHJOa/ny5W5BKidRRZxor6hNmzbyvG+77TY53WQyIT09XZ6fqG4vOjoaX3zxhdzPlVh28RvEbxHzEtOIiopS+1YR8968eXPl7xPrx5O3ZRHTnzdvHnr06CGPJ5ZFrBNfwSkiIiIiIqKWoyW3dBOKBTe1xTgU4dYPj+F7NbU5WbW/DO0jDH5VT1dXDcj5Ukx9Y6dcBCrqjSysVFPrnn6ymfD653uleR7DrO1mFECHfoPaIu1Kj6JYJjNWbla7kYsDxWqncw21i8TiO7pg/2M9Uf5UClb0VqqxCwxwfyO4IL/M5bdFiGaWpGkE4u6pahVz0mdGB1GaSINIt5iTs6q4ZKwYFY6Oegd2bD6KMZujMUK00wQLfv+hRBlUlo+Vx8WDJx0Samm168DxHDWQJXVnWaV1ING35J2eiIio6TkrMRyBBi0+2ZANh0NNdFFssuK/3x3AFX1bo1VozVXa1UQEdERgRwQ+RJDItaSOCOYMGTJELpUkdO/eHYGBgcjKUmpyHj9+fGU/0X6Q6JefX/XW1ciRIyvbSxKBGFEy56qrrpK/C4MHD64cXwSNnO0Gifm0bdvWLQhVGzHvK6+8Up6f+Ih5i/GdQS5PR48elf+K+Scleb9oFuM6f48YxrmsNRHrpqysDEOHKm/qOJelplJdRERERERE0h0IDhQH4Pp/d8GKca0x2qW6t+YhGoundcILSRV4+o29mCKn5WBxhg6jr0/AdeK5d0wEXrg6BEEZRWo1b5no+cZxHEiKx9pp7Zt0VXW3TmyL67VFGP/iEaX01D9ga6YJ0cFKLW21uaBzSGV84cijXTFC+i5KGl2x8BC6tzbK6f4GkMQ8xbxrcvpED47k47GP9yLq4yIcgAY9UlrVWFWcm2RRVVxrjGunQ8GRIizZkIPrt/lX96DMVIa5cmke98/UdWp/mQNZ2WbsOFKKJX/kYeo7e9HzS9dAERERETVnJqtdrmv4mWUZmPzpLhzON8sBpAqbA7/tLcDl87ehV9tQjO/fOA2IiqCIKK0jAkWiZJAIuojPt99+W1nlmqje7a+//qoM6LhW+SaqanMNGnkS4wQHByMgIEBN+WeIQM6UKVOwY8cOebl9VSMnAmGi/yuvvCL/9bfEkPidzqrrxHji8+abb8rpvoJYRERERERE4sX/MW8dxGPbKhDVtTXS7k5B/iPNKYiUh/RCOzIPncCsI2qSZO57R/BueShefzAFjgcTMM5aiFvfc4m8HDmOuYcqYCo0NeGq6mJxa2cN1q478o+WNFq2uwSdo5UCKrVxbeOo3bO75WrpBPFXfBftG4kA0vYHusjpNRHzFPOuScsOHA1tj7U3REN511WVY0WBqJpNq0H1Skx86BssVxVXIO0k/T84guu/PY6EEH8igaVKyaXAAPQLK8cnf4g2hKo+37vscKJEUdrLe9Hz9YMY/3km5u53Bqby8EeR+GvEORe4lpIKxeAYsQxWeKn1hYiIiJqQwnIr7v50N4YlR2L7f87GkM6RuHbBdrSZvgZdZq7DqyuP4vnxnTHtog4w6JR2DhtLSkqKXGJGEMEkUW2cqHLN9SNKBomg0UcffYQnnnhCTvNV5ZuTmJaYrtmsVIP7TxLBI1HKSiy3UFPwSFQ15yyN5U/wSPzOXr16yeO5rjNndX1EREREREQ+5ZZi7rcZ6P9cAXbAgvTtIogUg7S7mkcQadamcgT1aIe/p3VH+aye+Ptq0QRMCaa+swdRM7ZDM2MnOr2The9hxHVXd5GHyZ/WBYt6aLF203F1Kk2RHpFGKw78pn79h/xvdwkGtG2c+0oRQHr0fzmICNTixn41164h5inmXZMGBI5C8MJd3eUiUPl3xWOEmlr39JNJhx4pCUj/bzf8fX8X6ZOM/Aej0U/61aLkkN9t+ZQr9clEdojGiqvbYfEdyXisgz+rrhBzd5phkpZjxMWd8Pdt7bFIGj9NGj//3jbqMLWbuqYIWXagY78OyLw7UZpGItL/3QHjIgDTkUJMqaxirz5MKJBflg3A+PsTsfjuJCyQ04mIiKgxuAaNJg1NQJBRhxsGxuG3h/sjc84QZDxzDj6/PQVnJoZD08CYkbO9H9eSMNu3b68sGSSqjxMBE2cJI1eeJYhEIKmmEkfx8fHy8K7tDq1du9brtE8mMb/Fixer34CEhAS1y50IEjkDReI3ijaT/CF+p2hvacWKFWoKERERERFRXdlhsmthOiaCSDuheSMDL2yvQMe+sU27JNLmE3h3WxlWbjiGMUuKEZUSjVvVXu7CcGsPHb5fkoFbN5Ri7bZ8zG3QM+vTg6gubmSXEPVb3X0zsQOevDBW/QYM7xSM8IDaC7yIeZ7EquoiMLqDshCRHUJxndwl1DX9JNpRhO+PWFGg1aNHXID0MSLQYsUff2RixDu5le3+1CotG3MPWmHSGjGin/Q7Iix42s+q6lYuOYRb15Uhy6JDj07huE6M306HzJw6vJ27+TAGf1uIPwrtiG8nrbt+oegXZMeOXbkY/3qW/7/Dq1JMXVeCA9LPiYwLxbhYjdIGEhERETWYZ9BI29DIUC1ECRgR7HFWNyc+ogo3UZWb6CdKFomq61yrXXv++eflQJNoh0hwjrt8+fIaSxw5q4gTgRvntNasWVOvqutESaA2bdrIy+WrtJAvYn779++vXAbxe2+44Qa1bxVRcujDDz+UhxG/sUePHpVtMLnyXBbxO2+77Tb5tznnIT7+VnVHREREREQEZGHRPg1Gj+qIF/oa5YIKpggjErRmvPuZEkRyK4l0cxAS7I4m8Jy2FI99eRhTfinCyngjIvPNSltGPdph/yylvf7FPURCLg4U6tAxvhRLfsnE+C9zsFIkN1nH0PPRvZikfvunlFjsGNM9DK38qN3MtY0j8Vkwvg2+2FaE+4fEVKZd3TsCd3+dKbd95IuYl5inmHdNNHjkLy/NM/tDlCBqj4c66FBwKBfj38hSN4a6phMRERH9w+xWwFwCy/NnqwkNd6qDRkRERE2F8eENQEAooNWrKURERCSaHnnhtgTcmmREpBYwlZqxZPkhXL/OpYBCu1DM6BeDMZ21yNx6HONXNp028G+9oRsWdLPj9z8KcSApGuccOYIpSMDiDuWYu9+A6/oFI2jXMSR87LvmCqpucGIwzu8Uglk/n5qq/Wac3xo/7y/F2gylSntfGhA4IiIiImohGjlwxKARERGdzhg4IiIiaplE1XovDI3CiKAyXP/CYXyPUCye2g6Dy0vx7rrjeGxzzdWfNR1t8PezwVjbBEodiccFBf/pgc7P78aJUpuaenKI0kZ7pyYj6smdcNQSFWLgiIiIiKiRA0dPfHsAbSIDGDQiIqLTEgNHRERERP7rGRuAh86Nwa2Lj6kpJ8e749tg7q+5+NuPZnQa0MYREREREXnzxGUdcfu5bRg0IiIiIiIiIqIaiUDO0SIrJg+KVlMan5i2mIc/QSOBgSMiIiIiIiIiIiIiIqJ/yH+W5+CWMyNxbd8INaXxiGmKaYt5+IuBIyIiIiIiIiIiIiIion+IaHNo4PwDcpV1jVnySExLTFNMu7Z2jVwxcEREREQk06C84uQ2RElERNTSKedSVtVKREREVFc2uwNnvb4f8WF6uT2iViE6tU/diXHFNMS0xDTFtOuCgSMiIiIi0RaRRovlO/PUBCIiIqoP+VwqnVPlcysRERER1YkoFfT4TzmY+2su9k5NxozzW9cpgCSGFePse7irPA0xrbqUNHLS4JG/6jEaERERUUtiByrM6N/Khp/v6YsgY/3f6iEiIjpdlVtsOP+1LUg/IZ1HDQFSCt9VJSIiIqov8R7OOR2C8fNtSUjbWYzle0ux+Wg59uVZkFem1JgSHaxD52gjBrQNwsguIRjTPQznv3MQvx8qq1fAyImBIyIiIiJIl0N26aLLUor+sRrMuKg9RnZvxQASERGRH0TAaPnOE5j142Gk50jnVGMIoBXnUJY6IiIiImoMoUYt+iQE4pKuoRglfUS3sDXThGW7S/A/6SO6Syx2Ob2hGDgiIiIiEhzSxZXdClSYAKtF6q5Q0oiIiKhmomo6rQHQGwFDoNStV9KIiIiIqFli4IiIiIjISQSK5I8NsIli37xMIiIiqp0G0OmkP+Ij2jdi0IiIiIioOWPgiIiIiMiNemnUkMqAiYiITjeiEn6lQ/1LRERERM0VA0dEREREREREREREREQkY/lxIiIiIiIiIiIiIiIikjFwRERERERERERERERERDIGjoiIiIiIiIiIiIiIiEjGwBERERERERERERERERHJNMVFhQ61u1mxmE1qFxERERERERERERERETUGljgiIiIiIiIiIiIiIiIiGQNHREREREREREREREREJGPgiIiIiIiIiIiIiIiIiGQMHBEREREREREREREREZGMgSMiIiIiIiIiIiIiIiKSMXBEREREREREREREREREMgaOiIiIiIiIiIiIiIiISKYpLip0qN3NisVsUrv+edGtYtUuwOGowPE9r+G9D36B3VG3uJxW48DNN5+P+OQpUs7o1VQg70SO2kVERERERERERERERHTyMHDUCJyBIxE0qjj2H9z57xP4cmU3OKCR0/1hMGil8e24ZNA+vD8nGoHt/lMZPGLgiIiIiIiIiIiIiIiITgVWVdeIHGWb8Pp7O/HFyu5+B420Ug50S9bglvHZuGlCOL77rTPmzN8DuzQtIiIiIiIiIiIiIiKiU4mBo0akDeqNiwYWQKOxqym1S+4EzL71c4w+40fkFdjlca8amSNPi4iIiIiIiIiIiIiI6FRi4KgxaUPR/cybcW7fDDXBN41GBI3suG/8zzBXWLE/tze++aEUw87IQNd+t0rTClGHJCIiIiIiIiIiIiIiOjUYOGpk2oh/4cxux9RvrhyApqo5qXZt7Vj46IcoKy3Dis1JMJWZYLM65HG1EZeqQxEREREREREREREREZ06DBw1Mo0uAnGxoVJXVZBIiI8LRJ9eYXJJo84dLXji5p+w+1AowoItuHXUFqz6q480lEMaN1yeBhERERERERERERER0ammKS4qdI9wNBMWs0nt+udFt4pVuxSL3pqMu57uDAc0agoQGWHA6ItbYePmPDx365f47vc4GA126DQO3DByG26aex/27i3DG4/tx/V3vK6Opcg7kaN2+Zb926uYs9SliryQWCQNvhzXXdgDMTo1ra7K9+Lzt75B2QW34ebeYUrS4TVY9Mk32JFjRdzYGbhJuwRvbOmCm28/D0n1mk8Ovn1hNn7J1KP37bNxczc1WfAy/1rtWoKH3l6jfnEagpvnjkNLbTVq2+KH8MFa9YvMy+/NX4M5Ty9B7O1z3ddxpTwsf3UWlrlsQiJ/pw2NVr8J6jBt78Lc8V3UNJU6/Wz1qyxxHKbdOwRx6ldP1ZZ7sJfptgh78cFD36PdY/diZJSa5MFz/62+7htOXt9oqeu4kXk5jvT23HcaZZ9S8+Wol32ljvtUY25Dlfumc5+sXJZEjKphO24RvJ5DPH+32KffAHzmPbUY1fbDZr4PiO37rz7+ncMl1Y57p4Ry7DxyMfevJsXLNlKn60SVX9d+8nH4iJd9rfp51ec+KS9vNkad0ut/9+s9+bycPbpe113yuOkDaryOJj815Dguxl0I3OSRD27bceU2rGyf6f099gt5/pvR32OeYhrL4tyHrbZ/SHweh/26Xqmf2rbdhmzbjaUpLAMREdHpgCWOToIKi1XtUtoyOm94Wwwa1AaX9P8dMa0j8eyXV+KOMVsxot9BxISX4WheCAoLK+ThrdaqcesuGr2vmoTrb5mEywYYcOSnBXjJ/e6qbkzZOJqZjfxiZdmADHz7zhLssPTB1dOfxj3nhCMv+wiKT+ShvL6LnbkVmzO7IKmbFdvSt8FtMtXm77+kS5T1oHwGIklNb6nEzfvcuXPlz7SxR6Qb1yXYpvYTtq1cgtjBQ7Dtr71qigtxQ/OQcqPjnMbcuTPQP3uH+0OkXb9gWdsh6L12q9u0q4iAlXN86ePzZlfcWEs3RiKI4TL8zfA13ZZN3CTKNz6V60Ja99LNZ8OIdfwqluerXyW9x0vT5s2V/0SQxpknj41DztvSNrtL7SdplH1KGm7ZUWmfwmZsc8mrKv7tUzVuQ/KyuB8ParRriRLIEtNxPghZqATI5s5t+MOIZsE178Xn9nZY9rS0jn9z7pdd5Hw5KQ+165pf9SAetjy02Mt2S27k9SQ/7HPZFh4bgCPbG3p8Fqofo08+aV/+YQ169/J1HvA43qjHvbpsK/KxqHI/aSFOwT7ZfLhuI3chduks9/yu8TrR32s/sZ0eQe/BQLqPfU08SK+axsk9L52q46XnvhM39N4arqPJXw05jos8echLQF2ku27HN+MNNe+k+/D+icjOdp929vbN0jQyPLbnPGQfBWJbO4NG3vePubcPQc7xGpa11usVIiIiooY5KYGj8vJyvP/eu3j//ffk7tOLHUWFBXJFdSJo1LV7BCJCirFh4xF8+2sbhOl3Q68pldJMyC82orA0ABHBFSgtVSq3E+OKadRPGNp164H+KT1w3r/uxbh+Ul5s2CpditZT1BA8MHs2HhjsvKitQJm0nOg5EANjgxCk06PH2Ccwd+Y49AhQhqirHRt+QXH3gbh6YH9g01ZsNqs9hGrz919YB2U9KJ+20po5fcQNvQGjEo8gu/KB1F5sXjsEA8b3kW7mv/d4UCXdqEg3ReKhsPtbo9EYOd7j7bq/xAOncRgweA2W1fuGRLyN9wZyRKDLI4jRe3zLLRXmm3Lj6P4gT1r3QxngaVKkY9FNYxNdbt4bZ58SDxPQ/zyMkg5/y1bW90jduNtQ9vEjQNs4l+XMw5GMRLRzL1h7euk2Tn6IjqW/8OHx6WLXEsxZ2g43ez6Ulo4FN7vt181I/g6kYxxG+RvwlH7rtLl3eTnGEQmitoEhbg/JfV8n1uHaT95OB2DUiAE85lLDNOA4XhkckrZxd+L6L1HaPqu2494jqq4P4lq3A9wCp3nYlp6BuESPgJLYzjOk60j1eLxtsff9Q1x/uF9L1oLXK0RERNTIdP9+9NEn1O5GUVxcjFdeeRl5ubkoLCjApo2b0L9/fxiNRnWIxmGzNaRkTuMKCg6BAza5YjqH5Qi+++YHrP+7PXr2iEbnpEic1fMENHojwoPLMWnkD/jyt8EY2G0H9h+NQKCxAoeOt8KarZ1QYXWgT6fDOO/8wdDowqRp2qVpalEuR2tqVnpoPdbsBJKHDUSnIJGiRc7fP2Lb8SScdX5nFG36Au+/vRBffvs//LjyV2yxdUb/LpEwyGMDudu/xVvz31P6r/oTlq5D0c2+BnMeewVrQs7CkLB0qXsh9ouBD2/Cjz/ugu7sgSj9/iHMebcUbS7uoTxotOUh/dsP8PpHnyHt+x+x8k8dkod2QqTo58mWgZ8/XQPDeRMwQrpw3v3zjzgaOwwD26hLJd7ydM6/Q5D81th/XlmP0ug8fPv6m1hS0BkX9/S4mM7dgR83H0bcgItxRis1zUXuzmV494MP8fniNHk9bM4OQPvkDoiUZyne9pqFhfkBCE1fhFc++lP+jZ2Mvn9T7k5pvc1T1tvK3/ejOLEXekQpy39k4yLMe2sRvvpOWqdrpHXaRVqnJ6H5qpwdP2Jv6DB5HSmOYvXnexDu3BZ2/YKFAX1wY88u0JV8jl/LlPUpE/1OnIWbx3SAaJnLt71Y9m4ABlzXA711pVjyWznOGOgyjukw1qwuRbJzO/AlP11aV9EYdVv/modz5sWPP0rbmvi4bGPyA4jHsDqyM/58Vh2mRGwLkNNf/1wMr2yfyr5Q1+ElovqHZxeo8/4RW9RtUJC3w40xaLNjlrTtV+/vnJ8yXdGvA0J2Zlblh5sglB6Rhsvxsi07uS2Lx3JK5LdU1eWQ19PZefhQ3lcLsXe1lLYrVM6rUnW5K+fj8RuVdeJcBrH+P8aJJCu+fPYVLHFOu7b8bSnEcWRfKIa4bOMHNn5etZ81yj6Vh3VfbUXCyPPQJ9aKLYv2I9x1/fq7T9W0DYk8fulHlOIw/nTNYx/bt9iWXv+pUD3G/4jMmFD8OLf6tlTz72rmvOS9LCgU5bsWYVekOLc4jynqeUasz0/yoDvyCl6X9sXMJCVdOWd9rq5nz/3H/Tghr9vITfiPt/zyHNbb8a1CyqtXpH3VmUf+5rG6rJ7HXLdjmnouVo4DruO0XNtWLUDmmRMxzrkOfPCZx+o20abiK8xx9nfmp7w+ve9XtU3PfRurIc+8yN78FbYkXICLvQ3j83gTXe0Y530Zle3wy7+k69Gdv0rpzm3Uc9v12A88ti3lNwD71/+Koi4u5+yGntM99yGX812N53Sx3r3skzXv2y2Ul20ke+dPWFOarK7LGq4T/b72c9lOu7V2OeaqPVGubht+HIM8lrfGfHb298jTHB/HS/dhXY+JedJ2UnX9Ld+bVa4fX+P52HcOKft81TnXc1+qZZ/w2AdOx23W3+O4N3E9L1byrdo1gXsey4Is2PPjZmV9tzMg09kt9xf3ZAEYdk8yMl2u88R2/mP0UOk6UjknfLjIv/3DjV/XKyLB457K9VrOx/ndue362l+c/c/I+7hqu3I5rso8rkPc+3tuz67bpHoPEnIUr78ije8cz216pQjvUYS9LvsXERERnRyNWuKosLAAc194HtYKKx548EH5U1FRIaW9IPdrqRz2UthL18Fa/BNspb9g71HltabMrGJs2JSNTRu3oTD/OA4czEWHeBOMmhJ8kX4f+nXNRYDBgZSko3A2hyTGtZWskqb1o/R3rTzt+ijOWI5Vf0jXjgP6oAuKcPBAMAbfPh1PPDkdV5+hR/ZP85GqVruUvfZVPPPebyjvOx53TZ+Be67qCb1nXC58IO558nr0EN1nXi9N5zacFy73cSFdBL4xG4vWlqPH2HvxwGMPYlz3IOk2zzvr379hfWkX9O4mXYSG9ED/7sDB9G0oVvt7l4E164Nw3VNza6x2a5uoXuUh9fPqGrmagXLpgvOld35BcefLld95TX9pwCV47V2lf6WNv2DP2Q9Cqf7C929SpvcbMGQy/i2t13HdsrHmzUVYI35Axrd487N06AeLfjNw10VxqCiTp37SZf/2PbYlDkBv9e065Q1QZV317jUE2elV1WVVL13gw66t2Da4j/JWaDfpb4avqrVqkZON7MQ41Fx4QdwwqG/eqVUvyNXvqfnotO3trRgg9xdvRL8h5fXHwI3K8DcPzqhWgqMuw2+TbuArq2MRb9R6vrknjb+5l2v/j9U3ssWNkHsVZaOya67ipvf4GRh1VCyPe1VoMnGT9LbrsrTDsoVV68GzuoxpY6WcdL4lLtdzLqV7q+pEnq5oP0Cd7lxlGdyrtpDWyQ/ATc7+iWvwQT2qazm4cQ121FbwtDwDyzdKx8GmSrqxXrY2Ef1TlJvTRtmn1Leq5f00Sjr+Set3s2f++8nnNqS+eRrnrF5IPWb62r5FdYbTxiYq9fVL/W4+049tqQYtIu8rRSOurXQI81VlTMYSHFGPCaIKO/GQTm6fQl3P8jGscv+pfpy4WTodec8vZVi5zRB1WKUqGo/qSNPVfVXNI7/zWH7bWTnmijablHmIKqhcjmmVVRUq/QaI5Lo4tgHLD9S6IWDHbxtw0KZ+/Ud5ViHkXc15LJG2iWW4QVlvIl+l84a8f/o4RvszPddtrPINdXl46RjQWh3Oq71YthSVx7C6iI2relPe9zJGY+S90nINdladq77hLx3njlRu58p5pLIkinhg6VaF1F0Qu4FT1TlbTFc6H7mc+wT/z+me+5tyvHQ7Vvo6p3vbJ8VDXrkUg3P4Pso06qLZ7RPeiG0qo/JcWON1ol/XfoIoneHcTpVqv7xWB1tfvvLZR556P15Ky5jtug9Iy/iDx32EV77G87HvuPHzPOBrnzktt1n/juN11wUDPO4Z5PsutdvZv7JaOud+IV/nVdUGkZOdgbg4ddn83j/85XG9Ii2D6/m9tzg3yce/Ws7vPu91VFL/D53nOM/7iNruM2o6N8ikdZzdR+kvjrue90OPxSHdtW1nIiIiOmkaLXCUm5uLF194AYGBAXho6lRERETKH9FtNOrlfmKYFsl6AnbTTjgcdthPfIxft3aQk0cMKsf/jTuO9D3dAWMijJFnYEfOAAQa7Vj1eyle/Gwg+nbJglFfdYX9mzSuPfcjqUsDh3mnPG3/SRdZTyvBkideXYaszpdh0kXSDY90AXneVZdhYJtohIXEYuAlF0o3wVb1gjIDq/4nXXj1noAHxp6NLrHRSOp3GUZ1lCdYRadHUEg49KLbGC5NJwh6ndynSsYa/HLAii7X3IXrz0pEu6i2GPivIUqwqRortv4lXcgm9kEPuR65IPQ5Q1wYrsN614vSaoIw8LLz0M5z3h7c2jga3QMxKMaan9agPGEUJlb+znG450ppngd+wYZMdUSh++UY3119jcznb1Kn1208Jl2YiBixXi+/HEnWHdiwzSP0FRCNLkNvxjj13vpkyF46S8538XFrTFd+4F1VFUL9gj7SjYVbuwgeN0WV1kDUz125HG43AHUgbrISx+Eml6oZ4oaOrrbcvW93Vm8ilkf6M3h05c22eJiPo9KNmPJVVpfh3apOEesMrlX/SQbfVdW+SbfzpBueDBzJkbrVqidGuSx77/HiAWFNlIcG4oYNcsCz6kGACFDEjT3PZVmkeTnbw1Hz9maXAGrcUNFeTu2U6d7g8nBCWoaLpZtClwCI3MDujc5AgdLfc536I65VHpbOlX6Tr+cN5XvxwdzFyGvV2Df3DSTdWM9xbs+ujRo3yj4l5cHKJUB/59uVvh6Q+btP+d6GvKl1+24kzTbv60M6ZlVVAaZUTdNb2meU/FWPYc7qa0Q7IHA/xvWW9l3nsG7UY4rrfq4cc9wDja7zEuqUx+oxt2r5u2DUWPf2RaoCZuJlD7XTX1FxyFvyIj7Y5XNDwLbFL2JpQRziajm3Nx215LHgeh6Lks4L0nnHZ+DRz+l5VjNXVfWRdAzpVsN+JD+8rDrn1Y8fy+jJrUoo5TjnXGb5GOh2HuqCka77ROU5W+oeMQ5xGdkQp1knv8/p1c7LyvnM7Xjr65zuk8v+1E3aJ9ROvzXbfcL1nKQEm53BFP+uE2shHxurXnyKSxmAOC/bl7eXw/xSYz77m6fS9uNS7ay8jB7bpnf1HU/i73mgxn3mdN1mG5/ryzri86HYZtV+gusLRfL1thwgEsEc5z6hVHdXUyBfvBhWuY3X46UtN93GVW336vHS9Vzk8/xe23FR6l9VjZ5yXHX73TXdZ9RwblC4VwdY7X5IGl9UIU1EREQnX6MEjrIyM+WSRuERkbj/gYcQEhKi9oHcLdJCQ8PkYY4f9+sSuVmxWbOgDR0sVytnt1lRblaq5fv7YAyG9jqEL+fuQkzQMRw8WIYAXQGiQo6jrNyKwvIwZGRH4JcdF8FsVor4lJkNcNhFG0ca6EKHwWE9Jqf7R7rwukoES+7FA0/Pxuzbz0OSGv/I3b4cH7z3Ip549glMd23os+AIjpZKNzBdkqAOWm+5Rw9Itw2JSHbOtCalW7Fmk/SbXR7OPvGZuDDOwIY/a9pGYhFdraRTdW5tHHWJhl76xdmHpR4d26GdMogsLFzcwuUht0j5LpNm4GwTyfdvysaRA9KfXal4wnlh//giHJSSKuwV0vXuSEwa2x9lq1/FM9On44mPN0i3bCeP8pai+haWS6kApUFW9xv9bSLAqL4pJ9fFXVswQL5hdb9R/2CtCFZ51p8t3QQ4l0H6eK2TO1a6oazlRtl7iY1otKvhQY54I7ryzT0/1Dp8/pqqoIG8zvzUoLcGlQb3q0pXKW9LugYFH3poFpZlqOuh3vPy8RamH3lTH0EdL8MD1xvwrbcAghw4+AbB19+Fqzs29AjUyBJdGxyuegO4UfYp+aGBe97OEW9OVmtLxI99yo3nNuRDfbfvOmq2ee9VXd5eFu1CuR8zlfWsPLjzu1Sa4HU/r6X0k1CHPJaXxzVQKn3E9qg8xInGyHtnoH+6uq3W5wFWUCKunnwDgr/z9tBRedj4bcANeODSxAZfhzQOP9ZvLXlcd3WfnigNIRpll4et5eG5eOhW9VC/bqrejK/fb3Z9ACof52SNWxqgxnO62Ic8gvAPvb2mXi9CyESJsccGIF19UataSWF/NLt9wsn9nFT5ULm260Q/ry/Edur+0oa4X/EsiSACJFXLUNeSsF7VNU9F6Qe3ZfRTfcer73nA6bTcZv1bP24Bmode9bgG80WcF6u2wWkp0nyku8s4Z5CkcnsXx7mqAFFlQClf6udSM4S3/UMc3+Vp1ys44nl8FSXWqn6n2DcVjXB+dyV+h9zh332G93ODN417viAiIqK6aXDg6NDhQ3jxxbnStUAc7rn3XgQGBqp9qoi0+x54QB5GVFt39GhdgiFNn8ZugcO8F7rQc6GPGoGhfZSLn7JyO26e2Q3FJRa8/vA6LHh0JUKDNQgMsKJtmxBMv3Y1svLD8OVP8bCphY7O7XMQusiR0IUMlaZ5AA67SenhlzC06yaCJYloFySXDZJZty3CM+/9AmvPCVIeTccT00W1G6pI6UZEGjT78FE0tNWomFgRkjmKg0dqn1Lx3+txULoF6n+NS8mgWyagfwKQu26rHIBpXNLFanvpz4EjbgGc4iJx2+a74XffvykO7USprJQJmPbk03jC5XPPIHFhG4SkodfjiadmY9oNfWD9IxUfrW7sR/K1Ud8Odr3BFh+5yhz1DU4/SkvID8oHu1SPIX+UagXqXLWWH1Vy+X7wfooa6BcPXJ/OxqjK31pbiSEX3h6OiBtEtdMfVW+hKje91fJP+sgPa7zNyy813Ew3alUZVbwGEJpd4EBonH3KWcKjKjClfETVMnV+Q9uLGt9kbsj2XQ8tJu/VUkKeJT68E4FutRoyl/x1BiD9Cy6qatjPfT5EqWMey8tT7RgvfSrfbq96SCYHKhoteNR0H5C7vjHuXc15XHf1m17lw8X+mzHHV/BI2h7cSknWhTquUlqn7ssoHgwui6t6saXqIWgdHno3lNiHvBxvGxRwEA/i5ekopTwb70F8Uw4a+VbrdaJf1bEqpTCqbV+iiqwa98VG4m+eiuDPD3FV25NclaEf6jueUJ/zgKfTcJut/ThedQxVPvU7fivbvyjZq3Ju77/tqKqSWFDzcZsY3vXlkQZWV1yN2/WKUs3hkYurfqeoFrFKI5zfneQgvVD7fYbvc4M33qcnXmogIiKik69BgaPs7Cy8+vLL6NylC6ZMuQdGo1LSxhvR7+67pyApMQkvvzS3RZU8cjhM0Ab1h8Uq/f6oO3HPdXkIDzEh61gpjIGheObjS/DZb+djX1YciswxGHuxBgN62XG8QI+ckmTpQkiZTnhIOe6+thC28EkwWQzQBEmXoI6GhnOAwmK1ikC9AUZLHtav+MnlIroLBp4bBmz6GC9+vQF7c/Jw8I9vsUyUpqmrjgMwMNKKHZ++is83ZuBI/lGs/3oNdqi9qxRj8x/ShWnCQAw/SwS6nJ+zMXKQdOF44hdsaPRrwTAMHNQDyFyGj5aqv3P7Miz4UlqO7kMx0NeNgs/fFCYXq8f277Fkw1EUimFLpX7frsdBEbPbuxwfbDyKXFMF9NHR8KOQVONTq7ao9rDI7QZFqZJIVHHofhMp3WgsVkq9yA/Kq72p7KtqrdpINyiiihjpptWz2q1ti5e4PHhfgg9d+mf/9rFb9SUnleebneIhv9pZqygxnvvbsaI6Ht83rc71XEW+AVXnL256t72trhdPaj66toGR/dsav5ZVvpl2q6tcWo6FrlWnNT63AEJ+cwwaSRpln5K2CVHlhpd17c9Djupq3oaqacj2XU/NPe9Fuy5yXf2VVTfWRhwfpW3Ao02WSl6OcdukfdfrsF72c/EA8oOaAgF1zWOxPGs92nypJOWXy7xFyY56c3voKJ1bmvIDclEtD0TJB4/jb76UF3K+1ZLHdVbX6bnv93LwzwdxPIBrFT/+Eg+6nxbtXzirv6r7Mnq+9S6uJ5yqn4f2YrnHdUGjEPuQlJeu+1uDiP2vcl8RwTS1sz6a0z7hkz/XiX5c+8kvVHi5zvPnZYyGqkOeepYYlc+3andN6juerD7nAVen6zZb63G8EUjT+nAp3KpVq9z2l0rX/9UCREeQXm1/kfaPG8chx8v+UVfVr1dESVHXF++UEu+KBp7f3UrJS9N6e01lVaY132fUfG7wRiybW00X8ksNajcRERGdVA0KHP21bRsiIiNx26TboNdXlXDxxWAw4PY77kBYWDi2SeO2FLqgM6Q1GYp16Ufw84YijPjXE/jjg0VI6XQQOTnlOHCoBJ//0ArpRy7Hyp2X43BRL/RvuwS/7LsO7y7uAEuFAwN6HJLG+QTDLnscP6/Px1sfp8NqD4Y2qJ86l/qL6fcvDOkI7Ph0Np54aRmKuw+suoiVdBk1HZNGJ8O6eTHemD0Lb3wt3dxULzhWO510M/HgXTivSwU2f/kqXnr6VXx7TIRsPORsxlrpBiZmQE+3auME+U15lGPrn43/FlHYmZPw71uGImiL8jtfW7QeGCzS+ldfRqcaflPc4Ntwz9hk5P/8Dl56/DE88fLH2KaLkS7/JSFByE97Fc9I6c+8tR6GYZNwxzCvj3FPGjlg4foGXCX1hkZtzDdu6L3ym4/ihsVZZYCoEu2IdNEfJ95a8/agXCLnVbWqtfwgGpueKxpfd62CTbx55nywJarbcu/v1m7TyVZ5o6ku21/SDZDaq3bVl31zr5re9o+WfpNHFVGuv1VaV3K1Yy79q6okEm8JutezPiddurmS+1UFL7xWYSTyQG5Y2TldpeHw2qtCa5jKAMLzzTBoJGmUfUq+2fVRt70aUFAaLfZXLdtQlGhbZY2yDYkHBA3avuuvWeW9Z7Vt2aOlY1bd3kQW28DN0nnedTpVb/JWP058kK0+XPLMLy/7udJAtEsbRp5qyWOlXRplesrDRGl5qm2vzip7otHO7RgjbVuu7WzUVeVDx9lN/AG5WO/iLWiP4+/T2RigHidrzuPaVD9G1216Hvu92Ca8niPFAzl4P95Uo253zo9aOqKqbYzal1G0qwJ5uxbbT1WwQBn2Yxxp6/Jgstp56A0cOSlVEYm8rH7N4T1Q6oXnPhkb57KvKOdO13VUZ81mn/DB3+vEGq/98uQ2kry9UCH2FdFekrM62JOihjz1PF66fhefD7PbeVnm6mobz33fURMr1eM84Oq03WZrP47XhxycqZyWSxuYLpzBfM8AkQi+Z3t9AUmUCKu+f8xZ2s69bStPtV6vuJxr5GG2Sve+ai9peRp0fh88AFjonO4byBnrsl3VeJ9Ry7nBC3HuccvHhZB+V0MioEREROQvTXFRoUPtrrPvv0/Dnj17cN9996sp/nnllZeRnJyM0aPHqCl1ZzHXpQq3kysqOhg28x78tiUKm/7IxBm94tGtSyji9Evxy6qt+OHnfHyyvCdKy4LQo0cYAvQmHDqmg8WUj2sv+BuXXBCF887ti0zLv5C+LQ9h4Ua0kqaZ0uEYdIHdkJ9Xqs6JiIiIiMgPotSQCACdqhcviIiIiIiIqMVocBtH3thtNuzfvw8H9u+Hzdl4Twum0YZCK32G9ClAUJABDocD+zJK8P4PAzBi3Kt4/sUnse/LrzH2/L+wc2cRtvxlwXl9N2LvF19jzotP4fyxr+CXHefj9z+O46LzOmL33jz0aJcJrS5cmnaIOhciIiIiIv+IajGdVQcRERERERER1UWjlzjKy8vD83Nmo6SkRP4eFhaG6Y88ioiICPm70NJKHEW3UiqHslccg60iG9kFCdi+txQaDRAUoEdxiQUd24eia+yf+N/3S6DVajHiwn/haMlZsFgd2LMvHwVFJoSGGnBOvxi0CsuCVt8aWkMbebp5J1pOe1BERERERERERERERNR0NXqJo82bNiE0LAxzX3wJc196GSEhIdi0aaPat2UTgR5D8BmIj8rCBYN0GHZ2HA4eKsBZZyQgJiYUf2f1xyVXzsHQMU8iq/wcfJm2F1nZZQgNMeDSCzrg8hEhaB2WBX1Q38qgERERERERERERERER0anS6IGjCmsFQkNDYTQaYTQY5CCS2WxW+54ONNAHnQGdvjWMyMI1o2zQ2w9Ap9Vh2cp9KDYF4uV3dmH170cwZkRnnJlSiiF98hERlAudrjV0QX3V6RAREREREREREREREZ1aJ6WNIxLtHoVAG9AFhpD+iIyIRoR+A24aF49yswUR4UYMGWBAt7Z/IyQoEsbQAfKw0AarYxMREREREREREREREZ16DQocaaT/HA73JpLsdju0onEflej2NowY93ShMbSFPnQYYmPCEBOwFbeNNyGpfYycJvoRERERERERERERERE1BZriokL3qE4d7Ny5E2+9+QaSOnZUU4DsrCwMGToUY8ZcKn//+uuvsH79esTFxcnfhYMHDmDy3VOQnJysptSdxWxSu4iIiIiIiIiIiIiIiKgxNChwJKSnpyMrK1P9BgQHB2P48POgUUsd2W02/LLqF5hMVYGedm3boU/fhrXlw8ARERERERERERERERFR42pw4OifwsARERERERERERERERFR42pQG0dERERERERERERERETUcjBwRERERERERERERERERDIGjoiIiIiIiIiIiIiIiEjGwBERERERERERERERERHJGDgiIiIiIiIiIiIiIiIimaa4qNChdjcrFrMJxoBA9RsRERERERERERERERE1FEscERERERERERERERERkYyBIyIiIiIiIiIiIiIiIpIxcEREREREREREREREREQyBo6IiIiIiIiIiIiIiIhIxsARERERERERERERERERyTTFRYUOtbtZsZhNMAYEqt+akt1YMOUPnDVvAvqqKULWqhcw64sD6rdhmOTR32lL6t1YgPvw2oSuaoogpvkKMOV1TOquJknkaWZd7jasPP6v6hdVX4/xTgdiPWzs6/G781Zj1uOpyFK/+rNeqq3Pc515k4sfXngc3x1UkhUdcemTU3FxtPrVr2FOBw3bJyrXIyZgxtRhiFdTXSnTQtW69chrJ595vjMV98xbrX5RVeb16cPrfqMef7ao3+KvehIzhseo3zyo69H3vqVOy23duk/f67bA/JGJ7fxd/J/H+j+J+SMPf7jaMUs+Lh523x957hHE+qt+rKv7ucdzn6ghX70d65J8HytbFi/n2Fp+u3yu2Hh2k1g/7udAoabzINXG/Rjkea1V8z5V87iePLe76sPXnLfK+JvO8tin5X15A870crz9Lr6G43pL4O0cr2rK5xE5nz3uw2Ti93yX4N9xxke+k5O6v7U//a75iIiIiJoCBo4aUdWNosfNv3xDhMq0Gh9ceLvZcN5QeTwodb+Z9Hjg5ySNOyt7ZMu+4XTl8hDN/WZTWT+Vwbdab9S8r88tqanABJGPyo3M4Ut93NCqywGPh30i77+Lm9pkb4IbW6PsE/K6fh+bcABxXte384GQy8Mbef1n4lLXeTq3DS/70YJfPR/YSdN8IQuXNoGHi6eEz/3G8wGXx37kST5+HZbW2dm41cu6q9wenHngbT/cuRo/xA6r/M78EZzbuGcA4STnj0Re/64vM1Tbt9RlO83PPT6PdZ554m2bd6Xui+7nDvXBmUfwXJmnS8BcJoZdjviprsvQUinrxfU8LG+vHkHNk8H9+qvuvB7X5PNiTYFd8k3az6TdZpJ6DKp2TVHtuOWqlnHdeDnGStP+IUc6Z7lug7XkrTwPj4CD8xji7Rjv81qzBfK2bv4ZIq+/QXuf9wk1LKt8rvUzcOSh6fz+JkKsS+nip++vqP5SBhERERGddKyqrpHIF/riRvPJCdVuErKyDwPn9qu82I3vfTbiD2YiW/3uJjZB6rcBW/LU75ItW1YjPqkjcDjL5a3i3dj4a0ec2Vu5udyS+gqypZvNajca3SecNg/uqh7IPYlLk9Q0p7wsaX0Pw1nOG+/oFJyZdACHc9TvbsSNuvf12VcOGtVGGv+9VMRNeb3auo8ffpoFjRpjn5CJB7IdpX1ht/LVRdaqb7Dl3GG150v0MMyYd5908/kNfnDuX9INqfyQsdrNaFdMOskPHpuMmvYbaVs+fLDqOCPWy1nnAtnZuep3HzyOYYrd+O4LaR86VzqWOeVkIivpbPR1fSjTvSpoxPwRXB5USuve3UnOH0nfCWKfeQULdopvyrENV42szA+ee2o+1tX53COvX8+ARAwunirtn0jFd3I+SKT99t0v2mPSPM+HmmLY0/fhmry91nguaQLEca1aMFwi7TOvTRmGLd+tdi9BRn6QzgkuxyCv1xRJCYhTO935Ma6T5/4sSNcWzqCRv3kbH9ce+PUPlxJQudiy8YB8rZ+V5XL8ztuOTQc95kd0GhH3wH37TpCubVbju1W1XNsQERERUaNj4KiRiIDAaz4eZMo3oS4Pq7O2bUCWy0NzN9UeKuUi63BHnHnL5ejr+rBvp3TD6XzgmiddTEs3qpeeLgEiX+TAgI83A+X16nLTUdPNuNqv3utz53L5zfBLT/Mb/UbbJ1Rxl0r7gGvQRyYetgCXXthP/V4b8WD9ADZtE9tBLn74TrohvfR0CUD4UNN+o66v735yBuzcA9benY1Lr4LLOCpxzDr3clzqurK9BMqrMH8UXTFpnq+3zU9y/si6SsN3VB54qse2W53HRp57ZDUd6xrv3BODvmdVBc+3/OQewCOV/GBfJd5Uf2E1fki9G/dMuVsJfqppWeL48oKaVsk1TekW4ymfVPUhvzrMr9J564vHpfQX3F5EqBreJd2D/DKQr7zrLp0HK4+J6rxWrcYsMU15uavSnfNasFMEl13mJ14GqFwOz994eqi2f4iXFNTO2tS4b0XHIw6rsdHHOvU7b0U3DiOrchsRLwFI+/4t4tqoKqDkz7XR6UAE553bc9W+KKjb/k7Xbd61v6/9WKhhXHkfEqV8pfPr41J65b5XH7UtY9X+K0qrySVXf31FHs6574r0yt/QoGVpbsQ1jXK+7Nt3GLI2bnf77fJ2kbrbffuQvldyHu9dj80e6+/0XbdERERE/mHg6FQQD2afPBubxM2HdGFacxUE7g+H5AdJEAEi5QGhM6Akl9hoH688qJLf2vf1JmX95K6Zjzm/1vBml026GZs3HyuK1O9NnvLG9pkbxYMeKR98VlkiqcP63DKv+g2HW940iiKseOsV/HBc/erN8dWY89Za6Ra5majTPuEkHmB7PPCWH2R7lFipRVy8841epbRG+1glvVHsW4onvtiNcvVrdeXY8sVT+GSf+rUZ6DvhdUyC8hDjnlqqbXGKG+4Z5JOOFyII1Ncjj8V2MKW9jwczzB9/nNT8UcUP/z+5tMss0d7RLS4BEp57/NB45x65lIJc8li8UCLlY1xjBuwO4JNnUrHF986B8p2peOIrUfqz6RIP/d0etB9MxeG+r+O1asFXj2stwfWlD+na6/BZT8rjvTZPlMZ0Bv9Efiql/0SVYq85g+7iwaRc/aoyr9fEce09bw8ha8u7GLT3KJEmXo64VUxTDk6KB+FK9ZTKsr2Os7Yo1VgqpP5qiWel/304S+3jv2a6Lbg8HBZt9VUr8ShtC5UP7l0fLgu1jVupKyY9OQHZ8rWf68N/oS556/oSi0QO3EvbrRxorgooZWcdQHx8PfbzFnSuqyzRqW7vM646jAVu+XcA332n7iPqvlrZ3+d+7ORjXPmFmvuk44ioAlnq1+ASzjUsowtxPp9xVUelulhpWPmYJW2bSslrMa7Uv/rbHbVrrtuDc78Q3W5BdRe/viK3/ViZx4dfwSzXPBb7/ZZ+an9pnbaXvjvXfSOs25Z3zUJERETkjoGjU0HckL7nvGGQPn3/8HLDWUUpjaG8cSi/bagGIcQDb+Uhh1Klha+HfILbG1Rebk5qEzPk/3DxMR8Xw+Ii+I35ODzy/3BBuJrW5Ik3+t4HblHzYF4/bJTWTUPfxBX11TtvRnzfWIoHPVX54XZD45dwXDBxFA6/6SN4JIJGb2bi4omDUY/HC/+MOu4TTq77hrxeG7tEisvDI3+Wp5rOY3Fn7DI87fUGXdyYv4AfYifjus5qUpOnbLviQZqynf8f8J4/27DnQ7EaSuGJKnykac84a4P8UK/GaTN/PJyC/HHjq4q1Kjz3eDo5555q3EqZKG+v101HXHdbgrQ9SfuVl6eLIlDw9PIE3HmZe1WGTYHrCxxu7XEJSb63a/fziTQdUVrkrBTlfBI9DJMqgwdKkMmtCjEP1UqadB+JS+GrNGXduJ3jvJRKk6vnU7udqqqr7Iq+te7XnprptqCeS8TnrC3S9uD6MoJLP+fDZbfjU03jepKDCtKwUyDt29Kw9TjOCa4lKOTtRw4QxSC+vfPY7E8JUh9azLlOvd9x2Qfi5RcfqvZbsb1WvdAQg4ulYSur9q51P65h3EbVwPm4VJ0Y371r1fHAX81ye1Cv8SvvdT2uW5zOvc8l0KusW7eSSdI5YIbLOaHvhRPcjvsNXbct75qFiIiIyB0DRyedeuHrctMjblAnneu7qgulKgzljUPxtqHzornqIYdSpUVlVTdydU/u9bGLt9bEDbD85lq9BEnTmFr9YrjyIli01ROkJjZ9Sjs4l7u8id8Vk0R9817azPG2Puui6q1wJ+UNZZEf1dso8VOQtLxTvQSPnEEj0aZFs8mOeuwTTtHDcKmznnP1AVpd6/6veoO3+pvdlQ+PvLVV4qf44ffhnmo36FU35tN8vsncBFULKEjb8i0TAI/qQrwRN+f4Yrl8c+72QNYHubqvefch7ovH1YfqzJ9anaL8yVr1Pr5rf1/19ld47qlVY557qkqziofLHm1ZOR9my2/J11PrYZh2Z/WAgTNQcM9d0jFbpyY2IW4vcNRactWFej5RzjtKlUiuARnXIKhcfZRPSkkTpeo65ziP47uD3gKtXvLOTS0lLWst5SeuN1xKuNUzqNFctwWnvhOedG8TzI1ynHR7eOyi5nFdyOcj1xIOdczbyv1drZJaDRBVBpREtYuebQDWQcs414l1Ju2LrqX75SrkXKv5q5n/+3Eja6yaB8R25gxS1uulAEWz2x7ka3z3vFeqCFWuW3wS+5Xa6ZV8j61qlHXbsq5ZiIiIiDwxcNQkOd+qWl1Zt7PMGVBaJd3suj44UNtQqPWhe515XAyfLhfBDV2fvqpTaCjP4FGzDBo1nPzAe+N2/FCfNj7c2mTxUlVRI3G/QW+mQYmGcj6UXeW6zmsjjn3OB2/Mn5PK3/yR9pl3vxDtiHWVjm2iFEUq3nWWaOK5p3HVuD7dSxp7a++hUXgEDJpLoKC+xHqUjzGuVSJJxMPm7+KrqoOrORCqBAzcAljqx1vbZDXmnViO2oIFnsFF13adZC4vq4hqLBspeNTitoVGqWbTvRRLnfLWub+vclZJraarAaUtLjUO1FfzP9eJF0jU6uLc9i3p/OBHQK1u+3HdVX9RTCEH+RtT5Uszoorn+gY4mtf2oLTvpVTZV/V5Uq7mr8ZrDhFcVzu98jxeNsq6PU2vWYiIiOi0wMDRSac+/HR9S1u6+V7gGhDyQr75/EK6WXe7sVUDShsPe7wdrrw9Kepcr3s1aLWpuhieNrP5XgQrpbVc2/TYjQXzfLXpIa3PS4fJb7l5rs8tqVKeqN2+iTfKlXZbGr06osrg0aOY1myDRvXbJyqJhy3ibWC/gxEqaR73PC7afqhqX0Ruu0VUWXMSGsR13qD/599PNt+ghBwEdX3zWroZfi8VqKX0kJP8UFY6jvkM8Il8d9tHxFv/VW1EMH9qcbLzxzm9q/5PfUinnGvwxfvqsZTnntrU+dyjrk/3/ULKhxcel0t9VQYiuk9Q2mqoT5WNtXEGDJ56FP9pwUEjmdiHfv0DC7a45olnWzVK0K4m8r40z8+8cOad53FNnKM82xHzJJYX7u20yO06qd3y9uUSKBJVHDdIc9kWPM4lcilJlxLJWatWu+SNx3GylnHd5K3GArdjnbJtVLZDVKe8Va+FpGOwW4BIDigdlq71a66S2l/N+1wn1hF8tBdWm7rvx3WmnoMrX6YQXF+2aARZq1Krzh+upWXqqXlsD+4vSlRR9xnXF4q8nV9dazTwdo2kXvM07rptGdcsRERERJ40xUWFDrW7WbGYTTAGBKrfmhDRzoCXxq/lxl0rq0gQb8/V8racPB1xcfukeyO9zptPr+OLthRcG0kWhmGSr4a466QcudLFdUx0c7gIVh6yHb7U421fdZ06bz5Fw9a+G0AWqq/PqnHUB3kHlXQn8cZx5Tw95icTdW03uJFdSXmutAQxiGkO2dHgfcJLfor9QDR2W1ktkcirb9DeOY06rnvxVqqoAsOVW142QG5ekbTfNIfKzX3sN577gXgD1Fd1UCJfvktwWc9imqJ9l6q8lfM963JlGl7yydt6Z/4onG9Pux+3Tl7+yOtdNBztsd9UT+e5R+bjWOe5nTfs3OPO/TiqqH36fsqXzjPh0nmmyQaNfB2zVNW2d4mXNK/buRhu3mr1S0f0PVcaDupxS6jM06pzV7W8qOV8Xz3vPPcZH7/PY3vqO+U+YJ7z/KeMU3lt0ljXHE19W6h2LnFfl57r2m0fqWVcd/7tm7XnrUrdzjzPZ8r47RvpGKpoLuc6+bc7rxFU1a4BKs9zIj9crv0E1328xv24lnGlr5X5WON+5LlNeF7P1jYfz/5V05O3C7j+htPk2kfON3jf/uX9dQPOlNZX321iWzkblx5OrTzmue2P6nq+tL142UxJcrtGcts+GmvdNqf7ZSIiIqLaMXBERERERNQcyQ9SvQQsiYhaMG9BRjcegUAiIiIiqjtWVUdERERE1OzkylUvZbm0z0RERERERETUGBg4IiIiIiJq8kRVdHfjninOj9L2lc837omIiIiIiIjqiVXVERERERERERERERERkYwljoiIiIiIiIiIiIiIiEjGwBERERERERERERERERHJWFXdKaSxFyHw2NXQmX5XU5oOhzYSpoTPYAs6R00hIiIiIiIiIiIiIqLTDQNHp4jGUYrgg4OBioPI2GKAKc8OjdqvksMhp4kMcf6VaTyGVIeTO+V/NXBIw0j/VqaLYZz9lETpH4ddHkIjDSv6aqRh5IGkXonnAAGhwSjv8Bvsho5iBCIiIiIiIiIiIiIiOs0wcHQKaOyFCDoyFlrLZqxbFIi2KRZEtmk6q13Ej7Z+bcQZE2wIiQyGqf23sBnPUPsSEREREREREREREdHpotEDRw6HA/n5+SgqKkR8fDwCA4PUPo2ruQSONLZCBGZPBIpWYdPiALTrWYG2vW1qX+9EqSC7JgBahygqZFdTrPJf3xqWjeWFwNZvApByuQgeBcHU5nPYggarfYmIiIiIiIiIiIiI6HTQaIGj9M2bsXz5j8jMzILVKoIcipCQECR2SMRVEyagVatWamrDNYvAkcOEwKNXQlP6G7b+GIj4JAsSengPGn36jQHnDnKgXayy7myaCCl3AqSuOmSPwwYNKqBxmKW/Yj41B6g8mYo0+OW1AAy714KgiDCUt10Ge0CK2peIiIiIiIiIiIiIiFq6BgeOLBYLvvzyC/y+di0CAwNhMpmQ0qs3zjxzAL75+mu59FFYWBjMZjOuvnoCBg4apI7ZME09cKRxlCPoyOXQmjdi05cBaNuzQgkaye0NVTfu4SB0TtDiwRstSGhdIafZNGHS8J6/UZqGqFtOo5O6fUwMDmjtRVJfi/rdf5ZSYNUbgRhyRwUCI8JRnrgWDl0btS8REREREREREREREbVkWvVvvYiSRS+9OBc7/v4bE2+6CdHRMUho0wa333YbzjzzLEy67XZ5uAsvughDhgzFokUf4/vv0+S0ls6YPQUa0wZsXhKA1kkVSOjpO2iUm69DYXF7LPklGJdPjcML7xvldJ2jBBqHSe6W1ja09jzoxMeRL/09IX0vlPqLYcql/qJKO0EMV+AWNNqzX4+iUg3e/dwAk8VXsElhDAGG3GrGlsV6mIuKEJwxGFrzTrUvERERERERERERERG1ZA0KHIkgUE5ODu6+ewpiYmJw7NhRXHTRRdDqRGkYoEOHDkhJScGa39Zg3PjxuPrqa/C/ZcuQkXFQ7t+S2Q2d5L+lJzSITqylUJdGh5ySLGg1QSgsBt76KggHM8U6dEDrKJaDQ0oJIveq50RwSOsolz4l0NnzpWHMSjBJbg9Jkfo/A258LAHn3hyIWQtj8P7X0bh5Rqw0H99ZHxzlQFQHO0ylGmnepdJWYlD7EBERERERERERERFRS1bvwJEI/iz/6Sf864orEJ+QgO3bt0Or1aJXr97qEIq+fc9AdnYW8vLyMPTcoejTpy8++vBDVFQo1bG1VNbIu6DR6nHWDRXY9bNeTfUuPMyKMIcN+kAtKix26MPjsSZdtG+kEMEhz6BRdXZpGBFcUkoeiVDVqx8b8NSH8ThucqCgOACGUB3mvBeMIznlCA6qOZhls2kRFWeFqdXzsBs6q6lERERERERERERERNSS1buNIxH82bhxAzp27AidXo/MY8fkdoySpO+uzCYTDh8+rH6rcvvtd6B3nz7qt7pr6m0cCfqynxF4bDw2LzWg37/M0Gp9r+rU70Ix450QBBuDYaqoQGxoCX77uEDt68GhhcPugEbnfXqWCg2mvRiAX/9sh5LSctjggNFohKm8AsHBZnz3agmSEpxV4FW3Z5Ue0ckaRCW2Q1mH9dJWUhXEIiIiIiIiIiIiIiKilqveJY4OHz6EHt17oHuPHkhOTpbTEhIS5G7XT6/evWE0GNC5SxeMGj1a/kRGReLwkerBpJbGGnQu7AE90aaPHfvXKtX3+TJuVCnaRFWg3OqARqPH0TwN9mW4Z4+9Qoui3VHY+WYnZP2WiIIdMbBa3IM6RSUaPDw3DCs2t8KJknI49FoEBAah3GxGYLARIcYAxEnz8cVhB07kBCK6jRUVkfcxaEREREREREREREREdBqpV+DIUlGB7OxsDDxnEEaPHiN/RLtGXbt2q/zu+gmPjET7tu0qvyclJnkthdTiaPSoiLgXsR0rcPAPIxw1le1yaGHThKHCVg6z1QaNIwA//qZkj0PKJpNFg33fJ2HdY91x+OdW2PV6AnbO7wBLVgjsdiUoZakAbnokECu3xqC0zIqI0FDY7DZYzGWIjApCSVkRLjwnH4EBvqu9s5Rp0KGvBdC3l5b9ZjWViIiIiIiIiIiIiIhOB/UKHJWVlsLhcCAkJFRNUegN3tvyMej1cps7TkHBISguLla/tWwVof+CVt8K7c+0o6Jco6ZWp9PZEWYsQmBAEDSaMkj/IKvEWUrJjh0HDLhziRmPmw8jtXMMlpjzYM4JRNnhYDkgdTRHg9F3hmPbkVjYK+wwBBhRVlaGkOBg2BwhyM8twbAUG6bfYhaTljlQvRRUfpYeEbE2WKXllhZCSSQiIiIiIiIiIiIiotNCvQJHkZGRCA4ORmFRoZqiBIfKy8vUb+5MJhMCg6raIyopKUabNm3Vby2cNgC2kPPRqr0N5jLfq1urcWDqLRbYLRYEhAbIgaP9hw1qX6BXJzuG9QjFEXsp0nOO4itrCX62ncDhjQZs3WnEuIfCsC87HAaDQy79pdFoodcbUFxYjMCActzxr1LMf7wYYcFKaSNRismuDZe7Xe36UYugUDtsweepKUREREREREREREREdLrQFBcV1lSBmk+vvfoKdu/erX6ru6uumoBhw4ep3+rOYjbBGFAVjGrKjPmvwnrgCRxcr0XPC323L7RjbyAufzROrnPOUmFHXHQ5NnxcKJcMOrBfj/cfjMP7tiIYbQGwafTo2r4IP75RglGTo7DjsA5waBAYGACLVYMA2GHXGREsfU+MKcLSV49C61KAyKaJlHLfAK09FxppWEGUXFr+dgQuvKMQpR0PwKGLltOJiIiIiIiIiIiIiOj0UK8SR0Lbtu3kvyL4M2r0aHTu0gVGg0Hudv0MOmewPNzAQefI37t27Sp/b99eGf90YA/sA2OgAzl/11z1W5ckC87uVACLTo/wAD0KivRyMEcDG6w/d8AFAe0w0BIi9ddA57Ag2GbDL+uN2H3YKA3jzEoNHLYKVFj1qLCUwmHJxPRJuW5BIzuC5aCRzPlXUpqrQfszrHBoguDQRaqpRERERERERERERER0uqh34Gj4ecMRGBiIstJyjB49Bueddz4sFRUYOHCQ/N35iY+LhUajwVVXXYXzzx+BzKwsdOveDUkdO6pTavns+g7QGezIzw9QU7wz6O248TITDAYDzDCg3K7Fuk16FO9pjczlreRhhgS3htFqh02jw03jbZj3qRVWtcRQREQE9Ho9QoIC4Qgwo328Hf97sxSD+5rk/oIdQXBoQ9Rvoso6o9oFlOVpENO2Qq2mrt6bBhERERERERERERERNVP1jg7ExLTCLZMmYdOmjdi2bSu6d+8Go9GI9M2b1SEUG6X+vXr3RkBAAFJTP5XbQrrllklyMOl04dBGiyaLENRKD4up+ioX7Q05DTpDi7Pb5sEYCAQaDHh+USB2fRYHh01ZXzkOqzS8DVEhZvzrIivySwOgsyvV1JlNFlgrrLDYbUhsVY7PZ+cjoVVV1Xiiyju7NhQahwg0ibaOxF9pXFVFGRAcLQ1n6KymEBERERERERERERHR6aRBxUp6dO+B/7vlVnz66af4eOHHSGjTBitWLEdRUZHcf/36dTh65CjCw8Px7DPP4MTxXEy55x4EBwfL/U8bmgARtUFsJzMspWqaG6XEkBAZWo4LhjgQoA9Ehc2B7Xv0MA3MFaOjyG7F58W5sOt0uHSYDaUmDfJMEXA4dNA7tDBXVMBut6Fdaz2+mGtFfIxVmWglG/T249A6cqGz58ntGwEWpZfEatchMNAGh66NmkJERERERERERETkVIBV/9uNbPUbnYbKs/D5u2k4c+pX0icNM37OQlV9V9RSNLg+sv79+2PGjMcQGBSIjIMHUVpaihfnvoBPP/0EnyxaJA+zcf16nDNkMB6aOhWtW8fKaacThzYQDl0MAqL1qPCyF3mWvZr4ryK0j82HXh8Aq/SZtECH6SUH8Jj0sQQDBocGfbtXQMTnikqs0rRLpZzUIyBAD502COf2zkGrsBJ1agqHNBfP+YjvWkeZ8kWikbYGnc4mJdZcpR5Vl7dsOoYPHy5/5m9TE09nOcsx83KxPiZK66MqOElERERERERERM2XacdWzPjqb3y0o6qWIzqdFOCb1zcgY9B52PTCFdg0+zz8K2sDZqxXCpIIpvJSFJpFbVfUnDU4cCSEhITghhtuxDPPPodJk25Hnz59UVxUjFGjRuOee+/Ds7Pn4Lzh551W1dNVow1CcIgd1vLa14Fo6+i8XiXQGKxySaLo8Bgc19iRr9dC49DA4bCgsESLD782wm4OAhxG6IJ0CNAZYdTZcf7ZVQ/q/9ihx+z3I3HNQ21x46OxePy1QHz0dQAyc3TSdNSBVA67kmCvFmJqmra/qQRqhg+fjrQcNdFVeTrmT1CHuUQaJktNp3rIxNK7nOt7OK75cI+a7l3e5p+wulB0ZSB1Tc3D1klOGqary1Dtc/lEPDBrAZbvcQ+aEhERERERERFRYyjAN9+YMe3RZBz8ZjtLHZ2Ocg8iNao77klR29DXheDscd0R+GuGtD2YsOHTb3Dlgs2Y8+K3uPJ/fBjbnDVK4MgpLCwMfc/oi3Hjx+P2O+7AJaNGoWvXrnLbR6c1OR5jhd5gg8MzWuPDhcPKEaoJhSEwDBaLAxXSRPR2UULIBqvWiFdSY/HO18FwaE1SHwcsJQ6UFxUhr7QQye2loaXZfL48DDfMTMB73wRh7Y5y/Lo1AB//EIl/vx2FQTfHYPEKdQdXabRKwEjMo9mzZSLtyelIlY9PRgx6cDrGxMt9qD4OrUPa32q3JPPTNKTXUJAoesAYjEmW9vuIFEwakqymnmSFGUj/cSGemjQWkz/e41IJIxERERERERERNZQobfR5p+64PDEFt3c6Wv9SR84Xg9/criZUkWv18ZLeMHlIm6a8eDx9WZ6a5pv7MmzHfF8vrTeAPI9padKSNTOixRWDDoHKtyo2G3B8J14p7Iov7xmGWY+ei6s3b8MPfr/fXZVHyqdqnTfbddXMNWrgiGrgcECnscFR1ZxRjVI62/D8A/sQbtQgtzAXOinNrnHI9cuJP0VFono6nVyKy6DXI7q1A0FxERg7IhJtYh34Y2cAHn8lWOqvg82qQ6tWrREarsegfia0a1UoT+vxV4Kw62DVbq4RE5b5uZBNlgXb35mOOWuV0EHitS/jqYui5W6qnz0/p8Kt3FB5GlZvrSE0EzsM0xb8hFXfzMeNvU9S4HjcbKR9kyZ/li6cj5m39Eeo3EPk/1NYul/+QkRERERERERE9SRXO5Z1DKu2bsdrqWZMvKi9nN73oiQcTP0d32zdhy1Z0jDldQwiDRyEQZ9+1PCAjByEmo+aQk15y2ZjTqf5WLVqFWaPahrPCKNHzcaqOWPQ7J5Ytm6Liw/vwedZzoIHNmSs2o+DZychTq9DoNkGs5xcgQKbAYEGeaBaiODcWGTcuErOI/nzxTA4i7R5ritRC5U/AUBqGAaOTgWNQ/q/TDrQGlCX2vouOLsCBsdR2LVmaB16OU2MLqbh2mKRTqdDcX45io7nY1Dycfy5IxATphlgNuhQVm5BcEggystMqDDrYLEG46c3TOgYZ0GhNKGXPlQLREnsVuljk6Zra94FTS3bFmD2pxlyt3HwNMy+LQWneZm3hrHtwbrvM5XuUWMwRu6wYOmv6f9sqZ6AMIRGhMqf6A4pGHnTS5g/xVm6KQPpu3gCISIiIiIiIiKqry53LsaYl9fhlVVHkG0OxPDbB+PyCLVnRAqeub09IszFWL9qM558OQ29pOHvXlvV1k2N1idi2CPAnBdOfkmSzIx1GJSYoH6jhmmNiZOTkfX+t7hg5je4dPq3+Lc5BfOHRQJRvfHulBRE2ABTXinix/fGcH+a0s85iAxMwPDe6nchdgzGuH6nU46Bo1NA47AAtmLknpD2FJ3/kSMRIIoMN0Bn08OuscntG4kojygPJDoFUfWd3W6HWRMAo96K6BgNrp8RhAqdAQ6TNKzDDpPJhAqLBYGB0kgaE0KDHbj9GjP0Vg0yTgTCYVcmptdK0ynXQGveJ39vlrLSMPPhVOlgI+kwAS8/PgYJorgW1ZvljzR8pFb5N3bkjeh/vpwMfJWmtmPUdISFxqhdEuY7EREREREREVG9fTLcgKQ+KZg24WxcfVZnnN3GvdmLiDYdMfysM3C71P/2PoFIGn4GnhkYrvatXdKo6ZiGOZhdY+kR31WYYdt8DL9qDtYhFZNFv2pV3CnjTv4UWPfc2OrVn1VOsy4lWGpZHtcq1eTSUK7V3LlUe+c2rJq+zbVtb89SVGIYl3nKw9Zc0uqkieqMex+9AisevwhfPnMFFl3WHhEowKpvV+D6J77BpU+kYca6CvTt5PKcriaxSUiU8nDVNvW7p8p15Ts/5WFc10/lOq/OM+/nu83XI39d89NtHq7jueaN+7bkPq+q/PKV3pQwcHQq2ApFESEUHbIjMNRZvsc/Fw4TZTq0cIh2h5xV1Ukp4iOCRuJjsVhg1OlglYabPFuH8oogwGqEQ2OFRsphjVYLvU4Pk9mEqJAKedyrRlTAaCyFQ2tXJibRGQFTsRYa60ElobmxbMeCh6WTRbnUHTQI056fjBRpVXhVkoF1X72MmbdPxBjnTnrJWEx6bD6W7/dRjsZWgj0r5mPmpLG4UB5nDCY+thDpNRyIKtnykP7pU3jgxjHqAUEa96GnkLqp+knJ9cAhH4BK9mD5mzMx8XIlbcyNM7HQy3iynO1Ie0+aT+UySp/LJ+KBWalI9zFKzSz4a02aUrIoXlpX/RIw7NKxagmu1Vi1yUdFpS4HUvcTr8uBVBx4xXr5cDrGXiJ9v2QmltdrGavk5iglzYAUDErxKOwr5V/G2qV4+bFJlety+PALMXbSTMxfkeG99JRYn9K6n3TVhS7DP4CnvtiOar+8DnlMRERERERERNTUnX3tRbijaANuWHIYJjWtOhO2LFmBh4q64ctrOyOiTi/yRmPM1GnAc7N9POgXD/HHVlYzJ3/mJWLOVeqD9t6TseqLaRiECZgv+t2ZIo9VRZr+nFWYfy0w6JGl0vizMSZWefY29rlEZRz5Mx+Jz431CCB4U9vyDMeE9avxu/pb8javxjrpv9Wb1WdDomTNwGE4R1qG6tZhzkJgujzdpZg2MBWT3dpZmgzMcy7vdGChCJidWhmrfsIF07/BpaKkkfg8+SOu/HQ3TLYsfPTcClyaVoBvjldgZ4EJb6dtR68nV2ODeE5bqxRMlvIxY4p4nlZTEMV7fsrPIaegKj9FnvgsyZaH3zOGYak67NJHBiF1oXNYJX9Xny+mrfSf73yB3nMe0vImyj0880ZsS+r2nJOG2a7b2bzh8hg+05sYBo5OAa1VqearIAMIiqxb4GhoPxOCIwKhkbNKjfBIRMAoKCgIgYGB8gcaK2zWQCld+sAK0faRYDCIuiRDMLhvKHp0NmLrNg1e/dKI4lKgwmFAl1YV0rDKMgVFOVB0XA+deQs0orhSs2LB9vdmY+Eh0Z2ICc8/hTHxcg8vtmPBlRMx/aWlWL0royoAUJ6HPb+m4qn/mySdKDzCCLZMLH9qAiY9mYrVe/LUIEMJMn5dgAcmTsdn+3wEm4Ss1Zhz81g88OZypB9yzk0ad9NyzH9ImuZ7270HLYRi6eBz1yQ89elqZKile0oOrcYCabzpP3oc/vKWY/pVkzHnQ2k+lcsoKcxA+o/z8cB105Emlxyqg5J1SFuiTClh9CAkSyd/Y78xmKiu29Vf/gS1Ert6KMGqVyfggffWIU+cRMotMFuVPnVmkfJu2Rw89Z5YGqN08piJsW2VXk7bPxyLiY++jKW/7qlcl2K7yduzGqlPTsQk6WTsmg95v87BRLE+pXW/J8fZRwyfjuUbD7rnWUPymIiIiIiIiIioSQqUg0fTzH/gSh8PlXal/YgZ5p748tqO0tD1EDsG00WVdUu8hAtyfsfq9RMw3zUg1PsaOajis3RKrfLw+8/rMGHeZFRNNQXXiADCGt8hC1mty5OC4deuQ4baCkhmBjDtkQlYl6E8PROBJJx/jo92jQZh2lRnOz7RGHPjBGD/QSWgsW0VUgdOwzWVVbcpAbdB6rdT5fPlMXhv9uX47imXzw1dkb1iM+4+rA40vD/WjFNLpuUfx4NfHagh6OhC2g5my0EU+Cg95tv2NakY9Mg1Vfkp8gRVATx30rq7s6q9pOgBwzBofYbyfHPbZ5gjjTndpR2slFFi2DykLUx132acVelVyxuxLaEqWIgMHHQuR++UqvF9pjcdDBydAlrLX7BZNTBay2EI8B44crgEhVx1amdHa4MFOr17S2IiMCSqoNPr9XIQqcJskaYgTdthl/pJ89RqER4eDqPRCLu9DMWFBzBmSD6m/p8Z8xZF49n3DNDYNLj2suDKOYfGAnvXBynxqQo5AtNMWJCxZCbul9s1EkGD2Zjcu+ZWjSxIxsg7Z+OjL35SIrsrf8Jnc29USyhlIHXhT2qkWbHn0+l46mclIGDsfSNmL1yKtG/SsHThbNzYJR2pX6TL/aqRS0HNRJpYnR3GYNrbacr8fvoMs8eJuLQFez58Cgs8A1WqpU/ej3Up92P+J2nS/JZiwQPDECr3sWDdu2nY42yHTrCagYj+mPDIfHyW5vxdaVjwyBglAl6+Di9/5f9BVyhZ/xOWy10pmDBSbT9Il4xBl6n1wv79E9YdVTrrbOsCzP+hP+53rhPnWwL++nSyWrJH+lw4FpOeS0NG/CBMmpuK2aO81FsrreLkCybLeffTSjG/Vfgp9SXcqG4rGZ9+hJ+cB2xLOj6aJU1PdHcYi9mfVG0nIs8ndXKpoLWBeUxERERERERE1HQF4uw+kYgIdH826RQYqJP61zNopIoeNRETPp1cvcRPdgbWDUyE+1OeaCR1AjKOeLxQ7bdMZKwfhMQ49asqul1iVaDGFz+WJyHRGYDajlX7h+GcUcOl37ZK+iYCVsCwAd7DRjXJO5IBdEqqDHb8UwKs5ShQu6sUYP0fJsAQiHvPj8esTqEIbBOLWedH4mJpk9my9hh2qUP6RZQiEyWu9k/2s/rAPBzc76y6Tn1OOHws5qyvCuBV41rlnFzVocL3eva+zQjyOOvnYGzlvIdj7HPrlGChCIZ9MQyrr1LSK7dvX+lNDANHjcYBjb0UGutxaBxl8ncnrWUPKswahLdRE7zSq3/dhYc60LNdJnQGo9xekafS0lK5qjol2mOD3W6VhhPz1qGkpFSauR7t29lhkDqvv7gY4y+yoGNYCRb/GoKL+tkx5IyqHVCnl35DYSlsNg10lr/VVMEGja1A+kh7W5MsifQXln61TsQFJAlIbFdb/ZmJuOaTBZh5rbTDx6oBJp0RCWdOwqRLla9Yvwe7nc/5LelI+1gOIQAdJmH+K5MwqEM0QiNCEd1hECa9sgD391R6e8r8/nW1FFQK7p81DWO6KWEfGBMwaMpMTJJL7mQidXm6uvzuLH3ux+yHxyKlbag0v2gkXzETM0epPbNW4S/XoE3kOZie+hImj0pBQqjzd4UiedSNmNBf+WpJ360EQ/ySh1U/rFY6B47BcJcSPMnnT1Aj4duR+vMeuavOyoEx/30KY53rpDFkrcOCJx/Dy8uqVz2XeHUqFjw+Qc47o1ps2hjfH5NuGat8kU4Tew6oYxVkItNZlHbIhRjUtmo7EXl+450jK08iDc1jIiIiIiIiIqKmLCOrGN3inc/bbMjOqgofJMaHYVdWrvqtvlIwed4EpE6Zj9/VFFlcYlVpEA+J7eobRklA4kAfQYXagjN+LI9cgkUEiratQoZcukiUQhIlkkTwIRFJdXlp2pVnUEsEsdTOU6Vv11ys2qt+qZUBES7vXddNNM45f1BlSa2aKYG7CZVVxVV9JleWAnIhgkYLEyurqlOqOlT4Dh763mbkca51qbrQ+XGWSnOWpFo1H5jiETzylt6EMHDUSAyF7yKw/HMEG44huCwVATkPqn2klVyxF6X5WiSPdC0e4k4D33V0zX3MhshAM7Ry9XPuJZZEySO5WjrRS/prMBph0BkQZJB2zvAQWE2lyC824PXnLQgOrJCm4cAbz1kRIu28V422wCHGc9FpBGAu1UJn2qymOBB49CoEViyHUSP9trzHoS/9Se3XVPTH/c9IO7mztNDTC5BeY/2ZoYiWjuWWvAxsX5uG1Pfm46mHJmHSjWPwwBfqINIpINd5DtybjjR1esNuHitX1+ZGJ500RquRGTd52L5eLeHTfwwGdVA6K+mSkXKu2v3DX/AWfhk5ajgS3OZnRNe+zsPZHmRWVrkmMUYjWloHlqN7kL5iKRa8J9pwkn7XVRMxx1kgaldmVdV8tTm6Cmnrlc5hFw93P3G2vRDj1Do+M79d517yyW9jMezMmkuG1WjcbLnUl/z54iPMf3wyhol1XLgdS5+bhJnL3E8uoUqmI2PbOqR9ugDzZz2ASaKNqwdS1SGk35Knrp2YrujlrOrwq5cw56vtyPQa9Wl4HhMRERERERERNWXZR4HusTZk70jHjCe+xb8/XYcLnliBj3YUALHhwNHq5VDqrPdkzL82FXOecwmHxJ6DYW5t/Ui2zcfkTydguLeggF+UoIQIUlVNdTvmT0nFhCG1VBjmz/LIw2Tgo4UZlaWLUoZMQMbCj5B67XD1Rey6UapTm4PPKoMLStVpp9rwyztiy/sr8M2xCjVFiEQ38bC0woRXf87CjP0lMB3LwYyfj+PzEiCuf2t0U4f0KScN891KFynVCQ5K9FKjkBdi/brnp2+epYqUdqhUchtVczDbZVm2LxPtH3nZZqRlThP5IcbxVlpOkLaNqnQRfFI7faU3MQwcNQZHBQw4Dm3svXAED5H2iHugj7oIASdmSP0s0Jb/jrxjOsS0qenpuvcq7IRAIzDpihPqN2lIh6Py4yS6ne0aiTaPbHobis02hAYHori0HEGBVcO2aWVGXEQxDuc4UF7mvgkkJFegtEALjflPaaImBB2+AJr4aXDETIQubDAcHV6HzrxRHboJaTcGM6ePhByGyErF9CfTkOlrddsysfqFSRgzdiImPzoH8z9MxfJNe7CnMAaJEeowLvIy9lSWFEmI9V46JkDvLQCSid1r1c70ObjGpcii81MZqCr3XhYlplUdSuOU70HqQ2Nw4XWT8MCTL2Phh6INpz3IkA5AIqBUVxnr0yoPhqufHOOx7GPw1M9qz6w0rPP7bQMXAxOR5BmEq4uAMLnUl/yJTUTKBRPw1NuzMVb+rRase24BVrtEyTJ/noNJl4/FxCnTMefNhUj9MR17duUipoOXdaxLxoTHbkSymJa0XtNemoxrLrwQYx9diHWVbRgJDc9jIiIiIiIiIqKmKxcHD9vw+dvf4sHNAZg49Qq8+8AlWDG1ByI3r8MFbx9F4eHiOtRw41vKnfMxQe1WRGPMHKXasspnLVOA+avc25qZeG1qndrFiR41G0sfyVDGkT+TgXk+Sqi48WN55CCDqNdmGM5xli6KSwTWr6s9MOWLKJ0il8hyLu9s4MZT38YRYnrj3alJyPrqR5w59RtcOvMbXL/kMLqN6ovHo9Rh1m3BdV+VKt2GEDxzadfaqzGMTQI8qppbff5SzHZpa8hVyrhp6vDTkSaaneg92SM/pc80EfCpzlktonO42RmJLusxBZNXzUeiy7JMzlCCTNW2matWS/mqjvPFNGRU5o34qMsl5XtVuvKb5G3MV3oToykuKvQdsWjCLGYTjAENqT2z8ejKf0eQqK2x9T1wFCktwiD8AmDPaJhDxiMw+3YsmxeOi+4sgs57daC1KjcDva5sDatDK8eY9AYDrBVmaDTiybsdNrsDXbskIzMrS44GlpnKodVqMLi3HTqYMH9GEYICnVXdafDnjggkxJYgLsa9pJPNAuxeH4QewywoT/gShvIfoOnwGjQn3ocm5Ew4gqSt+OhDKAt7UPrhziPCP2P7m9LO+6noGoRpX4j2cSxS2iQpTTlVJV47HwvuTFGCSZWkYd6ThvlQDJOIMQ/cjwmDuyIhJlSuvqz6NIG8ZdPluikFUezR247sfZjtmC+dePyL/0+oPMnUNj/v/fOw/NEJeGqtlIFBKbjx4Qcw5swExISK35WHtGmibk95DI+TmQ+2PVh43SQs8N7uYTXGcS8h7b7+VetaFPucovzyQY+4Huhd1snAaVg6p6oxOr/kpGG6s+5RUQzUtTFCVfo8Z7DGiBvf+AmTekq5/vcCTLproXwRkzjqftx/3XB0bR2NUBEY8rmskpIMrPv2I3z06XJsryzdZUTKbfPx8g3JUlf98piIiIiIiIiIqHkowKr/HUXkOd3RN8LLG8CFx/DN7yUYeElX5Tk6nRrieZaocq2uz9Yakam8FNCHQG7+quQYPk/9A3P+NGFXBXBxn/aYdu3ZOPuffXxMDcASR41Artat4As47AXQHHsU9oIlcJRthTXxfQTk/Rcmkw6GMlO9g0ZCUABw57hyWDU2aOwOaLRaxMZEwS4CSbBCq9UDNptcbqlC2mnjYqOhsdjx6C0lePkRq0vQSHDgjB4F1YJGgs4IZO2QTgIOGwJOTIej3Swg/2vYzX8DB8bCaiuEpvAb6E1/qGM0JeKB/lOV7Q1lfHp/terKYPsLq+SgkeSKybj/iv5IjFWCRoLZS42BxsCqEimWMu+lRnJzvb1XEY1EZw12IkjiWs9ltU8DAwpZvyNNBI0kybdPx6QLkpEQ4fxdZmmjkHv5b+86pKlBo2GPfFZVJZzb5zNMU6ursyxbjb+aXIEaCyxqqbO/VipBI1E93uQHx6K/aKPKWQqrpnUTmohB187E/KU/Yenb0zBGrorOgu3vzESqXO/cKcxjIiIiIiIiIqJTLhLDL0nxHjQSItrgcgaNTjGlar1BchtK/5zAIDVoJIS2wdW3jsGm18aj+M3x+HIyg0bNHQNHDWaHtmwFbGFXALvOh7XVPdBqgoGi76A1SLuuPhqmYg1CYhpesGvUEBPio+Jgl47Teq0VubkV0OrM0DiMgM2BCm0ADPoKDOtfjqToAlw+1ITk9qWICPG7VRtZSKAJ5SU6aPStoNWGSb9vrTQPaRZRt0K/axBsMXfLbTrBpaq8JkOXiLH/cbZ3JKorm47521wiGrmZVUVnDcaqEjJCeTrW/ap2uwjt2qvygf/SxT9VrwJPGu+nb7011paArmeodXGuT8OqQ0rnSXE8A85mjMKk3+UmKx2rnT39YkH6/z5SG/obhEEDEqqqhHP7JGD4ucPkoVC+FGlr6radnRTl67D6O7UbI9Gro/ibh8zKdS/ludt1jvRb165Wu2ugMyK62xhMe8BZYDoTf+0VBV5PYR4TEREREREREdFpSNR446zaTHwmI8Oz1hyiRsbAUQNpHCZoAjoCsffD3uEdaIu+g6N8M6BrBQ0c0keDsmIdAiMbHmRJSbYiwXgQWm0ATKYKxLUNQmRENBx2m5STNrSJPIykmCLMuFuD/xtjxfOPFkKvr/t8A2O0qDBpAIdZ+qaBXS/9FtNuuWSVNWkJNHH3QqMpA+z5yghNTfwYPPXMBCiP8zOQ+vDMytIziElCorOkyXepWLorTy6VYjm6HQufnI5Ub1Wztb0Q11ygBmPWz8H055di+9ESlBSWIHPbUsy5ZzqWFnoEa1TJo25U68ncjpenPICFazOQV6gEsiwl0vi7liN11stYLuq9bIi4qvo40z9Pxbqj0jxsFuQdWo6XH1ardvOX5S+sXqYG2wa61MfqRWjvQZXzXb5qHU5p6MhcLOeB/MnJwPYVC/HABCkvypXeiTeNwyC5sFg0kjo582cpUr/egzzx88ozsf3jmZj+hZegX85yzH8zTc5nZ6klMfy6X51rMgG9uign51OWx0REREREREREdBoSbe+412zDoBGdbAwcNZC+6Asg9i5oNBpoQwYAHVOh0QbDETNRWrkaaQg7tHoNrGbRXRfVh5dmgc9eKUOgxgq9Q4cX7i1GoPkEQiLDpL4VeHPaEbzycDGSYgtx4bAcaEUxoXoQcxaFiTTSsguOVrdLv8kAR4cvoQ3uKaXr4Ih7BAG5T8j9myJj/0mYeW2i8qV8HeY8PB/bRUBBl4Ixt6vlh6T0l28fiwtHDMeF103GR7gf065SerkLxbDbp2NYhPItY9nLmHzdGIy5fAyumfIyfmp9P2bf7ayvzEPsGNz/xBjIS1KYjgWPTsTYyy+U3w64cIw0/u1PYf6PmaIyuYaJvRBjr1CDI4eWYvp10jxGSGk3PoX0IdMweaDSyx8la9Iqgy/Jg3rVXOQ19hwMc07755+w6lQGR5ZMl/NA/lw1EZOfXIB0tR2ixFFPYfZNVe1bpYx2VhNnwbpXJmHshcMx/JJrMPlj4P6p7s0uKszI+HSOnM9i+5Df5pCGn75EKa+WeO1MTEiWO09dHhMRERERERERERGdAgwcNYC24hAMZUuhCeolR1scItqS+yYc4ZdCow2U0vRwQI/AQCusZepIfrJpoqRxq5diMRh1sGqsaBVlwcBeOXjkznJpYBtE/XU2TSg6dlCCPZrKoFFdA1aApdgBnV76PdBBKwJIugjYwi6Co+BdaWoOaLU6aEKHQG9aD615pzpWUyPaO5qNaYOdwZRUPPVuOkQ5kMRxL+OjxydgWAe17aKIRAy75SWkPj0GSdLv9ip+JJ76ZAFmXjsMiWoAyRibgpF31jKeJOH8afjoi5dw/xXDkBxblaehHZLR/6IbMW3edIypoVSPf4wYdG8qXrpzJFLUeYjlG/vIAsy/7RxUtdJUmxKsW7Vc7U7GmDPV4JtP0TjnfGeZo3VIW+utyr5TRMpHsT5nvp2Gjx4ZhgTXKuk6jMXL78/EhHMT1XURisRzJ+Glj2ZjTJKc4C6yF8bcNBL9k6Or9kJp+snnTpDyayk+urMqKCWcmjwmIiIiIiIiIiIiOvk0xUWF9SuW8g+zmE0wBgSq3/4ZAXmzgLj7oA8QlaI54CjdCE32i7AlvQ+dNhAajRb2fVfBnLkUq1/S4eLH1Oq/aiWNp4mAxlEKjRzqqLLlQBLGPwhcNyIX/73HDLvWiIn/DsavGw3Y+XU2ggOt6pAi+BQmpiRPpy5+mReIwbdboGs9EZqkd6XfoYHDYYHjwDXQtJ4KhA6Ufq2k/G/Y8r6DJXKKPB4RERERERERERERETVvLHHUAHr7UWgDWskljezmI0DGRCDxfeh1wXLQSBDVvAWF2GCIC0BFub+lf+zQOgqqBY2E196ywWYvwSXDRYCoAjqpu28nEwxGK6x2j0CaRhSDqVtc0FYBGOMNMBrtQKvbpN8hSi9poNUagfYLgSOTYK8Q9ZFJ0w1Oga5inzIiERERERERERERERE1ewwcNYDd7oCmIl/qkv5mPQNH0jeAXgneyNXWib+h58Ee2BspF5jw93KDnOaf6gEfk0WL3cfj0CqwHIN6m9RUID7GBn1QMMor3LNTay+VJlO3llWObNOj28ByaZn7QRt6VmUATFR5pzFIv63jYmil3yp9g9aaD7suXu1PRERERERERERERETNHQNHDWCOmg7boanAkfuU0j1BnQG7UqpIqd5N/JVWcav70DrJipJcLTK3uza84h8HgqWPEZt3RyMnNxsTRknT1BikHiIQpUOXznoYdQ7kFgUoI6hEiSUNbOo3J9+lnvKPSMu3y4CotjY4Wt8ryj1VBsAEjdhcArvBIU1Ce+wRWA89DEv4TWpfIiIiIiIiIiIiIiJq7hg4agC7IQnmuNdhtVphDx8pB1SgVQIzIuDyzdJ1KDNXANE3AGGXYcjNJuz93YDjB/wLHh3NMeLr1aF479sAvPBxazz7dhDKK7IwbpQeGlEiSVMBuyMcraMAo06Hw8d0Uqrvads1QdK/1UsyCSUnNNi92ohB15YD4WOAqOtQYbUh81g+yk3Sb5CIIJgIHmlCR8BiM8Ic+wocepY4IiIiIiIiIiIiIiJqKRg4agQahwU6Y3voNSKgozieX4rn316J/btyRMQF6PQBoEvA4JvNyEgPwN61tVdbV1SsQYdYGzbtDsDH3xix70Qxercz4vc/pemJkkAOKfu0ZYgMNaPUYsc3y0W1ed6zVASUtI6q6u1c5WfqsGttIM682gyHri3sHd6XSxstXvIL8vNN+L87X8H+jBPq0A5YjYnS7/QsyURERERERERERERERM0dA0eNwBHQE3bRnpCqqKQCc1/6Hp++fzeiYoOw50ARNNowOFJ2Qht5IfpdUY6KCi3WfWREYabvLMgrqMCM+ToMTi5B+7Y5ePehUiyeV44NW+xYsc6OMpMGby50YPJ/QxBgz8dvf2nx5w5n6MqVSBMljdxLG5lKtEj/0oBjf+vRd7QJmvCzYev+J7SGKGgddhw5Woau3cPwytw78OFHG1Bhs0tjaaBzlMGhjVYmQkRERERERERERERELYbu348++oTa3azYbFbo9Hr12z/LATMMFTugCTlb/v7c7K8wbvwQdEmMxl/bD+HHnzejR9e2CA4KBaKvhsNuRmzcOsR0seHPbwNw4pAeQaF2BIa7B3a27grF+QNN+H2NFTeMtWHYmVbodQ6MGmLCiYJI3D5TiwvOtsMQEoTO7Yrx4ZMOPDJPgz5d9IiJqCoRJEobaSCCPoryIg0ObzFi12ojeoy2oV0POzStboE9cRG0+nDsP5iNP/7MhE2nRWZOBXp3i0FUlBGF5Q7ERAYCxT/BqusEhyFRnSIREREREREREREREbUEmuKiQu+N3jRxFrMJxoBA9ds/zYGgE/fD3uFtaKHH18v+wGWjeyLvhAUFRcXIzavAwkU/Yt6LtwJaB3QaPewVJ4Bdg6Gt2IMKiwa/fx2O0h3lOPdeK0Ijq4I8gs0G6DyaLiooDIAx0IKgAAcGXxeIVR9K68MghtVgfqoG91znPg1B1G637gMjis1BGDaxBAFBNjn4Y+66Rho3Vm7D6I99x+EoKkdmXiGy9+Uir9iOY7m5OLN/W+k3nYXQQD00h+5AWasXpSl6K91ERERERERERERERETNFUscNQoNtOZ90FoPQBvcG39ty8DhA9koLitDUue22LDhb5SaApHYIQLffvcbevdOglYXCrS+E/awUVJ3GBI7/Ya2/R3I2avHnz+GIG+XDTGdHNAbAK2X2uwCA20wSD//2IlI/LndhisvtsrpYtgzumnkkkmC3Q4cWKfHlh+DYavQoNNgO3oONUETMxqOdq9D226ONJ0o5BeYsOD9lYhrFY6Fn65F66gQbD94FPfdfRH69WqHvimJCAk2QFO8AlZLAexBQ+TpExERERERERERERFRy8ESR41EYy9BUM4tsLd7EzZ9GxQVlkJn0GHt2u2Ii22PtRt2oX1CAGx2I8wmC5I6RKNfv04ICjbK5Xbslkxojs+TMuRHaMrTcfxoAPat1sAQAsR3tCAhxQ6tR6kjwSGNfSQbaB/nno35R7Q4utOI0hwH4vto0CHFDIcxCQi7GPbW90Mb2EUaSgO73Y7/rdiIb5b8hWv/bwRiAjQ4cKIU2/84jLFjz8BLr/2GKXcNRu/ubWGz5EBz8EaUx70F6GKUGRERERERERERERERUYvBwFEj0lizEXT0Mti7LAd08Vjy1QZ075GA/CIT1qw7hvj4MMRE6jDq4hRMnfoxrrxqCNat3Yf77r0IBoMBcNhghw0o3gjd0bugseyF3WbG7o0hOPCTFQNvrkBkgg0anQYOBMCh0ULrKHOrMM5cosHGz4wIiA9A/1HFcqkshy4B9rYvQhsxBtAGyMOXV9iwPyMTW/8+glU//I7J91yDxUvTMfOR86GxB+CFV5ejfYdWuPKyPjAYjbBbc4E9l8Cc8B7serZtRERERERERERERETUEjFw1Mg01iMIPPEIHG2fBYzdYLHZ8OuqnYhpFY0ZMz7El188jNLycuTmZuHzxbsw7oqzENsqCHNfWoqbbxqGHskdodGKwJAFDvNBaE4sgO7Ey6iwOJC114AtX+kw+EYTotu7t2FkKtZgzTsGJA3ToV1PMwKCHbCGXwHETYM2uC+02kDYHXaUmG3QQYuPP/4eF144GNbyCmgCtEiIC8fHn23AxSP7okObUGz5KwNh4aHo0ikOqMiF4+BEmKKfgN3YVZob2zYiIiIiIiIiIiIiImqJGDg6CTTWHBjyX4Q2fDA0UVehosIOu1aD6dMX4Pk5t+Lll1bgwpHdser3g7jvznOxf98JhLcKxbvvrUbXHm1RnFOKs8/phK5dY6GFDjDvg+bEW9DkvQN7RQl2/WKAuVSDPmNM0Em9t/4vABoN0O28CmmdaGCPuhGOmEnQhAyERho/t6AE4aEh2LXnII7mFKDoRBkOnKhAXmYh8ssqEBOuw+03D0FwiBaTJ32O1966CnGtIqHV6GAvWgNH7kJYIu5Qg0ZERERERERERERERNRSMXB00thhKP4IOvsxaFrfCxhicTS7AKuW78CJwgLEto1Cvx5J6JgUhW+/3Yx/jR2EZ+csw7SHRmP4+f/BM3MnYs9fWRh+bkd07pQAo9EAmzkL+kOToCldidICK3572yDNxoF+1zkQ28EOR0AKbB0+hiYoWQ44ZR4vxRdLf0PriFB88cUfGDy4C6687hzExwXjpusWYtr0kejeNR56gw4rft6KwWd3xfETZUjs2Ap6RyE0+UtgL9kEU+unpS0lQP1dRERERERERERERETUUun+/eijT6jdzYrNZpXb72m6NLAHnAGboSd02dIqtmYjLPYc9O7THmf2bwObOQDZOUXYn5GNS87vj+zSMhTmFiMkJBjbdxfhzv87F599sQ7b9xahY7sA6fdqEBYWDU30NbCFjUFAeSo6nl2CjoPsCI3WwNFpKextZgGGKBw8XIzw8AC5SrplK/bi9lsH46MlWzB+zBlYsXYPhvXviLikWGz6cwcWfrgeRzNyMHREZ8RFRyKyVQh0xauBo/+GOewGVIRfJf2UpryeiYiIiIiIiIiIiIiosTBwdLJpg2ENGQm7tRi6E/OhsRcCgX3QJj4MAYE6JCW2ltseemLmtxh/1dnYuvUIrhzbDx8vXI1Lx52NH75di9v/7yKkfv4zKuwaaGwOBLdqD0fU9dCZNkOLUti6rIQjdCgOHi7BvNd+wsGDh3DmgC4IMBqwceMBHM62oKQgF5df3h+bN+5FTFQ4Dh06igvOTcGoUX0wdFh3RISFAiVroMmaJc0nAhXRD8Khay39ALZnRERERERERERERER0umhQVXUF+QX4c+ufKCstVVN800j/dUhMREpKiprSME2/qjrvdMVLYDCvgybqcjgC+0NjaAWblAN/bT+GopJ8fP/1ATww7XykfvwXDKE6HMk4hGf/Ow4//74PP/2wBpf+60wc3V+G8ePOggPlgLUMdkQh/a8MLFy0GlazAY//51K0igyFXqfD+vT9WLlqH676V2+8+s5K/Pffl2P3rmwktI1ChzbRgMMMlG6AvSBNWo5IVETdIWWWQV1aIiIiIiIiIiIiIiI6ndQ7cHRg/37Mm/ca2rVrD61Oq6bW7MTx4+jcpTNuvvkWNaX+mmvgSOZwQGs9gMDMm2GPGAV7/AzodAHQOHQot1Zgw++HkJWVjdZtImGWhh01uBu27snFrFmL8O479+HXVX/jogs7QwsDHHY9Pkxdhb+3Z+LmG87B/NdWY/Yr1yNEL+WJxgqLRYeRlz6D1PfuQlRsKIIDg+T52+0VsOd/BV3W07DEPAZr6EXSgvmXj0RERERERERERERE1DLVO3D0/nvvwmA04oYbblRTanf8eA6e/O9/8YT0iYlppabWT7MOHDk5rNBa9kBf9gMM5l9hjxwPRE+ExiH9Lq0dxSUWfLrwFyBAg4TW0ejRNxmPzfgGj0wbjr4pHVBSUoqrr38es56+CR07xCIswoDpU5fh309ehMiQAGi0GpQUlcFiBVpFh0rzk/4v+RWaE2/BjghUhF4Be+AZcGiC1AUiIiIiIiIiIiIiIqLTWb2LmBQVFyM6Olr95p/WrWPlv3Nmz8aSxYths9nk76ctjR72gB6wRN2Pstbvwmoug+Pg7UDWw3CUrkVoqAG33XkxbrlpBDJPFMJmNuHd965BXpEJGo0NwaHBOFGYjd9+PYjgkCBotUZEx0Zj21+HoXFIk3doER4WjJiQfDhOvCNN+ybY89JgingQptbPwRZ0DoNGRERERERERERERERUqd4ljl555WUkJydj2LDhWPjhh7BYK9Q+3vXv1x/nDhuGe6bcjSuuuAK//vobhg4dipEXXqgOUTctosSRDxp7PgJypkOrqYAt/jHogrrDZjNgQ/purNu4DeMuOwcdOsRL/YFBwx/EpIlX4oyBHdA3pS3SN++S1nUvGHQOOCxZcOS8ChSvhCXmUdiCR0hTZ3V0RERERERERERERETkXaNEERI7JslBpJo+YWFh6tBAh8Qk9B/QH7t371JTyJVDGwVT/Fsob/0ybCV7gb2j4Cj5DgPP7op77xyPxMQ4wC6yziJXaXfl1Wfj+8XrAZsJZw3oDp1lD+z7J8CWvQDm0JtQ3u4H2IJHSsMzaERERERERERERERERL41OJIQGhqKlJ4pSE7uiq7S56KLLsbo0WMq05yfzl26qGMo9Ho9KqxW9RtVp4FDGwFryMUoS1gMh+kENIenQlP6PzjsGjluZLcGwaAJxLat+zD90SsB6wng6EzYcr+EKXoWzFEPwK5vJ1eJR0REREREREREREREVJsGV1WX0qsXXpgzR00Frhg7Vg4azZr1tJqi6D9gAP7v/26Rq6q79777sWfPbumzB/dJ3fXRkquq88luhqFwHvSOPDjiHkJpRSQOZhSiV7doOAoWA3mpMLV+FTDEqSMQERERERERERERERH5r8Eljixmi/z3tXmvo0tyMsxmM+ITEuTvrh8RNKIG0gagIuohmCKnAQdvQ3DFKvTu3gravSNQ4WgDU5vPGDQiIiIiIiIiIiIiIqJ6a7RGb0QJpCOHj8jdJSUleOP11+U05+fX1avlftRwogo7c5uP4SjZDXvGZJTHvwdb0CCpj0YZgIiIiIiIiIiIiIiIqB4aHDhKSEjAqNGj5Wrrzh9xPnr16i2nJ3ZMktOcn7CwMDndaDAgICBA7qb6c2iCYIm6A6bY12DXJ6qpRERERERERERERERE9VfvNo7eeutNxLaOxdhx49QU/+Tn5yMqKgpLFi/GiRMncPsdd6h96ua0bOOIiIiIiIiIiIiIiIjoJKp3iaMunTtj3brfkZWZqab4RwSNjh45it9/X4vkrslqKhEREREREREREREREf3T6l3iyGq14vV587B37x41pW66de+GyXfdDa1Op6bUDUscERERERERERERERERNa56B44Eu92O/fv2oa4T0GiAzp27SH+ljnpi4IiIiIiIiIiIiIiIiKhxNShw9E9i4IiIiIiIiIiIiIiIiKhx1buNIyIiIiIiIiIiIiIiImpZGDgiIiIiIiIiIiIiIiIiGQNHREREREREREREREREJGPgiIiIiIiIiIiIiIiIiGQMHBEREREREREREREREZGMgSMiIiIiIiIiIiIiIiKSMXBEREREREREREREREREMgaOiIiIiIiIiIiIiIiISMbAEREREREREREREREREckYOCIiIiIiIiIiIiIiIiIZA0dEREREREREREREREQkY+CIiIiIiIiIiIiIiIiIZAwcERERERERERERERERkYyBIyIiIiIiIiIiIiIiIpIxcEREREREREREREREREQyBo6IiIiIiIiIiIiIiIhIpikuKnSo3c2KxWxCdKtY9RsRERERERERERERERE1FEscERERERERERERERERkYyBIyIiIiIiIiIiIiIiIpIxcEREREREREREREREREQyBo6IiIiIiIiIiIiIiIhIxsARERERERERERERERERyRg4IiIiIiIiIiIiIiIiIhkDR0RERERERERERERERCTTFBcVOtTuZsViNiG6Vaz6jYiIiIiIiIiIiIjo5Nh8tBxPrTyBH/cUo7yiWT5SJ1WQQYOLksMwc0QrDGgbpKaSKwaOiIiIiIiIiIiIiIh8EEGjc986wIBRCyMCSL/e0ZHBIy9YVR0RERERERERERERkQ+ipBGDRi2PyFORt1QdA0dERERERERERERERD6I6umoZWLeesfAERERERERERERERGRDyxt1HIxb71j4IiIiIiIiIiIiIiIiIhkDBwRERERERERERERERGRjIEjIiIiIiIiIiIiIiIikmmKiwobXIlfcXExVixfjsOHD8HuqJqcVqNBjx49MWz4cBiNRjW1cVjMJkS3ilW/EdWPQ9peV65ciQ4dOiA5OVlNBfbs2YNDhw5hxIgR0EjbMRG1fJmZmXjiif9g08aN0Ov1uOrqq3Hvvfc1+vmLiIiIiIiIqCUpLS3F22+9hc8/T0WHDol49N+P4owz+ql9WwbNo9vVLmqJHM+mqF3k1ODAkdVqxTOzZiE2tjU6JCaqqYpl338vP3xLSuqIuyZPbtSHb80xcFRUWIiXXnoJDzzwAMIjItRU+qdkZWXBYrHAbDbj+Tmz8fC06XLwSASNnN8DAgLk7TY+Pl4di6hxmUwm7Nq1C2vXrEFoaCjGX3klgoOD1b50Km3YsAGbN22Sz1fieP3cc8/i/gcelM5vfEmhJThw4ADumXK3HCCsj0tGjcLMmY8jMDBQTSEiIiIiopMlLS0N6Zs34aGpD/MeuYkTQaM5s59DSq9euOKKscjIyMC8ea/hscdmonXr1upQzV9DA0cjOodg/r8S0LVVAFzfURdlMHafMOPn/aWY0CcCUUE6tY/Canfg+10l+NdHh9QUOhlOZeBIPHOaOvUhbN68WU2p0veMM/DySy83idhBg6uqO5Z5DMeP5+CWW27F6NFj3D7CNddci9zcE1jwzttykOl0JkpjWSosbqWy6uu1V1/FpWNGyw/CXBUUFODee++plk7VrV+/Dmt++00OFokgkQgW/W/ZMrcg0vp16+Th6krkz4D+/dw+M2b8Ww4SOIk8mjjxxn80r77++it5WetC/AbxW7wd3Kh2NpsN+/fvx6JFH+P/br4JV/zrcnz91Vfo3qM7jhw5jJ9//lkd0jexzYj933X7EnlJdVNeXo6tW7eipKRELn24Z8/uyhcggqQbk6joaOn8dlzu9//s3QucVVW9OPCfWZh1MXM0EyrF7GpWiBGmF3zx8IqaEuUzbNJ8lO9HZWomZL5uPjLFrkEZQZnon4um6FXARLiaRuLYNbipo9VgpGPKGMqY+j9rn31mzgzzZAaYge/Xz5Z99j57n3P2ObPWXvu31m+nYMP//v732ffXEaW/k/LvqHkZsK6k30+qJ1J90Z3S/iq/+MWGsiH921M+c8nQYcNiwf88GAt/92inplv/34wssNsZ6fO3VE93RVfK355Q5wAAPU9L561p6mw7sSXl++4N7ZX2zpPT+lI7rK3zvHSu1vz4pedeeuklDefGpXPn8mNemlo610v7S8ubb9f8dZp/n+XHvfm6NF96P82l/ba1vqvefPPN+O///u84YPTohveTprvvvjt/Ruqo/nosWrQorrzyilixYkW+tHXp+JTvq3RsSp97dc6haV8paPQ///M/sVHhv4033jh22GGH+PD2H46amr/kz2pd8++t/LtrSVpX+l2nf9fk77S77bP9u6PP2zeKf7/x2SwIVZr+7T+fjtoVb8Sxn3pvTK9aHpuN/0OT9Zff/0J84v2bZIEn1g8pKPSjSZObXHf45c3T48Mf/nC8VSgfuyN20B26HDha+drK7N8+m2yS/dtcRUVF1mP7ub8+F5NuuCHe7OBFN9o3YMCAuONXv8of0RmpUkkXjD/5yU9mj1OQ6Jhjj43/+I/Ls39LaesG7bprPP7446tVCX37wgubFADv3/r98fnPjW04uUzf389+NjX7l/VXOiFetmxZ3HHHHXH2WWfG8H33iYnXXRvvec/mcdnl/xGz7ro7+63su+/w2PljH8tOjjti+0JlMmfufdlvK/074//N6HGNsfITup4mjTb8/tVXxdSf/Sy+cNSRccThh8dvfvOb+PSnP52tf8c73hF7771PXPjtC7K/2wu+9a1sxOhdd92Vre+o8hOBVAZcdNF3es1JbdJe47nc5ptvHlMKx3Pw4MH5kg1X+o7vuee/s0BVVdVj+dK1K/3tlTe41DkAQFvKz1tTR5u/LvtrFqDoyHlga/77v+/OzoHTPg85ZMwq5ye9STovvvDCb8e1103MPk/69+pCe6L58UnngTNm/L/4t6FD8yXFdlFqU6QOayWlc+fSMU9T+g7SKPePFdqF5dJr//HJP2YXFFNa7fETJmTPL31P5W2uST/6UcMxL7UTSwGT//3f/42xYz/X8Hrpeen5zaXXS9/dmpTey7x598e0adMa3k+a9t9//6wNnXrjv/rqa3HUF74Q2227XVx++WVtBo/SMUjHvbyT2Ec/+tFe1fbqjUpBo49//BNZZ7vf//7xwm/u/2UZflLH2K226lj2jvS7L//uTj3ttHxN21K5cvHFlzRkhegNZUyKB7zxZtOgwEN/ejXmPPWP+MvLr8f0x1+OupVv5muK0tM7Gkc4etfNY/n4j2ajZ0pT3YSPxrTDPxB9N+lyGKBdpdf/3zN3yJesavZx28XK7+4c3xn1vuw93XXMtlH9jX+Nz35ss/wZq0rPTdukbddHpexXaYRlv/7986Xr3hr9xaR7w7xZ+HVvscUWccYZxeDRjT+9Meu9Tdftuusn47e//a1eE6shjR5II+A++MEPZo/TH+iNP/lJfOMb52T/psdJ/8If65tvvLnaqY3KpYrv+BNOEOzbAKST3PkPPBDfKZzQHzB6//jmOd+Il19+KU4+5dSYe9+v48qrro6DDjoott5663jb27peDKdGx2mnnx5/etaw5Y5KZWdy8SWXxIz/mhmTJk0qNPy+H1tuuWW2PNltt91i2s9/ET+d8rOYNHly1kC7b+6cbBTS6ji60PBONF7WnTTKdOi/7bFKj7b2puYN/faU6ozUkJkzZ06XLrgAAKxt6SJsuhj7qU99Ku6//9f50s5L7ZMPbfuh/FHvljoDDfnUkIZOOOnfj+zwkVWOTzoPTCPVS8Gf0kXsFBRqSynglAI7zVMjp9ceMWJE1u4bOWpUw3tIz0vPTym30/bpnDMFmA76zGey9en5YwvnsSktepI6eJV38krPS89vfq6arln8+7/vnz9aM55++qmsvbVFRUW+pNi571e3355l5Tj++OOzNOIpWJaCRx//2Mfj8ssuzQIVLUm/tbS/8mOXjlXzY0n3KQWNdv3k4Czl/nve8574xjnfzIJHXzx6XAzbc8/o169f/mzWtqXL/xlTH30pbq56OV57/a04YuBmcdGonpeGf5u+b8+m97zzbauk6NtQlN8yZccdd8yX9gxrNHC07bbbxc3TfxnXXPP9mDZtaryjT59Y9Oij8Ze/1OTPoCsqtqzILhb/4Jpr2rwoVT7sszScOp1UNB+qm05oyiPzvbk3UHvSiVc68XjXu9/d5A809XIopa1Ly1Me3dRLpbt6jA8cuEvDiVmaytMKpn/L0481/25Ky0u9vkrfYfPlSWnfv7zppmxd6Xss/y2k59e+UJstb03z91Tek+nvL77YMES++TD98tcp3670nmffe2+r2zb/XOm55ccpSfsrrW/+uUv7TVP5+11b0gi1Y489Jh5d9GgcMmZMzLzt9rjxp1PiC18YF9tvv302bHtNSL15StLxT8cwpUJIx6H0Wyo/bs2PT2mb0m+m9L2Uf5fNy4Pm33Npfek7/OlPb8yCZ+Xfcfk2zb/7tSk1QoYM2S0bWZS+kzRMOAUGrrjie7HH7p/OUiakUWJpfd++fbOOECnQV1GxZfzpT6sXoPv73/8edXV12Xzz32o6Xum4lZR/V+m4pqn591Va395xbP5aKQVnueZ/c+XlRQqYpGDLiOH7Nlleem6aSu+rtJ+0viXln6n873ZtWlup6lKdsfPOO2d/8+n389RTT+VrGsvnVLal766l41F+rNLU0jFNy5r/btKytK8rvve97G8v/Q2Wti+9bvlvJS1v6XXSd11a1vw1AIANRxo1Ux6UaN7GbH4eWTqnKS0vbw9896KLVjk/aS5tW37e2vw8s7XXKd9X82Xl5zvNz5ubv17z8+T2pKBY8857pfPAUsAidSDtyOiJNAInaT7aKH2eJ554IruW0JLUDkwjh9LrpXPOdO65zTbb5GubXoNo7sVCmz49vzy4ko5XGsVUys6ytqTRRBdf/N148qkn42dTp8XN06fH9664IgYN2jVrr4393OeyUS0pS0xLI4/Sd1H6rbamK9cw0u8+bZPm07LS8tLzS22lDUV50Ojggw9u6BCbOminKXWaPeigz2Tt6K4qbxulY/7KPxo79KXvrfSdpO+gvTJmQ/LSa2/EF6fXxBE3/SVuePjFeOOtiI+/v+cFUv/vhfoY9IOnYovvLI6f/Pbv+dINR/k16VL2q55kjQaOTjjxxPjU4E9lHzxNpZ4Nr732avYvXZeOaeoFlNIttSQVlCmwVEppNeE7F8XkyZOydak3RqnnSTqJSD3w01Q6oUgnQOXDqzsiDSm+/fbboqZm1eBgWpbWpeesS6lCSRf3Uxq6NPotXQQu/wNN/6bHaXla35V0dc29973vzf5NF5DLpX2n7yV9P+l7St9XSvOYNFyszS9gnnDCCdnj1JNp3332zZalC6Ef+OAHmvR2evmll7OREWl9OlFt/ltIoydSj6bWpJOo8qH4abstKxpHY0ydOjWuKby3tC71Rkrvv3SMUsFXep3UsyoNjy8/UW1t2zSlVF7pt5nWpekPf/hDPF120TWdNKQTwtLF39SDqvT7T/+mx2l5Wv+Rj/xrtnxtSj2n0siSU089LXbZZZe10sMpHdt0jMv/XtP9uvbb79+zY5HKiXTc0nNK30v6tzxtQZK22fRdm2br0+i4FDRIZUR6nC6cP/LbRxpOrtN2KY1bWl463qU0Cekzpx6KX/rSMVkavjvunJX1imutPOqOv63OSie306ffHPfcc0/2d556t10/8br40Ic+FPfPeyBLmfDg/yyI++bOzZ6fGiff//7V8Y4+78iCyasj9dxLvRJTz7/UqEuB/9J38Zc//6Whsdj8N56+13TyW9KZ45h+G6cX/v5Lr5X2+fjvH8/Kh6T531zpe0yvkX436ftNwZb0WqUGb3t/3y1Jv5s08qbxPX8nX9NzpPdYnnd+daXtS4379LdQXteWpON/36/vy45vOuap/C6VY2n7V1e82vD9p7+hVFY3f1+p92UKRJaPiE2vk8rAr33969l26W8w7aO8Z2lJ899Rei+bblr4+y8sT7+B0uunoDcAsGFK2WPS+UbpPKR5G7O1NmlL7YFvXXBBu+cnrbXn2nqd5uda5QGYts6b2ztPbi6d25W3h0ptsHJpWTrnbS3I05r0flobbZQ+T+rgVh4MKim9h85et0lKr5mOX+k10/6mTPlpHHfc8fHOwnnh2pLuI/vzQvsrfcbTTjs9ay91VhrpnwJoKbtAak+1pCvXMNJvI50vp9910lobqrPStabUUa95ZqaVK1fGrbfeusq1o56gtaBRWn7VlVfEkN0+3WR5R6RrEeWZIUrHcpXrP4W/kVtvuSVb11wqk9orYzZU73z72+JtGxW+o/ri9dhxu24eS87+SPzz4p2z6Ykzd4jROxY7SpbSyP3ssP5Rc+6O8eYlH4sXv71TXH3Q+7P1LaWMK089V5Je747KD2XL02s8cvL22T2eWpLS2qX0dinN3e4f2jT+56sD4vXCNinN3t8v3CnOGtY4MvGdb98oqk7/cPa+0r5v/HzPSevWWT09aJSs0cBR6rkw+oAD4oADDmyYNgQpTdUJxx/XUOCVptRjOxWG6d/m69Lz03arI12kTj1ISicw5UoXkUoVbzp5Sr2m04lXOplJkfpUUabKKAWg0g3603yqIFPFly5MdUaqGEaOHBV3zZrVJHiU5tOytK47UnN1RfrsKf1cSkOXej+kId/N/0DT47Q8re/OdHXtKY0aSd/Xdtttl32n6bstpbhK0kXctD5diE9Dr5PSCXN5b6f3bP6ehiHqSfPfQto+BQdaky5yf+5zn2sYBp+2S69dkk6wS/tKr1PeoDjiiCMa1qXfUHov5Sc8rW2bjnGaT/eWKUmfPd3PJ0nPSScN5SfU6bnpt1o6qSsdg7Q+9fRaX6VgWqksSf+mY1p+YlSeG7t03MqPe/o3/R7KG1lpm1JKglQ+fOzjH2/4DaWT+JTaMfVKS9J26ffTWpqElrRVHq1t2xb+vi6+5NKYM/veWLp0afYeVtbXx0EHHhR9+vTJUiZ88YuV2edJQaV0o890Uf2ss87ORiJ2VHldkJSCL+m7Kn1f6Xik8jf9/bf0G0/PSye/JZ05jilAlRrWpd9C2mdqCKa/yaT531zpeyz/XTTX3t93a9LfaOl5qXwr7WNte/rppzsUIFrdQFLzxn36W2reyzMds6xBXjjepWOeyrH0WunxEUcemf2bpO3Ly9eSdPxSPVVKf5r2n16nIxcq0r7ShYLyMiH9LZfKzL/8+S8Nr1feYxYA2LA1b2O21yZdHS2159p6nebnWuk8thQMaeu8ub3z5ObSezj99DOyznXp3D4Fnfbee+98bVHaZ+ooVmojdVR6P+l9ld5LuewzlLUNStLnTe8hfb7OXiBP53kp8JECLSngUpICd+n8srPvv6vS56+ufjqOOvKo7HE6X0+d/FJHxTRKPwWW0n1zfv+/v49zzvlmq+2x1NZKAYbUnmo+oijpyjWM8u9gddpQrfl4oc39yj/+EfPnP9AQPEpBo1/+8qZs1Fep83FP0VbQqKXlHdX8HkfpN52+m/baxrRu83dunAV/fnnkB6Lyk5vH3199I2567OUsQHTpv78vtv6XjeM/5tXGjQtfigFb9InvjCzebyh5+9s2igN27Bt3LqmLyb/9exYE+tLgzeP4IR3/PQ54b5/YZrN3xPjZf4vf1rwWg/tvGt8avlW+tnXn7rNVfPqD74q7/++V+OrM52Lx3+pjs8JnKdntA5vGX17+Z1z/0Ivx6utvxsEf7RuHfqL1eyP1VK0Fjd620UbR5x19sn97gnV7BX89lVIepR4KpQKvNKXeC6kwLPViKJ/S89N2q6N08ah5j/M0ny5EpaGapQuXKYKfovPp4m+qgFKFl6Y0nDr1UkknZmk+nfCkk4hSxdkZqRJPOWhLwaNS0Cgt68wF1zUlfb40YqCj7yU9r7vS1ZVOPJpX/qkSvOCCb2eVYvqeSqOMWho6Xi49r/Tdpu+5NaXfwgc+ULynU3s6+/zm0glaOlFL7ysFNcpHDLWlvc+b3le6oFl+MT7t/7FFi7Jj23BRvrC8NFx5fZWCaeVlSVuNhXQc0olt6jFYLn2/pYvVzaXfaAoUtXSi2trvo3mPxHKlbVorj9ZX5XVB6feZpONRntqgNKIoLW/puyrp7HEsT13RkrRNKRVdaX/p76u130WyOn/fqfE5YcJ34tRTTs62W53eeL1FajCW95grpfvrzP0B0vEpfR9p+7Z6vpYulHTmQkVbv7NUlqRGdfpuW2pwAwAbjvbaZ0lH26Qd0VZ7rrXXSec+6RwonQulc6J0Hpsu6Ld33tzeeXJL0nlS6dx+ys9+ll0sL7+HUzoPXJ3RP83T25WUPk/zDr3pXHHcF47KsoiUB35akzo0lfadzu3S+WW6GF/ePkkjO9Jrrel7G7Vk4cLfZp0WH//97+PQz38uu91Fuhb13sK56svLX45f/PznsXjJ4jaDRiXpc6ZRQWl02fgLL2wIKLanM22c1WlDtSZ1Vt5vv/1ixYpXs+DRq6++mgWN9txzryztdU+ypoJGrWmrzUL7+m329mwEz+ED3xN/evn1LGXdLx97OcbsvFl2T6EURDrvv5fF8TOWxhN/Wxkf2bJPfOajffOtI255/OU4obAuTSmI855NNo5PfaDjIxH/+so/4+Tblsalv34hLr7v+Xj+H/+MHQuvsed2Hb8uvLDm1djvJ8/E5Ecag7gptd3hN/05Trn9ufjfZSvjXzZ5W3yiB6bgS9IAkQnjx68yUKStkUYpNnBhYZvVjRF0N4Gj9USpcp91553Zv0mqMNOJUEtBrHTCkyridIKV8vim3jrpZCRdhEopdv74f//XpZtYloJHqVdImnpK0ChVPKU0dZ3RXenqUs/wFORrKSBXOsFJ30+STozbuhCf1qfvqPSdpiG5rSn9Fkojmkpa6w3W2vM7Ip1wXX31VTHt57/I3lcKbpRGDHVECgyVf94UECqd7KX3lUbFldKjlaZSKrQknfymZamXWepF1dXvrLO23/7DcdMvfpHlQE5pHJoPOV8X0nFLDb6WAgudbSwlbf0+yhsl5UrbtFYerW3PPvNMnH/euTFi5Kjshp3pfW/Sp0/ht3RHNsLoxdra+NnPpmS/ozQC6d/+7d+yk/irrrqyxZzanZF+k+m3mRprpWNQ3msqBQnKv6v0/NQISTp7HFsKDqZ9lwIRqYz5/KGHNundlaZUFrX0PXbl7zv9jaa/1bRNShnSU4JH6TOlkUXp+01KI5JKjzsjlVUpkNO8jErfV+oY0JHyKB2XNBqo9J2kfbXW8zX9btPfdrpQ0pkLFem7ba1MSEoXRVKq0pSyNB0jAGDDks5bWkufVtKZNmlHtdSea+910jlQOhcq7wDb3nlze+fJ7Smd95VGe6fzpfS4eZCnPen1W7uHUep4VPo8JaVzxXSO2LzDUEvXD1JQ6l/e/S/Z8Sg/ly9vO6Tnp3PV8s5PKRCSHqcg05o8F0yjif5vyZL46Y03xrzC573hR5Pimmt+kKVdT58vBY2eefaZOPvsr3XqmlJnMiOUH5f0+2ivjdPZNlR7yoNH6T5PgkZFLbVZ0m+11DambSkY9MHL/i/mPvWPGPj+TbJRR8mHK/rExm/bKL7y6S2yVHBp+mS/d2YjXDbOR7n888234vl/vJHNJ6/Uv1n4nUZhu3xBB6S0eA/9qdimTvOvF/aZ9vGOjdseSXP1/Nr4Xc2rMfpf/yUe/OqAuOfY7eID73l7vrYYkKpbWUy59+o/1/31tra8mW6L8Hp99m9Jb0hPV07gaD2RCtQ0rDqdQJT3jEgnUOkCXWu9LNL6WXfNine/+93ZyUgptc6CBfNbPHHpjFSpn3zKKdnUE4JGSapk/vh/f4wjDj+soWfIL3/5y1Uu7qfHaXnpOen5abvyE7DOSNulHlOpgmupB0/6ftLrlZSCdqWLgqV7XySpZ8uyZcuyfZVGfJRO9NqS9lmepzedHP33f9+dzbck/TYm/ehHDSeJabv02u1JlXp6z6UTpnTy3tERR6WT7PKe+SnYli7iJ2mfqSdWS/dzSY9TsKa0vPlomLXlE5/4REy8/ofZez3l5JPj6HFfWOdBpPReUsOrvCxI/6bHHb3Q3Fzz30c67ul7aSutVXvl0dp0++23x+FHHFn4e/z37EQ9BYdOOvmU7N5me++1Z4wbNy72+Lehse/w4dnzUxl2xhlnxuv1r2f33eqKdKzKe06l45HuL5ekcjilrUtleem3nFKfpUZbSWeOY3qNNCKvlOs97TPtuySVMSmtWltlQbnV/ftODdxSoChtm9KCrGtdCRC1Jh2PdHxKdWlJKtvSd55G+Lanee/X1Nhv7QJGek66mJN6ZabUsy2lN2lJ2q55mZD+ltNFi5QOpPR3nUYcttTRAQBYv6XzgxNPOCE7J2mtk1c6r+xsm7QtafuW2nMdeZ10rpWek85zy9s3bZ03t3ee3J7URi8f7Z3O2VrrJNqWUhaY5pke0vtJ52blqQFL77G1YF56L+k9la4fpM9dfg+k1jqypn2VOrGWphRwSxlzWgpQdacUOEopw1NK8HO+eW5stVVjKqu3v/0dMWjQoA4FjdL1lPLvOZ2Xp3PoljJoNNfZNk5n21AdUQoejR8/QdAol76PVAa11TambX95+fU49fbnovrF1+NzH98sTvu3iniqtj4LDP104Uvxxek1DdMJ/7U07nv6H9l2KTXdu97R+H2+/1/eHoVN4rXX38q2TZe2Nn17YwAoPb+5PhtvFP+6ZZ9s/v19357t7/U3oiHo05pfF97DkIlPx8gfPxsP/fnV2O2Dm2bve33Q24JGicDReiRV5s3vWZNO8lLO2/IhtOVDvtMJ1kaF/3YpVMZJKphTb5Q0JK75ha/VkSqO7q48uipdsCyl+JpVqHAW/va38be/LcvXFqXHaXm2vvC89PzOXuhsPiQ+ndy11gMlLXv88aqG56cT4fRdpuUphV06CS6tS4G+9xS+n7S/Usq21Aso5URuSxrCXv5bSBf5x407Ol+7qvTbScO7077T89N2HblBZunCZamnUqrkOzoiIZ3ApuH2KSCRtk1TShNYvn35TS9Lz0k90NKxSsGZ0vLUQPj617/R4vFe0yoqKmLMZz8bR33hqBg+fET2Hs484/R1GkRq/v2nf5vfF6kzmv8+0nFPF6LLUyWkRk76Lkvprtorj9amwZ/6VDz8m4ey0UWpsZKGDqe/oa997evx4EO/yf72DzrooHj99dezC/7p+0oB29raF+JDH1r90ZhJ+p2nBlvp2KXc5OXlS6kcL/2WU+/J8hFJnTmOqV7IRo18+4Lseek1042FSyNY0m8z/Z2kBmVpX2kqBXlKjc/0WunvbHX/vlPDvPQeSr+V1f3t9VSlhnz6bM3LnfSdp+NYuh9RW1JqlRRILH0X6YJBayOOklI93jxoW76f0vdZrnmZkNIIpvt4pZQg5eV+ZeWX1ujFAgCgZyhPB15Kg1aeyqy5dN7R2TZpW+cnaX8ttefSeVR7r5Oek9qISXlHmrbOm9s7T24uBSUqv/jFhv0kpeOT9tfaqKH2pKBFOk9Mn6FcqcNRS9dlyr+rNJWnF05tidL1g/S5m7f5yq9TlKaWzhXXltSB71vfuiC7P3rza0cHHnhgXPDtC7Og0Z133plNrdl003c2+Z7T7+eaQvul+XFtSWfbOO21oVZXCh69/e2NIyt6ipTZaMeddlqjQaPy0W5pKv2dpr+x8us/zdvGzbXXBtoQpZFHv3js5WyU0Qm7vTf+/NLrWfDmoJ36xqB+78xGAB2yc98ssJQCTUkaeXT0ru+J74x6X/z00P6x14B3Z6nm0j2P/lDYXxpBlNLD/XDMNjHt8A/EHh9aNbC73XvfEZPG9o9z99kyLhi+VbznnRvHg39aEY/8pe2Om/9v3Adj6mH944PveUd2X6Z11QG7u/XGoFGyUd3yl7v0DaQP/oNrvp9VuB2RLkycdvoZXT5I9Stfiy22fF/+qHdIJxrf+95/NJz8sPY1/w5SAXTzzTdnf7zNpT/mww8/PKu8fXfrTjoBTsPGv/Odi3rdsZ89e3Y8++wzceyxX84ev/DCC5F6Jf3w+uuzhspBB30mRowcGVtuuWX2O0t5pZPy4AtrRjoJvfyyy+LFv7+YjSZMPcy2fv/W8e1CwyR9H0kK4F783Yuyk/f3vrc4OijdNLV0Y961Jb3XUmq79S3YsjalsiTlCz/zzLNWCey0pyvbrmmpfvr2ty/I3psADwDA2pcuUKdgQ+r02V3niqX0fOtr27CzbV9t5XUjdaT8/vevjoM/c3AWPErW9Eijnmyjc4sjFFdXCsR8YdB7svsKpRRy5VZ3XXPpvkYTD9km/vzy6/Gxq5/MlvXd5G1x1zHbxu4f3DSm/O6l7N5AZ++5ZXavo+Sl196IaY++HKf96rmYfdx22X2I5j+zIhvt8+53vC2eq/tnfPe+5+OHDxXTBt7w2X4xbtf3xKZvf1v2Oi+seCM+vvUmcfn9L8QfX6jPXn/p8tdjxetvxaBt3pmlqUsjic68469ZIKv0Gun53773b/G/Z+6QBYpOvu25+Pd//ZcsiPXOt28Ur/3zrZhXXdzuiF3eE+fsvWU8UHhfIyc/k72P5vvpqpS2rzuVriUffPAh8ePJk3pd0CgROFqLUo/2q6++Os4888wec5OrDc3qBoAEjtaN0gXz1MOkrd5uPVXqPTZhwvgYM2ZM1vOltrY2vn/1VbH77nvE7nvskaX+u/XWW7Lnph5Wf3r22Riy26dj5MiR2TLWrDSS6KmnnowddvhIlq7zF7/4eeHv+71Zz7bSCfIBBxyYjeT461//mqVM3OmjH42NN94438PakRpJqTdbR3vM0bIU/EnnIB1JF9eSlKqjOy8GdJd0USHpjWUkAMD6IJ2PpXRw3dXJa0O4/pDuIZ06Zp191tmxRUXbaahSO+zKq66MI444MksNz9rzt7/9La6+6qr4xjnnZGn/NuSgUdIdgaMUcDnxv56Le//4Sr40YvcPbRpXHvD++NQHNo0bf/tSfP2uvzZJ6fbd/d4XRw16Txz3/9oPHHVVdwdjepM1EThK2YfS383Fl1za64JGicARG5T0R5vSQv3+94/nSzru4x//hAu3a1gpUFSeszYNQ+7NF0TTReprf3BN3HfffVmagWO/fFyMHj26IfiQRr2lkUi/+c1v4u2FZemeOptsskm2jrVr/gMPZA2Yr550Uhbo/973vhdnnnVWw72I1pYUKEopJEqUPbQk9WxNaUp6akALAABa8+abb8a9994b13z/+7Fs2V/zpS3beuv3x+lnnBGjRo3a4AIV61q6djZ50uRCm/Tj2b3Q0/WNU049LQ5oIbXghqCrgaPhH353XH/INvGvW24SG5XdFyhlY1vywsq454+vZCOG3rtp086q6b5Cs5a8Eof87E/5kjVH4Kj7pOtKZ5x5RnY/veZSR4Mrrriyxw8s6XLg6M9//nMWbf6P712R5cZvy4oV/4hzvvGN7IZ3H/hA126MLXAEQHdKJ8EXf/e78eCD/5Olpzv6i1+ME044Mcu7DQAAABuSBx6YF7PvvTf23GvvbLTXVltttUEH77oaOOoNBI4o1+XAUbqp+CUXfzcrPD607bb50pZVP/10vPTyy3HuN8+Nt3Ux1Y/AEQAAAAAAa9qGEDjakAkcrarLgaMk3Sfi3nvuib/85c/R2s7ettFGWWBp5IiR8e5/+Zd86eoTOAIAAAAAYE0TOFq/CRytqlsCR+uCwBEAAAAAAGuawNH6TeBoVe4qBwAAAAAAQEbgCAAAAAAAWrHpOzbK51jf+G5bJnAEAAAAAACt2O8jffM51je+25YJHAEAAAAAQCsuGL6lkSnrofSdpu+WVQkcAQAAAABAKwb33zQeOHFAHLLzZgJI64H0HabvMn2n6btlVRvVLX/5rXy+V6lf+VpsseX78kcAAAAAAAB0lRFHAAAAAAAAZASOAAAAAAAAyAgcAQAAAAAAkBE4AgAAAAAAICNwBAAAAAAAQEbgCAAAAAAAgIzAEQAAAAAAAJmN6pa//FY+36vUr3wtttjyffkjAAAAAOjdXqlbns8BwOp7s4tRHyOOAAAAAAAAyAgcAQAAAAAAkBE4AgAAAAAAICNwBAAAAAAAQEbgCAAAAAAAgIzAEQAAAAAAABmBIwAAAAAAgA3E7bffns+1TOAIAAAAAABgA1AKGrUVPBI4AgAAAAAAWM81Dxa1FjwSOAIAAAAAAFiPtRYkamn5RnXLX34rn+9V6le+Flts+b78EQAAAAD0bq/ULc/nAGD1vdnFqI8RRwAAAAAAAGQEjgAAAAAAAMgIHAEAAAAAAJAROAIAAAAAACAjcAQAAAAAAEBmo7rlL7+Vz/cq9Stfiy22fF/+CAAAAAB6t1fqludzALD63syjPosWLSrOdMKgQYO6J3D0z3/+M37x85/H31/6e76kdRtv/Lb46Ed3jn33HR5ve9vqD3gSOAIAAABgfSJwBEB3WOeBo/r6+vjhD6+PTd+5aew7fHi+tG3z7v91bLbZe+LQww7Ll3SewBEAAAAA6xOBIwC6wzoNHL322msx8brr4t3vflccd/wJ8fa3vz1f07Y//OEPcest0+OCb1+YL+k8gSMAAAAA1icCRwB0h64GjlY/V1zBpB/dEO/adNNOBY2S9NyU3g4AAAAAAICeo0uBoxdeeCF22vmjUV1dHX/84x87PP3lL3/O9wAAAAAAAEBP0aVUdRd++4LY9F2bxqabviterK2N1//5z9h6663zta179dUV8eqKV2PCdy7Kl3SeVHUAAAAArE+kqgOgO6zTexylwNG4o78YH/nIR2LWrDvjxdoXC4+Pzte2Lo06mjb1ZwJHAAAAAJATOAKgO6zTexwBAAAAAACw/ujyiKMXX3wxf9Q5W2yxhRFHAAAAAJAz4giA7rDOU9Xts+++8YEPfDB+89BDsXz5yzFqv3/P17buL3/5c/z6vvsEjgAAAAAgJ3AEQHdY56nqUtAo3eNoi4otYrPN3pPNtzelbQAAAAAAAOhZujzi6CMf+dcsaPTHP/4xXn11RQwcuEu+tnUv1r5YeP7/GXEEAAAAADkjjgDoDut8xFFn/fOf/4xHH/1dbLFFRb4EAAAAAACAnqBLI47GX/jtOOoL4+Jf//VfY9asO7ORROOOPjpfu6oUNPrxjyfH8397Ps4866x497vfna/pPCOOAAAAAFifGHEEQHdYpyOOtn7f1vHwww9naepS0Gj58pez+damFDT627Jlcfrpp3cpaAQAAAAAAED369KIo5dffilu+vkv4g+L/xBvvvlmvrR1W2yxRZx55tmx+Xs3z5esPiOOAAAAAFifGHEEQHfo6oijLgWO1iWBIwAAAADWJwJHAHSHdZqqDgAAAAAAgPWHwBEAAAAAAAAZqeq64MUX/pbPAdDbdHcdok4A6L3UCQCUrOtrTVLVAdAd3ONoHUoNwnX9HgDovDVRfqsTAHondQIAJT2h/BY4AqA7uMcRAAAAAAAA3ULgCAAAAAAAgIzAEQAAAAAAABmBIwAAAAAAADICRwAAAAAAAGQEjgAAAAAAAMgIHAEAAAAAAJAROAIAAAAAACAjcAQAAAAAAEBG4AgAAAAAAICMwBEAAAAAAAAZgSMAAAAAAAAyTQJH9Stf67ETAAAAAAAAa1aTwFGfTd7ZYycAAAAAAADWLKnqeoCqa3aN026vzR81qr391Bh8TVX+aM1L76Ph9ZbNjNM+eWrMXFZ8CMDasWqdUBVXf7KsfO6k1uoYAHq+7Pw81QENU88/P8/aMKfOjK7XPLUx89Tmn/+qQq3YaNXj03R9+1p6DW0gAAAQOKLBwNMfjYWnDyw+2HpM/OB318aYrYsPAVgX0gWtyqgeP7uxfAZggzI01QG/K5ynF6Z7xkdcNLqzwZGuSh0YOh5MqTj42lh47ZioyB931bifFD97mm6snBrHNAtKNT0+1XFMR4NHWUe5kTF3VOP2xX1EVD+XPwcAADZQAkcA0ENVXTMyLtphSvzg4O66/AZAb1Zx8PExLqrj6Q10RMzAIy6MoQuejpr8cXMVB4+PC4Z25PjUxszvTogBP3l0lTo2Bb7OHJQ/AACADZTAUW+y6KomaRRKqYeapyFaJT1E2q7hcZ7yqDSVPa9parzO9SwEoHulMvmYmLLqSKNW6oKSrCwvK+Ofzpc3aLJ9eTmfl/uLUg/s0vqmvbab7LswXb0oXwHAOtL6uX2pDVDVUHbnZX55PdAkDWrTfWX1SzYqpzKmxfy4aHRhefO2Q8Pzy+qLJm2PYiq4qxeV73tNtjFqonpBPtuWRVPiorgwvtiRAFF79ebt+fp0LDt9zNuqW9uql0vHNXuQKy6TnhYAgO4gcNRDLBg/skmDIU37jZ+fry2quj/ixlIahZ8cXdhmStZwGLh3Yf7eBxoaZw/cW9huwZx4IG/U1P6pOoaO2rOYLmLR7IiGdA9TYtyCCfEzF/4AepZ7x8d+946Ie1pIT9daXZCki0/ZdqX1X346LpqSr0zShatjy7cfEBd9t+wiY7ow+OOIC7P1s+OCoVPjmIYLXIX6pbpx3/eMHxbTfly+LQBrWtU1lTGt8vjGdNLtndsXHk+O8Xm5ndLcFdoZ948sPv+uC2PolEkNgZC07yw1arav2XHchwoLs/TVhf3GsLjgrsLyPAVd8/omSxHXLCBSbtqxs2NE/twbKwt1TZO6p6OKo4RifGW0lry19vZJMW3oiNiznXTbqX0UO2zffjq9jtSb1fnxLNXZnTjm7detrdXLFbHnqMJz7y875sseiLkLjo7jjFIGAKAbCBz1EOW5uUtTajiUG3j6WY2NpEEjG9NUpPmGlA01haUXxgWFBlkxN3cKJEUM/3TegBh0VlnqhYExojKi+k8u+wH0JKmz9NCyDgDlWq0LsvJ+foz7ctl9JQpl/o2Fcr6k6v6phfqm7ILboMq4IMpfZ1hc8K3S9hUx5stHRzz5dH4Bq/D49MZ9V3x6RJvpggDoHuUdzObsXWgnlHcqaO/cfuiFcWEeSMjK7VTOH5Fvv/WeMXxoqc1QtKC6VKpXxMBBDbVJM6vWN1kKvSmzGzoyNDfuJ411V3vp5pqbdmzxsw/+5PiIb62aWq78+GTBrNW6v1JxtE5pPw2ZHTpSb5aOZ0mnjnl7dWvr9XLxmDcGoWp/MycWVI5sfK8AANAFAke9SZYqotSgSSkjSvrHgKFTY07qXbhodlSP2jPG7H10sQda6nkW5b3umjaKjinviQ5AjzB01Pj4QerVPLqFdD6t1gUpPc+wGLBN8dGqauPpJ5teYBv8yZFx0YKmFw3bVJ5qZ/SELMAFwJrV0MHsJ4Xz+2ObphDt1Ln91tvHgMJ/27cyGmfg6Y/GjVFZ3Fd5yrtVFNPBNQZ00pTqozVz76Vx+YiqbPROCyOVmnTA62DQqOJDA8o6RiQVMeba4j4aO1x0Q73ZzjHPrHbdmgKF82Pub9KnKHYWXCWIBQAAq0ngqLdIFwpHPx3HlRpFWcqIksZUBVX3VxdHF6Ve6KnX33NPx4KGNAypYTkyqr9c2kd5wwiAHmXQWXmKm7KLhG3WBakTQfOLWcWLXkUVsf0OjRfgyqcO3QQ8Xdj68faNafBSup18FQBrQTaKtGkK0e4+t0/Bo7Sfe0bNif1aDR6l+mZYMXVdqU7IpmsbU+itARUHj48LYkJM6I57+GQZG1oe2duoi/VmR3Sxbm1IWb5KZ0EAAOgagaPeIgWAhm5faKblFs0u62VeaNaktAZPTorJT5YaDKkHWnVM/vHUGLd3qedZ897oVTHHiCOAHqvi4GuLFwlLF+/arAuKF7ia3Bsh3fy7rOtyusC0am/1jml+P4gsJU4+D8DaMfD0KTFuSmVcnd3HqDvP7Wtj5jWN9Uc2IqdVqdNay6N/Oi0bRdvReqkixnzrwojx41cdjduSNvc9MM7MRvbumh/LlnWl3uyILteteeq8Cd+dEAPKU9UCAEAXCRz1FlmjYELsV0pjcH+U9TIvSPmyY37EqD0bGgz9C+29BQuOjhFlec+/WLpBa7af2RFGHAH0aANPn52X/1dFVTt1QeopfuMO5etHNu19no1iqo5jSuvT1GY6okbFeynkKYwK04TqAUYcAax1KeCRghkplWl3nttXxPbl9cuxETc2pH0re528zsg6NpTXN2lqGAnVCalDRGfuy7P1mLiw+Wjc1rS370KdmEb4VDdJubdrHPNk4z2KulJvdkTX69ZiEK9pmw8AALpuo7rlL7+Vz/cq9Stfiy22fF/+aN148YW/rfP3AEDnrYnyW50A0DupE9adqmtOjaePWDMp7tbkvnuS2ttPjf2qj4+Fp7u/EXSHnlB+v1K3PJ8DgNX3Zh71WbSojSH2rRg0aJARRwAAAKx9A09fc4GdNbnvHmPZzJgwPuKCIwSNAADoXgJHAAAA0GvUxsxTd43BoyfEgJ9sAAEyAADWOoEjAAAA6DUqYsy1j8bC3z0aZ7q3EQAAa0C3B47eeuutqK2tjWeffSZeeeWVfCkAAAAAAAA93UZ1y1/Ob5PUNc88Ux3z5z0Qix5bFCtXrsyXRlRUbBm7fnLXGD58RPTt2zdf2nX1K19b5zcsdNNbgN7JjdABKFEnAFDSE8rvV+qW53MAsPrezKM+ixYtKs50wqBBg7o+4ui1116LyZMmxZVXXBF/+vOfYo89/i2OOPKo+MpXT4pDDhkT2w8YEP+z4H/iwm9fEPMfeCDfCgAAAAAAgJ6mSyOOUtDoyiuviBdra+Oznx0bQ4cNi4022ihf2+gf//hH3HLLzbHwtwvj3/ffPw466DP5mtVnxBEAq0vvcgBK1AkAlPSE8tuIIwC6wzodcfSTyZOjbvny+MY558SwPfdsMWiUvPvd744vfenYOPjgQ+K/7747qh57LF8DAAAAAABAT7HagaM//OEP8YfFf4ijKytj663fny8tevrpp+Kii74Tb775Zr6kaNR++8UuuwyK//qvGfHmG2/kSwEAAAAAAOgJVjtwdP9998W2220XH9v5Y/mSRs+/8EL8bdmy+Ofrr+dLGo0efUC8UFj/hz88kS8BAAAAAACgJ1itwNHrr78eT/zhidhl4C75ko7r/4H+sfnmm8fjv/99vgQAAAAAAICeYLUCR6+88kq89dZb0a9/v3xJxN///vf44x//mE3L/vrXbNkfn3qyYVl9fX22LNl2u23j+ef/lj8CAAAAAACgJ1itwFHp3kVve9vG2b/JTb/4efzgmu9n07333JMt+8/rr29Y9sgjj2TLkn9597/Ein+syB8BAAAAAADQE6xW4KjvZptl/y5f/nL2b3LSyafEtddNzKajv1iZLbvyyqsalg0dOjRblrz08vJ4z2bvyR8BAAAAAADQE6xW4KjPO94R22yzTSxZvCRf0tRbhf+K/67qjTfeiCf/+H+x7Xbb5UsAAAAAAADoCVYrcJQMHvypWLTo0ahbvjxfsqqN8n/LPfTgg9n9joYMGZIvAQAAAAAAoCdY7cDRPvvuG+94R5+45dbp+ZJGO3x4hzj44EOizyab5EuKXvz73+OOO34Vu+326dhyq63ypQAAAAAAAPQEqx042mSTTeILX/hCPPq7R+P/3XJLvrSooqIiRu23X/6o6OWXX4rrr7su2+6zY8fmS1nFsqqYec3X4qixe8XgT+6aTXuMPjK+csHUWPBMXf6kLnijNqpuvyq+Pm5s7JPvf/CwkXHUSefFtHnVUfdG/rw21D3zcMz84XnxlSNHxh6lfQwfG0edfVXMXFSbPwuA7lC7aGZcf8GJ8fnhZWX22ZfF9Ie6obxVJ6yeFTWx5O6pcX7lXnHa7Y2fsebey+KY9D0VjuFpkx6O2uz41cbMUwvLrqnKnrNals2M0wrH9epF+eNuVnv7qTH41JmFdwr0aNoJPVNLdcKK6ph5aWXsN6x4DI+5Zr46AQCAXmW1A0fJwF12iaOOOirmPTAvCwotXrw43nqr6Z2NVqxYEfff/+u44orvZfc+OuWUU+Pd7353vpYGb9RF1ZQTY5/RlXHRlDmxpKzxV79scTxy51Vx2thCw+2HD3eo0daSusenxldGFRou46fG3CcKjb98eayojSUP3RVXnzE29hs3MR5po91ZNWmv2GfsiXHRpLvikSW1UZ8vj5eqY8l9U+OiY0fGPufcFTWr+R4ByK2ojunn7BX7HTshfnznw1H9Uml5ocy+7+a4/KSulbfqhNVXNaUyJi6pKRzDsoOzZHKcfk5NjLhudvz6pnOj/20nxmX3tnHwADpKO6FHa7FO+L/58fjHzo2b7pgX9/zo+Oh7y6lx1Vx1AgAAvUeXAkfJHv82NL729W/EG2++EROvuzYu/PYFMeWnP43bbpuZPT733G/GbTNnxuDBQ+Ib3zhHirpW1N59XhxzTaGxF32iYq+j44LrZ8Q9c+fFr+fOjluv/2aM2bFP4Vn1sWTSiXHMlMXFjTqj9q44v/KqeOSliD5bD4tx42+IW+9K+y80ZmbcEOeM3anwyoVXWDI5vlI5OZa01qBbUWjwvKsihlZeGP85Y3a2ffE9Xhjjdu+bPaXu3vPi9OuqGhuLAHTOGzUx87wj4vIs8NA3hhTK3BtvW7XMXu3ytifXCfXz4/LUQ715b+e8h/XgT34t7i4F0UpK69ZSD+mBX50dPzj9gBiQP06WLJgZ1YceHoftXBF9PzgiDhu3U8y9e74e20CXbdDthF5aJ8QnCt/TwTtFxeZ9o2LnkTF818Jnf1XrCACA3qPLgaPkgx/8YJx62ulx/rcuiL333jve9raNouYvf4lttukXXzy6Mi677PIYM2ZMlqaOVqQG2OYj4pybZsc93z8rxuw+IGto9N28IgbsfnhcMG1GXLBXarJFVF83edUGUnv+ubLwv74x/Nyb4p47ro0zD94tBmyd9l9ozGy3Wxz2rZvi1vHDskZhPDMxJrfWS3rHb8Yv7kqNozExZLuKbPviexwTZ157U+N7nHJlzPxzNgtAJ1Xfcl5cNC9dYBoQ4264M/6zUOYO/GDLZXb1lPNi6hPZZh3Xg+uEuvtnxfRRI2L4gjnxwLJ8YYMBMWCHOTHnoabvp2bef8Xiior80bqxsq4mnyva7F1bRvz26WhY+s+n4+7ziqmb9jlpaixZkS8vV1cVPz67lCJqrzjm0jlNe+Y/fVecP/rT2bqvTFnccOG1/smZcXllMXXVPpWXxd35sa5JF5uz56d0VqfGtCfyLfIUSul19jhyQsz8o4uZ0KNtwO2E3lonxMb5v8mKp6K6unCENy1+/kwH6oS6RZPj66W0hMMr4/J7m9YzrdUJtY9MjtOy5Z+O/c6YGlX54VEnAADQGd0SOCp5//vfHyNGjoqjv1gZJ518Soz93Odi8KcGRx8Bo/b1HRH/edsVcdiOxd54q9i4f4w54fjonz0oNJzayhPRokJj8IY743uH7hR9yxsyZfofeHIc1684P3de6tW4qoH7Hx6tvcXsPX619B6r4rHFnX2PAET9wzH9uuK9D/p/9ZI4c0jLhW7/gy+Ji/dPF6Fq4vrb5ne893amp9YJdfHIfXfFYQdfGGMOnR+3zWt2kSyqY8CAETH3plmNAZnCsgW31caQIR/NH68bO3368Ohzy80x/YnaqFv2cPzsp/MjVqSLsbn7FkefU2bF/bddGAOrroqJ97XQD36Tihh+xi/j1797NBbee25sect5cVtZUPC+JX3ipNseiNu/tUs8ds3EmJt28dKcmHDCnNjxu/NiYWG7nx9UE+d/6+bs+Gz2sePjitt+ky2/4eDquPpHcyIlj6qadGpctHRk3DD30Xjwh4fHJs88nO0f6KE22HZC760TGmQjiE+N6TtcGCcNLzs4HagTNnnfiDhjWrFsv+fsrWL6hJmFI9eoxTphyeQ48dLlcfT0Qtn/yOy4+IM3x4k/fDg7R1AnAADQGd0aOGL1Vew7Jlq5Ntho591i33x27pPV+VwHbT0ixrT3AhvvFENG5fPzFheaXathwE4xNJ+VjgFgNSx5JGZmPY93inGjdsoWtaxvDDv4s8Ue4LfMj0c6U+T21Drhpflx192Hx7DCexuy7+Gx+I75ZRcDi/qNHB37Pz4rFpR6qz8xJ6ZtfHSM2T1/vI702f2s+OnpET87YWTsd8ZdsdnQ3SKGbp9fJC0YdUAM79cn+nxwzyxl0TPLns9XlNn4nfHCQ+nG9EfG5w89L+ZGfawsG3G07+gR0b9Pn+g/dEQMKXwjNS9E1C6YGXcXjttFh6RRSrvGwZfOj3i8JkvPtMnKxXHzRSfGUUeOjBMnFY7kGymQtTjm31IT+x88JnbcvPBw851i9KhhafdAD7XBthN6cZ2QWbE4fnz82Pj+JmfFLy4ZE/3Lg3IdqBP6bPJ8LLjma3HUuLHxuQvmNO2MUNBSnVA1d1JUPzM1vrJ3oU4Ysld85ec1Uf/npVmgT50AAEBnCBz1UvVrOibTrGHSYStXxvJ8tn9Fey1cAJqrrS6lm9kl+ue9u1vT5yO7xJBs7r/isSXZzJqxluqEuofmxNxDh8WQPoXP9snhMeapsouBJVvtGWOOWBwzFxQvW6Z7C1UcNCy2zx6tS31ix8pr4575j8aDN10YQ96+KPrvulO0liyppm7Virx62vHxlXkD4qSf3BS3zp0S4/LlLauJ5a/ms/1Ojl+kUUoN01kxsG5OXP6libFy/yviFzfNjjvGN14IXLkipdJrHA3+2j/X9EkFsDatL+2EXl0nvLE4fjyuMuYMuTZ+dcnhMeBd+fJWrFonVMe040+M+TucHD+dMiN+/ZOj8+WtKasTCuV+NnK1NF07JirUCQAAdJLAUW/yxmv5TMTQAQ19mBvUL5ocxwxP9zeYHFUt3TuhA1b+M58p7yXdGU89FnOzmRGxy8fK8ngD0EnL0zW2tlX0z2/GXR+L/9Q0zU3vqxNqY86dcyJuOTW758Pg3U+M6SuqGi4GNuoTu+z12aieNieWvFEVs6YMiEP2Wq13173qa6NmWV3UvVQXNfMui+/cslucdGBbI8ZWVfdS4bNWbBlbblyYXzA77suXt6Vi4LAYuHRSTJxRHfVpdNJLi2P6nVWRblL//Iq+sdWWfQvvrTrm3Du/uEHhF7PLwX1i5i3/FUteqi+87Ydj+jRpiaDXW+/aCb27Tqib+7O4/u3HxzeP/GjhQbFuqOvUcS+U4c9EoQzfsvAJ62LBnOKRa89Ou342+tw9MSbn932qXzo/pqc0eOoEAAA6SeCoN1lSlV9E6hMDPtS8D3NtzP3pxKh6qdDMeLzQWGjp3gnteWNxVOVXqfrssH2rvaRbldIxXD016yk/4PgvxvCU7gCATulbUbrgVR0vtFeU19Y0pAuqX9l40bBX1gnLHoi5C0bEBbfNi1/PLU73XD4mltzx8CopkfoMGRPHxcyY9aNZMX3oATFi63zFulS3KK7/0sjYZ/he8YUfR4z76ZWxfyff18BDL4n9f3Ne7LP3yLjspe0b0k616YOHxxU3HB8x6YjYY8iusc+xk6Nm88JvaOsD4riv9onJRxaWHT8n+uxe6l3eN4afemUc9veJcdTwPeOgi5bERz8nLRH0eutbO6GX1wnVT9wV8eTEOKZQJ6R6IZsmld+hqD0D47CLRscDF+wVexx0adQNGJ4vb1tKm/qL8btF1Xl7xeBPfjoO+tasiH591QkAAHTaRnXLX34rn+9V0gWyLbZ8X/5o3Xjxhb+txfdQHwsu3TNOu6XQ3EopaW47LnZscvPa2rj7jJFx/rzio6EXzY4fHNi5Jl39gsti71NvLrxS/zhp2h3x5Z3zFe2of6kmqh+6K67+j4nxSKFB2nfUJfHzS0Y3zeMN0IOsifK72/a5bGacNnpCLCjM9v/qTXH78a2PWqmZcWoc/N2813DllFh4+sDifC+sE2puqYyD53027kkpdfJlUTcnzt/76tj+psLrb148LgN+8micOShiyaSD4qgf1sT+l8+Li0f1jdrbT4397h3RdHuADujRdUKHrH/tBHUCsK6s3fK7Za/UlRJ7AsDqezOP+ixatKg40wmDBg0y4qi3qLn97PhaagxGn9j/9MObNQaTihj+pZNj4OaFBtknTo7j9u1kE2npzPjaOakxWHiF/c+Mw9pqDC66KrsBd2naY3ihoXbepHh6u8PjnJ/Mjl9fLmgEsNrSTcr3L6bwqfnheXH1I8V0M83VPT45vnVVKdVMc72tTqiJBXdUrXpPoL47xZAhNXHbgsX5gkY7jjo6dozD44C9279PBsD6bP1rJ6gTAABgXTPiqAvWVk+U2gWXxYmn3pylZRhQOSV+cfrAQrOwG9XOj8uPPzWmP1OY3+7ouHHaWTGwrRu4pgbhsVPzB2XeVRED962M4748JoZup9EG9Fw9vnf50plx2mETYkF2P4Q+seP+p8QXD94ldhxQEfXVVfHI7T+LiXcvjvpPHB6HvfPmmP5I4VnHT4kHv1oacdQF6gRgA9Pj64Q2aCcAdK+1VX63xYgjALpDV0ccCRx1wZo/oaiP6lvOi2MunROpv/mAI66NG84eFhXdOJqn/smb4/wTLou5LxUebHd4/GDSN2Noe50Q36iPurrGO7bXv1Qdi6seiFk3/SzuXlLs7bjj8ZPip1/t5oYrQDfpDRcJm5TPLdl8RFw87eRY/o2xcfkTEUPHz44fHNzJXuTNqBOADVFvqBNWpZ0AsCas+fK7fQJHAHQHgaN1aI2eUNQtjunfPSEuvzc1BfvG8HOnxMWHDui+BtYbdbFkxoQ4MW9s9h31zbjxwsNjQFs9CNtVaMD+8uw46j/mF+b6xNCLZnU6fzrA2tBrLhK+URuPzJgU02fMjvlLarM0QX232y2GHnJ0HDd2WAzoWxVXf7IyphWWl+7rsFrUCcAGrNfUCSXaCQBrzBotvztI4AiA7iBwtA6tqROKJr37Nh8R5/zwwjhsx25M6bCiOqZPqCxrbP4ovj12p+jbLT0Uy27O+66j48b7z4qBre237AbwSd/tRsRx370kxu1caPY2rBsRF8+9IvbfPH9SUlo39MK1dMPbJ+K6ykvjuXFXxcWjtsqXlTwfv/rOWfHQHi2t64LfT4ljFg6JGys7eOfhDil+joXZ/A4x9soL4zNbZg8aLL13QkyMkxo+S3p8/oND4+Jvj4x+2ZKibPm0J7P5fqscl/Q6j8QeUyojphwd183NFw8/t8nnWVi2bvDXp8YpHy/Oly9vvk3RGjrmbFB63UXC1tTeFaeNOq9QVvaPk9LNwnfMl3dGT6kTepHrKo/Oy9JyI+OUQrk3OH/U3ZqXz92j8/VCVkZHY9ncpMwu+XBls3qjK/VCscyf8VS2uIU6Jyl+jiirS6AzelOdsMG0E3oRdYI6gfXLOjmnb0bgCIDu0NXA0dvyeXqIlKf8qMOKjcHUu+/WO67o3sZgylM+bmyxMZgam9Nnx/cO7a7GYNInho48vDi7Ym48UowttOmw78+LX8+dHTcctjImnjC+2BDODIgBO8yJOQ+lhmujmnn/FYsr1nIPxQ/vEPHgY7E0f9jg97PioULDqudLjaxi8OvGKVPjxq9vFzOun93s8zwRM6ZtF2NT4+uF2XF+oRE8cel2TQJGSRY0WnpocT+FqXljbem9txRe54BCQ/mJWNovf73CdEpcGuff+3z+nAnFRmZad2VlPPe9KXkjtfVtGhSOeamxCBu8p/+QB9+HxU4DspnO6YF1Qm9wSl5GXTxuh+yiVbHMWnMXCNeMTtYLqUNDoV54MEbm64oGVxaPRWk6ZXhh2djmnQ26UC+88FjE2NL+r4rdHzwrrvt9tkmDtP9VL9rC+mdDbCf0BuqERuoEAID1h8BRD1K/6Kr85raFRtU3ZsQ9l3c1JUQzK6ri6vzmtn32yhubO6yB7OLvyP+Nmlj+aj7bhj6b9Y2+m1fEjoceHYetuCseSzffzVTHgAEjYu5Nswp7KqmOBbfVxpAhH80fryVPbRfbbDslZjRrmCxc+Ezsvsd2+aOe7Pl49qmRxYZe8vEDYmwsiIUvFB9mfv9I3ogr2HJkXFxokF18YP9sVaNig/GUVUYBlTwfCx/MG5Sxc3ymLKi0Tb9SgC09p9DmOzDfR+G1xg6fHQ9mx7a1bUoKjdoZhW0LDXMgoup/bi7O7D8kBna2OO+hdQJrSyfrhY9XFi/stXUl9IXZMePZyhjbpId3F+uFwvxnGva3VfTbNp9tUKiXHhxaeH7+ENZTG2o7gbVFnQAAQFMCRz3Fsrvia6dMLTYGx8+IHxzRjXnKM7Vx93nHx7SsMXhh3HplNzc2y72e/xu7xYAujvDuN3J07P/4rFjw53zBE3Ni2sZHx5jd88dr0R6DR8bChU/kjwqyxtDQ6BcNka5MSquQeuBl03cae+plI3XufSJ+9Z1V16UGUsPyygnxq+fyxUneo69hXWrApWVNtk8pGfJ1LXlhaZTvsujJePav+WxBFgTbtbHx1qK0n+H9Y2n5ey1/zRcei4e2HdJiD8vnlj4Z22yT9p8apttFv7LUF6mh+NxzzUYWFTRuU7T03uvjoT3yBits6F6aEzendD+F2uKwg/eMzvU57511Qs+XyvLycrHZ43w0Z7H8LI20LNYPDeX8lFI9k8r1VZ+bNHl+ad26qhfKLH10QWzTrGd599YLz8fSZ3eIbd+fPyxYOOXSiOavCesb7YReSp2gTgAA6L0EjnqE+nhkyvhYsKLQWNv/krj44OajPLqu/qFJMWFeyic+Oi4ePyb6r7F84vWxYHbeA77fkPjo1sXZdr1RH9W3TY3p7zo8hpUPZtlqzxhzxOKYuaA6e7hkwcyoOGhYbJ89WstSz7tnb2locJUaQ9sUH2Ya8nxn6ROmxsV7LIjzGxp8hW2m3RJxUjG1wthoHMG0cMpZMWPb0nYnRTw4u7giyXv0ZVNKG3FnYX/NewH+/pFYOPzQVfKQN9hyl9j9w6VRPQWp0Vae7i0Pgg1ubfuSv9bE0rlT4tlSiohmaSwW3jklthncwmikQuP1ulV6HLaj+TaF9zjxwaFxclnPRNhwFeqNH18ddxfqjdju+BgzpHOXEHt8nbA+ShcIr484uaE8j7guqx/ykZyl5dmIznRxsSxl0JQh8Wx+X7mk36gL8+UpNdIzMSOl9llX9UKD4ufYo1k53531Quo8MGPbss+U9lGoc93DgvWbdsJ6SZ3QlDoBAKDHETjqCeofjrm/TL3GI8Yc2Nle443qF02OY4bvGvtUTo6qdDGxQaHBed/Nhf8XHHhADNs8W9hptfOmxswlTe831FzNjLPja1kP+IihJ3w2duxAw3PasbvG4CGfjs9fVx8n/+isaHr9s0/sstdno3ranFjyRlXMmjIgDtmr+xvMHbNVDN4j4qFHU2+3lhpDqdfbyCZp3PqNOjQGzy001EqPx52UN27Svko955pvt1V8Zmx5vvDUWMx7EX5vdsSzS2Npk/dSaIQtnB2DW2qENSjs86SUHzzfT6Ghuvvwxh56LfYIbM2Hyxp1Hx8Sg5+qyXsoPhEPttDgy0ZgLRwSNza5KW7bVt3mibju7JoY24l9wHrrjbqo+snxcdrPUxLPATHu219ssaztrXXCeisF3p+a0ti7vKw83/bDs+O6ZqNQn43KskD5zs1SdDb2PD9/2pOxdGmqC9ZhvZCUpzBq0F31QrEeTDdkb7hxerroOqN/XFxW58J6aQNvJ6y31AkN1AkAAD2TwFFPsLQmHstn442VUfdSXcemYrsrVxtzfzoxql6KqHt8Yky+rzZfntREzf/ms4UG2sqW9tXS1PQFIl56OC46cmTsd8ZlMf3uqqheVnpuTSyZNzOuPmmvOPi787OGZ0pzcc6BFcXt2nHY9+fFr+f+JhbOvSHG7bxqr/k+Q8bEcTEzZv1oVkwfekCMWIe9E1MgaJtps2Jhi42h1ZXSMeSzq0gNo7MaR/hcWdnQoMrey4OPFRqVLTfCVrFl8b5F2X6+3S+enVtKAdFyj8AWvb9/qw267Ea3e+zSZH1qCD44uPB6TRpxqUH8TCwtS5VRnpKupW2KN7ktNKLLG8XTzipL3wHrmXSB74KJMXNeWVm7rDqq7p4a548bGcdcV1Uoa1PKomvjzEEtjTbqvXXCem1444jUYlmcLpJtFZ/5dmH+pIiJqYxL5VqLKYNK0gXCW2LbK/N9fL2xo8E6qRdyLaUw6p56IdWD12ejdS8uG3Gaeq2XX3S9bm5h2fcK9UN+Y3VYb2zg7YT1mjpBnQAA0IMJHPUEqUGVz04/Y6/YZ3jHpvPvLm/0taUuakrX1395aov7anE6b1ahmVkm6xVYH7Xzbo7Lz6uMz48uPfegOOqMCTHtodTLsG8M+eoNcceVHU9z0WezvtF38zbSLG28Uww7JGLapJtj+Mhhq93TsnvsHHsMnx3Xfa+lHN/pBq2FdWXBjCzgMbzlPN6NivvM0kpkCg2iGaVUdSmo1LS3X2Pvw8J22y6Ihfc+skojrD0p/3dD4KszQbCUxqIsxV7j5yu/0W0upbRoMV1EsQdklnIvSc+bO7LYGG1lm/IUHGm6eNwO0S+l69CrkPXW8qi6c3JcdEZZWTt6bBxz3lVx95L6iHftFGMumRE/WK2URT27TujdUj3wZEMP7yapflLgfW5jutNVZBfszi2OUm1W1hYv2uVpibILiI33fki9yButg3oh80Q82HCBsaSb6oXfz4qH9iiN1m00uLKxTkjTKcMLy77e9EIirBc28HZC76ZOaKROAADobQSO1hsVMfxLJ8fAzQtNsk+cHMft2/29+CoOvDZ+PePaOOfQEbHjjhVlN+XtGwN2HhGHnXtt3Dp3Xvzn8btFRTc3BnccdXTsGIfHAXuv27BRMvjAyujXSo7wwZVXxdhnLy2meChM5z84tEMpEwZXnhvbpBE02XbXR+xR6i2YUlEUGk5nF/c3cWmhEZavSQYP3q7QcIyyRljqhdf0hrklWRqI/H3N6HdVQ0Oqcze6Tb0gz43I01g0fL7UEG5+o9vsfkiNxyKb8rQb/Uad1Hiczl4Qu19ZWdy2jW1gg/Kvh8cPzj08hu88oCxYXiprb4jb594UF+zfVtBo/a4TerJUR0SpPL++Jrb5cL4iXQRM94XLy/M0FXtCN6YYOqby0oivp/KwWcqgykdi21JaosJ+xqYODPk2D0Z5atN1US8UpAuXH+7f5J5/3VUvLH3umeII0/JtjDaFTlInrCvqhJw6AQCg19mobvnLb+XzvUr9ytdiiy3flz9aN1584W/r/D2wgfv9lGJO8IbgVKGxOSWa3GepTS/MjvPv7NflfOALp0yIpQde2GIwDXqiNVF+qxPoEdQL0GnqBNZb6gTotJ5Qfr9StzyfA4DV92Ye9Vm0aFFxphMGDRpkxBH0XsWUdk1udJtSSfTrRI/A1Nuxiw3BZHClhiDAuqdeAKBEnQAAwOoTOILeKPUerDwrHtrjqqZ5wT9eKZc3wIZIvQBAiToBAIAukqquC6SgAOidpCUCoESdAEBJTyi/paoDoDtIVQcAAAAAAEC3EDgCAAAAAAAgI3AEAAAAAABARuAIAAAAAACAjMARAAAAAAAAGYEjAAAAAAAAMgJHAAAAAAAAZASOAAAAAAAAyAgcAQAAAAAAkBE4AgAAAAAAICNwBAAAAAAAQEbgCAAAAAAAgMxGdctffiuf71XqV74WW2z5vvzRuvHiC3/L5wDobbq7DlEnAPRe6gQAStb1taZX6pbncwCw+t7Moz6LFi0qznTCoEGDBI4AAAAAoCcQOAKgO3Q1cCRVHQAAAAAAABmBIwAAAAAAADICRwAAAAAAAGQEjgAAAAAAAMgIHAEAAAAAAJAROAIAAAAAACAjcAQAAAAAAEBG4AgAAAAAAICMwBEAAAAAAACZjeqWv/xWPt+r1K98LbbY8n35o3XjxRf+ls8B0Nt0dx2iTgDovdQJAJSs62tNr9Qtz+cAYPW9mUd9Fi1aVJzphEGDBgkcdUVqEK7r9wBA562J8ludANA7qRMAKOkJ5bfAEQDdoauBI6nqAAAAAAAAyAgcAQAAAAAAkBE4AgAAAAAAICNwBAAAAAAAQEbgCAAAAAAAgIzAEQAAAAAAABmBIwAAAAAAADICRwAAAAAAAGQEjgAAAAAAAMgIHAEAAAAAAJAROAIAAAAAACAjcAQAAAAAAEBG4AgAAAAAAICMwBEAAAAAAAAZgaMeoOqaXeO022vzRwBQsGxmnPbJXePqRfnjZlLdMbiwfvA1VfmStlTF1Z88NWYuyx92p+x9rqF9A2zgGsr6humqQoneFak+aFa3LLqqcd/KdAAAoEDgCAB6oKpfTogBlUfHtPtbuES46Ko45skL457fPRoLTx+YL1xHth4TP/jdtTFm6/xxK2pvP7WDQS4Ayg0dPzsWpvK+MN0zvjqO6VLwaGCcWdjPmYPyhymQdGx1XHBX2v9ZMbCDZToAALB+EzgCgB6nKuZMOTpGnD4yxk2ZtErP79o/VUfssH1U5I8B2DBUHDw+LhhaHU9314igZU9HdQyI7QWKAACAMgJHPU6eTuj2PGVE1ju7Nmae2laKimLKidL6q29PKSa6msYCgHVm0eyYVjkyBhb+G1E5P+b+pjGdaUpbtN/4+RFTKotlfindUEOqocJ06syoammEz3PF9HfF55XXE23VM3m9tKi1bfP1+UXMbGRRs+e19p6bPrc8dVJ7rwmwoaqJ6gX5bFZWNpahqexvkvw6T3laWl9MjV0s77PyNtUboyfEgpgax6TnZHVG0zI9aZouT1kMAAAbAoGjHml+XFQ9spiSIqUgWvZAVI8qpaiYHRcMnRqTG+6JlBp3lRE/KaavSOsH3JsagAD0VlX3T41xexdT0A3c++hYcO8DDRcDB56eUhUNi6ickpX7WbqhdPHv2Igbs3qgMH0rYnIK1DRRqFt+HHFhWV1yTCmw1GY9k7SxbbllM2PC+AGN7+MnI7PFLb7nwid6oHpEMd1eYUrrp/24/KJnB18TYANSe/ukmDZ0ROyZRggtml3WBpgS4xZMiJ+VAvApaDR6TgzPUtAV1w/PVzUYdFYsvOvCGBpHF8vtFlKfpqDRMVEsu4tl9fb5GgAAYH0mcNQjDYsLjihruG09Js48uJSQqCL2HDUsFlTXFB+mXulDL4wvNuQpr4gx30oNQAB6pWUzY3JKU1cq1weNjHEL5sQDbaQlSoGmoeMro6HmKNQbF6ZATROFuuVbY/L0doW64stHRzz5dDFQ01Y9k2lj21WUpVAalMZMtaawn9NL+yw8+vSIGLrg6Wh81c68JsD6a8H4kQ0jfva7d0Tcc21eNg46q+xeRWmEaqEE/lOxlEz3yYvx48vuVTQwxjSU8x2U10c3lgWUKg4e00a5DgAArC8EjnqJ8hQRWbqfnPtcAKxfan8zpzFtUDZVxrQ0+uaXrY22qY2nn4wY8KGu1QSt1TOdkm6qfteImDu6uJ/G1HOtKE+vl6VLAqC5oeNLI0ILUylolGmaZvSYKfnibqoX4rmnY8HQ7aN//hAAANhwCBz1Auli3uQBjQ3GLN1PruJDA1btgZ0aefksAL1JbTxw7/wY15B6KJ9SKqEps9u8r0Spl3lJTXXHgz9t1TOdloJH2X6mRBzbRvAoBY1+vH1DqrpiuiQAOiYFjUZG9ZfzMrQw3ViZr4qK2H6HVeuFTttm+2YjQQEAgA2FwFGP17zHYPGiYoOsQVeWzzw1In88NZ8HoFdZ9kDMXVCWpq5k6z1j+NCpMafFIEyeWm78lMbAUpZeKJ9vVzv1TGcsuqosUNQ/BrQRCWo+YrY40gqAjqmJ6gXDYsA2xUdRqAHmlJX72f3xxo+PmQ1pTqtiZpN713VAXveU31+u9vaZbXZiAAAA1g8CRz1e8b4O044tpaEYH9U7lPUEz9ICXRjVZevjy3ptA/RG6Z4UCypHtnD/iGJwaNqPZ0ZLl/0qDr42bqwsS2/33YjjOjxqqJ16pjO22b6sPhoZc0fNbrj/RsXBx8e4KZXZuhRcKn+cpgnVA9RdAB02ML5YOO2/KE8NOviTsyMaRhwVDDorFv5kQNn6yqjudOq6Qv1w7ey44MnGsnq/e1O3AAAAYH23Ud3yl9/K53uV+pWvxRZbvi9/tG68+MLf1vl7aNGymXHa6KfjuN+d5ea1AC1YE+V3T6sTSunnftDZm6EDbGA2hDoBgI7pCeX3K3XL8zkAWH1v5lGfRYtau4dA6wYNGmTEEQCsdxZdFcdMGRbDPy1oBAAAAEDnCBwBQG+36KqGNELZdGx1XHDXtTFm63w9AAAAAHSQVHVdIAUFQO8kLREAJeoEAEp6QvktVR0A3UGqOgAAAAAAALqFwBEAAAAAAAAZgSMAAAAAAAAyAkcAAAAAAABkBI4AAAAAAADICBwBAAAAAACQETgCAAAAAAAgI3AEAAAAAABARuAIAAAAAACAjMARAAAAAAAAGYEjAAAAAAAAMgJHAAAAAAAAZASOAAAAAAAAyAgcAQAAAAAAkBE46kneqI0ld98cl599ZHx++K4x+JNp+nTsd+SJcf6U+VFdlz+vKwqvUXX7VfH1cWNjn2z/hWnYyDjqpPNi2rzqqHsjf14b6p55OGb+8Lz4ypEjY4/SPoaPjaPOvipmLqrNn7WeWVFT+G6mxvmVe8Vpt+efsX5xTDs7P46FY3jalMVRn62ojZmnFpZdU5U9Wi3LZsZphf1evSh/3M1qbz81Bp86s/BOgd6nPqquOSivI7pSTlTF9cPyMrydqa3XUCe08BmfmBwHlx23qmsKx6QjZW6r9UrBG3VRNeXU2C99Z8Mr4/J7a/IV3a/D73e1VMXV7fymgBY8PrGxjG1zuqrwV7aatBM6r41yu8tl6RpuDxT3f2rMXJY/BgCAMgJHPUXtXfH1vQsNs/Mui+n3LY7ql/LlhaZH7ZKH4+5rTo3Pjz4yrl/UcAmp0+oenxpfGTUyjhk/NeY+UWj85ctjRW0seeiuuPqMsbHfuInxSBsBqqpJe8U+Y0+MiybdFY8sqW28oPVSdSy5b2pcdOzI2Oecu6KmAw3L3qRqSmVMXFJTOIZlB6dueWx56LVxzyO/iXuuOCCWXvO1mLokXwewpiybFZOndE/QYOWKfGY1qRNaqjDrYu60SbFa31Ab9Urd3EvjxNsGxMV3/CZ+ffku8cg558X0PxfXARuAN1Y2lrFrgHbCatIeAABgPSVw1FP8c2V2Aa/vJ0bHmZfcFLfPnRe/TtNtN8XFp4+OHd9VeM6KxfHjU86OmUuLm3RK7V1xfuVV8chLEX22Hhbjxt8Qt95VfI17ZtwQ54zdKfoUnla/ZHJ8pXJyLGmtQbei0Fp8V0UMrbww/nPG7OJ7nDs7br3+whi3e9/sKXX3nhenX1fV8cZt/fy4PPXSa94jL+9lN/iTX4u7GwJpudK6tTRqZuBXZ8cPTj8gBuSPMxW7xf67948+G/eJit1HxtCoieWv5usA1oj6qPrl5FiQP+qSN17LZyKGn31D/Of1rU9jtsuf2Jw6YRX1j0yK6/t+Nsbkjzul1XqlNubcflfsMu7wGLJ5n+g75LNx2M5VMb9qbXxaoEd4Pf83RsSZLZTTjdNnWyyb2tST2wk9nfYAAADrKYGjnuLtW8bw7xcaWFMuiXH77xT9N+8bfdP0wZ1i/8pL4qfXHV1sBK6YH5dPe7jzja1/riz8r28MP/emuOeOa+PMg3eLAVsXX6Niu93isG/dFLeOH5Y1CuOZiTH53la6E+74zfjFXemC2ZgYsl1F8T1uXhEDdh8TZ157U1ywV7aHqJ5yZczsYE/ouvtnxfRRI2L4gjnxwCqpEgbEgB3mxJyHmr6fmnn/FYsrKvJH617dQ7NjweaHx7B/zRck/3w67j6vmKZjn5OmxpIWevbXLZocXx+7V57Go4XUQ08XGvKjP11Yv1d8pSz1Re0jk+O0bPmnY78zpkZVfnhq7j4vjsmW7xp7jD41pj2Rb7GiOmZeWpml0djjyAkx84/rTXMdNixLfhbf6abRRvHC0qjOZvrEgIG7xZDdW58GbJ49cVXqhKZWVMXES6tjXOXw+Jd8UaO6eGBSYzk8t51OIE3rlZqoXlA43Nv3z9Zlx2HXiAVPpt9CKT3qXfHIlUcW6pxPx1HfnRM1S8vqj5+XpbxrUBN3X1BZTH2X1yVN66lW3m9ZfZLVW3fnv8e6qvhxKV1T4TWPubTwHvKLy411VqrLHo5XiouBTqh9rlhix7sGxMAWyunGaUDhjL+TenA7oTdpsT3QkbK/jfIz00p7oP7JmXF5ZbEdsU/lZXF3fkxbbQ8Utqy+/bI4JqVEH3ZkXHTn051vUwIAsMEQOOopKobFmL1av+jVZ9DxcdL+xfn6eVX5xb7OKDQGb7gzvnfoTtF343xRM/0PPDmO61ecnzvv4cYUFWUG7n947Nhaa3Tj/jHmq8dH8bJWVTy2uJVGZRN18ch9d8VhB18YYw6dH7fNa35BtDoGDBgRc2+aFY1rqmPBbbUxZMhH88frTnavoNRYu6A6xlxzcgxJI8NK7lscfU6ZFfffdmEMrLoqJt63as/wTd43Is6YNi8W/u7RuOfsrWL6hJlN8tLft6RPnHTbA3H7t3aJx66ZGHPTLpZMjhMvXR5HT/9NLHxkdlz8wZvjxB8Wg4mbfez4uOK2wvLC/m44uDqu/tGcSIlCqiadGhctHRk3zH00Hvzh4bHJMw9n+wd6kTdqYuZ1EwslYJ847BtnxdB8cdftFv3el892kjqhXCprx0fVYWfFmH7vzJeVWfBwvDL0urjn/hvisJUz4/zbWr4LSZv1SplN3p7PlNz/h4gvT4l7bjg86mecF5//j+VxXKo/zt0lHrnyZzF/lcO/WXziy1fFHfc/WqhLJsWYJ5vVUy2+37qY+93KmLvjJfHrQj2zcMoBUXNenjJvk4oYfsYvi8vvPTe2vOW8uO2JwvJlM2PCiTOj/zdmxIOFOuuCD70Qj6T9A6tn1/55udqdemo7oXdos9zuSNnfWvmZa7E98NKcmHDCnNjxu8V2xM8Pqonzv3VzVje23B4o1FKLrovTx9fEiOsK29z/ozhsk2rlMQAArRI46jX6xoCBOxVnly6P1C+wU7YeEWOGtNP/cOOdYsiofH7e4uh8cKpgwE4NFzPrXu1AH7aX5sdddx8ewwrvbci+h8fiO+aXXQws6jdydOz/+KxYUOqZ+MScmLbx0TFm9/zxOlRx8LWxcP68uOeaYfHwV0fG5Q+VfeZRB8Twfn2izwf3jOG7Rjyz7Pl8RaM+mzwfC675Whw1bmx87oI5ESuafrP7jh4R/fv0if5DR8SQwjdS80KhqT13UlQ/MzW+sveuMXhI6kleE/V/Xpo14DdZuThuvujEOOrIkXHipMKRfCPtb3HMv6Um9j94TOyYRg1svlOMHjUs7R7oRWrvviwuTznqhp4bx+3b6f7kq/pbzZq/YLQB1Qk1t58dJz75xfjuoa0kiSqU46N37ht9+u4WI/aOQrn9fIsXXtusV8qs/Gc+U7L3yDyNXUqVVB/DDzwgBqT6Y68Rhcd1sXyVUa+bRP3iX8aEU4+Mow46Pn6cesGX93Bv6f3Wzo+Zd9fFgu8elF0kHXzIZbEgqqImXZHc+J3xwkPppvpHxucPPS/mFt7DysL+an87Jxb0GxNj9i2mcuq/7wGxb/EVgE6oqVmDnX56ajuhl2iz3O5I2d9K+VnSUnugdsHMuLtQZ150SBqltGscfOn8iMdrsgBRy+2BQovgwZujZv8xcUjh/cTGfWPHkal+AACAlgkc9SL1KW94snP/zqeg6KxmAYwOW7kyluez/Svaf5d1D82JuYcOiyF9Ivp8cniMearsYmDJVnvGmCMWx8wFxSbqkkJDqeKgYbF99qgHeFffqNj58Dj64PqY/pvF+cJV1dQ1byBXx7TjT4z5O5wcP50yI379k6Pz5a0py5m+/xXFXoml6doxUVE3Jy7/0sRYWVj3i5tmxx3jG4ND6f5Zm71rk/xRxGv/XH8a67BBWHZXTLh0ftTHwDjn7MLfe764SxputD4g+m+ZzXS/DaZOqI1H7i18PwsmxMFD0kW8yphWWDrt2ML8NS2PLIq6uvz4t2CVeqVv9N+5UGv8qTQiqDqqH40YukPr4w623Krt411336Vx1HUr44BLbopf3DUrLmjv6mHD++0fJ91UVv8UpjMHFd7RtOPjK/MGxEk/uSlunTslxmXPLUgXPzfvW0xxlZTdWwvohPq8xNiuX/fUAV2xltoJvUoH2wMtlf2tlp8tKmsP9Ds5flFWFi/83VkxsI32QPYb6rtJNLQICuVzq/UQAAAbPIGjXqM2/vBosd91/713Kd7vqJn6RZOznNX7VE6Oqhbup9MRDT2Yh26/emkwnnos5mYzI2KXjzVcJmpFbcy5c07ELadm9wEavPuJMX1FVcPFwEZ9Ype9PltoVM2JJW9UxawpA+KQvbo/SUdn1T4+J6r+XGhuvVEftU/cHFNv7xNjBnbmdsR18fwzEVttuWXhE9bFgjnFI9eenXb9bPS5e2JMzu/xUb90fkxP6YVWFPa3om9hf4WGeH11zLl3frY+XRTe5eA+MfOW/4olL9VHfe3DMX2aVHXQa6QUdZeOjwWFcn3AKefGYdvly9vRXp1Q/4/Gy0WbtJKaqMs2mDqhIg64pHgj+eJ0bRxWWHrY9wvzxw8sPqUDWq9XBsTQQwbGgp9OiUcK5XjdQ/8V058ZHWOGrv7l4/q6F6J+860iqzKemR1z02i29lQMjGGfqInJP5wZ1enn80ZdLPnlXVmK1bqXCt9TxZaxZeG3VLdgdtyXbVBYtPNuMaDwWabPq4n6+vqovm1qTM/XAR1V+LsvleNvbyEVZgf0vnZC79D19kDr5WdbKgYOi4FLJ8XEGdVRnwL0Ly2O6XcWSuNW2wOFmmTgmOhz580x84m6QnlcG4/c8jOp6gAAaJXAUS9Re/eVxRRF7xoWJx2cp6xrojbm/nRiVL1UaHA8PjEmt3A/nXa9sTiq8pZKnx2273xvxhWL48dXT816rg04/osxvLWbqZcseyDmLhgRF9zWeLHtnsvHxJI7Hl4l/UWfIWPiuJgZs340K6YPPSBGbJ2vWIf6/GNxXH3CnjF4yKfjoLNnRf9v/DLO6VT6qIFx2EWj44EL9oo9Dro06gYMz5e3rc/uZ8Uvxu8WVeelm+EWXvtbsyL6FV536wPiuK/2iclH7hr7HD+n8LxSD8O+MfzUK+Owv0+Mo4bvGQddtCQ++jmp6qC3qLnzsrh8XqFk3e64+Pa4lsr/lrRfJ9TV5kngykYjdqsNrU7oW7yRfHHaLBth02ezwnwr9yhqSVv1Sv+xl8T3hjwWXx/+6dhvQnWM+dH49o9pGypGHh8nbTwpjhqyV5x47yaxW4fyFfWPw666oXDsr4ujdt81Bo+qjMnL+mYXkAceekns/5vzYp+9R8ZlL23fmI5uh8Pje+fuFHPOOyj22P/4mN53RBZUAzqjLp5P6SQL+qxWvKUXthN6ia63B9ooP9vywcPjihuOj5h0ROwxpHDuf+zkqNm8UBq32h4otAj2OiWuOHR5XD9ur9j7kPGxZMfPSlUHAECrNqpb/vJb+XyvUr/ytdhiy9W8m3c3efGFv63Z91BfF7VL/xBzpl0dV89YHPXv2im+fN2UOGlQSy3G2rj7jJFx/rzio6EXzY4fHNi5Jl39gsti71NvLjTo+sdJ0+6IL++cr2hH/Us1Uf3QXXH1f0yMRwoN0r6jLomfXzI6+rfTg73mlso4eN5n456UZi1fFnVz4vy9r47tbyq8/uYz47TRE2LAT4ppcJZMOiiO+mFN7H/5vLh4VN/sRrT73Tui6fYAHbAmyu81Uic8c3McM/ayqIoB8eUpv4yTPpGX/8uK5WPqTzAuLyObar9OyMrQ8Y09kUv6bL1T7PKpYbH/58bEAZ9I96XJV3SQOgHobXp+nVAbM08dGRetMjKwT1TsOCiG7DU6Dj/kgBjYr7WoUu9rJwCsK2v8Ok8HvFJXSuwJAKvvzTzqs2jRouJMJwwaNMiIo54lNQrTvRHyafe9Yr+xJ8blc1fGsK9eG7fedVMrQaOkIoZ/6eQYuHmhQfaJk+O4fTt52WzpzPjaOakxWGiC7n9mHNZWY3DRVY3vsTDtMfygOOq8SfH0dofHOT+ZHb++vCONwZpYcEdV9N91p6YX+PruFEOG1MRtC1bNDb7jqKNjxzg8Dti7c734AHqlFVVx9VkpaBQx4JRLGoNGHdJ+ndDajdbrly2OR+6cHBcde1DsPe6qWNBex3R1AsAaVhNLH81nm6iP2iUPx92TJsQxB+0ZR105P2pT2rJV9LZ2AgAAsK4ZcdQF3d8TpbXehIVG3nYj4pAvfTG+eODAqOjuxlbt/Lj8+FNj+jOF+e2OjhunnRUD20qtkxqEx07NH5R5V0UM3LcyjvvymBi6nQt5QM/V83uX18Xc80bG1++ujz57XRi3Xjmm6YW2dkccta/uyYdj8QubRb+d+sdm+bLlS/8Qzzw5P27+4c2xYFm6RFjQXr2gTgB6ud5QJ1Q/9Id4YbP+sY2li1oAACCqSURBVFO/hhI7li6ujj/85ua4/pb5UZvft2hA5ZT4xekDs3SZ3UI7AdjArIk6obOMOAKgO3R1xJHAUResiROK+rq6WNnQUzA1CKvisftmFhqEDxeajAWbj4iLp10R+/fLntBl9U/eHOefcFnMfanwYLvD4weTvhnt3mv7jfqoq1uZPyjs46XqWFz1QMy66Wdx95KsL2LsePyk+OlXu7HRCtCNevpFwprbT43Pj58f9e8aFhdMvzbGNC/zuyFw1KY36qJqyilx4nVVxR7mR9wQ939jt5bLdHUC0Mv19DqhXXVV8ePTj4/rFxXL3MOufyDO2b3rJa52ArAhWqvldysEjgDoDlLVrWea3ly7f+y4++g47Nwb4tf3XhuHbVd4wktz4vxTJkZVand1xRt1seSWr8V+hxUbg31HfTNundaBxmCycZ+y99g3KrYbGEMPPjkuvumBuPUbwwqNwPpYMun4+Nqdq3HjXYANXP2iq+L0FDSKATHuuitXDRqtDRv3jYHHXhcX71+8rFf/y5kxP+u90AJ1AsC61XdgfPmqS2L/bCRQfUy//YFih7PVpZ0AAAAbPIGj3qJiWJxz1TdjYJp/ZnJMvrsLja0V1TH9vAPjqEvnFBqVfWP4uTfFry45PAa0lXaiQ/rEgCOujCsOTRca62PBpVOiqsU8673PdZVHxzGrTFNiYb5+TVh674Q4/97n80fd5YmyzzIhfvVCvrhM89ddOKXw3ClP5I/yx02OQ2H6zuxYmq8vSq9TPD5Nnl+2n6R83XW/zxfG8/Gr7zQub/kYFD9H4zawnkj3kThlalQXytOh46+NM1u9r93aUKgfPnt4Pj8nFqc0RZ2iTuhO6oTipE6AVmw+IsZ8Np+ft7hQj6ymntJOSCNry+6VtM/Yr8W0J/Kecw3rvhZ3p9FQ5UrrTp0Zayc0VSx/Wi6biuVXt5fdv5+ySvnZdZ2vD9LjVcv7fHm+r1U/e1fqg7a3KVpDxxwAYAMkcNSbbDcsDhlSnF3w0KLV60mY8pSPGxuX31vYutDAPGf67PjeoTtF3267b1KfGDoyv9C4Ym488mRxtrc7ZcrUuLEwXTxuh+g37qps/sYplTE4X987pIbUpfFc6f1/fbuYcf2qF/dmTNsuxo7aqtgoLTTKHoyR+bqiwZXFY1GaThleWDZ2ZJQPilh67y2F1zmgcHyeiKX9Sser8Ny4tKEhlxqV18W5xXVXVsZz38svur7wWMTY0v6vit0fPGuVi4Fp/2vyAi2sG7Vx939MiAXZfSrqY8H4gxoumK0y5WnqkmnHlpafGjOX5Qu7y4e2j6HZTH1ZGtXOUCf0XOoEWN9s/5FhxZkVjaniOqUHthMO+/68+PXc2XHDYStj4gnji2nzMgNiwA5zYs5DTVtENfP+KxZXdGRoVDf68A4RDz62SgAlfj8rHorCuh6vk/XBC7Pj/EJ9MHHpdk3K+iQLLi09NC+zC/Vken6ZLtUHbWzToHDMZzyVzwMA0CUCR73KO1N7q6iuLjqdrW5FVVyd39y2z17fjFvvuCIO22EN9GZ/R/5v1MTyV/NZeoDn49mnRhYbfMnHD4ixsSAWlvco/P0jeWOu4OOVxUZZW1dCCw3HGc9WxtiP548zz8fCB/OGZewcnylrMG7Tr9R4Ts+JGHvgzsWHWxbe1/DZ8WC6GFiY/0zD/raKftvmsw0KDdcHhxaenz+E9chr68mInCbUCT2UOgEo00PbCX02SynvKmLHQ4+Ow1bcFY81jH6tjgEDRsTcm2YV9lRSHQtuq40hQz6aP15Lntouttl2SsxoFtReuPCZ2H2PlGu8p+tkfVAoly8u1AcXH9g/W9WoGFw6pTIvy1fRxfqg1W1Kno9fzShsO643BOsAAHo+gaNe5bXU6btou37Rub50tXH3ecfHtKwxeGHcemV3pJxoxev5v7FbDFi395RcC1IPvfJ0Ds0e5z3yiikVSr3lij3pVk2zUJ4iovG5SZPnl9al3t9N0kOk7VtOLZF5YWk8l882ejKe/Ws+W5A1cHdtbJC1Z+mjC2KbZj3LU+/wh7YdUmxYNvPc0idjm23S/lMDdbvot2VxeZIaf8891zytxPOx9NkdYtv35w8LFk65tNAibPaasF7oG0NOuCH+8/oOTJccHTvmWw0/u7T8+Bjy3nxhN6l/cnE+smmn6L95NtN56gR1gjoB1oL6WPy/84uzO/cv1Cid0TvbCf1Gjo79H58VC/6cL3hiTkzb+OgYs3v+eC3aY/DIQplZljotC6QPLZRNDZGuTJNUa2VldirXz7/3iUKdseq6Yl1S2q5QrpcX3vlo0IZ1qcxfV/VB2s/w/rG0/L2Wv2a31gfl2xQtvff6eGiPPLgFAECXCRz1Js/Mj9seKc4O/1jnetLVPzQpJsyrj3jX6Lh4/Jjo320pJ5qrjwWzby7O9hsSH926OLtBShcIr484OU+ncOPXI67LLgjmvfFKy7NeealBWJYiYsqQeHZaY/6OfqMuzJen1EjPxIyUlqF5b8DfPxILhx8anylraDWx5S6x+4dLPfYKUuOtPJVD3sAd3Nr2qyh+jj2a9CwvNCzvnBLbDG6hp2GhEXvdKj3R25YagDO2LftMaR9xbpzSiX1A79En+n9itxiyewemXbeP0p9Fv4+Vlg+M/t3ZOfyNmpj1y1J5PiJ2Wa1O0+qEBuqEptQJ0L2WzoqbbynO9h++SwwoznZIj28nvFEf1bdNjenvOjyGlRcnW+0ZY45YHDMXFO/otGTBzKg4aFhsnz1ay1IZ/OwtDYGSUiB9m+LDTAoaNaRgS+X3Hgvi/LL79CydVvgCT0rrriqU540jmBZOOatQ9pW2OyniwdnFFUk+GjSbUoq5Owv7W1f1wV9rYuncKfFsKb1os5R33VkfrLJN4T1OfHBonFw2IgkAgK4ROOoRqmLmpIejtq0URXUPx9VnXVZ4ZkG/o+Po4av2I6xfNDmOGb5r7FM5Oaqye2SU1Mcj991c+H/BgQfEsNXsNV47b2rMXNL2nZVqZpwdX7ulOCxq6AmfjR3XWMOzF0iNp6emNPYu/16hkffs0kLjaavYttA4u65ZT8Jno7KssbNzszQLjT3Pz5/2ZCxdmnrdbRWD94h46NFiD7yFC2fH4JYaYw22is+clPKE5+/n+ojdhzf23G6xp3hbylNWNHgiHmyh4Zf1rlw4JG78dkf3X+xZOTFOyi+iFqSLrjP6x8Wtpr8AyrVeJxQsuyt+fMviqGut3nmjLh657tS4KBtu1Cf2P/3whhFOJeqETlInNFAnQOfU3j05prdV3qZ2win5ve/eNTrOGLtTtrhcb20nZPfxG/Lp+Px19XHyj86KIU06SPSJXfb6bFRPmxNL3qiKWVMGxCF7NU+ftraUl8EtBdKfj6XPjmySxq3fqENj8NxHGkaU9ht3Uh7cSfsqjbJpvl2h7C6UzY2K5WPzemWd1QcfLivzPz4kBj9Vk49m6q76oKVtCnXi2TUxthP7AACgfQJHPUT1D0+M/UZVxvk/nBkLnqiJupfqsqn2maq4e8p5cdToE7P0EelGsOO+e0oMXKVXeW3M/enEqHqp0HZ8fGJMvq82X57URM3/5rOFBtrKfN/tTnXFhl2Dlx6Oi44cGfudcVlMv7sqqpeVnlsTS+bNjKtP2isO/u78rOGZ0lycc+BavjFtTzS8sVdhNmUNmkLj7NuF+ZMiJqbGWepp2GKKiJJ0gfCW2PbKfB9fb2wspgbnNtnNeFtujK0iz0lefC/94tm5pVQQLfcUb0tLKSuyG97usUuTRltq3D04uPB6TS7upQulz8TSsvQV5SkqfvWdQov1pKY31E29FMsvul43t7Cs0MBd5aa4QEFbdUKyMh679MjYZ9SJcfktd8WSP+fl+bLqqLp7apw/bmR8ZUqxB/eAyklx4agWkh6pEzpPnaBOgNVR/1hcfuResc9JqbxdHDX5uXqL7YTrxsfwVYI/vbedcNj358Wv5/4mFs69IcbtvOqw2j5DxsRxMTNm/WhWTB96QIxYhyNbszJ42qxY2GIgfXWl1G357CpS+XhW4wifKysbytt1Uh+8v3+T8r5c99QHLW+T9r0wZjftUDHtrLLUrwAArA6Box5ik5RH/KVC42/ShDht3EGxz/BC47Aw7Te2Ms6/5q5YsqLQMNpxTFww/Zdx5qDO5iKqi5rSefMvT23Yd7vTebMKzcwyWa/A+qidd3Ncfl5lfH506bkHxVFnTIhpD6Vehn1jyFdviDuuXJNpLnqSdKPuJxt69DVJ7ZAaT3MbU1asImugnVvsaZhSRJSlpCg20vK0RNkFxMZc36nXYKOdY49tF8TCewsN1GaNsfak+0I0NGo73cAtNEIbGpQl5Te8zaXUFi2mESr2hMzSaSTpeXNHFhulv58VD+1R6nHZaHBl3pjNp1OGF5Z9vemFRKCTXno4pl96Xhx1SF6ejx4bx5x3Vdy9JF3aK5Tnp0+JG08ZGC3WOuqEFqgTGqkToLvVPZTK2yPj4PxcvbydEJvvFmdOmbLetRP6bNY3+m7exmfaeKcYdkjEtEk3x/CRwzp5b6fuViiDh8+O677X0v2AUv1QWFeemi4FPIa3fM+fRsV9ZilJM8/Hr2aUyv0UVGo6Mqhx5Oo6qA+a1V2Nn6+b6oNWtilP35qmi8ftEP1SqtcmASkAADpL4KhHGBgnzb0jbhx/XOy/+04xoKyXYJ+td4ohBx4XF/zkjrh/2oUxZofWGk4VMfxLJ8fAwrZ9P3FyHLdv9/fsrjjw2vj1jGvjnENHxI47VpRdSOwbA3YeEYede23cOnde/Ofxu0XFBnGBsGjwgZWF1upZeWqHmtjmw/mKdBEw5fY+u9j7LesBlzX6GlMMHVN5acTXKwsNqmYpIiofiW1LaYkK+xmbGqH5Ng9GeXqKwusPLrzGtChrjKXeh01vpF6SpXbI9zOj31UNF9g6ewP07MLlh/s3ydueXSBtfsPbLNf5pQ2vmU15OqZ+o06Ksc/m685eELtfmY5DoZH53DPFXoLl2+gxCJ3UTp2w9Zi4uFSeb1d+ma1ZeV45MPq2Up6rE1qmTsipE6DbVBx4Sdz6/W/GYfs2bSfE5gNix30Pj3O+PyN+fe8NMe4TrYVN1u92wo6jjo4d4/A4YO91GzZKUh3Qr5X7CQ2uvKqxnCtM5z84tEPpNgdXnhvbNJSD10fsUSr3UxrTaKhXJi7drkmAaO3XB2kE7bkRed3V8Pm6qT5oaxsAALrfRnXLX34rn+9V6le+Flts+b780brx4gt/W+fvAdLNYbM83w0NzyfiuinRJId6m16YHeff2a/L94lYOGVCLD3wwtZvvAs9yJoov9UJ9AjqBOg0dQLrJfUBrJaeUH6/Urc8nwOA1fdmHvVZtGhRcaYTBg0aZMQR9G7FdBVNbnibUkr060RP8dQLvosNwmRwpQYhwLqlTgAgUR8AANA1AkfQW6VehJVnxUN7XNU01/fHK93jAWBDo04AIFEfAADQDaSq6wIpKAB6J2mJAChRJwBQ0hPKb6nqAOgOUtUBAAAAAADQLQSOAAAAAAAAyAgcAQAAAAAAkBE4AgAAAAAAICNwBAAAAAAAQEbgCAAAAAAAgIzAEQAAAAAAABmBIwAAAAAAADICRwAAAAAAAGQEjgAAAAAAAMgIHAEAAAAAAJAROAIAAAAAACCzUd3yl9/K53uV+pWvxRZbvi9/tG68+MLf8jkAepvurkPUCQC9lzoBgJJ1fa3plbrl+RwArL4386jPokWLijOdMGjQIIEjAAAAAOgJBI4A6A5dDRxJVQcAAAAAAEBG4AgAAAAAAICMwBEAAAAAAAAZgSMAAAAAAAAyAkcAAAAAAABkBI4AAAAAAADICBwBAAAAAACQETgCAAAAAAAgI3AEAAAAAABARuAIAAAAAACAjMARAAAAAAAAGYEjAAAAAAAAMgJHAAAAAAAAZASOAAAAAAAAyAgcAQAAAAAAkBE4AgAAAAAAICNwBAAAAAAAQEbgCAAAAAAAgIzAEQAAAAAAABmBIwAAAAAAADICRwAAAAAAAGQEjgAAAAAAAMgIHAEAAAAAAJAROAIAAAAAACAjcAQAAAAAAEBG4AgAAAAAAICMwBEAAAAAAAAZgSMAAAAAAAAyAkcAAAAAAABkBI4AAAAAAADICBwBAAAAAACQETgCAAAAAAAgI3AEAAAAAABARuAIAAAAAACAjMARAAAAAAAAGYEjAAAAAAAAMgJHAAAAAAAAZASOAAAAAAAAyAgcAQAAAAAAkBE4AgAAAAAAICNwBAAAAAAAQEbgCAAAAAAAgIzAEQAAAAAAABmBIwAAAAAAADICRwAAAAAAAGQEjgAAAAAAAMgIHAEAAAAAAJAROAIAAAAAACAjcAQAAAAAAEBG4AgAAAAAAICMwBEAAAAAAAAZgSMAAAAAAAAyAkcAAAAAAABkBI4AAAAAAADICBwBAAAAAACQETgCAAAAAAAgI3AEAAAAAABARuAIAAAAAACAjMARAAAAAAAAGYEjAAAAAAAAMgJHAAAAAAAAZASOAAAAAAAAyAgcAQAAAAAAkBE4AgAAAAAAICNwBAAAAAAAQEbgCAAAAAAAgIzAEQAAAAAAABmBIwAAAAAAADICRwAAAAAAAGQEjgAAAAAAAMgIHAEAAAAAAJAROAIAAAAAACAjcAQAAAAAAEBG4AgAAAAAAICMwBEAAAAAAAAZgSMAAAAAAAAyAkcAAAAAAABkBI4AAAAAAADICBwBAAAAAACQETgCAAAAAAAgI3AEAAAAAABARuAIAAAAAACAjMARAAAAAAAAGYEjAAAAAAAAMgJHAAAAAAAAZASOAAAAAAAAyAgcAQAAAAAAkBE4AgAAAAAAICNwBAAAAAAAQEbgCAAAAAAAgIzAEQAAAAAAABmBIwAAAAAAADICRwAAAAAAAGQEjgAAAAAAAMgIHAEAAAAAAJAROAIAAAAAACAjcAQAAAAAAEBG4AgAAAAAAICMwBEAAAAAAAAZgSMAAAAAAAAyAkcAAAAAAABkBI4AAAAAAADICBwBAAAAAACQETgCAAAAAAAgI3AEAAAAAABARuAIAAAAAACAjMARAAAAAAAAGYEjAAAAAAAAMgJHAAAAAAAAZASOAAAAAAAAyAgcAQAAAAAAkBE4AgAAAAAAICNwBAAAAAAAQEbgCAAAAAAAgIzAEQAAAAAAABmBIwAAAAAAADICRwAAAAAAAGQEjgAAAAAAAMgIHAEAAAAAAJAROAIAAAAAACAjcAQAAAAAAEBG4AgAAAAAAICMwBEAAAAAAAAZgSMAAAAAAAAyAkcAAAAAAABkBI4AAAAAAADICBwBAAAAAACQETgCAAAAAAAgI3AEAAAAAABARuAIAAAAAACAjMARAAAAAAAAGYEjAAAAAAAAMgJHAAAAAAAAZASOAAAAAAAAyAgcAQAAAAAAkBE4AgAAAAAAICNwBAAAAAAAQEbgCAAAAAAAgIzAEQAAAAAAABmBIwAAAAAAADICRwAAAAAAAGQEjgAAAAAAAMgIHAEAAAAAAJAROAIAAAAAACAjcAQAAAAAAEBG4AgAAAAAAICMwBEAAAAAAAAZgSMAAAAAAAAyAkcAAAAAAABkBI4AAAAAAADICBwBAAAAAACQETgCAAAAAAAgI3AEAAAAAABARuAIAAAAAACAjMARAAAAAAAAGYEjAAAAAAAAMgJHAAAAAAAAZASOAAAAAAAAyAgcAQAAAAAAkBE4AgAAAAAAICNwBAAAAAAAQEbgCAAAAAAAgIzAEQAAAAAAABmBIwAAAAAAADICRwAAAAAAAGQEjgAAAAAAAMgIHAEAAAAAAJAROAIAAAAAACAjcAQAAAAAAEBG4AgAAAAAAICMwBEAAAAAAAAZgSMAAAAAAAAyAkcAAAAAAABkBI4AAAAAAADICBwBAAAAAACQETgCAAAAAAAgI3AEAAAAAABARuAIAAAAAACAjMARAAAAAAAAGYEjAAAAAAAAMgJHAAAAAAAAZASOAAAAAAAAyAgcAQAAAAAAkBE4AgAAAAAAICNwBAAAAAAAQEbgCAAAAAAAgIzAEQAAAAAAABmBIwAAAAAAADICRwAAAAAAAGQEjgAAAAAAAMgIHAEAAAAAAJAROAIAAAAAACAjcAQAAAAAAEBG4AgAAAAAAICMwBEAAAAAAAAZgSMAAAAAAAAyAkcAAAAAAABkBI4AAAAAAADICBwBAAAAAACQETgCAAAAAAAgI3AEAAAAAABARuAIAAAAAACAjMARAAAAAAAAGYEjAAAAAAAAMgJHAAAAAAAAZASOAAAAAAAAyAgcAQAAAAAAkBE4AgAAAAAAICNwBAAAAAAAQEbgCAAAAAAAgIzAEQAAAAAAABmBIwAAAAAAADICRwAAAAAAAGQEjgAAAAAAAMgIHAEAAAAAAJAROAIAAAAAACAjcAQAAAAAAEBG4AgAAAAAAICMwBEAAAAAAAAZgSMAAAAAAAAyAkcAAAAAAABkBI4AAAAAAADICBwBAAAAAACQETgCAAAAAAAgI3AEAAAAAABARuAIAAAAAACAjMARAAAAAAAAGYEjAAAAAAAAMgJHAAAAAAAAZASOAAAAAAAAyAgcAQAAAAAAkBE4AgAAAAAAICNwBAAAAAAAQEbgCAAAAAAAgIzAEQAAAAAAABmBIwAAAAAAADICRwAAAAAAAGQEjgAAAAAAAMgIHAEAAAAAAJAROAIAAAAAACAjcAQAAAAAAEBG4AgAAAAAAICMwBEAAAAAAAAZgSMAAAAAAAAyAkcAAAAAAABkBI4AAAAAAADICBwBAAAAAACQETgCAAAAAAAgI3AEAAAAAABARuAIAAAAAACAjMARAAAAAAAAGYEjAAAAAAAAMgJHAAAAAAAAZASOAAAAAAAAyAgcAQAAAAAAkBE4AgAAAAAAICNwBAAAAAAAQEbgCAAAAAAAgIzAEQAAAAAAABmBIwAAAAAAADICRwAAAAAAAGQEjgAAAAAAAMgIHAEAAAAAAJAROAIAAAAAACAjcAQAAAAAAEBG4AgAAAAAAICMwBEAAAAAAAAZgSMAAAAAAAAyAkcAAAAAAABkBI4AAAAAAADICBwBAAAAAACQETgCAAAAAAAgI3AEAAAAAABARuAIAAAAAACAjMARAAAAAAAAGYEjAAAAAAAAMgJHAAAAAAAAZASOAAAAAAAAyAgcAQAAAAAAkBE4AgAAAP5/e3eMlEAQBFB0uQJFcT3OxhFhCYAA1O+SIASigeB7Uc9c4VdXAwBAhCMAAAAAAAAiHAEAAAAAABDhCAAAAAAAgAhHAAAAAAAARDgCAAAAAAAgwhEAAAAAAAARjgAAAAAAAIhwBAAAAAAAQIQjAAAAAAAAIhwBAAAAAAAQ4QgAAAAAAIAIRwAAAAAAAEQ4AgAAAAAAIMIRAAAAAAAAEY4AAAAAAACIcAQAAAAAAECEIwAAAAAAACIcAQAAAAAAkNm43Zyn+akcD/thvlhOLwAAAAB4brtxO00A8LjTD6uPjSMAAAAAAAAiHAEAAAAAABDhCAAAAAAAgAhHAAAAAAAARDgCAAAAAAAgwhEAAAAAAAARjgAAAAAAAIhwBAAAAAAAQIQjAAAAAAAAIhwBAAAAAAAQ4QgAAAAAAIAIRwAAAAAAAEQ4AgAAAAAAIMIRAAAAAAAAEY4AAAAAAACIcAQAAAAAAECEIwAAAAAAACIcAQAAAAAAEOEIAAAAAACACEcAAAAAAABEOAIAAAAAACDCEQAAAAAAABGOAAAAAAAAiHAEAAAAAABAhCMAAAAAAAAiHAEAAAAAABDhCAAAAAAAgAhHAAAAAAAARDgCAAAAAAAgwhEAAAAAAAARjgAAAAAAAIhwBAAAAAAAQIQjAAAAAAAAIhwBAAAAAAAQ4QgAAAAAAIAIRwAAAAAAAEQ4AgAAAAAAIMIRAAAAAAAAEY4AAAAAAACIcAQAAAAAAECEIwAAAAAAACIcAQAAAAAAEOEIAAAAAACACEcAAAAAAABEOAIAAAAAACDCEQAAAAAAABGOAAAAAAAAiHAEAAAAAABAhCMAAAAAAAAiHAEAAAAAABDhCAAAAAAAgAhHAAAAAAAARDgCAAAAAAAgwhEAAAAAAAARjgAAAAAAAIhwBAAAAAAAQIQjAAAAAAAAIhwBAAAAAAAQ4QgAAAAAAIAIRwAAAAAAAEQ4AgAAAAAAIMIRAAAAAAAAEY4AAAAAAACIcAQAAAAAAECEIwAAAAAAACIcAQAAAAAAEOEIAAAAAACACEcAAAAAAABEOAIAAAAAACDCEQAAAAAAABGOAAAAAAAAiHAEAAAAAABAhCMAAAAAAAAiHAEAAAAAABDhCAAAAAAAgAhHAAAAAAAARDgCAAAAAAAgwhEAAAAAAAARjgAAAAAAAIhwBAAAAAAAQIQjAAAAAAAAIhwBAAAAAAAQ4QgAAAAAAIAIRwAAAAAAAEQ4AgAAAAAAIMIRAAAAAAAAEY4AAAAAAACIcAQAAAAAAECEIwAAAAAAACIcAQAAAAAAEOEIAAAAAACACEcAAAAAAABEOAIAAAAAACDCEQAAAAAAABGOAAAAAAAAiHAEAAAAAABAhCMAAAAAAAAiHAEAAAAAABDhCAAAAAAAgAhHAAAAAAAARDgCAAAAAAAgwhEAAAAAAAARjgAAAAAAAIhwBAAAAAAAQIQjAAAAAAAAIhwBAAAAAAAQ4QgAAAAAAIAIRwAAAAAAAEQ4AgAAAAAAIMIRAAAAAAAAEY4AAAAAAACIcAQAAAAAAECEIwAAAAAAACIcAQAAAAAAEOEIAAAAAACACEcAAAAAAABEOAIAAAAAACDCEQAAAAAAABGOAAAAAAAAiHAEAAAAAABAhCMAAAAAAAAiHAEAAAAAABDhCAAAAAAAgAhHAAAAAAAARDgCAAAAAAAgwhEAAAAAAAARjgAAAAAAAIhwBAAAAAAAQIQjAAAAAAAAIhwBAAAAAAAQ4QgAAAAAAIDMxu3mPM1P5XjYD/PFcnoBAAAAwHPbjdtpAoDHnW5Un9VqNU1frdfrafpk4wgAAAAAAOCFXcehi1v/whEAAAAAAMCLu45E92KScAQAAAAAAPAPXGLRvWj0wY0jAAAAAPgD3DgC4DfcunH0HTaOAAAAAAAAiHAEAAAAAABAhCMAAAAAAAAiHAEAAAAAABDhCAAAAAAAgAhHAAAAAAAAvBuGN/Uq7mUP5EAxAAAAAElFTkSuQmCC;" vertex="1" parent="1">
                    <mxGeometry width="846.86" height="456" as="geometry"/>
                </mxCell>
                <mxCell id="3" value="" style="shape=image;imageAspect=0;aspect=fixed;verticalLabelPosition=bottom;verticalAlign=top;image=data:image/png,iVBORw0KGgoAAAANSUhEUgAAATkAAAFNCAYAAAB7UhgmAAAAAXNSR0IArs4c6QAAAARnQU1BAACxjwv8YQUAAAAJcEhZcwAADsMAAA7DAcdvqGQAAP+lSURBVHhe7P0HtK3Jdd8H7nvPuTm8nDq+1zkndDeARqMBECAAIogERTEI4kgCSWs8skayl5YX17I1ttfS2GuWxxqFsS2TNhVIkRQIkEQkcmoAjQbQudE5vH45v3dzOufe+f/+u+qc2yAlD/qdRzSlu8+pr6p27b1rV9Wu/VV933e+03fu3Lm12IAN+FHgxCfi773v5fjI9/9e3FJQ/z449am/F+996SPx/b/7Z1O7/L/7Zsm9Gu79bz4X//iD20tuAzbgR4cNJ7cBPzI8/k/ujN+64v9f53MqPvF3/2HEf/WP46d3FtT/KTwe//jO34p9n/1ReDZgA/5s6C/xBmzAjwTf/O/eG3feeeerwj9+tBSuhxPfiq/GO+ItG85qA35MsLGS24ALCj/aqm8DNqD3sLGS24ALCI/HV377r8VHNhzcBvwYYWMltwEbsAH/QcPGSm4DNmAD/oOG19VK7uVXjsXDj++PZ54/Gi8eOB3HTp2L6TPTMT8/F63lpWi3l2J1dTX6+pqxFn36FOhvxGBjMFb7+1S+Fmsq6NNhLdrRJ/o1BYiJW+3ZaC2cjcbIrhgcGI/mQDP6m4PR6Os3vQQorOnbDlHHamvFob/RjL5GXyzOHY/56cPRGNwUg+OXxsDgZskWn+hj5UzMnnkxRrfeHENDgzE5Mh2bhuakoHRKTVFC9NJtDQznGLWH0lSaIuVomfQRjVDlVJQ8feZz1rAKLpPiRW/1i0iQk8ySZxr1TWacznr0oWrX35ULa80CqGxeQSOpfbQMZaBHD9rQB5J6+ZZgmRCZkywIyjLfhULssSObdH19jHnpM38LX2YNIjO+Q2ccsuBPujXLzf5STynWmPYz7qRlJ6alQiX4CtHnzqddUOWaoE8dQg58Su6mXLX7QTiRr61SAqigjEeFNckDheyUAGRsSiWzKdJb6YYy1Jw84LM1JE3mww8DNKkr9SUoD21hcpsFyCbfX/Jk3VuKE9UXQyNDsWnz5ti9c3vsvXxfXHXNVXHLzTfHZZddapbXI/zYndz+V47Hpz//3fjcF+6PF145JecgpyGnFf0DcioNOZ92rLWWYmVFTk7xWrsVjf5BDTrGjAQNogZgoDEi+n5PNhs5YyOHJUnRWpUDEgJDXlmZi/bimWgObYuGndyAnJyCLNIDKdq1NjJb0S4Ocq29bJn9om0vT8X81AE70wE5uaGRnda3f030rflYmHo2+oZ2x+jERTHSnI9to1PSbQUtUclAag3PgU5uBCVlGNDbMTOka5YAMgqVIPkw3Yq0MdsxZE15TNMl5wnh/qkkmVjDQRu6k6D2IZOcE0tqYs1dR2qSbXIKuaIprrSASiEnLvWlFCMdo4cdiQWlVAPtIHKcdMlhpOM6OV2uz6r6FIwdHdjqYOQVLKUId5n07Edf0ZreAks9Sme9JJMJ+fYuzupQ6IjdVwVcE8V2XCDWj6D6xnypXx4EOHF0cedA0AVIkGn7w0aNZTxUUvsBbO2LKrNAlkOfdVotHawzdanurFPliqxCsU0g+RUkv45slsCnE4Qy5PfuvTzuu++t8c53/sTrzuH92JzcY0/uj9/9g2/E5770vWixWmov2LE1Byd8do3GkDq2GY2GzHFlQaGs5ORwGn0D6nzOwDnIhIZWcgNakcn3GDB4liAeHJwcBsHqbFUOU06u0ZxQXZvl6IYimqpHBtTsF3MbmlXz2A7gUZ2s6nCusbYcC9MHYmlxJpqjuxV2aTU3nnqttmJp/pVYXl7Wau66GJLum0amYmJ4XhrJzIpupH0s+WxFNR6spqQKQdp9OqgudUpZb3ppnLBrvaXCnGgKEmAusonRAVr1M20ufF0nl7TwULX7uiprXOpg58DKWWVgk5Y+lxwrTa6WAHARKLcEfRknZFFeJStkowuZ0m6Qv6ZgxaqFe2kjxbX9qq/0n7O1L31Err7w+FvKRJOOgkyW1fozA0i+yrK4clJGvURIKNqbRQfXLXwiSCaYXgc5CVmakirQlxUUpLU319LrOaSkwqqQ7px0psADeRrJlCkV9WmHkuXJYy1T6ZImRX3UI4yJwYBLKtLVSoCKs74Wm3wk3/a2++Lnfu5n4+abb6Lgxw5/7k7u+Imz8Rv/+ivxyc99X45hJVaWFrWFbKlEW0utu/rk3FhZhRyZnZ4cxVprIdorizLaFa2WFkXHNqOZDk29Stwvix9ojpYOL05OBQw5E21VzstbSq24WitTwjS0mtsqZydnynZVq7GmiPvkqNoKXsFJ2KqcGrxr4sN5MLGWF7RlnT0uvskYGN0TzeHNUgNF5IRbZ2Nx6mAMbbomBocnvZrbPHpODk+OXFZQz8UJmFgaCmlM3sWqN806G2gOJowIS5OVVMoFYCygw1EKdEx6wDVZrjMdfs/DmjcCAoHLxQVayEKmQ+pY8eb1AYqiP1AGoqsBedJJaz9YshzsmNxGvtTb7QGcIlvWhCIXGa+qLw9JjyiVavyrw+sWKEh2ZrM/7IR0YvU2Te3LthXAGdU6fVC9xTEbYCnpFG03nwiPNjnljco2QG+13Ee0NcvRNcfFxEK92skhiVM7GWw+qSgv46pj9kvtO9dswlytk8uS8jU4Vr2mBQpTLS+9lBnS1lOtE4oFQS5Bk4K5ZnIRvPs9Pxm/9qu/Ejt37nD5jwtSuz8neOrZl+OXfvV/iM9/5VE7ETrDnaLe6bcDUaIYmbedrKjofHVix1DYvsYKCeNhp5SzONfRTCI5cpdOA+YWLabtkv4hOaOWBkjOTHyeP6jD4Iii0qetcaCbBmxka1pd9mub29/QalLON7QCxVnjJKHr7x+Vo25Ga3lG+vTHUnsoFpZVn9KpjysRpMEDGFGuEERBsSdWzedqKL8uzLicdWsrfVw/OUyfebgyTp6Ebsod4Dphyth1eBIC5NDCWJMlKFF0BUoport4SPhIN9CMMQt1k6iQlZgdkXXvysqmJE/XwQFJU3pBWcVFZ5jyAxq5EADr5BJcH3GtW+Wln91klxGD11fbXjsiZFeccoQ8ENXWUz/9rA8nhFKOfNJWFQrHHJBJWqBs9hOEWaoMXwo4Ks4CIig5dmQmpdMmqDaGHrWs6JHpTGb/JU0WJa1FCDpyndchK8y5qbgG6kFC7YkvfuFL8cv/l78Zn/7MZ53/ccGfm5M7e3o+Tp44F5sn2Ya2vVoCcA0DGsDBRn9sGR+Ii3aPa/unTvMoquO1bWxwlpUTsaEJjTPz+VKOiLOJB5G+l1OErb8MAnZBCjY6f3WVbeeqHNSwZGllZiYFMfkMDDG0zEJzipY6cGAILnIbzRHtcEeV4sYETk6rTLpSdKwwG0ObhJeT0wq1vToQM8ujsdDiZokAx+xUyk+kjAW0FM4sjWKSkHGyoETkftFXaTt5QzpYN4WYiVIbr7zdtp0sZUJJBsUWJITP/pXHeORnqAjS/YWv0tptu06QlBVa1ZUVOZdq0MZkVpoTDvqrv9wmytEDqqobKIQzNiVfoOaRLGohaHu2PwvQqAhBJvgiy2gFO1vqNxGArUma+0JZhWwnepLGtqpuKT950YJUjoV5+EBf+iT5ORCX4PaTSJnJkyv9WkY+dc+0e9L9Cg8FBRBQtEhZKU9nW9sClMlNCX1PLDAtepJR++vJzgw6rK9DQNU56hwLmDd5LBcRoM27GouLC/E//o//U/yj/88/gfDHAo1f//Vf/29L+oLAyko7Dh2cwlfF4OBQnJs6Fy/uPxat1pq2l40Ya0Zcc9mOeNdbb4qfeMet0Rzvj1cOntH2FEPsl5Noa/vKDQUJaMtFqYDrZf2NQY0hW1rGgm6VQWiQGtriMrjMnU2TIzEy1K/tcNtnndbynByWKpQTW12ZldwRO6X+Bg5UQyQxONS8gK3RslQFyvSxYxUCmjVtY1dW5qOtfHNgRPNsQM5PdXv53o6VxXPKa8WnsjYXwKXQSHMlHQVmgGBiVYpksqRcRjA+wZOBEls8UM200MJNkTx+fpSp9bgdxZEUXJ0gRay6A5xRLqM++h5kTjYCZg0/kyTpvNp2Wcrq0Lq+xOdWDJlZjgTzpwpJT1lmBeibMsDXdF4vEuCsLYs2gimCoCPrMtVRbjq4Gf6UtNuRYLyySSseZVK3wqsopafs2v15giWlQ20baYJofC1NNtTfOVmCLMWSnT0AFB4w7sukt16JdezOMl+hd+fB48JiUwlJqpziypulOCeAbSuYdFZQpWPP0tQv8YDtAWGuEpzGx3VAuw5tLiVsSyAIXB5SpPD0M8/GMwpve9tbo6H59ucJ3RG/ALC03Ir/9Z9/Jhbnl3zdbce2rXH3nTfErq0jcdNlW+Nn33lL/P3/9Gfi//qrH4w733RjnJieju88+HwszGplpD6im3xnj4xBQyPD8TZAjg5HxNmYjvVWV2diVmo4GbaPO7dtjjfcvC+2b51QxwrNdhYHBo+419bY9uagMTC+4aCRs6kpbnuFmM4Thfq9WsgVX3NgTDLlMCVjleuE7WXpkIbT6BuOZv+gnCrOvSV5/bGsLevCypDr4mBD0DdNrxiIjZcqlVbSxkoxOiukKwRAQiK9kMXRpFBgxMpDagOltNLZXAWqVbJTBwUxZx/XAHUB45EHBicgOYUefve7wJxFJv3lSQttP3ULKo/wsPRxw4MJCJ0DWiKF1R2xcKm26bgJhYNjtWHdqMuRdGgQyFCQuiLfPgOwPGWsg7k7gBToMogH6RYMc+pBqO1NXZBFX3Rl8jEvsfK2S7JFjvumfMhDnwQJ2ebuGHdjDlUPjkhAZh1DsJLnBDjyAq/KFMTmPurg0B+RqkH5POEh1RSK0SH1sA6lv6yCZUOnEvrYcpWnD3xzgxEkJI9pReNh0xx98MEH4+///f/SN+b+PCFbdoHgH/w/PxpHjp5xenlJqxg5qL2XXBx/9UNvi1/55ffET/+lt8UNt14XgxPj8cqxk/Gd7z8TZ8/KwbU1eHZGxSQ8UHgpBVZi6shVHJSNSTQ+e+QAr7HKc+f2x9jIcNx+8xWx77JtMahVIzceVrVNZZC4ubHGltlbFIyBu6jKY7D0imTZRhhkcBpEHGhe+xNPczgGBkbNm9fmpM/qingbaid3icfkNLWV9Ra5T6u5/phdGo1lbV8TMCxa58apXRhGMSwqptx9kMaEQvkhDw1sHEpaFCjuCQgP+XJ0HQaMMnE0C+OsFLbijiWXNDTIJ6KfXYIZox8AJss6YMGiQg14SjCp+1HJFCk8obTPOpcCyxAIraEttagvisxOG3xM8nReDBx94F5yzCfbJahyXZYpMEknq6E/Cm9HuPCdk411TDurKxzI8rRY+OAn0FYKWdkXKpcbsn7qMqqEbBf8iUqOLm+2ERsUhk6ErgY4wXUATPYFTtd3nt0PqSupItqkecJEL3i69Sa9cPRNEU9prZPDqguS1zzU5w8UwllU4h9/7PH4B//gvxHizw/Q6oLAb/7LL8XS7HzcftMVsXnTWAwNDcTS4lJsGh+PN9x2U1y279IYHB6J2cXFeOXw0Xj4iRfi4KGpaLfoGFZVdFI6OraPNjRbfKqMg/I1OOG9LXAxp/M8n/TJ2YyPjsRFu3fGXbddHdu2yCGx4uO6GbRyRL7pUEaLMj8uQl2Mh0eGh4d1hrIu+pSBwpGy4uDREZwsj4+0VhejzR1cz0TVoa0wInj8xQavrl5eGYy55RH8quvIWtKgbEQeDinDMSOR5IrB9qlUx9IMIDO4HQLkGcg6mXJ/uBxshxaoomqy5G3s6F+DMJa3noYEaQESnUVPcKl44jgZJdI8pLj+mVhJFY4hdgEYxcmuNP3jtLPlkCHxOjgWSM/UW/3vjq5BBEQAgj2ZLSF5iapehb/yVrrKboC/w9PhEuSxo5fHMCm6IFr3ZwIpVO1IUaLD7krSxivOZqBAJIvNjKHUY3pS3bJMIZ26TaV06pA2RllXTsc9WM8soa5sLW1Kfo+geClL+VlSgTFNy3bL4oHvPBj/0z/6xy7784DSit7CU0+9EptHB+PnPvjmuOuuG2JgSJN7YSHOTsmJyQ80GgMxMDwcM8IdOnI8nnp+f7zw0slYWNDZhDMfnVq2jqzgVtt5lgF8d5QBlEPyslq95gvI6mRfW1LewyOSwaFmDA8NaTV3dVy5d0cMDg4kHcOi7Q902AGd4IHw0g0XmQNpo1Pejs+4HFT0Wm1rcOXkGs1B0cnhsporN1PaMqD+/mE/u7fWmle5nKd05vHTuaWRWG6nHmiaRpGDD4DOSdM1k6T8dwG03dJKa/mdjMJ6aXYY0t/4RJms5E1pB1BbneVMDE4MuZpVjPN3oN/SlLJdCeZBAu3phFLgshorRRnjV9kVK2cel4G33gVXypwkZ/qE1D/7NFe2JDLYYRiydsY4608byPpU4FBGRzHUlkcBbRWdSQsNUFl9dAK5iUkgr74STwqzNOPtMgqp+9xOqAb6FtpSZ8lDgpgunY4uV6DA8wcch6SsYPEFTI8kjWmS1fqQ362hQlUNWk4+XV0T4EwJzFtJQLRTGYA//uNPxqc//ZmSu7CALj0FbjSMjYzHfffeEddety8mN0/E9OysbzjMzTDh1/wrg8Wl5Tg3PR0HtIp7+plDcfo021R1Ah2n3vNWTRmvlLALyc7BkoPSltVbTRwdqzk+bBNxdrJUBqYh2kajL4a1Zd2xfXvcdMPeGB8blvORiyPI0fq5N/VAo7EaOzYPx87tm3wzxJOZxqSFKC/FUAJUCZrlKhqM5tC4yludB5VtKOpWVop+zGR1SV5v2cbAheWWHNz00kS0yLuS7tA7X4INnfqJXVx08iEBjHUBCj7NK4e1mum6QoUiUzRgO/xKOO9ypdU+VrGLS0uxoNX2zOxMnD13Jk6dOh7HTx6LEyeOx7HjRxUfi5MnT8Sp0yfi7NnTcU4009NTMX1uKmZ0UpuZOadAPBOzM9MxvzArG+EXJHkSq2BdlaVF3jIlMvHrAPsphBkKQAUt9uJe6dAxTior7QKwD5fW+jUWLoXOEXwgyFBW+rniDElJfyO7iu84atuQEuLxqrascwDw6WydypON8qZ320mX6uD3XFCwHJVJb29XoS9g2sIHqHpM1AnqdRX0RSUolKlBTQE6wlyAsnRVHKRr4ff2V9hum+B0LSnCadkhBchz6NLQ/H/6z/4X2c9J5S8s9Pzu6unTS5rgmvzNgVjhWTR1DEa9rIkyoC0rDeR3naykpqZn4lFtU5966ogmVJ/ocVpsBdUfq+oIORwu5mMeOCZ3LCuHtZVoaeXElrC/b0h9iaGJCceDkenT1Krt8kt2aBW3N8ZGh2NkeCCeef5lOdYlOUCu6+EI1+KSndviPW+9Od5415VxSvqcPrsQbaxDdTHR81k6aS1a3BeOiomUd6kaWsk1o7V0TvQi0sqt0Ry2bAYZB7oq58d1RK7hYdg4X67PNZsrMdjkAWOMuhiYD9RVYgyEWDSUpesSUN4xxDQY83glmnlYE09vwAky+8a0YJErqM6mpfFaklObm5+NaTmmc2fPajxPxelTJxWfjjNncGLnYoogBzatkxTxlJwaMWUu1wntrNNnFStIjtNn0wHOzc3G/Py860K/fo1zncCps5LSlf7KNNks4ENv0fx0XGCyvRyxkc7qLYnSiZQ2kszxSyCZPNCySoem2JFwGSQPdotN3vrrgMwgo+AVWMF4x0E60QZTm06BbwnJQ5z1WR44lwvr9rCCpn3QJL0TTtWgI7yZVDpps2JB6eOsCblkoeEyT57EKaF/XGYgnfMrUZnIcslzgYL71y1w6yHKOtImqbvLQ9znXzphO/e99a0gLhj01Mk9//KR+NifPBBnZuYUZuQkVmPrpgk5mGFtRflpU+hMPqeV3YyvueHUzpw9F4eOa5U3vxKrK3KKvu2cl7abjaYcRV5no8uIcTy+SaBtIFtCVkw8fMvPvzjbuQ81KEODg3HNFbvjDbdc7W3q8PCQdJiJAwdOx/BAIy7bORk/cc+N8f73viluEM3TLx+Ohx7bH8tLbB0YE+RxMwKZODQGO3Uow2ccP9xfa+cvMvp4jGSAX13IKODXRLGTU7qfn6k1ZPjop/xqaCs9sCiDSuNCpj+uY30aoDZWXkxG8oWm0irGsHCXAM61zMhCk9rC7Ltg6kOeU1xYWoilhQW/AAEndPLkcZ1ZtSo7Jccmp4bjmp+bszNaWVnxNce8281k64b8GZxGTuWElpzlvytwZ21+fiFmtbr36k62sCgdkI+uPF7gSWYng+oclEZ/1QWutqWTdjmpPBmaT+DLF8Y652PKoz8Kj76r3OhiEtLHnQmdH1YusNQTQkozp3mlUpGprBizpxmJrDWFZTqvuyZvchR8VViQElK/zCc1JMYWWvTNupTG7p1MuupkqRdZ1rhTDgFSiVVCAwguJ6KdcJgr+VSeTQRHXWSKvblN4EFBj6wUlkd04CRW3CiJ0l9U++ILL8Wdd74hdu26cK+O7qmT+3/90z+Kz3z+e/Hwo8/HI489F0eOnoqLtFLatHlcK4NZv/GDmwGDckAYOxNiYLBfZXNx/MSUcJqA9JeCz5QYHE4MA1PnMKHacjishrgG5u5rDqmz2Xaq09V3dHJTE2VM9Vx/1aVxw/X77PAaWi0Mq/615cW4585r4o1vvDYu37s7hsdG48lnX45vfPuJOHlqQQJkHDgnP6LC9TWGRgph7ci3EXSNpOEtb79WqlPKS5OBMU8IP2snPdNRLotGOsjR0Tyb0Rr1NGOwwWrGohNIlAx4Dq7LnLQY01I+v3mgyJk/C1SoL6u1llbUbDu5dIBDO6kt5ymt1FhhsQKb0Rjh0FpyRvT1hQYcI3YwJ0eKsyOw6qff/AsSj7v0cNBXoevoBYl28204pqmF6qUOXSZ87BwUzCi6ugdTfZxKOnxKJ2vS5qoKNCOI2GKXllGnOkcRiRZ7zPJEpXFXAEFx8vtmlVKFe93RjAVP/dBmznZknDUolgmoXF9WUVWe9TY1ZUlF3jYKRSUE67jUXHBEplSb01kj0xS10OUcazOJfdIxPulI5YUS6lZegfF/xzveAcsFgZ45uZcPnIj/4R/9oTqgoVXWWiwursbK0mrccfMVMTE2rBXScoyPj8s++uPIibOxaXI8BuV0cEg8r3Pi5Fk5u0UZPsNQHAtGp5WSbz6QdV9xlhLN2qJCy06FCcEDvQ2N8sRII3Zvn4grLtsVd9x6ZVx2yU45Uq6NrcawnN1eObZt2zbHyNh4LLdbceDI8fjWd5+Ml145F+2W5GAqdXJ5Zai6xEvlncEl6GAjI24MaCXHLxzkzAaG7XgrHYbOLyK4ZrjGc3V9OG2MklZq5dcvR9/P83qAiPliA+SUtlFaEkfiTFOSOX1I1P5xAJt8eblgJWbnZrRCO6mTyTFvO1lF4dBwMi05NRzOjxOqw2MbS1jRVoZGMbZ+eNRtKuBE6SRBNjknrGcWtCALics0EJbgshoSn11VcYwrzABxpt3bnuAmTQwolwLdvKSIDkKjFRVFjChgIYm33s5j2yVtI3Ct67gTb3rniAUQCJe08CRd3iBRQJdK+++KRb++nk6p5epjnYyxzZPMSwjUV+oEav8rmZcFuMwELnlSFwUJqfXt3/9KvPOd74xNmzYVTG+hZ07u33z0a/HwYy9lY2U4bCN3bZ2MN991XYyND8dgkx/V98Xnvv29+NLXHo2l5ZXYtWOrVlkD2s4OKr+slRRbl2VPTDsWyeKBW84e3kYI0+9rYSpbXdHiqhXbNm+Ni3dujkv3bInbbrg87rnjmnjHvbfFXbdfE1dfeUmMaaXW0pbT2y3J5NcKzQHVp4l9/MTpeOKpF+MHzxyOhUVNJI8FulMTBseYyBkVPN86nB4gDIhIMTc5VhamoikHNza2SXxQJR83H2iT77iqX4wv11g0BH4VU1N5GwtsZl3v3mi7lXgVONs9iBf+1I9fiqwsL8WcVkenTp/0jQKujS0u5qMufx4rtdcCODvGqjo7rtvQJt4wQ0z/M3my/0mXE5LSgPuM8tr/tX8yayBJL7mvPGORmuC4HlxWShzD4xpclEokWLNCmo7m1WDuIgOoo8vHKMYD2RKcFFmahYmp48vYQZ7VpxyTOFlo9eHCSykV4Gws3lAiQ8pR7MLKX6AmilybjdNK1DKS6FWynYJaDhSWinTSbc5WTk5OxO233w6259AzJ/cP/98fjXNaifmNHqyqFC7ZtTluuWFvDA03Y0Irt6f274/f/9iX4tjR6TjwypE4Mz0dE+Oj/mXC8PBAnD4zpW3UlLZVOQnpA/9UCgfHcp5B5vqYVlis4rZNDse7f+LOuO8tN8ftt1wVb73ntrj2uitiz8W7YmLzhJ0ZZ5s5Vgaa8A1tDwcGBuKs6j124mS8cuhoPPz4C3H0+KxaoNUe3c0ZXwE+Hg61MZZlpLfNMhY7N5PiuDEkrrkNyu9Ox8jQgFaQN8aCVq6L2n7nEPKuOW3D+rkux+pNfMWJ8pOv/n6t6ZoqVz4nkRPOZ33OKspEoTAu40qgLamcN8t/Vmus3E6fOuWt6MLCgp3bXxRY7+xwzLRxUOPZr5MlU4Sme9UtIF26opSQ55OuxKUkSpRQ+zePTHB4O/1fSxVZUulsiuuat0spzixWpp6QWP2DSEcDuEZwRC7DSSuyc/FGvBRYE5e7PSQFeRNO2aIrBa6r0BQyg0WC0ySqbQKXv2GmLKmZY+BNYVRXsrHQGe+DopyXAL2fSWhSky4kf9IWOQVqssOrFDb6oQ99yJheQ1rJeQIvvnzh5WN5VtUwcBG+vTwbm8blVBprMTkxHmfm5+ITf/KtmD61oO1sS6u2c/H1bzwS/+J3Pxdf/uYj2sqOxjvffnPs2jWmTsA4ywDiYOq2UaNRf/zNSnFWqz5ucIxtGo+xiZFY0fZzQSvEE6fOxpFjx+KowomTJ+PM2TPe/jS0PV7kutTCihzBcry0/6gc3Jzk8tomrl+Uemyf6KAOwgo1Kp2LxnJqachcQ+HDzQSuwfXH0OgWOdH+uPqKHfEGbdP5lQXbVO64pnPmOTp+04jB5rU8Xvm0uDIcK6t1G7vuQ71UL53SFNAonSPlaZ3S1GEtZmdm49ChA/Hyyy/GwYMHfBNhWv3DNvD1unL79wE6t2Qr3MU9dOigVt5Ho+W2lLYXYOLTQ+AZGfcNUGbT+pYbA2IdEvoyzAkd+WkFkOInODGRwMprLVB4jJTuHMlzsAy4c5VeL8MwFJ3LL5CZBt2dLXhw5CU/i03lKWtlVH/hh8ZGWyjSQtQTSVbAPdThRQn06JaLY13/Ianan+VCrEC5fytrglwrQsJYeYtewH0lcJvYpagIWZ7bqqfqmNAXL+8/EAcOHCj53kKt5bzgocdepOm+3tZa4nm3li/I796xI7Zt1ZZ0ZDi+/dAT8dxzh+WI1rSqaekszYpjWRPyRHz0j74d/+u/+lycnVmKfVfxEsrconI29w/y9clb9uoc9ZSNvG8gFlur8dkvfTf+6f/+qXjwBy/HqdmFWJIT4wYHL8EcHRqSdjIt1UedZ86c8sRf0SqLmxHDQ8Oqg7Mjj3XkHUJfE/SAqh56h3FLr+T24dTcbehhA1DLje+L5tBm1T0UmzdNxJvfeF3su2yrb5I0tcrzM3zi4w0plt/QFpdricK2WmrLyqhEcX0yq8yjK1BVGBs1lJjmlw+ptvr79Onj8eJLz8fhw4d9VxTHRnv+Ijq3HwbawPXDo0ePxuGjB2NpeV79lA4HcD+o4zqrsBoLspdKX9a+Y/g6NxtyMlLMcL9qYjvKsa0SXYfl87tp0lDK9kVHVzPRs8+piBjTSXtBtkExOPihxbxM76LkQRin3XRN6VRI8QJMdMKOYEM7wKLNm/jqcIh4CD0v9+SJ2UhB6oNVCqtu8CNafaz2oUpHxAsoPN+UpnaZlMG8zBFT8lE2KVxuLcxLpiFssUXjSoH1FQdJFTz++BPm7TX0ZLv68U99O37w3BFtUXmNuLqyKeeiTr3x+r1x1dUXx0tHj8S//fiX49TJZTkTBnZVZ2Qudue5bVVbtqlzc/HIk8/FmXMzMTebd17dtRgDF+y5cO+1PYPA3T+tGFuL2touxtxiXzzz7BE50qfjgUee1SrulLbII7F71w7/fpVeHB3hmbq+GB8d9XNgy6229OzXlu5cTM/y1mEGCN/DgGnYiRlRjx6PTqhcg5I6ZWDEbHw4OSEwFlaul126U22/SjKXtSU+6RcVrLSWfIMCHXgYuqmVaLOJPmyTV6XPajT7WsKrfZav+hFufTAffZgsyrl+5UnwWnhuJhw+fMiPZeQEe31Ctskd95qAti1p69rSNnZIJxNOZp0bCnJaHgPmlruG0RBQRL+VseNInDwpE6wBHpIqslTiihB0ScknnlEnXWkZI9eEYyAPXW2zeeFar0WObskmqbI4TTIFrUNhtsMhyjJ0yq105gFnUYt6skhf+FWTG2GEMeBxph4b8oXPtdnzdeVmouBq25Ky0HQoDXB2xltk1rOMi9OlLQDZHdt3xJvveXPB9A7cpPOFF186KuPiDqeckVYtK205IDkILsafmjoXf/ipr8VhfpcqR4LfaGtC1+7JM5/8vDLyV3Hq2IJvFFAq3ye8Jr2Y+nAy7k86ho6iA7WqWtUqTROdO7kzUzrbH5yK+7/1VPzxp74Vz794yCtHnOPAwGCMTE7Eiurbvm1TTIwMxq7tm+OGay+JsWHOcJy3Sh06oKe15Bkqtc3jQ3epTUpYDyYP9GT9RzgyzNW+QW2TT8WKts03XCsnv2+nHJ8cG9vW/rye1K82bZ4Yijfecnm87123x6bNY2rzYMxr29peVT/aMIpg66F6MSyhbNRZKse57JsKx44d9TW31zswwQjV2XUmwI8ALa/Iz8ThI4d8I4XrdvSFpPkIIDcnYLeOLCcuHeg0DpCxrXRwZXlJlaBB0IT3ykt5GD32Fpl2k5Q6ypa7kwoboeYsy3rAVv2A2h/ghaWPXFbtnZzqN4oKk5c6bAvWocpyxvg8EEu2ktYB/UXikKWKk6dGrNoI6FOEm9ZZ66aUvlW8daesI5H6ki85VQKx6q4325w3LqkA6nx5//6S6y30xMkdPXZWDZDD0SR2szTQxKe1bfr8174dj2o7uywnxHv5WbWZpvRUDq4Xs8oWdegID6yOyJLHQSaUPBNHx8Jvp8oqqzWfzlA48G2/xaQvBn1ab3truqJt74kz5+KrDz4Zx07N6KyxNfbs3BZXX3Fx7Ls8HVE62xwIMaouOa7yqqCcBGncqTHqCac6UI2h9hZbS3NuoPDA6+T4WNx87WWxRQ6t2WzG4GAjRhUu2joc7337jfHzH3prjG8e9UoSvRdXuOurPiz9IqQhewxAJ6X1ZSvKrwf4SRUX5lPnvxhQDT3bmf36owCrfLbkR44eVl/rhKKTHJ2SsjLwSag4HRW5RCe9/FkUOMaNVDlxGtvlSgy2kcORd96xz4JwOUAmnZqBSQ2fkqRM5y9pM5YyDvRFpquOJrOOptARnRVTJKKcYQkmJZ/fgikrSjDwFebaHoOThcrzi0Qpr3GRyJFcYdI38Xl5x0npRcI9o+JEZi65sgEuJee0y0Hrc/zY8cT3GHri5M6dyz9q4SdZ/AwqoT8eevyF+OrXHo+ps7yJQ91LI20EXNdiWNy6bDhLOQFnVnjzQ7nk2oGpHAckfm/bTD4Ag4x+0U6OPmYQuZjPdnV4hLcQ87JOrZKWluKLX38wPv+lR+IPPvHNeO6Vo6IZjr2X7YnbbtoXu3aOS1472mVw0Cevo6FDqZM0RwnFmLH3fm05tUiLPm1Tm8SiW1lu58pKom7Slv2aK3fG1snRuPaKXfGu+26KX/q5t8e733WXX+LO21day+oJVoGrzVhcHtKqjj6AXbWrDnTIyVjzPIe44Duo3EnF4f1FhdfqnGnz/Bxvmz7pflhe4XfDOWHdR/SVhizTmdfR3/XgSeb+hXedLoWvI8A0yWzZTjirCEvNqWRKybIvRKaUgDrLheTL5Q2Ii75FAyUIFFRQxvlKT6i4jOxXDOu0N5J542PyAqWNNVBaWpLQFeZSaPKFnBWftKjZhZoRlQpYyJhbkU9ifNRfrs1ilIak4ECSpXf4OeCFgByZ84SFBc6knGG1dfCqK3+ZcOwEv3Pk0YXcvmYnZ5NyULudh4N0szEkd0DGoHjPG9fHjBUur7GozNvIgeiXY+WCrJ+vkzT/OF80vKiTLeLw6Eg8+cKBePB7z8bMzEI8+9yR+Ognvh7f/O5T3l7fdMOVcfP1l8fYGP/GlT974tOSPAaNk1y9To2D9i8sJJ/HZPjzm+HBvhiWv+WRlrtvvjLectet/ikZd3QnJ8fjvntuiw+97574uQ+8Jd79zjvjjjfc6DezPPzkM9LlaBqGV5J9sdwaiqUVXkBQDLsciVGB598WFhb9SwVuu/9Feiyk14Cd8XPBM6dPx+z0jPuiTCt1F7ZSCJ3X1/lEph0C6lXPOoFpVGLCshJSMbR2Wq+CdFqJNmNXvhLJmwEzZ+xsS6TJlHrSCcFY8tAoR8gDMTiv4QtOacWuzzKKrp4XCq6Xspxn7E46DgwyF2aZdekEBJa0IfNVo5xdKSq34fkxXamzchCyH5PbyVJqBDLE45Wv5htrnPnF9CO9hp78W9eNb/rP5CvyZkP+wF4dKN3711Z8vYz8wMi4H5T1slhOaZX/UpUT8NCJuK2VDGc7usGDogU5P6liFdcfzWgOjvoZPK6P+cbDMi+kXImVhROxvDgTA2MXxeDwZt/84IHfO2/aG7/woXvi6isvjZnlpfiff+sP49FHXtJEUIe2WtESL9vY3Rdti7e88YbYPDkSn/78g/HMs8e0OuOhXW52yPdIr7U228ncIPD6dAZ5qLkW+y7eFjffcHnskYy9l18UE+PjXtEdPHTY787jjL5n907Xw2BOTE7I+Q3H3NJyPPviS/EHf/yNeOaFk2rzQLZbfYKzHh6Yiy3j81oZYrpcC2KVp3L17fQMP8nK1Qt3HF/rSug/JGC8JyYn46LdF8e4+ti/kPgzIfvKmwYF+py5mc+dqa9BCOs+FS4vrhc6YiVsmhUwBL4IsX1UPhcKT5x8ACdhC+JgXupNgdXBZV2FsUPLl5IUZLlcilEZx5SQPKZT0iopnfYhCnBg3IhuuyxMujBtU0/3RPK7SHmlM5sJ35Ampg0G5v26jkGeebMvrINw1YGbJGvxMceD/l+L++//ehL0EOij8wZWNk01AGF2UyhMc/jKKmi+fZtaw7U736TAWTCwlImaBvof63FslpHbVS6JtdfA8yZgZZCpiLeY+BpevxyfOFnNCakUjjFfdtmSM5tbWtCK7fF46eUTwS+FuFDNgLZWVmNmej6e10rq9z76jfjsF79nXZpamvX5xocVto4MiY2X0RCuX8u6a6/aHR/84JvjzW+9OS67fFc0tG1dWF70a4mGBnlhgPRuLce5s2e0lVq0820ODMe52Zl4af/++MGzL8T+gydKezioveoTnrdbbI1qe831RjqH/7mQMatOfnvK70xxcH/RrsNdSGCXwDW64yeOeGVn+9O45ditB1xArh48yRyDtgVmGjypwmpKd3Ppa2gtO7NlkMxl62f1RKHogOoonZZNkfcdYWR49mHl/GwR/pRFsHwFyxUqdZAzqcKwTWVwnElalwiAcOA1D3gBRG6dOcCfwqweoaNn4RU9fzSVvCoT3mqaR3YIP1nZpKej5TFfunWDQhdk2vUr9sfy4M9gVqWo2iu6CwQ9cXLoxyuQcVAYHA3HiPyvWqRpCc0RISsz/+idhrPyo6GUF7o6OHaOyJLsPm5WeFsGIR2aAD3/p6CU6lrBVKJfDoozewrri4O8Vv2hp2N6Kn9axSucVtjW4MPQT+mVxZV49pljWsUdjeUl3g0nhyk5clWpH3rKUly7EPjAx545FL/3qW/F17/zgzh2Zibml1diSatL3pnW0rZ9QF6O3+ayZcYgeEHAaTmoo0ePxwGt9L75zSdjeUF9QNsQzAGrl85t1Tu7NBxLbZUJxUqu1VqNU2dOxfHjx+3gNuDVgJ3x6i5eDbXMHVflmTZ2aNiQP9nNHDqTWoAdutAEjDNjwdHEyc+BrDFp4zZOppDLRacTUd3Wuj7XUetFJtlCIMiVDtISjcbYGnypZ7IkH9rIljr8qYylixj66iirfknhYrFzuYddEXoKyfyAgq8V0FeyfQPRLgoi0MjhaCUgF2RbQbnGqmw5opNR5lJQmipYySUbXEDWYqkWVPG9hWzJeQLtcaeyRFKPMdA+q0hpN1O47HId3XqvvRS5y90+H/XlsRGurLhr7VjAJy+y7QShV1kfv8iXM7ExsZLj7CbJ5FfkFM7NzsZ3Hv5BvPTSSW3tcGzmTFGWiy/jN61paB5slbEN5r8g0CEdbQ6F9XVb5Bi1Onv5xcPxyc88GL/90a/EF775RDzy9P44dY4f4/P8lkX5rio/5ZqamdMknI5FbZ0PaAV36gw3S1QDKpmSylUFRqZke3U4ZuflZEGLZkl8XJjlId8N+LOhpZU7r4nid7ps5d2/Dtigepm06Bh7BzK2VCdUgE0Kw2RXliMcpoO/4HLQCACYdExg0sEoNo25RaLaXI4DqXyIKXihwKZsFzhXkJZVdbBxVDIdSg1ZBL35nHC2Q7dO566sEhXdAddlt0Bc5FhPJUCDI+/y2j7aAD7LUyaySyWKkxrts9z1FJpOu83fe7DavQB3nFdItRm0nRSNQfvaRBoknHs+W2VqkqYnCRePc2TnwJ4DVTpVfN7hoT4vwOwf8M0JyvhFBKvJoyfOxhe+8Uh864GnYurcvFZUeSMBiayM0CMb31ZNClqe4Uv9kj8kSUZ9zVL+lEtK6ItOdnxFFn+tePzoTHz9/ifiDz/5nfj0Fx+KR5465L8iHBoZEZ10db9w53k1hoZG47JLLolN41qBIl+BraiNl/6hH5RtrzViydtWYcU/O8PLJvkJGrQb8O8CTgI8VsO2nlU0g2ab8/gp5WEkxjGlHTCO7ndD5okLpZMVl84CyLKa86S1TSZUx5ByhVW+UwYXDrVwc6r3LyaU79LksTrQxMBXNUk9qz0Yh00qmw8SIy9LYM85WDkVp2IFY7EZyCdjQpJlJHyXK/WoGLfOfOuZS6nnVKap1q0s9TtXWTp921vIeX6ekFvMnPxojKo0mrOaO5Rj7QMaVcqdc8OUc/tqx+WUT9BgsSyCj96wuJSRHaaPr8/xUCiOhJdx6ox+diYefeyVOHzwbLR547D1o1bxyqnYpaxplUVejsay3PHUxfNu0IiqbFOz4ozymbxsW90iMI4LC+144aWj8f2HXoxzMy2/OYP/mODddvzUa9P4WIwND8WVV1wad99xlcqT131mufSD8qoTXdvais/ONeLc1FSc0MT9i/DA7+sBWMXh6Lh0wLoboKdtK6Ty6342iMRDj2MiMlLHNDCnC2fXTnBaZcvmILBtlQy1po2vIxDUVMpxKr/UrZATskNl54RM02IbOFPLLTxOK1RZ0JIETIazy/nTKUBO5XEwoaEjTyGdptJ8pQD15TU7ZBVh6AON5bFdLz1VilN+SgWgNbnAJErXsiqy19AbJyfl7BT4aZQcEjcWUNyrLZXRaG4jZIZGpgvLRnUHoX48iKxwOp6uqAkfW2Kcj3uGg4RwJ1RllqvA3VNWZtxcIE5deKxF+iGzc9akBL2yvqoXYPG+XpZ15LNNtR2Qt7RiVLAcbUOQuaqgFRgx1+S4Njg0OIxo6dKKyYkJv3Vl2+bJePPdN8WN1+7yKg7HhpZWQ32EofjFoOrPmdlzcfToYT/d75PIBvyfAmPGqpf/D1ic5+Wq6lhPUAyuhoS0QXg4MpYJntDlRJaTuva9aOBBnFDm0wFOWwjjZqEQpN2mM4KzHJgD1YYh0wd/a58roZRWuTaeqje2ISLvRECJjvryU2Wa23lT2KbXOZ8ClcvzLyuznsSpn2cZWB2Tj3TyoJ8ocnJbh+wUl/hYa0jRqVcHSvuRb3EKpJ2/AFC8x3mCGynng5fXpPX2C8WJyoBo3vvOjAelBBG6b7LDaLg+GAR0chrpnlBSDqM8mGta9UZ2LEKF5ZcPcmbcMLAfkC7Uy6D45gJI0eNAWvgopfnJWeqGg8p6kJljVQwWDVTGoxtuAEZLfTyfZ+MAL53FxHRoq91sMwdHtHqbGLVjHRwaiMZgI557+eU4fvpsbNk8IWc3Fnsvuzje9Y474tI9E+oXHLe0pd+sC3VI3spUzJx9KXixwH/Mz8O9FmDcZrSS45Ebj19i6Vp6Vwf6+tV9avw6wMRA5YhgK2nLecOgmzeRp1IydGwT8JCWcteZaNtPoc3yDH7dv3DYQt7IgKoW58kwIWWucnMMu0QnPkJTUkzaVWa1fBLsc4ptg6zXCp3lujW6o0MJlHnHZYeZwAwxT2Y9pzwPROIpKGGOWSisluvmwnA0Z2UEgw5dRM+B+s4fGkxulrESqA7Ppa0CZd4i1karE7R1BNxYBiaJTNMxGoU2DlOZHAh1F+mS9z+0iygHlwdzB5VnBbekzpNTo1k+LeKA8noYvY9GNijqFR/56uhIq9D6ogM11F8/sKrKYmoVvQ04uw73Ro2I5cC2mR+RL87NxIi2puNyaGenpuOzX/hW/NbvfSa+9/jzcWZ6JnjX3XVXXRXv+8k3xq4dY5KWv9iwDqXednshVpbL/7luwI8MPC7E71x5J92rwG/aKH3MmGoo0zY8zIymx9Jvz/CYYkc1mM0AnbMwOSVZyCCJeXR9guQoYyMRUC4izMrMBU3EnXg7tixM+RzF23VGqQtoFgQ5x/JE6yrNVOSz3CSYvtiR5EPv+aSPZ5NpMy6tEkV+TG85OFWBdMnmQVeCaDKYoBPcDh50B13gVenSDt9xvECQM/U8gV8X5IiWM5GcAJ6/LOhoCUdFdIu7VwU4Q2IGLcvIIkncktmkLxOIVeCBMKQ8GDwI/XJybJH5S0DL5guxBlBbyroNxe+lAWU5W08kWa4DB3TJA3rkUOaHlScyKV5lFSrnadctMs5YplddUI0Oj8fI6Fi0RMybUV46cDIee+zF+I1/+Zn4F7/3+fjsV74XB05OxZVX7o377rk5xkZ4bjB1M6wuxNLsoVhe2rgO91qBCcR1TFZ0/sVNYj32ABOQbZwnmiHjLC80CnmSEx0GCi6LXgWUuNRlshFlfC4UsS3NJ1PyaT8JyQW6qpDOTQHjR4DnElSEapNJkvaSgVJY89k2bDJxKQeePMkbIPScFQb9RJa9Q3nBOQ8go/YZfUWc7UsJCd59EWfWMeX+d33PP+Tm6rWuAitPznOlRXohgNrOG3wXEiclZZvyJHYdKCwEZwDwDFB1at0VG4NPHgITgTS+EOjLUldJyiw2O9hnMJfLqTT4DeugVjz57jm6sXCLQU6qXsezgFIiPfPVTQpsWR3DyUdJyXcVsCiyEuilDM3It1co3SXQR2c6/p1LK7Bh/n5R9E88/VJ8/+EXY26hL5aXl+L48bPxve89H3/wR1+P3/rtz8QXvvGYf8O6ddu4HHKaGmf91tJMzM+eXLfV2oDXAqzm+AvElXWP3uRqPk3fTqLijGCAiTMwqvWIQZjV4y1IA+imgU5hcmUt2FSOLQKggMyxPwLVm5ypjw9VtiCTHEVlndcVmjPnoIv1MabUlUjRV31rI6oSHajlfCkoOtvucUIEkhAV1toeAvIM4AjQMx9TLEfHyHE+eXIuixrhFwByDM4XtJ1Cab88khWOlnC+tqZOzTNTKu82qMO8neW6ltL16e/1UPnSGSr2GY0ul1w6FcfltKnVCAXJ8/Ntwtc6XQwf9M7QXJWpHB0Autv0ODzqIpIUVs8MsTBekSIAOo+vYv8VIm2ASmXa3KqeViwvTKmsLwaGB+LczEx896Gn4+iRszoRcMeW5+v4OdpqLM0vx4H9J+LLX3k4vvS1x+PkGX7BYOH6tGNh7vjGKq4HwCRaXFyKJV7mihEwlh5n9bVtyQjTGjwGThRaxp2EQjGfMkxKQFPoLEdQZKf8gjMxk56I8e3WX5hBm8I5MoKU45Q/QIpMysKpbJknBWd687rUedeVDMZngjjpvMaC2AG+zLg+HTrsxA6pQX4K0lIKrG+7yujn/DWTpZQ6ks3BtBcGeuLkmgNcR9Cyvtn08tSPVbjR3dgfD0TmWL7zZtx84aSQdKQ+LhfC8kSDA0uu7JzKbwfovDBr/KfEgJyRVnX0n2g4ILc6Ic4WrBoNyC8Eji1aB/FjMNnhyOYZOgbGWeXRVUfpzErO//GgD87NL9hU7DuufYNx+MSp+PoDj8cTPzjgB5Pph0ZD22remNLO9SZbqJWlVpw7Mx8z01oBFj3aK/NaxR31ynQDzg+YXLyKibe2+Odz6nf62WNqE6hWV6EUOtK46eiJKRJugJEEzGF+EpJA7LRytjeyWCj5xK+nzbRz0kuZzjwxMvPEIqz03m9A4HKoASX4lnynWPzWu1AxD2iPW+N+SGxes8skTqjqDWu3X7qpPPWn3OpIuVJnhyqi0oKMpYNjdnPGCWrVAEUV4flsip5DT5zcrh3j2qb2e6uqnnIn5ic7BNXtOpjAeHM6Bwc3kL9jzQuqYtWkr9cf2UHS4aXXBWUnbyQytI0T3nkHVnLC26LUdUQK5H3zQTGD6O62QqkDROZQOYNUHRiQPz+DhDKGAA14Jg8c/AOKbHqqW/I1UIMj2+LU2dn4+Ke/GV/95lMxNc2fMiOEv18cFR8PGS+7NYhBp6wETaiKtyZPe8WXFW3A+UKrpZXx/ILidScNDzrf8hthHbK3GYscD09ojUEdBX7TWe925k2pWgIUPlDQ6GyLPQEyKQEnw0SAtyMkLVyWu6pkhz8LE0kZH7O7oFNOlPOMOZF0/pqPHzomf9pvftKhIIX2KVH0Ao+kDgoZVOTKir6yWxYfRrtCz8qktS0XnXTwAkFofGr2Ym0D6QT0AnJ+dvG9hNK95wfv/Ik7Y2BA5tLMTtJCRdrnqseNwKG4mXlR3ndFFXiOzFvcQufrXO4F4bjgiqPDGajx7k+VZEL88oZ2OvBIhm882Cml87OB6gziZbXwRglqp3L04yONvMGRK0PwHCXP3la8FiPnvJq/ueX/XaHK4UjdGxKw5kbzc65hObbFeP75k7Ewm7+k8CMsdoK54my3820jaVRyelx3K1tydF1eOltuomxAL4CT36K2q7xzDivM1UuuWjyveJxI3c85OqHQMM4Yh20NO1KasRaTyJ2GBZOi3LgiwzZL0PhypNzXnmqdyElS0xkQQLnqw2Lr5QsjORYy0NidH88AB8KhEIiHD6dR34iwLBWvK+NDo/MOa4J3QR06+kNUYrSTwj4tS3kQdI/S2U5SXs+BtADvnGgQbMxNJ2T/1EyHQYYY6Y0GOPqC7jlI9PnDDdftix07J+S0Ukt3jtIMLas0tqYG+pWP4lx1lQ52sdI4JKeEcKeKsFzfw1HgK6BIKoqRRZ04m/yvBIro0PozGRuD8JiaeXB49G7h9U+20AM51pM0MkTHw83kUYVYpbhptuQ+26qgj2eAuEWOGv4dLHpSW9FfkMaOYhr2wQnxaGVpgwFEI6NxfaaRM+XVTvV2/wacN9jJ8VgPb25JIzKkc1HfM16MESbAuJSx8fAZh4xiJ/rkSgvbSVHYq21WRz5pjzWffBZkbkuw0LRfZKkISVUfU5jKkNpIRxFaR5PqkGKSXwE6kumgJQU6JLk90CM5wbHJSj20zfUXGYUf4bTE8l3MIemyOFtMLvUQNbSgqM9KUJZ9l5qV1ok2nXDFpNxeg/U/X9i1fUfs23uRHQbXkWhnPplNO/gX9IghbU23bhqOviYDy2rPT5eJ283NzoLeBqESNZ6UOyJTApxH8iQoVpHrYjVnOgyslMowGSKcCm6uFuCokECdXGdJNIcsz+uEbC/WogWvjRt5rLjkjKSTh0TkvkNrneX88EsqTw2rjqpPcniJKDce+vvzn7t4R50fK7AuTDKGXzJ5rVSLNymT34BeQavV8s0HrpnWkclxUq97fGWkynhcOzHjykhij0p5sjJKBW9ksYPqSBwqlHTh7WQqXrj8kASvoAqyjqzLKEccK1B34upNikqVkrt11Zt2xpgnHboRll34jAJpa4Ta6cKUSSdwGYnooAV50kevvDREGaVMD4RXzTqA2KpH6fvk6T2g8XnD1i1b4vprr4jmoCasnNxQk3+F74uRof64aOdk3HXL5fGBd98Wt928R5O85UavyejcQDc25WAteXKhuRns4rxtTTDWhpAhcZwRcsVYXV12qtJ2SPp4dUVepZ1VnjpAo9A968JZ+UvXaFKkHAIpnGUpcx4HpiONEIEv3gpHYbZjnWzRMK6NwTH/01iCyl2EJEmX82u1uAlRO2UDegE8UM1KrvtgdXdM6f/E1FDHbl2hsHycUuTUD41RUlAoW2NLt85dpJFjayShIY9rzRMd6awtj8nHMe22U+KClPOnoJRl0JEtOUFpS1ebunJLqsihL+yQFBxlcSFzj5RMBvhKKuMiCL71uOyipKxtrmA60Ep7B9wt6imU2Xp+MDo0HFddeUns2TUZwwN9sWfbaLzxxkvi59//xvgbv/jO+NBP3xv7rt4VB46c0o5OHYbDwXmwWqFhrGjSgyROA8t71ujuNERihXXGYWPBQZVVV0HQbWk20DNqeEizsQrL7neVHpTkyUdBigyVusTbWFF6K9NdVbl60RGZH3nIzlOW6M1t4zWNdQInElsG75YbjqZWdDg0O1mtJvP8mQZNfSl/A3oFbFn54b5fVcUgeoVDyHJGNEdJ46FEZ1I7qmUam2IKlTZDCunQKIHdenqJl/F0mXEKypijY0ecOJ11XOXlEVSmXFzpzMA3eY2p+RS+jiujutokpkVVPttbMM5XJGyFlUR3pVps0xOhOy8ASxCd55LzrtShM4XoD2KTcBBV6d/K12voiZNjfl+6Z0fcdsMl8ba7r4mP/NI74sO/8I5473veHNfecEVMLSzG57/6UOx/+awaiwPKatnGeWC44gnUvDuSxivt1mfjPfndIRgid3mIReQrppJZ5BZfYkfmmxmwc5oAifMRLq+r4Q7BYIyFXph0TyBYmYlOE4S8VbEMznpUgkEZK9GKkbmm7br0r8455UBXzEgTC/0bg6Ni578p6D/VSLnqYavK836p6wb0Cuhffm7HLyB84dzGpT5nGBkXxsyfMs58GFId6ko/xzrHxXbIGySQU/HQY03J6DKfLLM0gXGF1Laxjq9mla+v+8rQKVAOvGJl7XQ8H7C9rAMKOFyvaOCqPBSk5fERvSsEjxxiC7Ve6z9JA1merBOHPWO3mQNvEcwc0+Xcpm7mQa0CoNqUBKCnUmQUOrr2GGrvnBcszMzFpomJePfb3xy/9pG/ErffflPsuWiPJvJgHDp+Kr7xwGN+8y47VBY6fkklK6zautLk7Pc0PAxoVYNt/yLwigfD8lmRXks6Oro5wC8tZFzNpuhyKLNb1e1eYSVUXne4mNOVuiDHmCT0lsvjLdxkyLvFvm5DnXZssKsemNQWBrehbZDfXmyHizBpoYge9tYFPuSDlFD+XJo7rX6tu7b2/ssvKuY3tVZqA3oNvIKLlRyrOsYwHU3t7Dq+SjKuzmMteWKtz9jVbZnJuqxFCragFHwqtMOwwyFOq0xa7Fr2Uo1b4FMraiFfNoDhsMK3ikhNxWx3lHG0UxGV6yRV6gFs6Z5jCflzL+goXxdEUx+D6l62kTTVl44KSPmU4cTQy2mKIHbdJW0HraB0/c03QEQT6jO0ta8ztqSO7r2G3jg5nSEnRsdiy+TmGJez62s0/Drwlw8eiYcffzqefvaIjIuGa1jUHv+YX596q1zdYWfFgLk7amPpAEc5eDgdEOCgsFHI+N53302xdctQNOQ4PLyqxL+Zg8YDp5gL+tQtzn7fIShQqkyjgZuzkVCEhm9LCM/rtHmzCZpKFzstfXG8ImT1Bk8OGDgJkkBH6A3CgUHmt7RtO/mmtq30AwbOLyjQeaU9rwnAdcANuBDgMfJIK61x5ETlycXEyyEScPrDuMjnePpkiZHYnLDU5IPe8mAmkKbcMvVFTFbnEmgYb/NCThDY8cLH0XaEc60nedFjT2ZI3WxnFBWgapO6llJiVWhXOjs4su3YPwHleDFEzpk14dY7HYspISPReWKofumDtnQHUhGFf8vWsctSObKYK9BDV2Shp1vqPH2RL0KozxH2Gjxk5wvLWurMahuw3Fr2iwpn5+fiyPET8fQLL8ejT7wSs7MMCs7DvcCQyWi4DmVTMrjR9AQdTJwH9Ygo6CgBj2q4k83HYOTZ4o5bro277rw6BgcYzKSlKirz2UmdSJ0eJDpen3RfWW4nhPc1XmlU8cqRM6mGUEV5BhenxHmFiR4UgFW02seZeVm8KpOA+kgKdZgP2aID7SGnK9QH/t2tBFgF+NrLkrPOCW9AzwBH4n/clz1hbx5XBsJ5YwolUMctx9cTH6fo5xuVth0mReXjrdR1dQUKFstxmgNf5AqUrw7FZSrJdM4I7EY5p31MEtuN46IDE9iOppTzRIEdqWXqZKkCO0zkWb6KXU6RsC5PselEKxRNEQMtacsgpg5FyLVAcIIOOziQ2RcduVV3YzOdbcd5grgwQP+cN6xqYvIXfPz1HtpPz8zGcy+8Eg9+/9k4fmxO5TINBRYo/qMbelhOBKNwxyki4Dhosm9759Blx3GKqB0BLVQUKWwaHY6LL9oZb7vn9ti9a6udJ+bBK5eSXK4DRwdgQApsSZGI8/M1EzsjyrP+BPFz9lYZA+Hf3ZVC5NkIXazFuxShSWurXI+jaa7VvFayKO4xhs5UOfh+IBnA8HDGNb8BPQfGMYeiTDIGTWAXwFgYiw2A12h5UE1ScMgoK32nRaVxq48YcbBIBRyJcSI0b36tA3wpoQuVPkM3ZT3gEb0xhS0jYTw3FGGnVaZx1AOu2L75kUAKOoLKPNcE1K/ivCkBqBzxnSSFLnBkvJVRsI2DKDKSWoBG4FJ3aNg2u0YR5oIlgdWkmS8A1B44LxgYGMi/AJQDm5iYVJiIleVWTJ9bCu1aNfmz2f7pEwPmtlC1BsEdlCENTeDOYIXFSoqBgCeH0D7JnadVnBzMnt1bY3R0JC67aHdcf/0+bQHTSfgMAZE60mcSfX2WVODZbOOtA+U4wlwFmgVy15e83krnQ3AuyxsnEOUA0ibL4zes3GktVWcieVIw36yVidVR0c5Ug4+D9l81QrEBvQYud/DHQmw9WcF5AnqMiDVaOhA6nsTYjBlDh/Jh3I3XMbmJC00NyrseJUxh4RUoJSQkfbEVxdarQMXxNQ3JUmydS2wyDh39BeCVBZO2TAwy64CUPCiIuzokmAYiO8wUDa4LxuoLHTFfS3FJblXJAdD46PoTlMM/WJGC6jH0ZDYNNge0+cNDs2JbjdHhobhi70VxySXbYniIt/qmYXhlI6hdYBxBDfTaqJwl7dA0GrliggRHAp6k8HKm8GOsY6ODMTo2FhPjE3HdtVfE8GBTDCpDpkdLTDJuDJza+RE/NwjyLw7B5JbU9eFBBakNMrJN6O3fvSqPDgxQioYKpaCCl9UeBen4qmM2U8FDCxY9SBP8IgLql5/l5knVYwN6Dz7hGer4lA9DxMgwRHV8hff4Qs14Ol3GEdCYQgEQg82c118JjD0lFmwrL+mk5X9207ZTAuSmAYrNpJNJFAnrYSchSsnCkXLyBurNggzQpbSUmMekyJy3tUrUVVWlsHz6AZwPBHEKnS+7TfqUX1oPjewY680mgs28QSzuR1idLvpaFHPtwkBP5A7xRy2bt8bQ8Ii2pC2/V/+S3Tvjrtuujt07uBEBlVrtO4jZMPLMZRxg/lxFGbTJ3lGTGTocmSa9/3YwnQMGQQdzfYsrbQODQzGi+vlPhWuuvDz27NmUvqOpbeSAjEqd3mw05YgHY3J8KG66bldccvGYz2jcjKA6G5dkUSe/TKB+fXXyUiVFJw+kKvegaZDRu9Ho93+rDnj1KMcJj80bSToiXAL4o500CktVaIkKhyiMOoG2oY+rgjdHfQMuAPjuu8eFni7ggdDYgq5jB0pxrvqUwdFggyqgzAE8aH8ElpEWYALHKnGy5G0HBFZ40MumXbFw0MoK6i9ykhbcurDOwdhmyYNHjrFpy8aCtqLcwJC2XK/DysSTNlbkUC/iSfuArJxrdr6i9VxBMnV3Lh+hD99sNyIsBpra/oLkKQWqyYVHyocjs90+vRBAq88bWisrcXr6bBw6djQWlhZibGw0hni99zX74qqrdsfI8ICHjbuaXoXhSNRMzKHeUqbh6cj6/QuC+q/xtJtXGvnulr4NOTM6ui+WRd+OocGGHJgMo70mx7orbrlxbwz0r4TQMST89vHhuOO6S+MXf/ru+M//9gdj35Vb4vDxaV+E9vaZetUL3A3inFPP9GinQzlrWTuPAg66vp0E+fe+6fqYnBi0DMp9bQFIMcUpp5PG9LjmkVtjcrkF5lpkGtSaHaf/q7XosQG9BXWxDvStE0475wJAuVJk8PhzGUElFSfw8IhHZmRe2Bn6vHGAVUGksYZPGa9nnMDGjVAWgXJp1gdQLEFMf+wjH9cAzTxIW4HGP8y3rUKbJ0tSab/mhEtsVJK2ij3x/F22k7QjUZrZeOTSXnPrgHp5jU7SKwP1UX/RGVr3IHzIKPKrnLqjYadHpZqmr4LO9XedfH6oqGdADecNK3Jejz/7Ynz0k9+I7z7yXJydmvU/xo8Ny8HcvC8u3jMZzcHsBGazO5/G06mo0OlAdZc7hbRINK75g2oZgp1E7RA5OiI5uYt2bPL1QH6uM6KV5K03Xh3XXrkzbrxqZ7z3rTfEr/7Vd8Vf/6V3x9133xhHTp6Jr33zuWi1MCCGC9FK0NHIxxCUzeFBD+5OyQGqnOuD8IC3uooHBhpx561Xxs3XX+IVnR2wSljlDUjB3KYD6F8dm+So3XkBVqUpTPmst72yEO3WsupyZRvQY/BE1Icxr+NYTnVKgmAgPBgu6YyDJ20Z+3UrGduMQ7LltWQTiZcAc9pBtSsXq37/tlqofsnDnilzefnwdf0KdpIAaJLYrYKnUpYImCspo0yhLESEPwLoXZaJdIykU34hTzCdmTPj9nDCBp1zyMVKFOnJAtCwTOgr2coyt71YAUueWImUl315IaD03PnB8enp+JOvfDcefeLl+Ognvha//8dfie898kxMT89623rPXdfEpkn+bIaXSvKMWDouh05nZGPZXlopod2JwtGB/LtWU1vQplY6Q1rp8J8ImyeGY1yhvcKzZ3RSv/8F66d/6p74hQ/dFz/17rvjmuv3xcDocLx48Gh8/YEnY3o2V4lpEOW5IFWSr39ytzvPltJOjtWkR8RUwnmNZzqcGq85/0s/9aZ05M0hba3TaKoh+aM2ITqdKA5PaXvpHIBsLw3mYdUZO7kN6D0w1n4I12POWGJbdcxN4dhD18FDJ1tRzBiazpM9aRPSJsD4UgxBaSRwhJsU32rutY6SdVyvQ2cu+ZMmU9UGM521UpVLXWemrZmzWZ7JjpREpIGSKEEASo20PTrdiQycDJCdVTnltiV39+hFihLJp3rpr5LzVHLC2cIFpOwLAW7P+cIff/5b8fJLJ2J+biEOHz4ZX7n/yfg3H/9G/N4ffS0efuLFuOSSXXHjDRfLKWAEK94qViPBCdCx7pfSet4ZkovzNTu2rZOjse/inXHb9ZfG2954bXzw3XfFh3/2nfHhv/yOuPvOG7x9ZDW3vLQcmyc3xb7LL43LFcaUXtb6eP+R4/Hgw8/EKwen/DgL737Ll1Wm+XVGhCUz6ujDQPHsG2iMO884omMlqm6DhjcbN5qDcclFu7VtvTFGRsa0yJSjk6H6rceSCy8OraGt7ehwQ85+JJpaAVqu6sg7tYLSH6nIBlwI4M47TwLkyqs7jtUR+NzHOGhc+Lx6LNal0yCUqNOekTarBVlOyaeUOrZASq55iwFUJ3MiS2qo9QCKTaOkYqau3ZHTlEoLF5IGV227bJ3LMeV2wfOwoNwn5EnrkHjsU7yVpsRAUtL6CllI3qvDkjZdITKH0slZEZLh8kLUY+iJk3v4+y/FwkK+Sz+dzWqcODkTj2ll98nPfjs+8dkHZFz9MTY+5BbiZOhAX79Su3hswncnNOG9alaL6Uw6/fKLNsUH33Vb/PT77or3veuOeP+73xDve88b4x1vvyvecMf1sXXLpDt0Zm7Wge3n8NCInE3+8/zhY8fiB0+/GM+/eDqWljCSdLC2RDrXHUvIu5yZT8fku7D6sPLifMxKLI1CfH7coz8GmgN+PvDNd98SV+zd4Wtq3ITg8Rau85HdJsd2zx1XaXX55th75Y7o12TjYjPXEfPMj9OVa+ePeLxVrQa6Ab0En2xkF3ZyOIkcas8zO4nODK4xeH0KYQ4Lbo2McGW21tcdVVviUyUUTsfGletipBPrmp0Dlzokd6Z0lPz0ZUnvqzzQYYdKY58u+iFIiX5gquQyldoRyCRjRsxHtKmaYfV1tVYrgaZgUK3I6XJlTRUwbx8yoQiJVbryRaxrMU3voSdObmWpLefGnztnI5i4+JAV5U+dmYtHHns57v/WM1rpLXkQcyXHeg16CVDAvdQW26ikGf/0dfjIoTh59lxs3b45tm3bascyNzsXx0+cjJOnTsfRY8fj4KFDsbw457KGnM7A4EicPD0Vx0Tz9HMvxeNPHoqZGbafVKWulfh0XxWokyhjn4lZYXGjBCbwYqKz8lqaHJ48GG2g3Vxvu+ziPfH+975JKzUcdksObk1b6kbcefNl8ZG/+hPxy7/4zti8YzLOqj9YvWnjncZTOmC1vSinyja1q9UG9BY8lIqxwXpBnU9/f15fY+yro/O4lKFYlzRepz8RVoxwMhhyOfX1odglCWk5xJRBkaX1RoCv3ckmsC3XRb5eIytzAkC/BCUgBBTV+eZf4dSQX4HaFVwPLnZNKLr7mMkUx29mrUviKMskOqduZWKqgD4jj9NNKrdPMaHecEgSxbDwYV5lZQ7ZJ6BwqBcGsifPFxgQOziaQWO4Y0C+oYnbiHarL+bmW7Hil2vIKZTfZvIySwcaCWf2FawKXIRfiqmZ+fjsVx+Pf/abfxTfefSZkD+N5vBwh4Z3hM3PzYluOua0cjt16qQ7ddOmca+2Dhw4FSfPLPiuDobsjlc6rQI9ublAxRhCDgLFtKTze1XJ4fXq6YpdcWgXbVnLrVYMDg1GszEQt998Tdx1276YlHO78pLJ+Os/99b4v/+tD8Vb7rlVeq/Et777jJz+km+SeOsuZ8g1Sle/tqz2TkerJWdnDTag1+CfdWm8uKvOSQuHpvOi0ukEsKmcEhoQjMQrFrIMEDGTNdPV+fgDDnJhfN3VTwWkE0BmjqZLHZITKPUzX+yBCriedJkNxdxgq84A2Tx0DrVVAKyTgtqx6iBq9ABPlbJjZOaKb109BawnZZLhG6zw88GRiTx3MugkOQaIrbh5mTGWbbwoqQI8jaO93QoUd12Z+5A26cNNxeyZ3gNanDdwMTff9IvzUkdJcc53dirqKJzBGl5GA6+uEq0Mrc2zYvhGrfycohPFrY7hg0G22vkPVksLs/HyK0fjdz/2jfjv/8lH4zd+57Px9ItHNCCDsWvPnmgODPhZuC3bNuf/nbZWvY3cNDkRl1y6K8bHhunR7Gfq8M0B12iNKpBfU/1Jll3Dj+UZhCbbHM0FVnD8jwRGQPtWWyt2gosLi7F905Z499vfGD/9njvj7/zaz8Tb77srJic3yclOx9e//bivW/pZO/pF+vh6nFe0bmbMz5+Mxfkzoukawgb0DuzkdKbNnQQmofGjq3Eq5dMF7CBtIFfzZbwE9WSOPXvkGEulPK7YRSm13SvJ2CIiU6KDhjqLHUBvutyHKmFpCkhDvjlgTX3LKs/6CU3OjsgOLG0nqSkRZ5ILhKUiQUai1/ykP/J6Xq0l9axSgLzzmQsAeNx3tM8I4pznpGt1ziO/pJ2VHKRY1XUymYfr52IvodP884F2S05OZ0gvsXkTSOlVmw1ptcXDrzZw7YlyOoWOxZRqV1JO79NYcDgEXiy5sjQdqyvL4u2PmamleOyx/fEvfvcL8S/+zefj7NSiLyaPDI3Etq3bY/uOnTEu5+brL3I+1155aVxx2ZYYbGZdecZBjxzcfISEs24WoDkDyltCcHhtfjCvj3+RIDx/vsO/kvEugMmJkRgdGYkBHKuALcfVV14VH3z/T8Se3buiOTgYUwvz8dizL8VjTx+WE2Mp23YdHmzJoqE5+HKiOEDpsgEXBphorbqSs5NhrIutOaQN2BREa3sskL/GYbDStg0mFFQ6xk40ppMs0B5rypjVic66EM4Xen2K+8gy0SQpHySgayKJfLdfGfj8LYrC4/kEjQtk1xS4uM60ol+yCJQWg5vSWbkxH6RTknvR4mvHRQIKZhEylaUcPZnX+njbbMARKqKNRX80Yp6ggkG0JL0CTkzPYd2IvXZo8b+iOgvxyUVnGlBtCA2nrXRUOpM69BBlJ5E2hkaLhh8bMEi82cPXquSw+OUAyykGiZsbJ0+ci9ZKW/W3tT3dhJA4MzUb0/Pz/j0rTmjrpom4+cbLYuuW4Y5B41ypLc8+1FHcqjtadWsQiBv9Te1mF+0QG1KIX0xcetHWuPXGy+Otd18Tf+ndd9mJDg4M+mdl/F6XB3lHR0etC1vp/a8cikcfey7OnJpVB2hw6ar1BqMj2X6tRAckp6E4+2gDeg04A94nxwk5IfvZ5qcDdpuWWuyUYgWXl2PF1QJjnQdICKMIfh4JsbxKROxi7D/dmunMYCKlsEQZiW21MBhfA7rZWh1SYLUlgRLQ5MlcteOcjS5tczmFVXbKSseX+I4TJFDuLGUuNZm348asP6bs/ACpR3Ylco0skDSmq+1xpvfQEydnT0/CnaTmKJ/tUUPcSroGimwojaFiL2HpLDPAkfyARXU6RmahFWK9owkKzksv2RHDw03/1dzmTZN+3dNTz78Yn/vKA/H8SwdjZHg4du3YGvsu3R3XXbUjhgbVmfIy6eRQixgHx4c6kW0TsQJ9/YNaITbjDTddEj/97jviwz97b/zNX/zJ+LVffl/88s+/M97zjjvj0ot3ygmvxszcdMxr1TYvx8YLMdnWnp6aiieeeiGef+GIVqAL0pPVrlpMYPtO4+xoqZ3HUYbs5DbgwoDtjRMa/Y1jkBHYmckRVKdGlJA2YiiJtJICdkpMVOQk73o6V2F6pYXP1HpAPgVgZXeOK0V3DuWsIZ9leUOCigq9bDZrKvkChbzgicv84yj2rLsohpNxUh+TZ/2d7agO1FgoMqXI/UleX8+ldYGTuXVmHpmHANQY6OKrfhcCeuLk3FhaVSyEo1PuOc5b2tthSPrwH6U0xne34OE+p52gsXCZLldsJSfnxnvXcHC+MSAZbDW3b9XqSSutIW0XucPz4oGD8fmvfCc++dkH4//4nc/FZ778YJw6c06OblvccfNVccmeSTkRJGLoCjwiIg/d3bZqODptWPNKDmd19b5tfs7v0ou3aMU47F86cAH7zNlzceTIkTh24njMzsx6+zmkrbNlSOclrRpOnJ6OhQWu4fX5LS0t36ChpdnarE3g37fS5uyDDbhwkPZKYCJjgwlYqldWrMA0MB4hfe1GMEllcrx+aEKarDOSynhTVtJKlbqg6FIlBXhvEynh3JpYf6HpONBSYoCJr8o8nTJTQmZRmKLcBqKDCZVK3X0EZbTy6AhdyRvvukm4BIQ/mQRTKjMdODD6GFXrhSb72OsdxS43RtpQ7FRiLgT0xMmxOqIxHloap0Dn5rrIpmMc1a1q25dNdnPNxycxeVYy0HquU8mp2cGxhcTBSQ5SeWxjYmwsBsSyc9uOmF9aiE/+ydfikYdfitOn5uLp547Gx/74gfhnv/Hp+PQXvhdbtm2Ld7395hgdQQ5rNTkeLvr7hgn6c5eT+rm7kKPAP+Qvtgbi8199LL7z0DNKt2JwZFDUbW17luwY0WV5ZcnXJYeGht0HODz+/m73jh3azl4SWyaG5BjDP+SnZl/oLWdPdwugujG0djtXextwYcD2xLVQA+OAbZJiLNMyNQC2QtusT8Y5MXFGhuowfLeRAujtNvwxiMTjaFt79UQzlYVSPwjqIS68gs6JP0UI0u6hzxsgqg87EoHpqC9T/tgFKVttKW8cJJDKHDRYLHKThwqSA4HZruwHI0v9NS7IwgHUPjOOpFTFwVoXcEWm+9402TMuu0Cwvu9fM3CD2w7KjUllaQoNSMehpBqft8WFV8SP8NMsFNi61RUVnS4W+FhJeUXH9o+0eH3GwQBWV2Lz5nE5j6EYnRiJB77/cHz3oefkiPqD+6HaQcbi4mocOjoVX/jKY/Gb//qLsbDSF9ddu0uaSk8PhuKyiuPTGUzV4d/YMSCaEMdPnojPfP7b8U/+tz+Kj37qm3H/d38QB09MRbs5EGOTk77ziqMbGRn2P5dNTE5Ea3k1VldW4/abroubbtznbTWDPzjInVp+FUFF1Cdt3BG0Ldu3ARcOVlorDowt5u/Ik7KMh5K23QLVJnJUNFb+8xpsGRvKEyb86bQKfZkHpPkgQCjHGSgjwF/KVznJKY0Y8ebKKwPmUQSka0AZZc1KWvaLs6vgEyn02k2A7c40HRWxfiCbj9EwP6nfxVmjyrzTUTqvz+XcBnKOZg95zsCrfL7sogv+m04h8kf/OrEQUbliS0I4/OAk22UXCNID9QA8ORU8rOq4vHiPt1KhW0UXUJ1WSgLv3Z0C5BDcqXRCrvwYCZ9xFXw9zoOhcnXyakurqPZCvktudDSefO6V+L0/vD/m57Qd1IoKMtQRqZL9sdLui4MHT8e//YP749jJWdeRg6aByZHQV6s67vwC6E7Hi9cGo9VVSyuzU6fn4xvffC5+/+MPxP/yf3w6/r+/8fF45LFn5Yeb0RwYjkGt1HCOU9Mz0RjkPxz6Y8c2Hit5Q1y9d1c+W4dB8qwTrRSt1dCWmKjPK9bsnw24MODHnVgt60Pn21lx0wzT00eRA5AmzVjJCuxRQNo6DcRepXgiJ28OaA2AYoQLKHIxOCU6d/hxXaKxhXf4AdVd6EFTA/qglx0uH/hgdI5Ezh/4PMfMV6BcMirkELg+5glpO2VkF4aM8kgvoATzEBLPDaXR3rs22TK82WfQiZ5gcG/bJyDPsiiqytW6nek9uL3nDeolDzEtpCFSuD4fR/8RqnPLnBrtnq0DRifgcEiVYAeQ21WciGVgEDLSlaV5S+MVTsfOnIs//pNvxqkTc65PBH7wF/q29MizI4+CrMXc/GocPCA6OT1XUrs1R0asDFgZCMekmiriWtqKr6nx435uzp2bWokXXjoZ07OLsaJV2/DwkA32yPFj8bmvfCseefw5re74P4G2fw1x75uuiz27J7Q6VY2SYWO1/DKw1gFEyW/ABQGvOLAj93WOgIeAtCdbCaA8FkxqaBifuvJj1NJhOM0Ex+xtOkWOkjiFHGVnHF51ci9FnjvdTIlkwT4Bd/kp4gmBzFHU5XQQAdemfUlHCD9qYlujHOVSm3qkFjcRUNtAye2a3u1TGcVQJiSfa0U3yaY93XKBeRWMLCVk0JWIQ8UrSllw0LcF32PImXy+UHUrrUvF1XgaZxwH4swmeQ6gaQtgNF6xFR4Pq7apjb5BlzEA+dCxth19A/Hs/kPxbz/xpXj6B0d8QZ+fr3hwWJEh26KRxwAiT3gZuAeP059i3HCnczVwWjcKlyENWYAunP3b+eBuvu8u/CuH0ZGhWFpaiMmJ8Wip3iefezm+8NWH4vf/6CvxyS98M557+WAsLq3ErTdeFfe96doYH8M9t3Xmc+sE6FnqR6/aVxtwQSCfn+Qmj058soWWtq5tncA8aTUWHgmPBxbnoS8pjZOHJnOAV13QlvHz9k8x5zHoQFdqO7dOHYrr3ICOyBlRK/KqpthBxyGJP5cMlKfteH6RSgFZHwfV43LSRS5ESa8YEuRlwvLQx+SmBZI2Q9ID6JWpbAv0RYxS4q3VVV5ke+5RP/guCRRO6UvXlCp6Dj1xclbeo8MAp1NJA1CSoI9cSbZKLclrc0risNwyuRPzQA81y2CcEYM9KKGsplTInUmdPfqbQ7HcWosvfOWReOihl2NhEUNFbm4XOwONChYqHL9yoLMpQiNw1kLATQcPmmt1uQ3CjlBuT84M4tQXBmf8ZhFWZq3WcgyPjMTx02fjGw88EafOzMdzzx2IT3/uwfit3/mT+Dcf/6Kc3dG45eZr4qort0uelbCeDIBXAqqP/2FtNuXQUXwDLghgD4zXzPTZOHn8aBw9dCCOHzkYZ0+fisWFhRwXjQrDTGAkGA5bi8aoMzYuyDKn85C2UxiZCplMe4OYvCeMJ01OPzuZLElafZyCJSUaYyoJT5kZKl8iqpyCexWkDGughK9JGys89keZDohY7/SyNuYScUJyqkxzoM7zpKyOTzILUdaXefdL4bZc2uJKkif17z1kL58n4BBoBHc8/WNgD2C3M7IROcDuSH3YMrB1cDFBBdkRubJiRcVe39eoODVSpk70j+JlpMuLs3H6zEK0luVkeP6MbUip151FB/KxoaluJ2S8ingiG5ENfbxywyGKnpdc4ubspK0TgT+BHrZY6qYpOORmv/TSym6FX2IoZjv7ne896i0sDndpZUlb2vl49vkj8cWvPRq/+a8+G7/zsS/5VxD9crjeNrHibM3F6uLpWFFYmj+prXjZdm/ABQFWbidOHI/9r7wYBw6+EkeOHYtDR4/F/gOvxEHlcX7cPcdqMsh2sCfbYrEvA6dDAGvOD2lYGL4kteWlJOcLjQtriSTJKNlDVB7s0ZAGCMrASZp0rSuPde4xmV1TwZPnmFB1pzT3KCnBDt1zBVAeMtXjNjhfSzhkOokoK/QVbz5rlFqgb63X/o+2UVfyZ0gXRD3UdyEgazhP8J/G6ON3qGkC+3qWHQWNl/KK3LFuMJ0KujR4VXgNsgdE5e6u2rHguenAhWEF07NllCPgh/W+McG7jOBy/xTjUCYdYsqwPHeiTMmVC4cs45MjLwLLiWlbal1U1FTw73G9khO2Gh9tEM1AsxlDjaa2oOPxyuEj8eVvPhLzc/xCAz21FWI7pPTC/LIc8nw89tjhePA7L8uRYdJLsXLuuTiy/4tx6KXPx+GXvxynjz8Zy8vzpY4NuBDAjamZ2bmYm1tSmssfCrKpxaWlOHPmbByX0/OKDhsWeHWCHdhWQWM/2AeXHTCetFmCIWe9aSu9KbA7209JK8bO0vlg22mvLgHlVFd+rgQlizkCQlhHvjqtnJG4iTLvRGt5hQ+glPIulDJXWHjs4NGLCBkksjbL4yaLIB1c8nfTWUM6Y+iStqbrh6o6uJLNmFTvYX2LXztwAZI7hA2tjLTy4veddWBZIeVKLweLZ9Cc59QjwIi4MyuUG2pHog6AfhWnKSfnPuNNvXJCq6v8wHrRzk/7RQT6+hgrI9NRXzEYP27C9S+lrZFPd+jCNTuIUydeElDvuHFGQT9WhSuKG35FtQJ68PMyXxNcjeWVeR3Fo3YPDA/GF7/+nXj55fJSTunua36SSQWs9Fhp8i4z188bR6ZfiNMnHpNTnNJk44UF3KRgEmzAjwtweDjA2SnGccX2yEQEPNmxDVbfsh9We7Iy40xCsUK5wmHzAsGQ2lHqiK3lAYAPO82ynIhiopwTej2pg1DcebSI+gTOYr/YupIyr6R3geqlzA1Im8oy8kWPTkp0BVNpyLG6THp0op6kROfOYyTZQQmuN8tTx2wbzUudarmOLs9aPfdL6avk9RB64uRymARlcOvjJLlyywlPA/jw+022ie7MQgdQ7utySieaThCN8J784PRptxbUyW05VK3wVGEdIHesBzzzOBUsjDpzrJDPMBGX+oqjxQEaxMJqj/r9EzJEiY7fzHJdLu8Y44xasbK8EPPzWg2onlcOH4sHv/esVm1+aY4AS2+qetFKiFcLxTAamiTL0/vj1OmnY35RK4YNeF0BbymZnpn2zaT8NUTaky0EQ2JnUPJpTTlJIcP2OhNaX19uKZSdwLckbef6IMOx32un4BOxCqGxLRGQK7AxJ5DMeZU27JJi074uLZ5XraosgzZlu1yH6JKjSEA5I7K+LEswptQPLXMMXLajgBPQpBw7tHUhHV+2106eDzw1XADIETtvoKOyYTnINC51tjMpDWZ76bdtcC2MzhRtt7F0vJLFIdLZSLUMf/BZvO1kwbn+Bv/Wz5lSFMixQULFGQgUnOCzE/1IChgplnlC6k19+FHfuTUvxsbZsIhkq8rNDxHhuFjLsbKbW2zFk8/uj4998mtx6NBZl7sO8fIPY7jYmsfJMWlai1Mxffa5mJ6dcV0b8PoCxmhxiceCuOOKjYK19SnClsAVG83CNBESOdjOOW9I+zJWBwJkzAo7wYJwpBinZjGwWk6mqN5121kUQSrr0IIHbFSUIRAEaUCZThlZypkLNbBahEp1Kk29rsJgQQaz1TlmxKtKS5Qx2jP3+VSdvLrkm1G2lgRlmeg59MTJeaDcydkkUqkwjXLkcpNRoxPQ6YN3Uae4X2gvNxpUBkl1fjmUKtYWggeB/S/zvk6WHZhLXgTjufiuNxRAwqjAqzOVaTShcLdSD1JQCT8psuxuBl3OCXkq5FcXQG4pZaCNEa3i+uIr9z8eDz/2Siy3RMMyrjhdO0Z9WNpborfaWsUtnI6FpdlqBxvwOgPGhet2K8v1NfRloDAQ2YMjEeVJVONqB5EkRE7a6KGDLfmwKD7wQGUZhcMxX8vlZE4aCQlJR4LylGUGSkyo0GEoec/H1N+OJbEKpD0JQf0QqJQ6TKmcIsvvONBsAVBnpeVBl+giNkv51OlgSpVRnH1IoCBlpqY9cUd/CnoiNfuT1QutYBCMVZIzHo91pANi8FyqbO2udGIUEJKTIsrJ5tnLCPEvKd+KhlZx/td5yrIHkx4iZb1UV4L3s2VHAlQqHblAZ0OBB0cEsOZKPRiYusr0ytMUOsqxCiF8y07V/kwqnz274J+P9a817BChZeD9UgFYtbX1YzUqa8lBz86d8EPCG/D6hdX2ar6OCdvBFhi8H4KOc+mUedSTXLZsk5UBp5PINGAaENi8txPw2B0YizhbnQSATbAA40DldWvwxX49R0gASWM6Z6tcaAqReZFeCOuROvxJ6FQDrtRPWc4VgQ6kk6oru5bVuDOvFeXsqKCUMynVfXIBQL18/kDfMf/rFSm6wn8KQ9BMJ+SyFG9OWVYMnx0SX/dDDqyvIwiabGvlSXT0FpEXWELT3xj2A50wpvEw2KUpcmKcudxlP3RKrEMEn++AyjHDbxmFRxYulryojFRtMoVka6HVoz5tbnxwkwI6i+PGh5yvl4G1Olaj1MKqUUZmQxavnNzS0oz06uq0Aa8/wDHlxfWcwIwhv3Tx762LPdnhOMFBNMVmKbYlefzztEkqCWXf5ieNvXbTzBVbkE/2WS9m6RsdvKJfuiCL4BtjxOgnPWTGrtfgaqBBguzQCTSRPIcsd6SMnyv1NUCjSh0pL3HorDrUfrbylqOCpkLOnbTtqoCP1EkZmTIv6BN42R3lIzNJy1Qgje+ov+boNfTEybW9UmtIWRqnr++K8vgHvdRVnEbWmBLf/NYgeiCFAeebDyQE/n9WyXDnyqn4/0i5CdAcVpk6TXQYDY+FWLa+PGrCYo3+wgjqwABe+Ume+VCZUK4RehDE5CFBJjzoL2JcHfrlSg5d8+FhnqvDYYf04pm3fMSEN//CT/ubrsuOUn0i5nS8G/C6h7QoBlehnrCZ0BWnge2s5jC2anTkOWKTCkxtfxX8BEBJ2zFYtHD2Uj80FSGS3WSNSWuPYIAW2bIl2Vz6EQhESZ3IJv1DsY0RqGIEflZTPMwVVyna1Drb5w8y4S84bJhnQSu4jYivNK5Kh+K0qN+yWFQYJUpi6wOxMnyJLwD8UM++NmDFk2Pk5rqpOIR6LcAtUKtMwvMeZJXJx0g0VJ74QioPxmjHeSYiy+MbvCWY/znlURVfu/MZQSspyfZaEQdpxyKZwvHJDlQQtGUN7nvpRp3V6DpAWoEzNol698grSxu5Vo/axqzxgoBCkzKkP/9bIbI8U6nIvTIg21csBCtBHKoV2IDXNTDqXm2vMw5slxHN4St2gc2VicrRE3k9D8TK1qcNzGv+pHUG+1DkYKkFTIfDAAtdEtk5yHaz2EfTQlNmkeuzY3Mdbg2SXOYaYGN+FB2SHj0sqNNOB+Uhp6Dql04z+e0cjdWxU18ma9/4SYciMz2yeLJItOCVcOGFgZ44ua2b+a8DLsyrQWpPvmZF6ivtCmgjLaJB2QV2COk44OEsIrwHMikBVkT8tR/0ODjiRnNE5cWB6ut1GjJgMqMrM03eyRUS0RYDj0oqngKK8bguR+d0wjmAmIcconj864j+weTxA8NpUojEmNsr/CSIVaUkl3p4sQDOntUkwCuWGgob8HoHjR2rdo2hc2XL5bEvkCUAk5igJA6LPHZEVvE6QqUT74MT2FdKNa2sKkNhUpT0JCQ5oyzA9sQDl2pUKJKwP2zf8rjIk3OLnA+QQF1iguUyB3GeomVO5bd84C/BeAX/DaGCUTpQq79qIy94qtfFczplmvYbmB/w+UBt6YSFvSBgH3S+cN9br4uhkep40ji8qkFrBzoyO9PbTJhos6pne0qHsB2l5903gDoEfra+dAKPbrCS6mvKSYBnKOg08bA1zH7LDstVXBqMh9556KFRfTJgb6etQdms2uFSMQqI1vrp4FESv3Xhd6WcvVvKeFhN7lfOSD/AdSuY121FU/TS4DcGozkwVurZgNcrcNLKB9plQwx8jrTGPe0rATspNuA0400wwpgK1fYB2yyl/nKo8jqsLktIWvDJrzy25bS1M1hOoeNQZpgzSeUSR1kntOBUWopM6zTlWCxthUofdlilAXWOU0etpSMfKP3lNpPSgbnUpc45YTBKB2VxuvV6Z6+h9tN5wYkzZ/znzVZajaQL3LlqIUtWN8n6u9m2BVZpebIUjRB5XY7rcznorIaaKr/k4i3qU8q1EmoOyyEN5mqJ3jOUpbiFseqyCgK6NR2UL5eUej1IIu3nGpnSJrWs7HyflWpnU45ulJD2VljMAtoFPYNDvTwkDAY5tIB6UnalR4l+O7mK24DXJzQaGqcmjyhlvv7RM4h0GmkTxIbieBycV4lWRdhHsQKPv82qsABJyzEtx3ZGCkM1JK9LYDZR4pCbVPBUMEEHn7SpQ0cPYzLg4GzHxZaLKm4hodZgXpdxyCS83rGYvyuXg7kKztqIzy0rBSk3CeHpNLfTz72Fnkh9/PHD0VqRS2Eg5aiyadkoJny7dgSH7BfhMYK2+83nhXqWRIYCHbtpeDh+5qfujsEhqSknyB+91Ot4dpLUQlbAvU8E+xoYFXD2kePD2dRrIgAdimzu/oJJrMCOCr3QHWzq4+t3xK4z3TfX3/IMTDmBbD5akmd6+NUmkfqZPgjSG8bg4Ji2rdwZ3oDXI2BPzYGm/zAcZ4fBeFJ6JqpQweMp6JoV9ovdpvW4jEA5KZfBm5A8JGxNDrYl0dZLG0B1jHniV6IrwvLT4ZLOAsfUk1Uqyk9NEZdTcOLKwiLTqltFyVcCB8dql9PoW/kEQuZcVRKnTr7Gqqfq7flo8qRPsToW71Zl1DuxvYbspfOExYVU1tcupLDnsxtDp+hDe9wKqqthQJ3KRjG3rLD4Wp4IcV+NZl9csmdT3Hj9vrh633YZHH/ZNy45XMCni8Thzs+6lZKjwwmlfLtAycrOE6mcXtLKmFju+Q4wcpKX3yICdrhuBoNjVoU+/202q0W2Mh68oqdfLtDHz9SgSKjzAX/MHdh8ThAl5ORGtsTYyLjpNuD1B4zVyPBIDMnJpXVgBBiExlsxY+876diWf4bF7qMMeFmJOM/JVobgeW6gnDhnRTFbp5HvHU2iChQa7NDp9aVK83U5RlzrRkciFSjkIx4Qgcz5aBp/0q2Sp26bKBihqM9shRYy8MgwlHZmHSTEx/xSysETKOUC1p0pw4e6oEeslS3tg7PQ9xqKtucJXC9TYFsIuBNppD6uglqyF2kxzXGzwLBVZesIb786Jy/852MYd9x0ZWzdPB5vfMN1MTY26tcUIZEzqTYUSCOnLzcFGt6qck0s+0rG1+Y16StpDAIbkvSChtVZOid1OvIUzEfHSwcGytffrAmCGaW+8EuFJZAzIgEHiVwGDHw+zmIFdHTDXUd9U3JfP69JHzHPBrz+gDfp8G5A7uLn2GEOeW3Xb7Qhth2ljWMftnPOmOvGlKsh6XEEFDOrK+A0sQdLJQhsdybMrAInVNdl26x1YkdFNOp0WTx3fKmlVGW9yJK3fFurAjZdysmLgLvJdYVqcHv0rfqkEKe7j71AAAIZLnFgLjmpcj+rZ49G3UWG52i2O/WhXeqJ6jx7DD2Rmi6pdgFtoCF8OXBUjHdQXGk8YCVHP2IqOd50gIKs5KKL9/jp88svvSj2XLSjvFWJa1/ikdM0N7w6i7BiGtDqb6jZ9IOK/WwfV+Y0GPnWV3RiwAheaVpK6mxD1cA4LbQHGyI5tqRKQwBvY5Oi1gF58NCN8Ajvtz/QEOjN2W0zg4tj5Sdh9eUAG/D6gkazEUNayflPvpX3JCcYujZrsOOgnAzGqzLlzQOZJ7eStvUEJbMMyzCfyig3jWxGZZWmywUOYmyMGNtK2godFc2VAuqnW1bpksLWW2SAR2bVwxRFkYygTfp8w4kS5cRd9fUcQxhgfHGnll3biwzagbiug88+K/keQ9Z2vsA1JoIUzUYzyfnVgOI6Eh69agjp1fnwddCBXxIQ553PiNFRftnQiF3bt8Y1V10qfDvaq8teFHphqPoonxgfjCsv3x633XxJTEzKOOVA7CiRJeeT18qg59AFzpD5LFO6ae6zckRLa8gdX8V2SPA6lC7rCISDctpOVvQMmoupn8dgwPPbVcmUk2sMbo6mJtMGvL6AicYqbnSUm0OMKVjGtyRlFYkmV6eODSGhJhUXUzC9uXEMTtkqC0EGSPLSilJ8QbhQYDvmpJrELmMuKV1PpvUDb94YIwGJESJxaQcPOwE8jqpuacmaJnMOhTHBRSBqAAUyebrYPIKmZkpdRgX5taNEN9dh9tz3XAjoiVxckq+VGdQsOzmCvjRG33RKBDWLkXLbCi2DxVnB73mTU+AnW2LgpZSwbJqcjGuuviQ2TWgVJLoBLgyLZKuc25tvvyJ++S/fFx/+K2+NSy/bLEfJaolrekPRHNCKScu/XMLTtVICdWwpyJLmKEaR9PTiCtUIQqOZt8/QYzyS0RlUIjE6p/IcLFZyMj2cOLTINZ7VI2XgpZuc3ABvUdmA1xXwvj9egDo4OKRhY6zAeqAN9c56gsbXZkB52kHHe5B0GTaTtuGTbimDHga4cq3DCQ8J60OhJZKMzOEyKh4BCpZZSwGstlKljhZXwCW215pT/RaRHMQ17yiR3XrMW3Yynk/K0zbnM7hSvmQQVmUXsCQT6+BM0pj+AsD6UXvtQIegZP1gDOs05oFafo6VHaqu0UT3RcfVzNuZ6ONrehiXOyD8X6VIHWwOxt5LdsUVl++KsZHB2LZlLO6586r4tV9+V3zkw++ON7/ppphdWojvP3EwFpYkFjkSylaVVzOhX449SMUkjVAsXfNmR67a0AMH6+t1GjzeRMz4NpRHMX6qBU0+7CxaK0tzJYeVH7Lc9nr+xYDpZvpIqznp0D84GUODEyJN3g14fcDg4GBMTPCPann5wnZcQTbg0dJ4Y0K2E7LkwBU7MCiJyVXIJHRQJzdRlVCMU4i0yQRKqQu7gTepq+PsQE0jxoeaV0zSkT6s2JzlWPVALinmZ9ISsoS6s60dNyGZbhcrANIqh8XQSaS+KUpHy/MhS83PIXEu0xdInXoP60bxtQONSt111MT1ysYd4vsoKsnQlhfLia2As2j2+4+Z/WsCtnFeSrnLY0B0g1qxDQ0P+o0Qu3fuiOuuujzeds9N8Z/Iuf31X3p3vOVNt8aWzePxzEsvxSc//704eZy39dL5uZpa5adgrUWNR1uBH1m3tGWUIclrySVZZ59dVZdtxWcklQnlt5wIrw1ytFcWRSLJyuPscvfKYOaKDTkANzkshmt5wkPHytNlcPiH1ko1R2NwaLv/l3UDXh/A2A4P88sd7nwziRX5pMi4mUTAmBMxykniARckuU5ssDDGxguLTZExIk+UFW/Lwf5groLIgDYS26l4QLL859YQlGB0oa0sqiPrT0j9G9YjfwSPNUJA23LGZDvRiJLyEZqyugJNSwdZ2gRbFglS46y4BCJ0IbL8pKEO81pZ9C68ii8E9MbJSdGmt5faitE2tRwnQ4k7iqDDwFq5A8rs13jzTrj+ZiOaQ/0xPKqz6ORIbNk0Epu1Db368p2xdfsm/9R1amY2xkfH4q1vvD0+/PPviztuuzE2T4673pcOHfJfAL5yYC5W2oOqywp48Fg58fyazsllUNyVLvN1OvSUfLrY9qyVGO878Z1WVptyaAOktWobVPu2TIz6bwh5lCSfFZJM2ig6B+Noq5y72uhfP9ixp+PmjSp5nU/OUqu5jeflXj/AZYvJyYkY0GrOgLnYMhRjwAW4a+rJLhyjj01hVqTrG33tLEoAOnTpgRSIywkS+5NxcNItrsU0zslmCZ771kFpZYyHrtg617AdwAFF36yfCmzctnl2OUhHl/X6ZZ6cDm5D0ZWFSjI5X3m8eKFu1ADlA04e2tSzLihIr/8LTgJzxb0LHXUbf2GgN0sJGipFc8MHZKeSSfVpDCsbL7Y9SAMDjdi9fTxuuPqiePPtV8UH3/0GbT/fG//l3/nZ+K/+i5+P//rXfzl27doWSytafcEvb7dt69bYPDFpR7qs1d0LLx+I+x98Mp557qQ7kNsG3XrpaKptlYCj4ZPq0blo420JK8nyxySr3L0Vfd6+R6gcUUMObvNIvPXNV8e27WOqH14cuzrQbWIQB8TLdpRHVqgAaSqRXMeaHfQQ22L0GpCTG/BvYTfg9QC5VZ30WNmABIy/T1COQTPqKiNtGtLYCQSFxx9OgkpbVLHDFAaBKXAeWRflzBBNdTkIfARgGkF3pUUGPmIXdSBP2ErAUuRXp5GPegiHni62+3Q+dxqWbkA98pkpCLcrXbB19nzp9hG6d+pDV1jgKTufrJVS0QmfdShGhMtE4bkIY9Wkt+Cqzhd4Zo33bfEPVfb0fNVgJrTf9uEmCtTC2oxNY4Pxtruujo/81Z+IX/jL98Y77r0xbr7x8rjsop2xfctoLC4uxLnp6WgvL2q7uBwrcnbDQ0MxpLCwtBQvHzgUD3zvsfjmA0/H3FxLW1rVolVb1sRWszgWO57ifotetVO7NyQE6mCetbPBiR6js/GKbrA5oK3McFx/7T7puFfbaAabIrXHM0BOUs7QZ0PaSx3ycwTcKrSWZYOgj1Q+MGpHt/EoyY8fGJuxsbEYGRlVWvbgIcEumJRkit1SZnRamXEcIHGmFOuTo5pO0Y5AwS5NBZVGqAIgFfLbBXDrMarf52fhO7zVQYDQ15qaRbXJKaEJpOlIgSIvyRXQI3E+is6xDhaJHbtWoEqT/Sr20wLIdchSip0uOiI/+w0OJBPoCfdG9ocOKbkn7uhPQU+kskxPQdmwlnoG58aEBwGOn3ZxUoGmrZXS9OxCPPLU/vjGd56IVw4ei7n5+ZjVtnRqeiZOnz4XJ46fiGNHjwk37ZUbfZPPxq3FrGhfOXQ4Hn7shZg6Jyco58pf/2FQ7nh9siZpxSh5y6qklZQMyWLYeEVT/qC+ypZDagyms8QxSoyfwetvxujIcFx+2Z649aYrY/u2iaRHLzUuZWddniQYgXVGcI3VNwqrXBc0/VAMjmzzNckN+PECjoytarPJ5QPGDwsqkxLjNTCxHSn2oCqozMhicfVQWLDHBNkZ6I4sQIyVl2mSGChdpQPFFWxXFWqaGMKMcwZk2qJLnDaZ0h3yqwPz1ZNCQDrnb+bgy0RKUQFzhbmtJP9wZ1LTlHrW5SmrWuQx88brQJwnFKdcWuvuNdQWnhcMjWjySsMarCxhVftu9QhbtjxbYB7Ka1BXVtbi5YOn48v3/yD+6DMPxlfvfzxefOV4LCxrxSaHMjkxrpi3fkhJrcoGBwZiaXHJ/GNjI3YyS8t0W3ahV444VlcuHIz8DwRp/hsCB2Q8qBK7U42wk8IJ9fOP/S5rSW+clXBa4Y2MjsaWTRNx2cU747JLd/s5N9dOu+QI/ZCv6PxYisVTn2eEgAs5/IysqS7BecqJir45vFPtGoFgA36MwCp9YnIzo5kmIUirKCbiY07cMqBZjh2VskyRVkpfUkwuS6QQW8BWUkgB4QRs3UySrDbPnPwl8HWgHiWKc3B9ZiRlJn+gq/NQX8XZLiiIK12dBh1OVwx9NwCJRW6l1FFlxFkvCA6FQYy2f7JKOzLeWUWlHcZlOkP2R6+hJ05uQdtFd4JPV2qtl2yorM5mZcVcVwdmc92d6gCt6NqtOHfuXDz19HPxha98N/7V734hfvNffia+/PVH/CcxE2Pj/rE0DmbTxKS2q4NetQ3L4V19xaXx5ruvi21bR3Ehaog6SXXkCzXpMNZxXA+THu0F9SU/oGcbmp0L3s0vne4tpAdKfM1hP3TMf70yUPJdMT4y4Os2W7Zsjn1XXOaVna/i0YPi5W4sNxKa8nAjQwNx0c7RGBuVVjh5ScratKVFBzljrgM2hjbF4NAWOceeDMMGvAbAZrZs2aLxHCXH6Dv+YWCCU5arIuzFyBIYYUBxFifOmSRxWfk4pyo4GbL6MoPkmp4Cf5WGlPkEQiFttgt2SiarOnfL66vEqxw/baBgdV0iMEvWix7WxTcpcJIQJCVHW7B1y3b4mjV4eBFqGsWkoTM9dl70ThKlmGfwoFNFlz64QNCT2bW2zCoqr3vRBbXx9Jc7sb/tZtgJaUKz6mHwWiursbw4FUvzJ2J+YTbOzi7Hc6+cjk997rvxHW1jB4aGY2lpSau6MY/1Cv+eL7lc/9usM+/tt1wbey7a5gH1BVMFr6a4tqZsW/Ws9TWj1Vrx4x05IKhUOtTpdIZKKfTLP6sF4mloFegBKYPCq3eGBhoxJud23VWXxp6dk9rG8vtX1S1rZZU2pBXBDVfvjl/80JviLffeIH3damqybuy712LFDrQtZ9ffNxRDY3tiYGDjBsSPC1jF7dy5O080Gsv1YDNhO6dgm1W534LDV6Fj7TZ0BeiLHeqoCCKlyRuvbDU9JZjkxq8H4dJOoVdMseWR4FTeBTsXyJzJGH2waNPhZKQvTcuJnlJch/TNBQi6uTDB21e7c7XZCAWedMVeLdU0Xh2WXUvnZoWlZxrH66CsapEe7ikB/UmdtfeSB9qsq/eQbe8BuMOJCdI7G0Rn8akdpgrV43T8qmxmZW05lldm1WB+isWP1gfsoELx7p07le/Tamg8BptDsf/Q4fjS174VTz3zQiwvrURD9W3fMhlvffP1sXkrr0SXcHTwdcCsmd8f9vO6dK3IVnlezqs1nn3DKEXjZ44IMEhB6ZUvS+R1O8O+fsYAI7rREI104/rcFZdfEvsu11az0dbqsj92bh2Lt7zxxvjbH3l//N9+9QOxb9+uePLpl/0vXshlK5x3pdROHG970XOirXYOjl0c4xMX+2n7DfjzBfp89+7d3ilgtJiPVzPFsXnuMhkd56UQmVDaur45J1WIwROL1k+GYk+a1OmsXh08qU3fhero8k6nhYIEY9MUY8Fz0tURXaWHFXCZFhjopw/lpqSItMohRVyWGasvOUAYo3BcLklahe72FL2Up+1K4zSzP3hSQHPZhT74g2xmGThebgCkk5cA5Cpt2QruEYpcec/c0augJ1JLO9zO7ER1gEaHh3BzmVwGRUU0P7dnwrfmY02rrP7mhJzUGE+JOAxrW3jJxTu10mv5lTeLWoU9/MRT8fFPfy0+9smvxzceeDSOHDvhXyNcs++iePvbbpEzxFHScaqXoGQ2L68H8o9aKMH/b6zxuAjKGuhwsjpotDA0fg/LGa6pbTEOkqdIhrWK49zUUp2Tk5Nx1x3XxR237IufvO/m+JW/9q74Gx/+ybjxur0xOz8X3/7uY/HCi8dEiyGoQd6eIpvrcgPaPi8JxevcccSjMarV3PAQbwy20hvw5wD8NHDXrp2xc8duTTBGB+eU9ilrKPajvOI03UQknQkzCGMibM1yEmxPxCqrpgYZ84NP1tMFcpB1sdSajosSO04XKo1Aez8Q60PK54smYKyHgvGFx22r/JZLmjoUJaVDEdkBcMwoKOgD5kqu7pIHhuwb6iYuKzn6pQo0edFOXyOSueR7D8U9nS9U7bJjAbfdboEG5oDROP8wV1i/ZHJ5XqVyHgM6k2qFBO2qHBqro7FxtqqLMTG5yau4B+Q4Dh0+F4/84GB89BP3x7/52Ffj/m8/EfOzi3Hv3TfJ6VwRA2pN58f0tVP5ORkXzrSdllstq7M0oU7zGRRoRM6gyZ/F4EBfbNk0GVdeviNuvv6yuPqKi2ww/PEwsm+87or4Kz9zX/zk22+Jq6+6JMZHR/zQ8g+efiEefvxgLC1zp66cHYsuqMXzdGtttR0nxxZfDnVgZEdsmtwTI36H2QZcSGASDg0NyLntiD17LpazyzcAe3LaGRTTMYBj4nYnsTIiA2+EorKSqWD7rjTsJ8zSAaY3XFWiQcnMMV9ci8F2Y6dRMuSNS+sFlamsK0FIlVedvQ10mTWBQEAJIG7JT2ziKgXCu1UKqwRl1gl8qY+s+87QKdSRNNqRqn4AGvqTozOGiu9iegt9586dO2/Zt9z7X0hSbvNoAR2QHj2dGquhznUw6OT0WsuzMTdzUCuZoRjWSob/bmizshP+5uuujX/4//hbMTjYiGXR/u4ffDI++7lvxdyctpGDm/zYBVvN0aFG7L1sR9yuFdWmbRNyft+Lk6fmJYe3lcipaQXVXp6O1vwJd2xzZJcOo+Ll9Zr6eEUpvVQ22Ojzu+su3rMpLr1oa1y0e1v5nexEDGpSXLpndwwpf/rMGa30IkaHh72qW+HfuyTg3NRUPP/y/vjq/U/E08+dUf2sIGkvVaz6p2I4yfbaYizPHo3G0Lgm2FZf6+vXirexdDSmzzwZp86d8ApwA84fGHO2pD7hljTPWW7dui22btvu5+Lqigtwsk5emBKhkBOUEk6V2DJp38EkpYpch/PJUXnRIVdTyqZolyUKRB7TCYFXASLJwQPg1IqIeiwU+jC/wCkv3VGfvJ82sMyy2vK3yCfD0Wxi8FMJkmMjTWm18jwK3C8Vl3RuNCjFjkp5yqDtirkJqZgFBtq4WLI70tbLVfI7D3zT6V5CT5zcrff+51KQzqZBNCU7Nxsp8WkBalwu9XFyK3I+C9OHY2BocwyO7vLKZnnumBzbSHzgPe+K/+RvfCCGxkbiT75yf3z0Y1+MI4ePynHwWuqtWvzwqIbGRltdZE9MjMTmreNxbnYpZmdwblwrYNUmJ9dekJM7LutcjOawnNzghHgawW9Q2ZYiaGy4GW+8bV/cc/f1sWXLqFZykjk+5u0y//26uLCsCdIfQ9pGLy4tqXVyiFu3+EbD4tJyHD1xQs71ZNz/4OPx0KPHYmmBeukG+kNBuhA4r6+uLcfS3BF6Sk53dwzwthTRNdbmY3HquTh16vmYX5xX6QacD2Bnm7US37Z9R+YVeA6OMRseGtXugROdYJ31V6eSjiYdAnxwe9Lqw00vr1BU5lKyHmO+KYCjdy9KeJtZAZoUWIj45gmtzhXQOY+o3yUKZWWG8xDO5S6ykSkkV8e5uKzQu8SCBIrzW6CUWlXqUNwpLBlH2fYK5PlkIVFlUpxfA23KfGKQsD7lughemab8Bx74luNeQnWu5wfSsR+PrU5F1VRXQAOV4ZwC1gOpltEkrtW5V9mmKsLp4ZyaQ5MxKQfTHByKFw4dio9/6ltx+pQcVfkDZ1/rkzHgMla1FW23+2JqeikOHpqO6akVycjOQxM/sxZsRxSEW13DQTFgOsfh4KxVxOJiK5578XC8uP+QtsjpYHBwi3I257RyAzc/p5Xn/Jz1HxkZipHhUdNMT5+NBR5OPnAoHnnssFZ2/G6Vn3CpvmwomihSTWovN1n6myNy0Ata3fGDffpHoW8kGmN7Y2TiYjn64TSQDXjNQP+NjY7Grh27Ys/ui2K3wrbtu2J8TDsBVs84AI8JxMlTM+567BMolzE4MFk5b9lg2ZFA2BmndC71TiM3mEhD42Ckvxl8EI/LmR/KSjg2W8Fc/grn68icXqWHeZRFDwNlmeaInvlzLtGlaAHtoQ0KJAsen+2SVKiiXe4WIcM6WWrnY3ySOZ2wjr9A/owxsUmrL3lnxMd8Fr8dbenyXkNvnBxNYanrVtMAXJCUL9cO+riV6oHx/UVmtI4auv4BDSy/+ZRzai3GwPCmaAyMx6z2pafkPH7ztz8RZ88uxNLKsp+py87OjqGT2G7i7vLH8jlyDBpQ+tX1YCQMuld+osFU0hkqsLUV7viZufjDT383/tk//1R89ksPxePPvBInzszE5OYtMT4+HsPDQ3JqK3JqU3Zqs7PTWt0xkYbdzhdePt55OLnJBChbYd8MMaQBUHejfyib4LcWK+HXa6tnBjbHpu23ajJer20Vd5uTcwNeG/gmk+2OE1o6CHdqdSoKOeFsreRKTEleUy1UCqTI52WOukhnK2iRkCkgz+I1B1Ias7dK70Kd+OkgZJ/QyEaxxVqb43VMroNKOidy+FypMvCBh8+Esj3sL+dg0pFATra3qrAe4LTDs4gil7Ygt8oogIx00LSZslcLzDaqz8xbFiZZZLls/inziUEdmvO799ATqTSelTO/bjC4AcXB4eiU9/vx3bkyNjpOq6u+8kfL9EWTnzgNbpb/W4vnDxyMf/6v/zheePakHIu2ne7k/GcvZHGS8v80IEcG55okxNthzIT+pkxyfULDGRK3lyVvwfKUYWiEx2h1Zm8M+gHkY6fm48vfeCr+93/1hfiff/NP4mOf/Ha8sP9UjIxOeqszOjQcW+T4JuT4aO6yVm4To5vi7jtvjc2TI6ow281P0fyLCc00Wo3uNmSddfn/VQa1tTIrGXLwwtog1EfcaR6auDRGRzaJ58IM+n8swAPaMgNDrlTIEDg58sEOGB3sq+bLWIgRDjurwpb4jEGZlljHJNGHChU4x1Fl3rlNnpSHAFI1Fo/LYGB2JJ0v8yRVAaRjWyoXqeuqMg1Kl7qFzhgZrkNZRcmvoLLsD4FlZPsBTgRuH7ZrkoJXxicJ0s5XXCKy3bQ1W2B5pe6sjyh1c7m7uvQNXCbNunoNPZpFtLKoS0Oc4sAxG2qsGuUzlVrs7aK2qoD/tq+hFZEsY2lxOp565qV45PuvRFsOpNVCJm6AXrEgS/TFX9I4MJ11WZmRhyDLNAAMgsrzTC7Qyok/t8HBMdh+R5zOdjwbx5KfB4EtT4KW5JxmFttx/3eei4994ttx5Oi5GNbqildjj41NaGXZjtbySoxrJTcxPhoX7dkeb7rrqmgO5F1cPzogayw16aiAji6Tg1doafXKFp021QG3bfcNRf6Ryga8VsAOuSnU1knHFmhj4asD9sGHmUfeR/AQQOcBMR50ruBSpiev+ZSvB1Al7fJMgEkaQZYrVwkVPCewOVCqMy0gjx2o+lRsocv3G5YyFhKKskrkkckauDlioG0q4Vvb4fnhygWFv9Jnf0BHLIlFnnnrp/B0gLQRyEVwmbP0n7faOLPSTtdNUBqZ8JG+ANAjJ4dy2RE0wB1Eyh2og5THSbn9bgeNa+RKjkcq1BfeW2jCL82ftcPyP/dIAAsjrxQJYvYZxh2Wqnu1I0eVg2PhgqyfjnSMM7XzEi3GYbrSseQU80LNzMoxSRd04C4tTqglJQaGBiWiLyYmtKVuNOLF/fvj0SeeitNnpvws3+bxsbjh2kvjyn07pBm/hJDbxHlKKDoDdtU2SrVFbfebi3lmzk4cPQhQorf6x/pvwGuF5ZWVaLW5+y3ggD0xHuQB7y4yvw5rqLi0EYHomJBp24KCrnx5pIyTbuHvJBRqpEPJMuKyge4G1bop2D4RVfLISYqs246HdLWPV5Vj32lLbl/lqUQEikh2BQvEg5mCelWdOmKzdljEMOeTA6YrJAYVpUqFTlBEKvBBM/CJycAx7d7iLwDQC+cN1Zd4yYrCbgip9TENqU1VxX3NaDbH5DA02U2FU9GEX5731pEJXrepXLw0fxlU6rHDUODWQhOHwEqMMoTRYRwUqDu3o1od8csKfyRNxb4wjEsSEyuz1BLHxG9M+2JlaSZWFs/F2FBf7Ni+RU6Lt5EMxczcTHz/0R/EJz77jfjclx+IQ0dPxpjw27fyU7MrY8smOUQmBPIRKvl0NOZPH3Bl0s8GKs0NCFaWrPCydeJRPfTLxnb1tQP9zHVcbg7Rz/lR79Yxyc5WGYe0A59U7BzIQ5DjhaUBjFymM58ATmWiI+EpAI/zWadFGZI2GTLKwpwbnXpNn7GTgPXSN8kEUKaEpCJgc+SF90pPeooYHvPysQDymSYJECevQBn3kzPwK0XGwcz6sNAQQtkqo0LqZSEO2H2VvZ7WJ/XSlfRtrbHX0LNZZFckjVn1eFXlQUmzcAPtsFiFKS2Ef+ok58PDuhSzbeQaFQR9TR4MRoZ4dKbLt4GA4yYFHZLgThEi72gxaOAQweAmoZ0WdfTLcXrjr5WaytHRuogiV1oyX+UtX86FIlYBvMFkYnTQP8gfGpbjafbFD55/Ph569Nl48eVj8dVvPBm/9Tufj29954kYGRyKK/fujptvuEhOSrrziw8ZmuWrPjobw2KBx/ZcCql92rKq9+g/nHZaMH1T9d2A1worWsktr+jE2elXQHaiZE5vgjOvclsJWd6ZnGkigrwAUQxZOOyucGO7di5YJoOsr8YwJ28RJCE50qIl26mgugbsJakpylqUMAIekElDmcG6pDzzcsMBZgUWCFybc9ZU2HiHU4D+XV5T2f4R5NmrgOUWpyaAzK/1d3sTY4fpbVfKqTJRDfpOHvIOUItrSnA7eg9of97AioO1FH9QY6XVIC74I97vlWMrKsj5y4ss1WEKrOayQKbDtnB52v9i1WCl456hW9n6KVZgu2hHYUe6ziEht8GaTnTWAcfV7Txfl2s0pZOW2aLPH+SL372OEOlrYeKkzqLXGj+kby/E0MBANCW/OTAYJ06fjfsfeCJeOXwu5jWJpuaW5exOxW//26/HP/2NP4r5uYW4565rY9+lm/2TNZSUWKSpLtXrvtG6U+lGk18/LKtu/hsC7etwoG/+HeMGvHZgdb6yvOz+xxq83dSY12u2jL0dQun5nLAkPGBJo7I0sKT32ChgLjmmlAlHpLx9IfVRjp0bW/kAM1qGnYdlg0APgXlxgunIukC5tVRdSokYGwfQH8h6sLeSrw6XaowBVAbCdRMLRI8o08KqtCW5ITzEm1t+FibJBzr1eBVILijjmWvgzKi86sq+4aj6nJE06wK9+uPVDe4ZlFaeH6QN5IrK/zmqFvhOq5T209asZkTCMPtPXtw6DYbxlGtItW3jpkB/M38sTW/JRFWa1+X8I353CPwudliVHDD8fh48W1ne1kuZe1ExvzrlWTm/oYTOVN5aqDhXWUlKvauUS0Zbjmd1ZcYFm7fxOiStDFqt+Pq3H4vHf8DzcOisCcSWqLUaS6v98cL+c/G//Ysvxhe/9kRs27EpmoOpJM3hrSPdR2polRxpY0SThcdn2LLKkOgP1bPmmzK8Zmrj5sP5ACdYVnP5Dj99yzjLOop9gKvIXE+vvxCe17VsrYZ0AskINlmRluBy5T2pGEsFnzxr3pKgxwZJl5kOIMeys7zql9KSL6HQO68gJbisk7pBm84Cs+7zj8pVL4qCM4c+TsgGy4ov2YSUjsinbtMIrJOVUR1MRMjgg94dkGC5RSWzQIiTJ+16kjZ1hB88KWaidNQih9SFAGo8f5AHyLuJ6gqCGt8npVnaK+WVi51fdXC01x2vPNejFPxv98r3N4fspDzhCylHHBTX3TLokwWKLcx/0I+DolZzqU7TqJz6WUHyokr0oaNrw8mjN8Sdx1Jwr4tn5HyWojEwou3qmHV75Mln4uvfeiKmp7X64qaEL2rzYWUpOQpT86vxvUcPx3e/v18GjsFJtGmAHOBESgceJQFaizqkA0x5ai9vUNEH1TbgtQFObnGZO9g8YwmGMcruz6BDon3wA8JKJVbI0vmFyol8EB3bxG4IwhNIUJ5kls0Jnt2H+X2AVIk0zERUAKdgPbFB8UNLbda1pDt2AnlWmSCEnRsFgJ1qV0/Lp8h146ySLuvhk2D6rlQBfNCQKvgSMc+7lOvqLviORTuf7cm1T62NNqjfFdzuyt9j6ImTQ0EE4XAcK7iZ+nr7544WxnM8SwGfRaD2amZO27OBvOCuMnt19ZK3Fiyj2HJW4eJnrByc9dHAOZLOokN99lCgDrbGuQ0ttCjN6Q5VPAiU5MfP0y1NG9/fHIvpucV4+QCvenooTp2al3PLa3q+M8YKDWaW7475SRc/W1Oy7bWrPiiOOF7bhKNV62T8PC/H/7jiVFf9Uk/JtE4K6ou8Ztlt2wb86LCyzEo7T0YVMt3NYyvlqzRdrqNtxwaYNqXAOGNNZPNaW+IN64apWJzoE+kjIj2WXRxUaTQFkE/eBmWGxAuXdZXaICHyAUQpdX0KNQYkg5T1TqoOVP71fZN1ZewSbJJ8oU2cKITP+VvxCR1HZ+hKhrYjwmBOI8BRqi69IJCz7zyBlVF92JfGMLVZjbGqo5mpO2cWTXAtXfOMlJ0Ej/8ftb0SjeawJj6vN5IEM2NkSEN29XDIS+Nzt5WRStvIdVylhcJjpZRXccXJsTD2INnrpsOCrnK1efccZ39uDvSPxtMvHoyPf/rr8eyzxzRhxGEjghqgAmkkXX3GtEzVZX3kzKqeUDqvHFkFr0r7h7RqkzPzDRa2VbzMQGnuBsvBuo824DUBE44Xpq74ly4gMspEJ6OUB0Nf+ppQyoqTclk3qTT2LhqzCUOybksFtrxiHtVJuBS6TKXAFJZZhQ6dbR65hdbYpMhtX7GpIhtIdcCnSGIfhe+kX2VLpAlSFN6cEgKkFKng19k69tt1YmnHlTZjArMz66m/BmGlhnxLKjggW1Eyimuq11Bn6nmBG96Qkmjplkv1EuoHg6H5aTelQxgwnS258O5VjiZ2vlSzXKREIPSKIc0OyTNkkWpH6sSrughKeGDKNOUN37EcKI0WzuNLTTjgFFN15ZGT/qFNcl7NOHj4XDz6+KFY5j4C5AL+CQwtuN6TbxNOPA4O2V59GuySLbMu791fBEDOl9+y8np27ljlNUxJkePzv3nxypMNeM3Q0lmJ63Lu+DwIGKziSACfmATKQpErlaQB0t5KmfM5jhVTcwCrkc6JyTKythxvQuIsQ9ksS/mUM/zE2KXlFrrqYKrTMRnzwgycPDPA40/hsyzFKXcduBDPQ0iUSAtPSSuq8rHhuu0Fl7OKCYQuEKsNJWTfJiCPi1YV4Or0u4ASaHK93MX3Eno3g9CPMxAS6QhpbidjyIdjM8vAmNgIvymkxR/USBlt3Rgmfm+Ha0hR2SV2Rt4eKuXOpFNUn2JfzNQXuaamXDF3UnFAnGTd7ThQpdgyopOvGNZeds2pL9fKms1JCRzSKoC/RGxrC2oNU20F5Fgmqy5OU5SZXQfkebAzz/+0QkrkVaP0akMDQhHX35CTIdvAm0mGhsdjYmKiyNmAHxWwlZac3PIyL3fw4Li/OdiJkLat8H4/nIGnsvvfA5bEGTOepi+4dUUeXhtrBqRTN8bFpDe6YwPJaFuloKQrUG4OO97k4WCHQmw5yMCOFPN1G5gT0KZ8hFex4NEp0xm7LAs6OOQm3t+s2oDsbs7kZtEB50o5x1qnCCo1ZfQdPWuJZPlAo/6GLtsGvnL1FlL6eQJPujXdwDIUdLobRk9k89Df72/razvG6TU0kP3coFiVk+P1SYND7kDeoJv/GSE5kmn3w5kMWeLLLhVIDrZA/3sQyht/uepVznWKpRNFpoFXzk0D45sRQuAIlTIBsY1IchuDbBUlhf+GQAAtQ6TphNfWd03OMK+ntdWWdHTUgw9FW+7kQu07bvSNyphQGCfnRq9aucGgMu6krsnJY2iN/nZs3TIcP/Xe++Jn3v+BGB7euMv6WoHHSJaXl3R+5DEdjCvtogPqbyyGgUsbIo+dMYKcVMtE5DKLE8kPlQF+8yhv9sRXx+WtmhkBCDiSL4ZrdPJ4foAHbZwTClkfKeT7dYNFX0R41imRchNSD1Z34ivygapXqdHijTOdJBBkqDZ5AZGLLaPYM2rSP+DQodTrfvBWJxcjWSYdFLtptMJ45FKG3sJZtqQQXQBw1T0BdzJRTnQPOg3iDAleVdFAuinPmEnDf7D67pe2ko3+EXVGXjfz6swpxKhDyyoOmSlbZXSeKPi/B3eQDtSNA8mltUpL8GuXtMVkfVg0LXJIJ4Y0VfgmhR0Yxk6BZEqebYv6IQLkjH0tTQOb483AKeH6RK+kh5xCy0EXVpEYEW1kC82DykMKw8KvRrOxGju2jccH3/um+JkPvDve9ZM/FZfs3g3zBrwGYKzYrnIzKO2yAGOtjx0G4+/x4YAtZJyXHjhlpl0YbC9JZZwPhacQJX+mOjWuo7WNaKxxHFVuh5+vkRmQ4F8uFD4w6Go26ZJ1GWsaoNod4BnixmVdHdslnYfEldjPtXpBISgiwXt+CexYOzIkIat0WzKZsgDPF9ev8oJDIEm3BJ6OBxK2S9RT6ImT83UxlMb9k1arrK5aSX/UbSud7Wd6kij51rheItfjXwCkx/fZgJGCCl6cIh1a5NCdnGW5hUBF9QYHMu1kXZ7QRhf3ZAmkFWweEKGPYmT743qoDxUYonRKSduth20yd4PzBZ1pHDQYx5skqof+oNpkBFnKJBeByjaHxoyn75qq6tKLtsR733Fb3HXbdbF50+a45NK9ceftd8QA73bfgB8ZGBteWc8P9QGPYwFsAEuoQKrajtgKpE10Spixr3J0pIkhSbxZi4C0F2SkPWU+IUkSh1vJfMrL7WrJoqUVb0j/pLOcapTOZfvQxyym46FldkTQAMh1aUKVkxwFaEsuSKBNnYBOz/gIeNXHXKkYiaF7AP9pdUHD4Y/y5u7QGGG5viFB5gJAj2aO1CuK83ob/0UfzkUfnBohe6s2ClCiGp5WM379EM5Hofg3UUCp4ed/GTRYuC8D/UdRZwSUsdPAgSKzKCOoKehZaXkLSl4ldLJDUpRO50wGThSkxWOXiCALq3UqyyMeODacLfVzFlTs9gq8elRpBhymyLRdX1vjT2zUJhkt1/94opx//tp78eZ41323xhtuuyYmJ0bl2Jr+t7J73/aO2CqHtwE/OjCW3GFtabua0BnIfwcU62DSeeIVaqF9cZ90tQFlPNEdFwRBdbJjwJxUapxpbAkm7IAtw1Wm5WJHpihkWVZiA3Mkr1dngb+CnG/kYO3WhHylcsJYvsmUTb2hA2/iwpUElkcScHkhsg45f5KDuBCmUAVx0xajdVD95jZpatoFyn8Y1zvoiZPzCykVE1CVrVhDji6vSaE/jchSnvanMVxY3zIxHOPjE9EYGItGkx/QMyC1YwC5DxyNnRydhqtIPB25KhmMXfZrdnodXC695M0PGYRCrghhRVeGBeeLTDa36NYdLB9Nzx1USjioqxg4f6QTVL7DCpqHUpLPtSOXHIrRxYqdlDPjeht3UdNAtBpUwYCWcJdoBffO+26JO26Vg5ucED1bXrnBRiOuvf6muPmmm5TuyXD9Rwessnm2EWAcPBQCRgBI680x8zgVAvLYhktkaHmzS9bTNVADQ8nNMNuT02A7bqgTKmAjrkYH8Fml6iZFPT9EnUGAcCWdK6guqAxHIqHw13ZkTcJU+k5C4KKsjdoRX7QwOPUqPmjzZO18kVV5lVBw7e4Ld5NsvQvwdFIJoISrC5sLAb2ZNUxynBHJPk18AhfVJZ2JypPk9V+yjFSrJsaH4+43XBFXXbVL2zTeEiKeBp2TZOxbeaYOx8AriXBwXK+j4/yTMQaTjqQC6uP3rsL5zqu4tF4qpotONDMNIH9fi9Ojm3PQOoAoZZsqQ4of3xCvHxFhJASWVFj8UzPpZKdH+/lVhT6cnbnYk7+IkBZ15eZVnCKt4Ljy2JTDG5SD23vp9nj322+JW2680v9LwD9IpdOmDv41bHu8850/6X8P24AfDRi3xcXFmJ6airnZ+ZhfWIyFpUW/bZo/Ll9cWvDd15ZseP113wyyA9lLd9rn2OY6Ku2HAE/+OJ1ySviUVZ9tKXF8TQta+HzeEr4sq/XYfpwjTsg/t0YAvAXJlhBcAUtGB2yHvNKeA8okFRQ5T41Rwjo4VJq00QQSaYdelRGgUuw5RFIHAjPDbEUfX3su6dpmgycPspLXKMXM3QsF3V48D1jVZHVjpT9NRV06Iy/6k4ZIDaWxbnufXzZ5641XxNVX7omh4YZWNPy2lLuLlCNDqxw5jra3GWvezvp16eKtW2Acaf+atoy838rDqfqtg2vPjytHqGhwWHKK/fakODqh2WlCIUabRhlAGOu1vOKqUCOf8lA7ckuKI+eOcA6+H+Y1VjQIX1sRbkUDiDwGFn01RZTnz6obfStx2cWb4qfff3dcf81lMTo8IofP1p0TBZLgkftuNuPW2++KO++4QyvengzZf1SAEztx8kQ8/8Iz8fjjD8fjjz2ioFjpJ598LJ586ol49tlnYv8rr8TU9KxsDi6PoscN8G81BUz4PEEqtuWkjbNr8Y0opcl7teeQY29ZRLCUpB0cUOowtvDBz8d16MsvYvJEKR5O1LBgvE4o4PBEaC7jQOOglLfMVAx78gmZYA4UIqAnTJCBRZJAMvKTtP288rpArcsBCtRQGgePs8x4vTxTGTo6Vii6XQjoyYzhypMbqA9dx4/mLVk6Z/cwQNkAVlxM1K2bx+KKvbvjmisujUsv2RONwXx8wte1vPzTVpUB0ac5OJ4X6OXUWqvz0Vo5F+3lOY13NRLOrSm/bj/RxM/haCuNFH7VyuMb3A11PfrSqXnzQ7UYhQGU4ZXR5E/B8v5aw4ZHBmNmQNLQeC0UVXvwZYgycwED3JK6OeC8/QSR0DUGGjHUXItNw6tx+1U74oM/eWtcufcSrd7ypZy+nmkNxKf22UDk9LZs3R4/9VMfiEsvuij12IAfCVjNzc7O+k6rX8Ekx1fjxfmFmDp7No4dPxovvfx8HDtxTCu9JU9En8sAxg+QfaWDqDajMXIh9oHTSdz6SezR7PB0g7KK/31jaQ6IVAcWjnUVhSw+bTEnG3hoSSsia5slIw3LShN4lfmwu8BeX4V0rQqyccnIE3bBW3eSsmzvqPjyyRM8l64cPI+YJ2YUeZGvuFOTZWVIoRcGskfOE2gHneTHIhgMNdCTk1ulTFquXTEe6mgm/oBWK1snRvyPV7u2b41LLt7lf833a4faS+az05JD4kWXg/zX6sC4atLKbmUmWgsnYnV5Sp2ZZzY6zbaiSqyBM+QJORB0YXWEWSBpbFFkDTa/0snukMLvo8r98LCKRVVWcEoziAr9fdK7bMVpcxq9jIYzbzFs/B++cbg9G1tXpuPWvVvi/ffdFO+77w2xa2KTV59suEWKEIcc99QJPQabg3HTzbfFe37yPf43sw24AKD+XlyYj6NHj8jRnYjlFdbwZRycsEVoQJi+QjBUHh1C0jD+pq1gPlEwHzzhsYj1/AUqT4lz7BUUO+Uk1MXxGIszrc4LmdRj16KpAE75jExNbSYldsh0dQPm9xFQLILEdXVIXOGEBGSp03EyKMk8QD8QSptFckSfj3cRwOkgmryemXJ7Ddm68wTOBdkNrwY7Pm1BuZ6QDzqmQ+LPoTdv2RwTE+OxddN4XH7ZzpiYHM5fPqg3mqLNwVqVIxyJbds2xd5Lt8Tu7drSrs3KGS6qY8qZkY50bQJ1Ep3tlRPGAKqU0qd2cl7uJ6f7NA/uCPe5IDmS09cKFDhpdYyMtKkJuXbzb07piVWtAIpOrPaaqm9wbSl2tc/FTUvH4u7FI/H2y7fFdfsu10lUdEsr0dYqgxWsjdbCclgYeMATRJ/Jya1x731vj9tuu1WOn6t6G9BzUJevLC/G6VMn4syZM/7FhNGepdWhpJMg3bEj8j5mXKHaSS112pkcW4PsKq0t6S3PtrYeX47Gp6QuncB2mnSmLYmk4ZuuKUNae3JSg+zOOmQuYT2HaxMNITHptYoEVm5OJJ2Di0q5VpdYtq8SETB1xdbNCEAywF8A6ImTcwdJwXQEqXQ6BAEOy79rxeGxylr1ndXxEX6M37QTu+aqy2LnzkkxLWuV169VS3+MDPXF3su2x3veeUf8/IfeFG+5+7IYGeSH/DhCyeFmhVaI9JTPZuqsvFZCXVUHsMQcc1DF6fHJp7oTQ3FnAJDjUPQXjZ9NUrKszos9QaOhYyUpWTg59GfpTwU899Poa8VYey6uXDhi53b76kzslcNbevTRaGjyUP+a4qXZOW2dll1/qVVpGQVba+uEs+13f+3bd3W8/wM/Hdddc61PFhtwAUB9vqQTz8mTx2NqZtrP2FVb8gg5kRbgvKO0EeMgcYYCI9MGzVchyxKV8yMNs0tkGSm8UAO24E7aR3hFnHaeWrmMhOR17RU7ylLAKlFl5nwEaIlr9LdLTzJbmTydVWPVuZCu40hwcdZfe6nmrbtXncqz3bsA0BOpvj7llqWy6dn1Udb9zrCoMfgCyhvNRgyPsM3TVlDbsCv2XhaXXbI1xkcHY/u2ybj9lsvjl3/x7fG3/uYH4kMfeEtcevHW2H/waBw4dFrOgL2/trP82L50Ck6oX7LobPRIp1ccnylKZwrybygrNlM+QzFQBAmoA4sLQcc8i0NLqzLlATYz1zNUf96RkIjcqg71t2LX4um4Y+FQvLF1Ni5fW4kJ6T0gCe0jh2LuxWdjoNmn9izF8tyituD89Ehb5+KwkcULOZ0Gisr8+/sb3vDG+Lmf+/m4+qor5fgujGH8Rw/q//n5Od+wmFtc8PUn24XHQQeGCDLbmclL4EB5Dhg2A3SPibclmQ4UTjQpXMqhY3Oy2ZI3BlrqNCEY8KVMgE1mTjUrSlvOtZvpheTkTCCf1q6P5XXBMkTLbqKtthf1TAd9Zpn3KZ98hkxXBO0yT+kPuPkCJkGwvjk/wfQeeuTkaAh3BGk0P7IHh8oaEDkJrrDx3FyuntThirmDyITmLR6bxyfiqssvjrffe3v87Y98MP7Tv/H+eMc9t8YNV18WMzPn4oHvPh6PPHk0tC4SX/5XK+ALwDgFyeNf6/nROyZAzXSZ+00H7MU/vcIp0mLhvepUmZ2KYs6OPC7Qud5hWbhKHiFRAqzrw8kin9Uad07l1JqjooOIrfZajGm1dtX8sbh36XDc2F6IrSoaVjkOriGhQwqzD34/+lbmtXJtxMricizPy8lpVbfGW03oF+ovjzTYANwYIu5Mj8db7317fPjDfy2uuGKf+nPD0V0QUN/Pyv5OnDgeyy3eUo0N2JhcbFMijw1hP7aBBF8Ts+GRU9yBkmaukEZWxwGQVoQ8y8xsvQ7MPPPjfpVehSYvNpKOosbQIxGKCkoLV2mTLHn+bKC9xKVc9fJB76wDBZgTSpdqKt5RZaNQuoPLYvgKw3qgvy4A9Gh2sAVElF2FW8LzN1yLy7uSchXasg4ONmJibCi2bR2JHTs2+Yn+5SW2aatx9203xC/95Z+Km2+8xtsw+u2FF1+I7z/2VHzn+/tjaWXIL7AMhbxhwC8gqEPGUjqNf+1yf0oT+svbaGKMQ8FOjS6X80BPXpluGZyl05OJRhjRwbPKf1NwGrVBKka25VI//x3QlvPWtrtvyA8tDw32xURrOq6ffi7uaZ2Mi2Tow2LCsbmjMVa2oKvaqp47E9OPP+V6MMXVJW1j5xbUHyteNdAm67rOGNwu6YZTGxwairfc+474lb/xq3Ht1VdFk9+EbUDPYU1e5dyZU3H6zNlY4RoqdoJdcf3VQ0O/Z9/X1f26Icvxw4Qo+FMAPYWVQVZiMuSnE0q26lzII8+lxrtURNST8yDrtN9RnBRG65BzxSdQaIRKG6Mw6R27rpTP0TObOlSvuTyvkpa6vXYoFRWs6TB3+oslRGILlIYhwnKSqSOz15C1ny8UR8CPzblp0JRDG1KYGB+JnTs2x5X7tscbbtkX73v33fHhX/iJ+Nu/8oG4955bxMg7+JdiRRN8cmLCT/rjOEZGhuP4qZPx7EsH4ltycFNzdBr3H+k1toPE+uIM2E6qc+hKYdWg2qnprCCktMGvFzTIOAiC6RkgOhtNJJOQZ2bhFbFAymsYyuCcVENfP46NVRx18CCwTFwrujGFrbPH4ubp5+MWpSfFPCSaAdeBDuLFmYqe65KhVdviD34Qa1Pn0oA0gZZm5+Xo5mOtvlqdSSVa2tcxKj6smlX3QFOO7q1vj//s7/xdP0M3JMe3Ab2Htsbq5MmjMT01U8aDceDEh0XYOnRgjIgoxD6NTejgGf2EvPsoWEdmIF9wdeyT3wjz2CKVNk65pBHWzgcM6ZwTmUTL5AHgrzJJoxZldlgEFZrGhSZ1wOKx5FpfrSflwlP0sxNOWgTkCSFzufBIHmjWg+VdAOg7d+4cdZ8X3P6O/9rq0UFcItq+ZVSri4visst2xY4t43Hxrk1ydlti+7Yt0dLqiC3ZwEAjpqam4+y5czE2MhqTmyZjaIC35PbFkRPH4rEfPBV/8uWHY/+B+Vhprfr3h8uLU7E0c9Bv7h2ZvCKGhreqr7lzwxNEudriRgDQ/UXDqlZZ6fZAYVzeBvpam7AYgPTO/5BQrDRG0VrJ/wbgnW48p7bK22W5gyr5/v8K0Xj7rRXdSGsmLlo+E3uXz8Z21bGp0YxxHL5kSVh3QHFaxOqktupeGxiIITmnTW++Rw6XN59opbtju8JW64jT3bx1s1bAI77Lh87oyj+brfD6IMV+cFi6P//80/F7v/fb8Y3774/ZOf4vg4o2oGegfh8dG49LL92r3Uh5qYLtq4JSNrB0cHxM4TTFNr4Ofd7MslVYjpOi6VAgrqYpZEBNk1jkusT2amIyGXMgaRtPPZOZIvihL1jLdAEHQydVEllVyXD2d1tSYn0CAOj0iL5eMFg4AI3SJq1tdEYgrkLGouXB7z6QmR4Cc/+8If9Ji1azSpIxDDfiqku3xp03XhY3yNnt2DapVUd/zMipnTx5Kk6eOh3HT5z2ZHTjecREvLw3jbuM0HzvoWfiwMFpOTRNdpySVnA8Q8er0qFHdfVJdh/9hwHhgDi3VqTxec7NdV46iTxbKclKUCnGDGDlxiBmVltsJbij6Qd0Jbv+HpcKwA2tLcae1um4av5A3Nw6E9vB43hUP7YAJa7T7tPGoKDBp75+8jjul16KlWPHXCcrt8XZuVheWLBT91uHy985GmgTIJT7G/0lh8sC1193c/ytv/W34xd/4Rdiz65dWb4BvQP18/zcbBw9dsQ/DasTNV0FoP6uDsCjmSXYaHqJQqd0OjhAdMX4IEnHxZhyrHKKJJLJZHApY1x4HDrpAio2G0WJEZgzI2HTCRNTi2aJRaiQvOWJ1LSm9rHDSwQUtDH5FUl+ElKWy5lfQmdZLa/ww/neQE+cnH0DDsAJVmJT8akvfj/+5e9+Lj73xQfiiadeiCNHj8eZM+f8W80JnRFHtXob0MqN629cq+M9/EuLS8INeLvqf73nVUZaPeHk6PT8Yxe2oaqnjJw7VLj6O8A0jlJsXA5e9i/Ucgr62PWVrS8PD9e/NLSdmqqtVWVuvf1TLGGSnUdgIsbbM3HNwtG4felE7FtdiM1qB+8kyX8k68qiS6gNsDrZSfpID8laPXc25p95OvrkwBG/PL+Yj5Qs5dtss05akDIgSieN4aAOB5xuIy65eK+c3C/HR37lV+Iq35AoPBvQG1A/z07lLyMWl/iHNQangMpyItfxwb7SDmwFNtoc+YpNgrK6N5TxFmAfVX49VgzcnLy7oDR5owqnBdXadLQQZKg+9KwVFWAJkABNlkPiUD586y8qKpQqSyJJ8pCIglYiLxFVsDyORRfrw4S5AND49V//9f+2pF8z/ObvfEUTn9WYupCtVLsVC/NakZ2aipcPnownnzkQ333oqXj8yRdjenomNk2Mafu6lXaLpy+2bN4cQ0OD4uW3qqsxODwS/QNr8crh4zE/s4xf8SlxdZXrd1PpOIYmtaDjzSU6+6hud2fpo3oB2IZmDB0ontqP6KnA/yrg+OqPidMZKa8KebDXP7XS8LfVHkqQ2RR+p7amNy4ciWvX5mJcee6KjvI/DWo7Jjai1d+AaNHNJqGYMVRCITfW/HSNlwWoUbG6vBz9mzZHY8sWVW8F7RCbQ02tbkeiya9BYBVgDCS5+dLyqjZXm/wRNZNrcHDIW6pdu3fFSy+9GGfOnk3GDegJ0P+8aZhLHSOjYzqR1FOYgAv7NjAFBoyxJGKCg1LGE50vxqTvq0H2UFidcESm0BKZT0F4WVEiVY/Nxtnk+9MOpQL43AVlDnlKFH1B588RQWWZtXYs/SigbL1IQbZNxcmigzDKQJYlyLak5IWwYEttzv/ar/2q416C5+D5gzoNB8W2kiBHpSwbvpiemY7jx47HsRMz8dwrZ+OTX3g4fuf3Ph9TZ2e89RscHNBWdkArOd4OnHIGtYK65cYb4qfeeXuMTw76uhP9kP80n49w0IkeF/pHI5adjnNSl2EAyq9yfUR5zNCmyMrGqxuare6Gh4Fd5SK/tofuaLpcdYiMa3ItP6tGFWsxGK3Yp23pvSvH4rpYinEJ8MZZOrdEy6D6URmJoX4k5cCy0pJAvDU6ic43H2CWs2prNbfwwnPRtzgrvra2q4vR0qqWa3i8vttnOfS0JsjtAv3lGzAqp35WtaMj43HbzbfHG++8y/27Ab0FbkSc9R3XMxoiVkYeHo0rd/wLcOmkZPJSSYJHkbEsTDlm2GSRIYA+MQKMqdhx8qU9sCJLIJYM7Cu/BteDRZc6gFrGIoBr5+CRA94vqLAu4l1l24rl1jqLvkjtpJM/SUQre674WlHNpy6g4U06YshY5Fh1110Yeww9cXIojINraUK2cHLgNODLy3OxOH82llcWhMvle3tVqxNtVzdt1kpMuGFNyDNyhN/+3iPxlW98J85OTQdvch3WKFx71d64557rdMZs2pmpG7JCgX+fKnkMCD+gT0MqnarOYpEENf3mS3gqY+C8BSxitAaLtuhMKxxvPWF111Kws/LKjLvGazEWi7Fv6Vi8ceV47FbbeJE6j4bw4yqvJqFV9fwlNOBtpALX/XCwVOmbG6qDlZxfGwWOGtRv7cOHY/nAoWgyM5RfmdeqdZEfkGvVgCwB8t1EOhI60tIhjUm6M7GKoYyOTcQ1116rVTO/+d2AXgM//Tp18qhXypyIGByPMt2P/WFnHhdQ4BmzzHs4M5k0JZ00+tpoiROd7kZSjGAeKVdokpCYyG7JqYS0RQBMrWa9bkBN5VuEBYi0CGrNtPmtnjFFbyOM60j7IdlA8jhhs+1vFP2NzzqAaru9hm4vnAfQOQR7c1Y1rUVtV8/F0sKU2zEwNC5H4kdh5XCavsu6pLPh8spyNJv9cfjosfjK/d+PP/jk1+ITn/1mfPfhH+hMORUjWuHdcdNVcf31vI6Jt33U7sJZpVPzFtnGo7qNUaeprN4BTaNILoYCegaiIRTOhu0qTsqPefTzg2xWi5DweAhnmVaMrEzHNQuH4+7WidiFgxMP75zj5kFDTpZOZEvLWbbfL9pEXjcYGF3VQR4dDcXawaxOnYvFF5+P1vSUH6tpybktzcz5Gh2yvRI1dXHU+gC+OcGJxaIqlfq8ORgXX3xZXLRntxxqQW5A70D9vcxPv04c14l5yid4jwkDoZDjvq7jfVLOMXNRHShBjh08GXzWNQrbwGwUQ2RCQBZTzukVYxCxba9k0xGJVnGmQVICBXmEkDRSILzpM0fsaiqPdMNkCSwtsMMKWS9619q7kKu35DOL6kgq2of1F6518noJPTH/7EB1h1rB4yGtpTnN+vyz6MHRbXJyE1oN9fs3qzg1Xu3NO9KGhkdiZn4uHnzo0Xjm2YNx6MhsfOGrj8Xvfvxr8Tu//yfxyKNPx7Do7n3TjXHxHq38cESuL+u1PZQMRsU1Lq67MTKU0X15fc0EDtmt+qicZTLOLrsZR5HX1CDlWsuACieXuP52ON7QOhs71VssClm9sWLjTcZsD+1acKqq2I6NfGqagboUbPgYe7EcdKD21Gctlg8eipVDB/37XepnNbckJ8dNCD8+YnkJbp/keXVqJycEwfUrUuN2bN8Ze/fuc19vQO+BPl+cn40Tx4/EqdOnY2l5pTuRBYwDUE9IHQw20AGPlr7ESQe9h1IfMOsDBcaaJce6zoEEeEvezjLT64/mwpmVnGPLhYIcC4PcH5HLoKO+0DBvUt+uHJfbKDNXIWVWDPRJu/4DmOZV7egd9MTJ4eDwcalobvEGhyZjcGRLNAe4QcA/0fsClFc/mydHNYlFpcn8g2dfiu88+EScOzdnP7G4HHH81Fx866EX42Of+nZ84tPfimOHTsS+y3fE8JBkeDDorNJBfBX8oK86vl4sze2cEmVFZ2pWOipnZZNnTakl78NPs0zjPk5nPLi6GLsXTsablg7HrauzsaXB23xxotTePWd5NQibmHN1iWzipOt+kr6algdU9aAPab+ean4+Fl58IdrTM5bXbq3EglZziwts99UUeAgCGzgNoISTi/CUuCbK9Nm8eWtce8112rJOmGcDeg/0+8LCvFZ0R+PEyZOxyAmJj8ejnGANOW4ZlXQnTugOb+I7SRwJZRWPrZSh90g7A96oDK4fDRKSgmPKMjBHnEffglewozaBSx08l4woRFoUpApJiR6u3wejDMiyrUINXlGXFooi9wJCT5ycHzokRlxfw//Z0M/73/gRvbZNfdp2tkSzoMmKk7t4z05fMD+obeqXvv79eOXQmVhurbrbVrnouapVTLs/TpxejAcf2R+f/uJj8ejjB7WNy17ywKnjWEH5rwIlS2wO6JDDkkPsrXRZ6dCd9j+UyyHxQ3q2r3Q2N0E4d/FCy8mVM3H97Atx7/LhuEbb100q4woabpq7rXRaDXaWcpSuTYJ4OafrUT5HUTkQrp+0As7QaAogydUgmre0kls5clAr4mXbYEt9Nj81421p/gJCMiubCMi3VGfKA8mXA39OPRJXXnlVXHzRRT6pbMAFAo3B8tJSnD51PI4cPRwzcwtRf9RuW+yMGXEGcKCNU0gSWxTILhR6sISkLiCE066oho5VqSxdnOsXlrhe5jEpOorGOkJRGR2DKUkBlHyqs7P+5J3hm/Itt5Qn/P/aew8wPa7y7P95+zZ1W7Zlybbce8dgg+kp/4QvpJCEJFdIIT3Xld5IJR8JJPmHFNJoIZSAwfTigrHBNNvY4IqNe1FdSSttf3v57t9zZnZfCZWVPesinXt33pk5c86ZM+Xccz+nBjd+PK8kMc5/pAUPJ09zCcgW3NUMQDmUaCBftJ4ILVes+IWSZE7QYfBBqRIuamigLDNqic3ITL3hq7fZHXc/phekLU/UyIZMDAHR7o1Sjla7Z+OTdds+VrVms+2PLX0o6Y31WyMy4z5xxrQNEdThE1WHnVCZwCHUHepN6pIBBZxkpCorha6taYzZ5Y1N9rzOtB2jh8LsqxAhwVxtuWJUUMXna9yJn5P4Z4sdIXmZwnZ4uG6yhkT6fvjCKQbFD8W7v1bDarSbm53G2TrNps3u2uVqjlo9RirB3eNQeL9f+kD4vQvOnga/L0rkUcestXXHHx/7tj4N4PlMjO+0TRuf8LZ0YzvHbGJq3Gr1ehiAU8/IH5KbkVqcMHhuuPMsiYUfHiDP1z3j6E7BnXdGK547AVjjwost/ymxASwbzynEja/0/Zc/9846hPbThPOTMpcbIazgQdw/LvPxOxQo+EwCA0+jx+phPHJ3Cf76fDrSo349iwDu9lMGHcq7Ig1XMiINn3RD6SWf9/Rw9fR1FTQFGbCaCG2mWrNvffsB++JX7tYL0DHaxjGCiGsZrlMvAYQEdUJU6YMlzvSG4zGs9Di0rZXvU0Pqx4lLC4/Lb6Ic/aXpkhb6nyp2CJCDUmsDjPtW3Wwvamy1E0WYQ4qjoOuiVRsqjiYf3gePGkyC9CHfSdLHfdDCHqRPivyR6qD3yOAlE/FQ40rzFCciuTOwgMegfYaC6mwetZaWbktqTuTbqctsnZi2tu4lGSm9dsjZz8FFhNPshnarZRs3brING7fqHvuFRiw29Cwop9u2dYtt3rTBnnjicXvs8cf0DJ6wLaPbbMeunTalD1i9Wdc7z2AMCuIfKH3khPAe8K8/jlHEwp+/1OkS4H7Df3gHkmP+zpEhEoR3P+zPufZtOBnqC8zr5Et6JAlHzMSfklC69tNo8SZX7pa+l556tuahfOOjBCXpCu9suMY9vWaNTEgu9AjgZrHNRYQL5sG1lJlTAsuXizKtcvatu+63T1/1dZudalsbM9UJBI5QGN0gaku9YUh6Q/StYNN3ddM5D3eTG+WTxOAHUy71x8uBB3orJA+N2lYMu3xJ6ZCqIX4ebjnXstW9GTun+oRd2tllxyhymnGUtPjjVWQeXhG7ipOTkqewOs5LQMIB5ObXCfglNb7iUEir4nDvXIPfsbBNmkM4QZ7zUr31e+6xfL3qFTaY27MTU9aWqvPmCoD0EEhLUMAo2fBq+YupdG/Zusmuve5qu/e+e+fDRTxt4LlgxTRqVZuaGPdyuy2bN9qGDRuk9jZ5L6CxXeM2M1u1ar1hdX3UmhIEc005HDxT/enZsu3PHPgGL5b/zyF5JcIPLxZZnJeUdyN5PxzEl+zMxT+3nyAJk8Lj1nn509V5FGy6i69D2NSf78wFF0eQr5VfQ5y8o/j0TXmb85g5MiE5J2MnFjK+1voh/WQ0brBfgNihWCroYdbtyk9/VV+4cVmolKdxjTwIzMwkLnln3ZUb1MWXLowHB8GhEnVT8TSXem1rn4xMWYhHIL+u1FzLMZyTSEDHvKxEhGg0DbGGHdvaZRfUNtu5vVlbkZCbNx5Ruone+6oqvkCWEFk4I4+HbdbeBMW3eXCK388fksf98O05P1wnxJUE1ooNytcIjwPn6W7f5pUQDJxJdA0qJaapnKGbWzgH7vzMNRj2mMJSlf+bb/m63XzzTVJ0uv6IZxw8I8pWW42aj1PHEOtb9SHaKOLbtGmjl+dt277dxiYmbGpmxmZrwcxFhfN4/Zn3xRX2/UDq6Md9Ud7zjz45ac7f3EFfzSEJ777m4gr7/LP4u+1vVuLueZZ8krzEOO0Bjy85wPvNefz9JC/gjkAhDv8L7osB8uFTh5OJ/pT5kKPO0Cy6MJpC+PBLUk80L6GafbpGxpQ/+Q/qhwyeZnLCi+CcINmHOLlB7IrgtJ3ePCdTDxNuVCAyeh7IG9sMla59qNIj0ELFR1nm6hGtCTu3ud0uqY/aSd2aDSu8m8c67uTE+UgIYdJ9bfOXlquRUCcvPyE+uf70S0Wagr+0B4ZvJ2kObtoiqC9cZ4iHFb0opu68y2xm0hiZhYLt2vR06NPqpIbCDJGGsh6uMYAG2Y8+9rBd94XrYreuZzP0/OkS2KzXrCYTFrW3c8c2N3W3bNks0ttio9tGvXnK+NS0k16DWcYo6vAPHXHoZfG4/D8gfdf8PeOtDAhvb7qfhNsNuCXuvtKPr787hMedHmajH3P7OpeCpkuAjvk2ftgOeSMsc54yRSYkh4nJRac33k07XSiL11pCdvLXph1RW6oCf847XBn/HKU8josMS6AI/RGP6CeQnWjIO+nLLY+5yX4gQSoO0vMwNRzznfq8p27bhn4IzP2yfDhnF65qe+XCec0xW9OTolM4yt28zI7F42CfNPmepyog+Jl3Ufz+76kNJLfb11N+udhwwSGs4vZjc5iPi3vH/eHlz4ugqvfeJzfKPMyaMmsYcy6tgPCyHLlj5iNOAWefnJyw62+4zh588AE/f8RzBLwzeqYdKW9M3NmZKa/I2LFj1Eal+Ch+2Iza27HDdk1O2XS1bvV2y9qE8wj0Xun9SV6F8F7qXQtESD7qR997MedH8ez5uvi+juHFjwcPqTe31twtuKRnmSMsrdzF80UKjylsctDzXAi3GMiE5EgvuoJ7FTKzoG0IzsuucMbMovyNSgg/Pn9Rod+dkpK4OWmJvNKpALk9PIMcE1AXyoqPeKkSCBdAYT1B3bQskPGZ1BkzNRBjQUpooJyzE9cttZ96zWX2g6++3NasGLQBxVym/RtpVAThT3HpfIxKQqTc/9D2LhwJR1njlFwz+4qDB+6PUo5UMqRUGGp7pWTxpofPLoubzcSvJYQMLxGkBVkW5d789n3WnZqUWNYxea9NyYyZnvEW9uLCUO6je8ooLlPTk/bwww/a1dd81r5w/XXGnKIRz2HoPXDS07NtNepSezM2MzVh4zJzt42K9LbIxN28ybbvGLMJvRPVhvzx4fOw4f1jLMV5hPd8Dskm718gGvIQDriFffyk72WKbi8VJDqYvswCLr7wYjo45qETr8GfI4lvzik5/2Igk0Ezz3vxH+sXM1IpTkiOAnNm6aK8Ch1G4TkT9jbqVauUB6zgrfB71qYLE+pOBFYsVrxiYK5AErWimyHjjJglBWn9P2ad5pSVhtdYqbzc7yoKjFpPyqu8cBOVx0PWdknxLR0u2csuP9uef+EpNjw4YC19JXd+6QarXvdFma5Km8iXB1OUGiRC4iFeCvOZ95UBAtJKA71yvgZ0zmZY9WqzZlNaIK2BUtlGSkNWUhq4QkYGpp8qcBKUf2IIFQFSmEUZ05zLT5j40QbXS81qnvt09jm2/GWv0L1iymodr+SstGTAa+34qjNEFSbNI488ZE9seNxmZ2eT+CMOC/Cy8L4Vy1YZGLKR4REbHBrwuYz5bIeujOk75r8hP+nd7Cev3eDve8jL+A1hcOMDzMdd+VR5mlYQIUaino8r9Qtw343ghOA1vOd81NPjt956i6+zREYk9wa/YdxLsigXiDqDNLzMKlEbKAs669NItVgoSmbLd6ulYw3FoodUGhAp0cdVXyDdQLGNiCN9KPLb1ZeqHkiuOHiElSor5C7fVH/LD0TlI5bIrSxyGx4s2emnHmuXX3aWrVuzWuQK2SimpshSJsC2j37MGvc/RJ0Id9rVI2GZJpDroZkHJjDDuvszkCoM/XR1jQpDrTE1w7V2w6ZE3jy5kpTmiEickVQwgUMtrRZeBvwrIKTWUdykJV8s6crklnyB/YXQwgnykKvM8x36WORe+UorrTjSduwcs+889oA98NhDXmbTVlohNMKzREQgx0rKS4NDIzY8PGyVSlEfXX1Qeb/Jj/Liv7zEQKTl2+xy0KF8gLvA726EhaDRe63M6UcWBI8+8evnUQoUMUoV0gyN1XvPYpK7/E/DTQLcBN0AMihmIl8DKgO6LZlUzYZIoWPl8pAVSiIMkZg3i/BJpVOSCw2JQ08FkYkYwYdwYuw06Zh2Y1zKq2blgeWKY8ilfFGk4rP0c/t1rwYGCnbcmhV28fmn2AXnnmorl48ofh2DNBQXZNttzNrsvd+2LVd+3Ap0o+KcCVH4AJryz6jEPAgI2RtS6s/LwfjTdeIXVVZVGqYbMyIbyv2KUnIDVtG5UHFeTqi1h9U9gr8I05bq4+7ooqXuRKhcbxIvS0PkWVXYMbk/XKvZJn2ZZ5QGSK7uU+TJN5FFROwLeq8Y+aZYrvjUAiWGNZO6K8vaKOk9DR9RN2L9PYfU/J10vuEt91UC/CQ7CfmR58P7muxq8TBsawfJAFBqDl/ph4P96CPZW297Fiu5cJMoY1Km1p0LJEdTCQrJWaTCRHJcXgFS0k2m5pNJbFzJ6UtTLA3qATC/FcTWCjcPIiG8iM1nyGqJkLpNPTgRZQFyq/hAAB25VSoFWy4z7qzTjrPnXXi6nXryOhsakJ/kpvIwSU9LJEcZYWdy3LZde7VN3/QNs2aosUJhhcEuRXJNRgdWenUtXsFB6pUoJxjSKAIijTWpqcnGtJMcIx2P6IUaKOiFojxQxBRmLOP1wRT3Z2ktpRdFlxeBdhRtSwdmdO5dIuExxbdVJvwWLVtbTZvUQo2pB4yIeDLQO5aKD8xaBoQtivQgvLKsJywoipC8ii/JL4Hm/JX3d1cZxEUEcQX3734hccGZKBJv7s/zoNYhrmQ/HAxr+SY/fPObz1KSO/8lf+JrIoKQvdKAL4UuBLXWEcFBVLTY59IY6ZYhl1B4bZmOXuMqswwlV9RNh9jx7+VgKBwpJUYF7nWqWmrcDldx3BgIjpFxK+WunXHKOjv/7PV22snH21Grj7ChwUEnJ38Y+scMhMToCQAh55Se6Ye+Y1s/8UlrPbEpIVQRG1+3Xpi8hvQWipieImyRVpDo8qoI205yXWtIlY3XRXJtzOWcLVHaBkVyNJ0JSo5XBCUXnmlP7k1IX+eq6q3Zpjg26QOwsVmzUUhN1z6jxQuR516CiIgMobwJ0fCRJf+QJwckCAYrgxILTD0glZf4IU9jd/DyevkemQJof8+3c/51ZSNYdYgClw0K64fTH8Ud/PuPtnPPXpI778WQHBdEulFyUjDeq0AXxYi77TDblg+oqatiiO6U5FqtuleZ5yEFkVyokJCKwpxTPD0pnrZMQdY5qTvajHEObj5ldIOVsq05ZpVdctGpdupJ6+yoI4+wkaFhGxxmDgk9LBLIFfJARCaQGKP9euNi3dTW7KSNfvF62/H56y1fZdx+QelEzbVEgnzZmACamluvJdXnxis55B5GhcW0lJKrzfggA4xqsqSi8xf0pVQYn7FL/nnImKVN+Z3V3kaR2uOthj2hZZu2Z5Wmus5LOeX8ixIR8TRB76YTm/IfJi3jEQ4M6GM9UJHSo0w6WDJhhJ2APT/A7OISONAznYebq20lK7hr6ieoN7KIu+r/WWuunnu5SI6bpMSignyGK2oqO5h2MgtFBm4iKgMDJpWWB7/4jlQcCyRXkIpDBQYC0zX7TcS8nBHpSAFyN1B2IgrcRwYrMk2Pscsvu8hWLF9mg9pnvggmXh7UAmFy/7ypBmuFTQvpgSu7ZsumHn3Atnz6U9a4nx4GImKli+GWei2pOm0XlF5XpXoKXhjL10z/ruZETCiuidq0SC6U4Y1w/mKYf6KleCbkZ1TxbhTRbxOhbxWxjWtNF57Qn+8pP4KIiOzAS8xKebFEed7AsA1UBrRQriflp8OpSTsHzxLhPSb/pgTo4oC/Pd5xt6TInfLLXxr2WVvxcO6L36CLkZTFPMvrJihjcwvSOR/abZmIVBzQjUtKhxpIFBk1k6g4ysfyDMtEuQAEKf1EGVsOxYWUonyOGEWYvW7dysWcHbN6qQjuWDvh+KNt3dq1XuAPuTFJdUWym+pzr2nV1XEe3VVPi1cWaO3t9+SG6dqSCtvxta/ajquvsfY4kz2HmlGv+WEodkZWgbOVBAjQSYm7RpLkp6F0TaDkUKYiwboIfJfuxTadZ6Oub4vU6gxKVkQXEfGchPJ0wdXdsA0NjfiMegP0A0fVkLfIEwlhUUQF0SmQ3MIxbyYSYppDCBLEEdkJf7fd9o1wMEMoFU8daJxweWzrYkg1i6DL87/gS8fgBx1CprLBhcHq4gUlBpufGGjvRjMOei0QH18P3eR811YsKdl5Zx1n3/eKi+3k9cfY0uFhJ7jSQEnERm8I+U9O7ynSTrjhIGw7kbpbOJ4viRzPOMOGTjlJ2yU9pJ61pP5C1zJSz1XIXxCAHm8apWjX6vIzLofH5f4Vkd6HqlN2xcQOu25yh903M2ETjXokuIjnNpQnOhSrTO2ysR2bbNu2LbZrctpqcvP+4Ik331Le8OxNvg8bQmAJt4RY5vJQIEEnSfwvAjIhORqapYWUgVyUdFSQGB2SShp3BD9QmcjDL2ruwrTWF4HEMEFMOpgld4EbAe2Vix077tiVdtnzz7bLX3CulNwqK4qQMCtpNOvNPER2qDBKDwJl+i30PY+Hrw5pJIxvJwe0P3Dkalt+4UVWOPIIBGcgYh12CYcfAfeQWpGgrm9Myu3uZtW+VJ2xa/SwrxKZ3SqzdXuj5tMyzpVFREQcQqD4p6F3ftfYNtuxY4dNTk+Hod953z3bztMKeSXkwfQYC/lifuEX7nACXATMp+YpgKSRUCcWXaAzs0ggEBnuqKtgznIx85fCxcPv8Ay/hJGJSrguhf0FkVjXli8t2YXnrrdXvPhcO/fM9dof9vgoG/DeCL6dEKyfIxAYXxIqCVw+cszTwfk5F/uEQSFSUVK2ZaedbkOnnmx5SXFMU2+/psU/PlxTCGYzIu97mnX7rL5qn5jYaddPjtv9sxO2SyYrFSwREYcDaBpWnZm2XTu3287xXd6Xtt2n6gBZhjwHyJ/kyvnjZKxkU0j9ZY2MSI5RSEJ6YXPMvPAXLihIVC5CJ0RFMRAgO87oEA2lcIHwXP0kfsulnK09epm98vKz7eUvPt/WH3eUDVG9rWOUhaHiaItHaG8MrECcUYcDOIXvafFTJSqONScgIkiRsDKJ80MjtvKC8624arnILX0Y+VDjKa/0ht2qB3tDddo+JVP01ukJV21UIETVFnFYQh9/yrVnpyed7CampqzV7iR5R1A+8xxIfptz7csr7k40i5d/MiE5JzOl0ROqRDtPiYSccuQGITmFiczgFeiCE/uIGzoe5mGEVFijvDpWKfXs/DPW2mte/UI7/+yTbdXSEe8mxj3x2lLdSDdNRU7cxvDHBYWbpqh8O7iGe8lWus8tZQs/rjC10GZoeP1JNnj66ZYvV7xWmIoP5qegxdzDzZp9amrMbpgcsy2YpJjjERERnt8ZMmpyYsyXpvIH7WND3k+BSRrWKbzFxbyHRUE2So5RCVjrlzSj5iiQ9x0nPp1ILCMeYUM/cqPDqMiMKQppPsIk0ZAWRfkD5Z497/x19uM/8iI7dvVKEV5RSopyv0BbXmuLWauofFFcwSIlDk+Qn4NTO3E6mXJAp3VzVj6TRUkPh0SuxNUrVWzozNMsNzzg7YMwvxtyv7M1Yx/YNWq3T417N67F/PJERDw3oXzfbNq4TNexHVtsYnyHTc1WrdmiRQOZ0TPkXN4Ja2Uu5T22FytPZURyVBakCUbdpPuU0clNXMcPmovZ6FFrhIHnioWyNzuhdpVuWUetWmKveNFZ9qrvfYEN0Ti4QPcwj1lkpl+W5Fw+hhwkyWQ0RAZgrbAhb4Fk+UvBjQxUqW2ILtl2wtNSbzTMlq203okn2nYpzof1dfqSzNMrdozalursoj2IiIhDBWS72WrLdo1P2fZtm23rtq0yY6etxmAc4gH4zispEoQKB/I16+yRCck5h0FmREfanbXZ96vRZk9ERiUBTiK7Qs5KbMuLM7xioPXH+nVH2A/9f8+3S593hg0PDIjEmIya/p9apKiKWqdT60FKBdmS4QJIASTFabmJPe8Ej5sP4KntfvVGLakYUz/4Ibldq9Zm7YkNj9rXb/6yXXXDtfbZzY/Yh6d32P9ObbNrx7d5M5CIiIiFAz0QamKpnNhmO8eoiZ1JJuEOeS/kwWRxCyx7ZNQY+I9cTaHIKG/zHgmKFSPWG+CKRCA4iI4DjLUGtzGMM5xFo8KTjl9tL33hObb22CO8yYn3O3VW7HrBJkN+0ySlVp+1mhQVXcXoOjYwNGhLRpZ5A2BGVvBmJSza9jHtnOIgOc4dCNLVnRbarlWrM/boIw/at26/ze646w576OGHbHZ2xuqS3XTrmnsWERERTxl0G6tUBn0IqKHBIS+uIo8CBMg3v3mrb2eJIISeKtCnIjcIbK4NnLadrZV+hnpkckD6dVIbSkE+3b2K2l8yWLQzTzrKXnbpmbb+uKOtUix5cxCAanMVJ7JLVZhXNmgJTUa0HU4QbhPhOGWysO2Qe5KUOZDOnfq6XPv5z9h/vONt9r4PfcC+fsstktbbbWomzPEaCS4iIlswrH9NwmJifJeX3c1W6xI7SUZ7NpurTj6kE1NRf5Acqgsig/wKEniUxXW0S99RKgpKxZ6tGCnaC84/wV522Tl23NqjvIIB3QVDUUkxR2Racw7IKhAd3M+2n74PItnEjTQ44erPSQ9HDxfM002bn7D3vPed9u73/rdU3J02MTHpaYuIiFhkKG8yg9zMzJTM2B3Ke+NWZYKmZISfrJGNkgMiEm8ADImJ3Oi1QENe2r6FuR2obOhYSUpuUCR36trl9n9eco698KLTbMXyYZEe/VZJTiAlENq0JTtwHMd8HRaI1clO5wVBefETFv91x1AmR/rA6LZN9u//9c/2qc9+ykZHt8cuVxERzwDIj4wxOT1BbeyoTUxNJkeyRSYkR88DyvEhtLwWZsvyblmYsboQV14irKFi19aUm/bDLz3TXvPKS+yk1UfagCQbDYG9/E6ERDCaeaTzIuAAQTmxaZ02AQnU9d2A07xtjtYpGbpf95y30R2b7U1vfqNdd/0XrVaLE71ERDzTIN8zeO74rp2JS7bIhuTyjCrK0Ek0mZWKwzGwko6J3PIdW9OZtouqG+2yxiY7bjhvZR3zcapaHR+QMu2JAH15mzqFD/te6jan7lL4bkJkvuksBkni6IGd2NyfH+mK4LbaFVd+WObpHa4sIyIinj1ILa2skQnJdXtSRL2WiCmMp8ZCxJVc147szdoZ9VG7vLHZzu7NWEdEs/Puu2RqUgMrUuK62truYuZqR26EheT64fGKsUJdDH8AFgtmqcNZLShC71rGAS2UtT30yEP2rve8w6644oNScLE5SETE4YJMSI5JZlggIAimYB1baVU7qzNml7a22cW9CTtaaq7dbli9Pmv2+BPW3j4q/7SfE2FRXgcjYWZCdLCZLyE+VJjDmU3+YTwBDqNqAXd3UxjcHAqHKmx1Wvbt++6xd7777fa5z33aqtVq4iEiIuJwQDbmakGc4jzUtUGR2dr2pF3SGrVLOjvthFzNhvOM897zWaYwTSv1us3ee6/EX8MTwOi7uRYVFB0nJ1jLFZsTlXNYYsImBMdabk5ocBwbngBcQQjHMOf33Hu3ved977KvfPXGSHAREYchslFyvdD1aqjXsDNbO+1lvTE70xq2VKqs0Bb5iGwYlqXeqtuAPBZkqrY2bbTpRx8V+dF+Lu8jBDNtoQs4j5WpAUVmEKCzGe6QH4mWAwQoYgvldtrVTyBaBGHPZmpVu/m2W1zB3XTTTTJRa+FgRETEYYVMSC5nTRupT9il1cftpblxW5PvWRl3Jygxjwip3WbSmpY39s2L/FpTE1Z75EH5YWLpnnXqzIVK2Z7CKDzkFcaCY4Aj9+LHvLxNm12OJY3ivNLBz6XjIk3mJr3iIx+0N7/lr+2WW26yRuySFRFx2CITkjupvs1e2dwg9VazisiGZiTmDftoG4fEMqs1aq7AyvQ/1eGiFF5x26hVH3rY/dK9AyXXw2TtiOC68t2RCatdek542ZziCWpOi4u5YN76MREnQyNtHt1iH/jQ/9j7PvAeGx3d6sciIiIOX2RCcq/o7rQTCl0bKjINn2gIYhHhMJAkJIOKa7ab3me1mJia9Eq1qRlrPf64dWem3WyF0XoQncI6efmKBsbaUDgqEiBOX/lCxUQ4htybmJ60q6+7yq655iqrxfK3iIgIIROSG6YfqsiNkXqJ0ElJ/052WlotmaGdjpVzhWBSahslVpC/3uioNTY84eV2PkejTFoGxHR/EJyIEsJ0c9TPFkjUy+6In/Por9Fs2s3fuMmuvfYam5mZcZ8RERERmZAckaS1oYGYxDwQkEB7tVa74cdKdIvoQFbB3PSa0slJa0rNtbX22ebljppjrgTUHeV69GAICKYvZOeEh1pUvAyiee8D99knPvVx2759G0ciIiIiHBmSnACxicQC+YSFIZDbWtKO9t4FzP8UBv9Sbe2NG6y+aaO1GlXv/tVpNLwiArIkji7t6CDEBM6fWkI5Xc/N1Guuu8Yee+wR34+IiIhIkQnJFfiDhOAXXyW9FrTQdASi8hFFdByT1Odx6COqztS01R952NpT415h2qo3rDo57V4gOMaSS0kuVYly9XgJv3HLJrvjzm95z4aIiIiIfmRDchSQiXDolsWs9x6pOKnTo5dDy01OBsJ0MtRR2r/RgT/9o7yu+8QGs7Ed1m3WfbDMVq2ubanApELCzWF8O7EFczUoxY7dc++3bWpicUYwiIiIeG4jE5KjmYiMUbacgLzTKGpLpMcCIcGDeXlh8TZwcnNzVeYtYYsitMZ991tnctJ6IkoqMZrTVetRNie/kCHleyg5hl8iTvbHp8ftm7ff0VduFxERETGPTEiOSLx8LPkTC/l+R2RFpYATnNwY5ddH9fUwgRAJS2d8RiFpb95kDZmeDLbJJLXNas06jbaVCqVAjJAmNbMMt0TZnfYfePhh26IwsSwuIiJib8iE5CA1VJw36YDkoDo3JUObNwzNooiJBUILXvST+HdTlrI6qbnqvfdae1pqTuRIVy/K5yBIKjM6yVwPkCXnrDYadvvdd/o8DRERERF7QyYkB1U5d4nYsC3hLh/qKDEhUWnFQtEXVB3ld0F5sSisyI8tCKy1abO1pOhkx3p5XBeiE/kx/ltLqo6ptgrFogfdum2bPfb4Yx4uIiIiYm/IhOSoOXWSQ7Ul5MUIICyQGSYq0wliYgY6C4152fSRRRKSw7TNt1tWu/Mu6zZrPvtWQ8TWlJprtxo+emiY2KZozVbbHnz0IZuY2JUQZkRERMR3IxOS8474IigfNcRNS/GXjz7CcOjQnwDBcYxTMuN+jgoEqbJCXsQlZxEVXOVkN7rVmo884h36c4WcSK5mjWpNJNq2YrnkZXKTs1P26IbHYuf7iIiI/SITkgOoqbDQUb5tLUxNp6zQRg4lR9kbSg+qQ9Oh4HL5kizQvJu3UFwos+va+K3fsBw9JWSKNkVkrVpLym7QTV4qHBhpZGxszJuQREREROwLmZAcTXPdYBRB9URokBDzK9KUBPFWLFCrykH8iMx0VlRcqCWVNxEiFQ1u6ipMo9mw2qZNVn/ogeBX7o3ajCs5wrXbTdsukpuZnXVijYiIiNgXsiE5V3CBbLQ113SE3gv8pGVygeU4KZND6xfZRrhOX3itmbl+oFS02W/dbp2ZyVCxgPXLwJoiukajYTt37bJmM862FRERsX9kpORcxDkYNQQTMiU+yMxnwHcDFX/alhqjVwMyzseKIwaRGJWx3q5O+3T/sslx6z3yiJRgiL0t8us0Wz7K79TUlA/hFBEREbE/ZEJyICUrlBZlcpTN0aMBQismQyxBcag43LTJP9aplkCKlMWh2jhOOV5FRNd68CHrzU7LMzRJv9am1Wt1q9aqCkc5XkRERMS+kQnJUbsK+G1LjnWcfLTkel7ulpepGmpW5QMT1bdpNqK1sxyHnCJ1KG+lfNEJDXTHZZY+/IiOo+DqWqpWq85arS6SQ/pFRERE7AcZKblAavx6WZyrMqm2XsFrQ0PRGxSoDe1QVgel0YG/JyLs6Bih3YtA+R3qDyXYlmlae/BBs5lZr8Bot1q2a3ynzc7ORpKLiIg4ILJRcoqGygVMUsjMzVHFTOPforsHUxNqQ7n5Nv7kThkedbOpuUtYEoXyww1/valxm3nofuu0696cZHpmRuZqLSHOiIiIiH0jE5KTHhPhBFKCwERrPqSSD5RJM5FEuQVoS/tdLYSjXA3F5glJvHAcskOp0WtiemLcJh992AoiOCox0oqNiIiIiAMhE5LzrlmFhJz8zw1Tnx0/T6WD+4KUdIxVDxqUqwguTFuoTecsfuQmYoQUaW9XbTZstjZjOcaa27xZCRYpOnGGWCMiIiL2h0xILqU1NzWdfCAw/fr+/HFfcOAgrCYSg8yc3xIQBh+ouEa7aTONqpu45XrTbOMmy83OyGxtx54OERERC0ImJOcKTkzlreFcvQXioqYU0ktpjJPRI6Kblwu9FxLzNgX0hvKDBKmMmKnPWlv+CoWcDRRK1t0yak0RHQowIiIiYiHISMkRTSh7g7i8bE7bPn4cpqUO04wEgvM5HsRRkCJUFcjQIwmpEUlCmrPNqhZm+TIbKg9ZpVixrlRca+NGa09NxZrViIiIBSETkvOyNWcpERlRJiRGxUNgL2gwmK5hHlWttaLywCsQ9B8muBHBab8lc3SmXpO3jhULeRuuDMhPaCTc2Tpq1U2bfO6IWPkQERFxIGRCcpAPhATZ0dOBGlMvj0PFJaaql755/1WgbR0P9Occ5+oNyQdxVRs1a3Zkzoo0h0qDVpGp6mEUb2tqwhqjW63XaMgtIiIiYv/IhOQgMP699M1HFIHkQhMSpzE/TPkbGxAhhIWLH0qOsdGzJrWpjbo3KoYkB8oVJRLyMym8lpa65eTHYsVDRETEApAJyQWg4HphCkGhIIIqePMRyuEYPViqzuVaILWU6HxPK8IyxHmtWbdWR6ao4itL+ZVLUnHJ8QbjyymertyZwzoiIiLiQMiE5FKygoh8WCStqWhAyKHGWGC6LjUOTntB9bEmaFhLxYnE6q0Ghq+rN8xUiJICPtQibuVixdoyYyPJRURELASZkFxSreDqq0vj3nyYuAZzFbcU3iuCP5iNRaDsDpajqUhVBNd0JRhGISkWQ8d+vHCGMqTHvA8yedtaIiIiIg6EbJSctBWU5Y10KUsTudF8xMkvV7Se1Bjt3mhegqvXonpAqlnp1I+Ka1mzFWpM8VdUuFK+pLjYT0xeH4NO/nU8UGRERETE/pGZknOSS3ow5KXimFELYnIWE5zYnJy0TzMSKiDkjrLr9No+aQ1qDjf8QpIlSM3L8RSn1p5Y8SIqztVgRERExAGQCcklbGYMe54X95TyTBtImZzc/RgEp0WbUFMowwuA9Kg1bbabcscEZTThnAhORCkFSHzeLCVEYx2lmGoJJ8uIiIiIAyAbkhPfMLovJEetKjWi3jGfmgdITiYnWs/L34C7hWP0XGgpHINtos6gLsxd4mC6QncQ9/kow/pr6Rgt5BCDEREREQdCJiRHdQJt4yCkYl4KTAuqix9W+V4gNLZRcelJ2abJSavTCQSn8JS/MWhmuVj2vrDESTjvQaGtpsizRlhnv4iIiIj9IxOSw7wME9DkrICKkwJzEkqILpS+aZ3wUjBKw0I5HgqQuSEIQ3u6gWLJKlrw4KV8igfxR00rBFen7A9GjIiIiDgAMiE5iIi5UxkHruRt2yhPC1FDRSgwn4JQfxCcT0CjAwya2ey0RHShwgEiZIhzejmkys27hqEC5U63MCYhbHqlRSS5iIiIAyMTkqNSIdcNBFUuFaXk5Ij06iuX6+gPtVYQNyHwmNuBUX87IrkwW1dXien5aCPlkkhOYdy0TcgOVmROCFRcK/JbRETEApGZknMVVhSp+RypCZNpHfb0J8LqitgwPXFEzXW6UnHUnMo745hQWVFRHEWik7srOCdLLQpIGEiumZT/RURERBwImZAcpiXNRahw8NZsmKZa0tpUr3KQHy9HE6NRuUBZXLtNjWyodCASr3CQuetmapI0L79LwtKVq6F1W0s0VyMiIhaCTEgOBoPQ6HLl3bASmnKKC/zmC0e861cuaQAs8xUl54Sl/3KhGCaiJg4IMvx7KP7wG7t0RUREHAwyUnI9y0vJ+dBKIicf4hzWgqigqB6d9ilzC6xF71Tax3U7bTnLnziLiokS5Xn5vCs39+jmLbSotSu5nohRe26uuqeIiIiI/SITkkNXQXLOaQk5ob5Ch4dAUBBcWOtP/OSmqggOjoOuIDd6OQQl6FH42o9CiApLrSoLtbLJwYiIiIj9IhOSSzvlwzsQm0eLqtMaYsPJJ65xZcaIIx2vWWXdQaeJ9YqF0Ag4VXsoOFSeqzaPNGcdEWAzUXXOjBEREREHQCYkBwflvX9CXialiK2DaSoekury/qgipUB1OKLiQmd8r3CABBWmlC+7ksPUxbeH8PK5QpCKbqZCkNpkIyIiImIByITkqFXFXAWUv6G03AyVUmOByFJAbBBcOxlck1CUx3mtaqIGQ7/WgnMbpOh2sP591n0pPCfHiIiIiAUgE5KDk1BeTkJSXPli0d0hI+jITU/YS2RF74ZWu+kmrpudAjPtFwnjJq7cvGKhpW1oTvuu7ogHpah1VHIRERELRCYk5wwkqeUDY+ZDLwc3VSXnfF4HLV6dIHdUXKcNwQUKIxxmagk16L5gQ5iMLY84lMuJ6Ggw7G3kEnKMiIiIOBAyITkGtOzqj4loSigyEVwYQNMbi7gf2r1hynp5HCYtBCaFx8i/KDkSkk8VGjwnl67Hy77CYqYqTGwIHBERcTDIhOR6IinGg8uXwiz59FHN9UKn+67Um/dfFXOFsePowyryQ+WJwejMXylUvFwulLWFZiYeh+JycuQkhPdFe5HjIiIiFohsSE5ERFkZczL0ZIoGEgods3KhBgJf3oWLYZV63WCU0iaOIc4pjwujCBNOUJBg8hJRUHs0OHZzFYUYzdWIiIgFIhOSa4tzCkWpuHZbCg0TNeE5yuN8G9YK7eMgOjiKzvrUptI2jqHSQ80q/hOm47hW+PVRTnCTmesjlgQjNiIiIuKAyITkaNYRCCkpg3PlhmEJ1UFwoVKCmlVMVtdkIi6UHFMX+tyqeHUq00Zeyk3H3MVZzrdCHHP7EREREQdGNiSHOpO92mVxDhJJ+V8AGg0Ts82UhVpj3kJidOUKJJcmg3CBw9iCzxxJRFAonfMjx0VERCwUmZCckxBDnuchL6JMqCpReCg5moHQADilKJ882kmOJif4CdTmO5i52vQGxrhr8aPBGfrTb0RERMSBkQnJUZ5GzSjKDJIKGg6CEh1BTDpGjWq70/IjToPaoKKC7lxumsoP3buwdF3p6Y/Z+H10YYXgHAROe1RERERELATZkBwqTsQTzFQIjF8RERzFWOjap5cDROdkqH1MVB9/jsbDyWxeTohsOolh1rIKbeo6eZGkGJBa3IiIiIiFIhOSQ3CJuZKuWqG5CESHAqOCAbcWczk4BepXK6YcrDC0klz6zU/vKeFGLf7k0ZWcYoL9IFKZvRERERELRSYkJ0nm5XFpf1QW1FkwW0VrYkEfPw6FJgWH6VkqlqxYKHn7OKc4ZFsOJUgY/aLskrhw7WqfigcfSZh4IiIiIhaAbJSczNVQfFbyTvq0awsQOYmQWu2GKznIiboEZuNi8TI8URh/EFxAUICQIQiu/NJvldrV1F9ERETEgZEJyRVWLQ+NekVazm/E6jwXCKzRbs6REx3xB8sV7+mQjgKcUlm6AimXpcdzUnChrC4iIiJi4ciE5IbPPiuYkiKjFqapCImBLSE4eig0W01f0z1rZGDIKqg4CI6aVPFWwodeVhdIDULTdsJp7odtLa76IiIiIhaITEhu1cUXWm9kSLFJyWnfu2G5uZmzTrvlpir27JDIbbAy5DWrEBeEFUgt/AYZmGwn8PjkxNLKUa4Xuo1FRERELASZkFxl1TFWOe0ka6POqISQ7OqIrHqFvE8ETXkd/VNHhpb62HEoNQfkpRULMo4/FB4Fd+lIw9StstC2hHgYfikiIiJiociE5HKlAVt54QVWGB50cvLhltxk7cxVOAyWB2SmDoisIDiUXvCXkhtuzl/OeOmwS/MkSBxUPGASR0RERCwUmZActaQj606wyvoTvIUbTUVaoiMGzmRcONTZ8MCwzFQIK5SqhdFItOWclaizhL9ofOI7ToLhaDcfBsxMyS8iIiJiIchGydHubclyW3ruOdYbHFSsYZhymv8ydGaxWErM1OCXEYRZvGDOTdeEuGAzmbpeVpcQHMeCL5GcltjjISIi4mCQjZITIeULJRs+7gQrHbfWy+ZovNtk1JEupmoldMSXX4ZJb3eobQ09H5zgRHbedFj7dGwI8IOBB/lxcvMdNiIiIiIWhExIzhuLoOZWHGEjZ55uvUrZqagukqPt3ECpnMwDITNVJmyLwTXhsMByrt4STtNmLlCZ1hxOm5FgpjYU1ntNRERERCwQmZCck5LYqFAu2eDadZZbfYTNtpoyV80qAyNWkMqjUgETtEWbOdmcrv5EjPRuCEsaE4niGETHDgFN6lCkiZnbjU1IIiIiFo5sSA6GEnG1pdByS5bZkjNOt+LIsA2Uy0G9iaVQe81WwzqtthWLYRy5lMy82Qjx+BLK6Oioz/wQqZKD8CiT42hERETEQpENyYmBaNrBoJgDIrmVZ5xpI2vXyiUMWd7CRO22rdaoWbE0aMV8yVUdCo0fb0KiffynzUoA80AEjgt+Er6LiIiIWDAyITlXW8G2tHJl0IaPPtaWnH6a5YeHfDy5llRZtdmwUqlsA5WKjz/ng2ASBnKD1LTtNDYX1zyIP61dTWkvIiIiYiHIhOQcIqaCCK2YL1p5cMSWnna6Da091hVeS0tHpxooi/S0zeCZmKj+52VuVFzIEIXjWJIoaW4S9FtX4c3J0tvWRURERCwQ2ZGc6Ij5U1NlNnTMGhs67VQrLl+msxS8ixdk1+q2nMloQAzBuWFK+RvkBvHhAI9pw7t2yZ8VCl4W11S4SHEREREHg2zMVchJa4grGJQ5qbmltvqii21w3Rqrd5uh3VyvY41W28NAWmE8ucBpHPeQ2sE0DY5a5dmmwiH0pIhKLiIi4mCQnZJDgkFUEJ4WytwGVxwhNXeKDa1cCX1ZrSOSa7esWCp6+7lgjiqceIux4mhL582CiUvwodS9dTA9KHJWjwQXERFxkMhMyWFauqJLFrjL8kVbeuoZVjzySJvttg0NVyhT8VAO5KaFyaYTz1rYmldu1K5aF/WGqdrxEU2ikouIiDgYZKfkICq4yjedqqxNw93KoA2i5pYssbJIj3I4HyVYSo6x4QJlyX9CXvyiBgkbOuOL5BQv5XkNlF1ERETEQSATkgv0JCQblK3RN7XRaLiZueqsc21ozRpXZ7liUQrNrCOVRi0rfimIQ/x5UxL9+9SFUm2Ysx6Xtr3DfyS5iIiIg0Q2Sk4EFMxUF3FOdgyl1Go2xVk5GzniaFt+8YVWHhq0Qq7gyqzZamGJ4tXNUe+rGjZ8NGFGD3aTFnNV9FinPM9N24iIiIiFI7MyuWQrEJb+2iKxNmRF961iyVadc64VV6+yXAEyLMgcpe0bPhXACbKgJQyW2emINAsiObp1KVaIEFO1ReQRERERB4FszNWEfFj75NAip5YIrieyKhbLPgxTeWS5Lbv0BdbOF60tZebdwDBJCciPUsLcrfV2wyscUHLMdMM2FRZV+afiISIiIuJgkBnJpQuM1e20rSMlxzYNhGkPx0TSK8+7wGaOWuldvVB3tI3rkgRXgowzJ/WnsIViMGmJDVqD5Lx2Nk5iExERcZDIhOQgMwgumK1SXgyW2e54s5K8CMt7NkiZVQaX2OoXXGI2UHazFCKjEiKQnMhMBEc5HHOzUhbHFDZ0/4LaatqPQ59HREQcLDIhOTgqbRvnFQ5UKsi0pCM+ZXJegaAlLwW39rwLrXTCOp2ZZiY5a4rYWlogsK7ClqTwCglZAqofGPJ8WvFFkouIiDhYZKTkAslRFoeKQ5EB5nbIi+RAas4WBkZs6fnnWbdSdqLDHGW0YNrFQWHMBeEcFziTiL25yexcu7mIiIiIhSMbkksIrCNyo1a115GKy0vFlUo6Q0HkxXH4CvOzZMtPPs0GTj4xlMfpOGVzojAryEwNPSfkD1vWkbOWlnqsdIiIiHgSyITk0Fc09PWyOMrVUGxUNlDpgMKTB4ZHR7nlCzkrjiy35RdcYLnhQcvR88HjyMlULfpE0sH0Df5xb/e6VqchMBFFREREHAQyKpOjRrXjE9QwBwMzchUgLCodEj8+tJL8odLo0zqw7jirnLzeyY8yO69pFamJHQOZ9eY76tdEcFWmMIyIiIg4SGSj5ERKDH2OihO/SYAVRHAlERvlaxBbIEL360otbwNLV9qKc86x3NIlIjoRnOJADXIcOsO/u8tlWnFXGYcuIiIi4iCREclJuznBBcOTWlWGU6LpCAbm7kamaEzklSuUbGDt8VY5SWpOig9CVIBAcCyUzWnNflUKkXkiIiIiIg4WmZCcz4hPhUMXJcZAvpiqJTRbIDmxFWqvH6i58vKVtuS006y4fKkTXJueEoxMgn88oRC1TMmN3hERERERB4uMSI4KB5GTmCnUqoZaUoccvfmINgPpaQuPQrFUtpH1J9rACcdJzclBqRHPObE12y3v+kUJ3yxKkYqHiIiIiINEJiTXbouKkooBJzkaAEuZpaBBr9eyBorDkxaRYL5gAytX2/Cpp1phyVIPQ5u52Wbdy/iY3IZYY8f8iIiIJ4uMSK6ZjP8WGgBjqqbw8rekbI5tmpZAcME9b3mpueH1J1t53VrrMWENkYj8ygMVqNG7fTEVYURERMSTQSYk13NTtRcqCxhaSYrMSUwL7q7xRFbUlrJAbjmal2jhQGX5Khs+7VTrjQx7Fy6O09ULAYeim5VK3LNMLyIiImIhyITkvAGw1rlC0YreLSuQm2jNtzFXA+nphCJCzFkaCtOKrocC1P7ISSdb8dhjrFApu19MVBRcw5uPxNFHIiIinhyyITlqPhPyokwuMB5HArml22E/lNnJUPVyPGpkca+sPNKWnXWm5aXmGiLNtpwbMoOrWhpRxEVERDxJ5CYmJp4yhdz4yS9YsVyywaERq1QqwWx1QgsVqcHSDBNKA+hubmBNJzmaAJu1pnfao1d+xGbv/Y5ZUyZwt2XbOy27YmbanpidyNRkRUmeeeaZ9rznPc+Gh4cT13kwkkq1WrUtW7bYPffcY6Ojo8kRs1NPPdUuu+wyW7p0qe/j733ve5+Hea6AZ/GTP/mTtmrVqrnnkoLreeihh+yb3/ymzc7O2nnnnWcveMEL/NmCZrNpd999tx9n+7mM1atX25/+6Z/6O3DFFVfYF7/4RTvppJPsxS9+sS1ZssT90HLgAx/4gE1NTfn+QnHMMcfYD/3QD83dt127dtrXvvZ1e/zxx31/T/DxP+WUU+zlL3+5v59g8+bN9pWvfMV27Njh+4c6xEfJVnbIhOS+LJIrDwzY4PCIlUolJzcUm5OcRB4nSAUd296zwWtkQ+NhGsbxgHu9tm26RQ/0M1fZ+I5tVsoVbbTTtI/NzthmkVyWQGEODg76S/U7v/M79iM/8iPuPjk56YQFof7Yj/2Yk8CuXbvsyiuvtH/913/1h0C43/iN37Df/M3ftJUrV9rOnTvtnHPOcXJYDCxfvtyJ5stf/nLikg2OPPJIe8UrXmH/+Z//OUd0X//61+3v//7v7c4777SZmRmvUBoaGvIM+7a3vc3WrFljf/zHf2w333yzH3+ul5W+8Y1vtD/5kz/x6//Sl75kP/ETP+ETML32ta+1P/zDP7Rjjz3WifySSy7ZJzntC+Vy2V74whfahz/8YSe6+++/3/7qr/7KPv/5zyc+dgfv5MjIiP30T/+0/e3f/q0THff5j/7oj/xDezhgMUguE3PVa0nTseOc4BIzldI4r0kNbka/VYFRSujG5e3glEfww5BM1KyOrD/JOkcs1xuiuEp5a8iPD6yZMcickNJ3vvMd+/a3v23Lli3zhWv45Cc/6S/j93zP98wpPjLCP/zDP9iAyLxWq9kTTzzhBEAYvvjhehcHb3nLWzyTZQ3UwS233OLb6fVv3LjR7wmqhesD3CeuF6J/9NFH7brrrrPp6ennPMEBPlgQEM+Z58g11et1e+yxx1zFpvdlT7W7EECOjzzyiCt84oDAUoW2N3Bu7ivnZpswKEzeyYgnj2xIThmc4c1DRofU0mjJBP0ZIdSSpgtt52hSwmCahGN08+LgiB158cW2ROtas2EYQ4tpBGKK7Mvk2rp1q/3v//6vb0NuL3rRi9yUAGHElcWtECED/vqv/7r9wi/8QuKSPXgO/dfPdbHsCfzxlUW9HUr4u7/7O/uv//ov++AHP+gfstQkzer5ct/2dj/3Bz4uBxsmYt/IjOQYdYR1IDiXbuFgb574vI8r6kAPXj9Ocu5LP0w0zRwPknU2cuLJ1pUp1ZC/eqFodfrFPkPYsGFDsmVeBoe5ti9QvkMZH6pr3bp1+/z6YyZecMEFXq53sQh97dq13/WFx8/rX/96Nx2JZ8WKFXbCCSe42UiRQAq+9meddZZdeumlXm6G+Y2ZtFCQCVPFBthn2RtCr5b5YxA/94N0pQvnRhGdf/75nh7KL/G3N2CGk3b8kf6zzz7b3VJA8tyb/viPP/54LyIAnCd1x6zsv24U0Omnn27Pf/7z/T6TniOOOMLf0RRHH3203z8U+l/8xV/Ygw8+mBw5MHgGPOP0OfLMSUf/s9kbOM41pe/Jcccdt1uaFgLeB8IRnus78cQT58r9Ir4b+9bOBwEyKFMIgvC8yCi+m4CMxCglwUxlqDinN/wQAALUcUiu0azLjC3aivPPs5qUVLta81GDnymQMVJgvoyNjSV7u4OyF8rweOm4H7feequ9/e1v93UKXubLL7/cy1zIlBwjfjLt5z73OfvCF77g5X8Q3C/+4i/a7/3e73lGhoRQkLg//PDDXghOhQgEQRkS5XWU2WDWQBQ33HCDfexjH/NC68UEZXUvfelL3axPK2FQRaQVd64L8/a///u/7bOf/eycYuT+4OeVr3yl30/Cct8gQ9KOqqLig/h/8Ad/0OOCwCDYND7uE4T4oz/6o3bGGWd4hQH3kHMQFwX+FCtAKhDcUUcd5eWNlLdSPME9hWx4FhAncd933332l3/5l57G/YHnQBkupIZ5CZFDqDwT0n711Ve7ybsnIO2XvexlbhHwceP+UE5HmE9/+tOJr/2D63nNa15j3//93++WBs+cD99VV11l11xzzaKUaT3XkYmSK+kFTBsAg4TnnMxgO14gXirWrua86kGHnN/wreNSCW29oK2GMoIywVEXXGiDIoLZHmPUPTNKDgIikwFeWmoTv/GNb/h+P9LC4m9961u+QD4/9VM/ZT/3cz+3mzJBsVC+9su//MtesA8hkDH5qr/5zW92wkKBYKrcfvvt/sKm9+6BBx7wl5jzYzKi2H7/93/fiZCM9j//8z9Oqrzwf/3Xf+2VA1SaLCZI37Zt2+zCCy90smH5rd/6La+JpnB9/fr19n3f932uSElvCkgRhQqRU773rne9y8mNzE8l0M/8zM+4wiJ+7jlqCVJhgdAoswKch3cOcoQsKDuE5P/5n//Z47n33ns97muvvdbDYfr/0i/9kis4wHHIM007H6ADAf/ETZktJEmNLB8dnhlx8By51r2pM94F3pWbbrrJ3vOe93hcENY//dM/+UdyIeCeoTwhVq7tox/9qBM4z/x7v/d7d1OzEQGZkJx340qfKZkyJTMpMDrW+1ysycJx/SeAGIMZi4prNZkAx6wyOGyDK460JeefY1Ny6DenFhtkGJTDr/7qr9qHPvQhzzSU07z//e+3N73pTbs1JUlB+iAsXtz3vo0JfdEAAA/VSURBVPe97kY8NEWAdNL93/7t3/YvOOYGygYVg4mEgoAQXve617kqGx8fn1N1gPhRH5/4xCfsxhtvdIXyqle9yn74h3/YM81Xv/pVVxGY1mxDEGQ41MxignRBcijcFFzXO97xDs/43KvUtEL1pCBjQzooOIifyg5IHZB27jmmP+bxHXfcYR/5yEecRCAOTLNUXZOhUTaoOO4P/vkocY85hmratGmTEyDPECUFYRI34D4ebI0p5/u1X/s1J0quCeLi+aGqQKrq9lZUwfOE1FFtkCPEzseTa+KjdCAQ95/92Z85qRGWSg0IH7I++eST7dWvfrVbCBG7IxOSo2Y0lK4lg18mxBTILpDa/DrwIR+6QlLzSqNgH8lEpMg4dOVKRf7yNnj8CdZaOuxhny7wEqPEKG+BMPhyXnTRRfa7v/u7rqb2lhYyCy8amYwmKCkgNkwuQByYTemXFlICmFeQGhkYRXTuuecesDYN84oyLMrpALWkkACAdACZkC8717OY4Dn33xPIiiYYXFdKfpQXcS9SoGK5ZxBBav73Kx/8p+kmfhQqJIUfMjHt+wBkAjhn2kbxrrvu8rhJE/cVEI54AOnovycHW7mAf9Ql4Br3rIjhXHtrdwm4L/gnDtILMeMGXvKSl8yVNe4LkBgEx7WlZcXpfea8vF/pRzViHtmQnG6w/oWU1LT4XnDDOE3zAX6D57AOZCiSa9P4t6cXsCzyC5m8MLTMukuWenxPFzD9/uM//sP+/M//3JUbCo5yMEyhfaVj7pq1pGQD+jMuX2HK11L0q58UZG5MINTZ/oASwV8KMnWaidM0QpT4I1NkhYUQZn860u098W//9m+u1k477TRXapjwb33rW5Oj3w1UUqqQUX8oQa6Lpj1cO0oqBaYpyghFTNkdDX0xB7My3VFeqGjS/iu/8ivePjIthzxY8K6lJEs5Zaow9wXOxXPlOaD8MHspFkDRU/4Kce5ZgRWREcmB0GehjwTIbLzkvOcQQP8xFJyXxeElZIZOW19ieWHATcgP/7O1utUazbmM+1wGL1+/CbMvAuAl7ifHvYF4+tXevuLC397Mpj3Rf3/3FwZzL4sGz6QdsoIkMMuJ80DmGg2WKaPj3kBiKGsqACgD3bOnCR8TzFYqACBDSHT79u3J0acO7gPm9r/8y7+46Zr2lDhY9D9nnsHeKiv6kaphPqQ0MKZWF3Mfy4OPHkqO3hERuyMTkiOLBHO1D3pobrpylK5b+mcWLwgMNUdGcupDxVHzKiVHckKbOZkF3ba+0rPu51AA5VP9L3H6gnMf0q8vX3XKbQ70smO6paYY6M8saVMCMg1Kod983hsgyH4//aZiP0gnGSk1h58KKGR/97vfbX/wB3/gRERh/d6UbT+oVaVsDlAmh8lKWjF9+4HCQolDbIShtnRv5ahPFtwbymtRiVQw0AsEgutX8PsCz6n/A0LRRboPCaflevsCxRI8Vz4SFH/0FwEA7kdUct+NTEgOQFaoMh6CL3Lrz3yAnhG+hhDhPWUwD6fMzYTUHEbhERY+HFkaWonvGU/WeDLxEyYN1x9+z7jSfcqNKGBPVVda68pLmZqxlLNQ7peW06R+iSNVgqgIMgNNRiiPAYRPlV1aTgcRYgqy3h8w9/CXApNpb6Yd6aU/Z1oelWJf1wv2tk1GpAaWGmWuJ42vv6kOfveMF6DmIHfuBemm/G3PMjFqUCmLBBQzcJz7kxLCnnHv7TxgX2lIKwlQkXTng0iJv78crp/I+sEz6lfg3OuUlCDw9LmDvZ37a1/7mn8IiZ8KFCqWUn9U2FA7vL92nIcrMiE5bnOIaF51zT2jhPB8U0v6UCDCYKoG+U2GpmuYjzUnj3od/MVkmkP8Lhb4MkMcKTjnvl7SfhAu9ZeqJ66tPy5e4FQVUdFAM49UgVHJAMgc1KySaWlOQtu59HpTUuQ8lGHR+JNaU8w7/KYqBtMpTQMVF2QEOtBjRh3o3kGCmD5pRQhtzCjj6Sc6ahH/5m/+Zq72th+okf6Mm2Z20pymqf8+4IYiTPepcabMjGYjKamTUSGqPTMsHwBqJjFPuXYy/Z5AXXFu0gQJoOpospOeD3IibtKAvzS9PDuuJSUd/KfbrNMKo/6PABUfKMY3vOENc5UgAJX1Az/wA8nePPhQQOaci/uQqjE+Mv/+7/+e+ApkmJ6v//5S/oZ5DkgDDZjppYGqRRVz7VkUJxxqKOgmvTHZftLYvkHmgB6cv6KQWpKvXNFp4WVyapMf38YvL7STHN2qGj7zfqlc0ss1L+GnZqbt8zdeLxNup+9nCV5cXgraptGmLc1QvHS8+BxHMe3NdKRpCLWukA4vIQtfYZqD8MJTNgJ4kSE1+oKiKMik7FMzipLh3nB+tmmuQmanyUMKmgjQgZ6MCdHQFOMzn/mMN3uAlChsxjzD/CMuMtaP//iPe39U2s9R43sgkuM5cE7Oxf1AqdAEg8J1Gpz+/M//vJedQSj/+I//6OViKcjwtA+ENNLKEu4f5//Zn/1ZJxnuI/eB+0htImYZNaRpMw8+CnSMp18slTPUanP/STsF6/1mLGklPDWR73znO+cyfD94d0g3cUNUkCGNbVG4VFRQ202zCwY7IA20eUvbzfFecn3cM94JmhKRPtyJl+dIH17cU6KmdpjKqXSQBvxDZnxg+EihsCBwwtKUhXcGguJjRbkh7R4xf7n/kBlkyf3mY8N5ua/cAz5anIMO+6Sb+wRhpr1FaDzNdWZpmj8TgLSzRiajkNz91Tul5OhgP9+cYM/MVciJuLy8LXytg4qjLK5ls9PT1hRJDA4PKUMMul/K8jZu22x/9ff/Vwri4NoyLQS8tBR+8xLuC5BcahL2gxePF7lfwQDKq/aszSQ8xNZPlpwTQiKzUx5GZqaGcG+ERGblRUbt8sVH8fUDQsBMQc0R/rbbbvP49hbXgcB1YQaxkEbSTua5/vrr92r2QmiQB2nsB2VHZOT0YwUgKMobU9KCcLhXEFUad0pEZGYy/Z4VCoDrhQAgh32V4/ExgDAhyrSci+vBjeeAGct95PxcQz+4Zj5YnKc//YB08bGCyLhHbENepBO/EBTEgxmdlnNyT6kgoH0joNY3JTA+BpBwep24cd5+FZ0C8krNWd47ig6Ii+uB+Ci+SJXwcxn9H9GskAnJ3QXJ6QFR0aDc1We06gTay4kAsWd5iCw8DEwqyuRarabV9LIyzPng4ICVRXL4aYkAH3r0IXvj//8m2zV2eIylFRFxuGMxSG73T9VTAMorNUlTJNUP1vP+XQEojP6FSgdIL3QLC8nxRsRyGxsfs3p1d+USERERcTDIjOTgM8RyILYAtiG/PYmNJXjQdqLoQp1qWrOKKSvzRqzeas3XOEVEREQcLDIhuUBajC6SjDDCvi/h2PwSyux80V9H+5ipXpbgpiw0l0A7U9PzAzdGREREPBlkQnLeraunhR2tU6pyd99OSW6e9JwAvfKB+Vqp8qcdWCjIhygps6OgN5JcRETEU0EmJBcoTSrN+WielCCxlNxSpCTHHz0dgooLNUbUUIW4dKzTsu1joYV3RERExJNFduaqK7iA0PshDLPk+0mFQkpwvp3sg1JJKq5YkL8QB7Wr9Wbddo1n3z4uIiLi8EImJAcgLG8u4mRHtPNR7+0kXnanNcM0FUpln2AacgPENTk1Pdc7ICIi4tBHmv+zRiYk199oMhiiXqfq+0lJ3RzSPSc5XVRaFpf6gyPRfzvGx6xWi11UIiIOF6RjL2aNbEhOpiYILeW0zJmuWnsbOS2u9MJmQE8nD8P6pMMuOXQcM3fL6FZvKBwREXF4YG89PbJAJiRXrpScxNI/VCe0FdRnQmDsJOTHr8+lqgWC4y+PsqOMTgtdazZsCPOaRkREHB6gP+5iIBOSo8+pVyKkC3CmC53x5wFpoegSt34/iT+IbXpm2jZs3BBJLiLiMEL/SC5ZIhOSq4wknZypTRXJ8QfgrbTHQzJGSYD2UW6MQlLQ2kvk5Bd/nVbbxsd32vhErHSIiDicwIADi4FMSG5k2RInKNFa0lwEZcY/pW6BwKzHrFzyE/jPt0MPiGTCGxEeowM36g3bsm3Upqb3P6JtRETEoQWGjFoMZEJyA8MDWtLBIkM/VKe3RJ1BbJAZCDpPPpzkAuNxjB4OzLnaqNdt8+iW3UZJjYiIOLSBqcp4houBTEgOLD9qJVyGbgu/aRmbk5rznAP30FiYHhKhW5cPf95qWrPVsGpj1raI5CC9iIiIwwOLOUdwZiS3YrVILlFmEFnCceg5OC+hugT4g+S0xlSF0NrtlnVEdNVa1cZ2julwn/+IiIhDGoxovVjIjOQwWVesDpOouJjTTzBVZZyK0ILCkytOTnCB5LwsTiTXYZ4HrWdFctM+OUkkuYiIwwFMmr1YpirIjOTAkeuOQsaJzgpOUaHvKuSm0/TkLkevZNDS7QSC63VkrrY6WiC5tk3PTlu1OhMIMiIi4pAHM6wtJjIluZHlS2zFUSuDXKMCAhWXkFouqXgA7Hek5joiNeZXbaeLlNzE1KTVY6VDRMRhgde+9rU+h8liIlOSA2tOXGO5AuoNRZdGT9OSYL52pN7SgTJ9UmkRXc8XBtBs2/jkhLWYTT8iIuKQBpP2MK3iYiNzkitVyiK6Y91UlYbzMjlUHeaqbzmhieRYMxyTbzMEesea7aaNS8mF2fQjIiIOZTBnLTPWLTYyJzmw6uhVduSaI30bYgs/WlHh4AouEBzqzcvkOqEpSbPVspmZaVd4ERERhy5e//rX2+te97pkb3GxKCQH1p68zpatXBbUnFuvoRa1K5XWbVEel5irEF6v5cqv0Wx4v9XYZzUi4tAFk5G/9a1vTfYWH4tGcmD92SfayLKRpB5CpCYimzdPRWReu6p9bVNeR4VDtV7z7YiIiEMPL3zhC+39739/svf0YFFJLpfP2ykXnGZLVy0L5CYyQ8mZtb2sricVpx9XcaEiomftltwiIiIOOaDgPv7xj9vAQDKgx9OERSU5ANGddP6pdsS6o0R0gcx64jkmqglNSFBx+ETJ1WSyNqOSi4g4xEAZ3JVXXvm0ExxYdJJLccKZJ9op557qzUvaYjmvdIDMkoXVTLVmzVYkuYiIQwU0E3nb2972tJbB7YmnjeTA0Sessef/wOV2zPHHStFhrs4THX1dqXhot6O5GhFxKICGvrfeeuvTVou6LzytJAcGhgbt3MufZ5e96uV2zPp186otl3cVF2tWIyKe26Av6rXXXmtvf/vbn5Z2cAdCbmJi4hm1DacnJm3zw4/bpsc22kev/oxd/YVrvBlJRETEcweMB8dwSYwmspid7Z8MnnGS68fmzZvtxhtvtNtvv93uv/9+27hxo+3cudOq1Wosp4uIeIbBEGpMG8isWkw6A7ExZDkj+j7biK0fzyqSi4iIiMgWZv8P+ofVL6l1nyIAAAAASUVORK5CYII=;" vertex="1" parent="1">
                    <mxGeometry x="696" y="136" width="89" height="94.69" as="geometry"/>
                </mxCell>
                <mxCell id="4" value="Map of Kadena" style="strokeWidth=1;shadow=0;dashed=0;align=center;html=1;shape=mxgraph.mockup.buttons.button;strokeColor=#666666;fontColor=#ffffff;mainText=;buttonStyle=round;fontSize=17;fontStyle=1;fillColor=#008cff;whiteSpace=wrap;" vertex="1" parent="1">
                    <mxGeometry x="192" y="280" width="88" height="42" as="geometry"/>
                </mxCell>
                <mxCell id="5" value="Typhoon Resorces" style="strokeWidth=1;shadow=0;dashed=0;align=center;html=1;shape=mxgraph.mockup.buttons.button;strokeColor=#666666;fontColor=#ffffff;mainText=;buttonStyle=round;fontSize=17;fontStyle=1;fillColor=#008cff;whiteSpace=wrap;" vertex="1" parent="1">
                    <mxGeometry x="56" y="280" width="96" height="42" as="geometry"/>
                </mxCell>
                <mxCell id="6" value="Private Organizations" style="strokeWidth=1;shadow=0;dashed=0;align=center;html=1;shape=mxgraph.mockup.buttons.button;strokeColor=#666666;fontColor=#ffffff;mainText=;buttonStyle=round;fontSize=17;fontStyle=1;fillColor=#008cff;whiteSpace=wrap;" vertex="1" parent="1">
                    <mxGeometry x="56" y="344" width="560" height="82" as="geometry"/>
                </mxCell>
                <mxCell id="7" value="Useful resources/ WG CC Message" style="strokeWidth=1;shadow=0;dashed=0;align=center;html=1;shape=mxgraph.mockup.buttons.button;strokeColor=#666666;fontColor=#ffffff;mainText=;buttonStyle=round;fontSize=17;fontStyle=1;fillColor=#008cff;whiteSpace=wrap;" vertex="1" parent="1">
                    <mxGeometry x="665.5" y="256" width="150" height="192" as="geometry"/>
                </mxCell>
            </root>
        </mxGraphModel>
    </diagram>
</mxfile>